<svg width="24" height="24" viewBox="0 0 24 24" fill="none" xmlns="http://www.w3.org/2000/svg">
<path d="M7 12C7 11.4477 7.44772 11 8 11H13.5858L11.2929 8.70711C10.9024 8.31658 10.9024 7.68342 11.2929 7.29289C11.6834 6.90237 12.3166 6.90237 12.7071 7.29289L16.7064 11.2922C16.7088 11.2946 16.7112 11.297 16.7136 11.2995C16.9004 11.4896 16.9992 11.7301 17 11.997L17 12L17 12.003C16.9992 12.2746 16.8901 12.5208 16.7136 12.7005C16.7112 12.703 16.7088 12.7054 16.7064 12.7078L12.7071 16.7071C12.3166 17.0976 11.6834 17.0976 11.2929 16.7071C10.9024 16.3166 10.9024 15.6834 11.2929 15.2929L13.5858 13H8C7.44772 13 7 12.5523 7 12Z" />
<path d="M12 2C6.47715 2 2 6.47715 2 12C2 17.5228 6.47715 22 12 22C17.5228 22 22 17.5228 22 12C22 6.47715 17.5228 2 12 2ZM4 12C4 7.58172 7.58172 4 12 4C16.4183 4 20 7.58172 20 12C20 16.4183 16.4183 20 12 20C7.58172 20 4 16.4183 4 12Z" />
</svg>
