<svg width="24" height="24" viewBox="0 0 24 24" fill="none" xmlns="http://www.w3.org/2000/svg">
<path d="M12 3C11.5858 3 11.25 3.33579 11.25 3.75C11.25 4.16421 11.5858 4.5 12 4.5C16.1421 4.5 19.5 7.85786 19.5 12C19.5 16.1421 16.1421 19.5 12 19.5C7.85786 19.5 4.5 16.1421 4.5 12C4.5 9.5471 5.67725 7.36845 7.5 5.99934V8.25244C7.5 8.66666 7.83579 9.00244 8.25 9.00244C8.66421 9.00244 9 8.66666 9 8.25244V4.75C9 4.33579 8.66421 4 8.25 4H4.75391C4.33969 4 4.00391 4.33579 4.00391 4.75C4.00391 5.16421 4.33969 5.5 4.75391 5.5H5.77517C4.0656 7.1377 3 9.44414 3 12C3 16.9706 7.02944 21 12 21C16.9706 21 21 16.9706 21 12C21 7.02944 16.9706 3 12 3Z" />
</svg>
