<svg width="24" height="24" viewBox="0 0 24 24" fill="none" xmlns="http://www.w3.org/2000/svg">
<path d="M18.7071 12.7071C18.8946 12.5196 19 12.2652 19 12C19 11.7348 18.8946 11.4804 18.7071 11.2929L13.7071 6.29289C13.3166 5.90237 12.6834 5.90237 12.2929 6.29289C11.9024 6.68342 11.9024 7.31658 12.2929 7.70711L15.5858 11H7C6.44771 11 6 11.4477 6 12C6 12.5523 6.44771 13 7 13H15.5858L12.2929 16.2929C11.9024 16.6834 11.9024 17.3166 12.2929 17.7071C12.6834 18.0976 13.3166 18.0976 13.7071 17.7071L18.7071 12.7071Z" />
</svg>
