<svg width="24" height="24" viewBox="0 0 24 24" fill="none" xmlns="http://www.w3.org/2000/svg">
<path fill-rule="evenodd" clip-rule="evenodd" d="M12.7071 5.29289C12.5196 5.10536 12.2652 5 12 5C11.7348 5 11.4804 5.10536 11.2929 5.29289L6.29289 10.2929C5.90237 10.6834 5.90237 11.3166 6.29289 11.7071C6.68342 12.0976 7.31658 12.0976 7.70711 11.7071L11 8.41421V17C11 17.5523 11.4477 18 12 18C12.5523 18 13 17.5523 13 17V8.41421L16.2929 11.7071C16.6834 12.0976 17.3166 12.0976 17.7071 11.7071C18.0976 11.3166 18.0976 10.6834 17.7071 10.2929L12.7071 5.29289Z" />
</svg>
