<svg width="24" height="24" viewBox="0 0 24 24" fill="none" xmlns="http://www.w3.org/2000/svg">
<path fill-rule="evenodd" clip-rule="evenodd" d="M3.53237 19.0219C3.35143 19.3184 3.15938 19.6074 2.95679 19.8883C5.15657 22.408 8.39235 24 12 24C18.6274 24 24 18.6274 24 12C24 5.37258 18.6274 0 12 0C8.39235 0 5.15657 1.59196 2.95679 4.1117C3.15938 4.3926 3.35143 4.68161 3.53237 4.97815C5.55009 2.54771 8.59427 1 12 1C18.0751 1 23 5.92487 23 12C23 18.0751 18.0751 23 12 23C8.59427 23 5.55009 21.4523 3.53237 19.0219Z"/>
</svg>
