<svg width="24" height="24" viewBox="0 0 24 24" fill="none" xmlns="http://www.w3.org/2000/svg">
<path d="M7 9C7 8.44772 7.44772 8 8 8H16C16.5523 8 17 8.44772 17 9C17 9.55228 16.5523 10 16 10H8C7.44772 10 7 9.55228 7 9Z"/>
<path d="M15.5 17C16.3284 17 17 16.3284 17 15.5C17 14.6716 16.3284 14 15.5 14C14.6716 14 14 14.6716 14 15.5C14 16.3284 14.6716 17 15.5 17Z"/>
<path d="M8 2C8.55229 2 9 2.44772 9 3V4H15V3C15 2.44772 15.4477 2 16 2C16.5523 2 17 2.44772 17 3V4.02714C17.0868 4.03193 17.1707 4.03756 17.2518 4.04419C17.8139 4.09012 18.3306 4.18868 18.816 4.43597C19.5686 4.81947 20.1805 5.43139 20.564 6.18404C20.8113 6.66937 20.9099 7.18608 20.9558 7.74817C21 8.28936 21 8.95372 21 9.75868V15.2413C21 16.0463 21 16.7106 20.9558 17.2518C20.9099 17.8139 20.8113 18.3306 20.564 18.816C20.1805 19.5686 19.5686 20.1805 18.816 20.564C18.3306 20.8113 17.8139 20.9099 17.2518 20.9558C16.7106 21 16.0463 21 15.2413 21H8.75868C7.95372 21 7.28937 21 6.74818 20.9558C6.18608 20.9099 5.66937 20.8113 5.18404 20.564C4.43139 20.1805 3.81947 19.5686 3.43598 18.816C3.18868 18.3306 3.09012 17.8139 3.04419 17.2518C2.99998 16.7106 2.99999 16.0463 3 15.2413V9.7587C2.99999 8.95374 2.99998 8.28936 3.04419 7.74817C3.09012 7.18608 3.18868 6.66937 3.43598 6.18404C3.81947 5.43139 4.43139 4.81947 5.18404 4.43597C5.66937 4.18868 6.18608 4.09012 6.74818 4.04419C6.82933 4.03756 6.91325 4.03193 7 4.02714V3C7 2.44772 7.44772 2 8 2ZM6.91104 6.03755C6.47262 6.07337 6.24842 6.1383 6.09202 6.21799C5.7157 6.40973 5.40974 6.71569 5.21799 7.09202C5.1383 7.24842 5.07337 7.47262 5.03755 7.91104C5.00078 8.36113 5 8.94342 5 9.8V15.2C5 16.0566 5.00078 16.6389 5.03755 17.089C5.07337 17.5274 5.1383 17.7516 5.21799 17.908C5.40974 18.2843 5.7157 18.5903 6.09202 18.782C6.24842 18.8617 6.47262 18.9266 6.91104 18.9624C7.36113 18.9992 7.94342 19 8.8 19H15.2C16.0566 19 16.6389 18.9992 17.089 18.9624C17.5274 18.9266 17.7516 18.8617 17.908 18.782C18.2843 18.5903 18.5903 18.2843 18.782 17.908C18.8617 17.7516 18.9266 17.5274 18.9624 17.089C18.9992 16.6389 19 16.0566 19 15.2V9.8C19 8.94342 18.9992 8.36113 18.9624 7.91104C18.9266 7.47262 18.8617 7.24842 18.782 7.09202C18.5903 6.71569 18.2843 6.40973 17.908 6.21799C17.7516 6.1383 17.5274 6.07337 17.089 6.03755C16.6389 6.00078 16.0566 6 15.2 6H8.8C7.94342 6 7.36113 6.00078 6.91104 6.03755Z"/>
</svg>
