<svg width="24" height="24" viewBox="0 0 24 24" fill="none" xmlns="http://www.w3.org/2000/svg">
<path d="M9 3C9 2.44772 8.55229 2 8 2C7.44772 2 7 2.44772 7 3V4.02714C6.91325 4.03193 6.82933 4.03756 6.74818 4.04419C6.18608 4.09012 5.66938 4.18868 5.18404 4.43597C4.43139 4.81947 3.81947 5.43139 3.43598 6.18404C3.18868 6.66937 3.09012 7.18608 3.0442 7.74817C2.99998 8.28936 2.99999 8.95373 3 9.75867V15.2413C2.99999 16.0463 2.99998 16.7106 3.0442 17.2518C3.09012 17.8139 3.18868 18.3306 3.43598 18.816C3.81947 19.5686 4.43139 20.1805 5.18404 20.564C5.66938 20.8113 6.18608 20.9099 6.74818 20.9558C7.28937 21 7.95372 21 8.75868 21H15.2413C16.0463 21 16.7106 21 17.2518 20.9558C17.8139 20.9099 18.3306 20.8113 18.816 20.564C19.5686 20.1805 20.1805 19.5686 20.564 18.816C20.8113 18.3306 20.9099 17.8139 20.9558 17.2518C21 16.7106 21 16.0463 21 15.2413V9.75868C21 8.95372 21 8.28936 20.9558 7.74817C20.9099 7.18608 20.8113 6.66937 20.564 6.18404C20.1805 5.43139 19.5686 4.81947 18.816 4.43597C18.3306 4.18868 17.8139 4.09012 17.2518 4.04419C17.1707 4.03756 17.0868 4.03193 17 4.02714V3C17 2.44772 16.5523 2 16 2C15.4477 2 15 2.44772 15 3V4H9V3ZM7.5 10.5C8.32843 10.5 9 11.1716 9 12C9 12.8284 8.32843 13.5 7.5 13.5C6.67157 13.5 6 12.8284 6 12C6 11.1716 6.67157 10.5 7.5 10.5ZM9 16.5C9 17.3284 8.32843 18 7.5 18C6.67157 18 6 17.3284 6 16.5C6 15.6716 6.67157 15 7.5 15C8.32843 15 9 15.6716 9 16.5ZM13.5 16.5C13.5 17.3284 12.8284 18 12 18C11.1716 18 10.5 17.3284 10.5 16.5C10.5 15.6716 11.1716 15 12 15C12.8284 15 13.5 15.6716 13.5 16.5ZM13.5 12C13.5 12.8284 12.8284 13.5 12 13.5C11.1716 13.5 10.5 12.8284 10.5 12C10.5 11.1716 11.1716 10.5 12 10.5C12.8284 10.5 13.5 11.1716 13.5 12ZM16.5 10.5C17.3284 10.5 18 11.1716 18 12C18 12.8284 17.3284 13.5 16.5 13.5C15.6716 13.5 15 12.8284 15 12C15 11.1716 15.6716 10.5 16.5 10.5ZM6.75 7H17.25C17.6642 7 18 7.33579 18 7.75C18 8.16421 17.6642 8.5 17.25 8.5H6.75C6.33579 8.5 6 8.16421 6 7.75C6 7.33579 6.33579 7 6.75 7Z"/>
</svg>
