<svg width="24" height="24" viewBox="0 0 24 24" fill="none" xmlns="http://www.w3.org/2000/svg">
<path d="M8 2C8.55229 2 9 2.44772 9 3V4H15V3C15 2.44772 15.4477 2 16 2C16.5523 2 17 2.44772 17 3V4.02714C17.0868 4.03193 17.1707 4.03756 17.2518 4.04419C17.8139 4.09012 18.3306 4.18868 18.816 4.43597C19.5686 4.81947 20.1805 5.43139 20.564 6.18404C20.8113 6.66937 20.9099 7.18608 20.9558 7.74817C21 8.28936 21 8.95372 21 9.75868V15.2413C21 16.0463 21 16.7106 20.9558 17.2518C20.9099 17.8139 20.8113 18.3306 20.564 18.816C20.1805 19.5686 19.5686 20.1805 18.816 20.564C18.3306 20.8113 17.8139 20.9099 17.2518 20.9558C16.7106 21 16.0463 21 15.2413 21H8.75868C7.95372 21 7.28937 21 6.74818 20.9558C6.18608 20.9099 5.66938 20.8113 5.18404 20.564C4.43139 20.1805 3.81947 19.5686 3.43598 18.816C3.18869 18.3306 3.09012 17.8139 3.0442 17.2518C2.99998 16.7106 2.99999 16.0463 3 15.2413V9.75868C2.99999 8.95374 2.99998 8.28936 3.0442 7.74817C3.09012 7.18608 3.18869 6.66937 3.43598 6.18404C3.81947 5.43139 4.43139 4.81947 5.18404 4.43597C5.66938 4.18868 6.18608 4.09012 6.74818 4.04419C6.82933 4.03756 6.91325 4.03193 7 4.02714V3C7 2.44772 7.44772 2 8 2ZM15 16.5C15 17.3284 15.6716 18 16.5 18C17.3284 18 18 17.3284 18 16.5C18 15.6716 17.3284 15 16.5 15C15.6716 15 15 15.6716 15 16.5ZM6.75 7C6.33579 7 6 7.33579 6 7.75C6 8.16421 6.33579 8.5 6.75 8.5H17.25C17.6642 8.5 18 8.16421 18 7.75C18 7.33579 17.6642 7 17.25 7H6.75Z"/>
</svg>
