<svg width="24" height="24" viewBox="0 0 24 24" fill="none" xmlns="http://www.w3.org/2000/svg">
<path d="M8 2C8.55229 2 9 2.44772 9 3V4H15V3C15 2.44772 15.4477 2 16 2C16.5523 2 17 2.44772 17 3V4.02714C17.0868 4.03193 17.1707 4.03756 17.2518 4.04419C17.8139 4.09012 18.3306 4.18868 18.816 4.43597C19.5686 4.81947 20.1805 5.43139 20.564 6.18404C20.8113 6.66937 20.9099 7.18608 20.9558 7.74817C21 8.28936 21 8.95372 21 9.75868V15.2413C21 16.0463 21 16.7106 20.9558 17.2518C20.9099 17.8139 20.8113 18.3306 20.564 18.816C20.1805 19.5686 19.5686 20.1805 18.816 20.564C18.3306 20.8113 17.8139 20.9099 17.2518 20.9558C16.7106 21 16.0463 21 15.2413 21H8.75868C7.95372 21 7.28937 21 6.74818 20.9558C6.18608 20.9099 5.66938 20.8113 5.18404 20.564C4.43139 20.1805 3.81947 19.5686 3.43598 18.816C3.18869 18.3306 3.09012 17.8139 3.0442 17.2518C2.99998 16.7106 2.99999 16.0463 3 15.2413V9.75868C2.99999 8.95374 2.99998 8.28936 3.0442 7.74817C3.09012 7.18608 3.18869 6.66937 3.43598 6.18404C3.81947 5.43139 4.43139 4.81947 5.18404 4.43597C5.66938 4.18868 6.18608 4.09012 6.74818 4.04419C6.82933 4.03756 6.91325 4.03193 7 4.02714V3C7 2.44772 7.44772 2 8 2ZM6.75 7C6.33579 7 6 7.33579 6 7.75C6 8.16421 6.33579 8.5 6.75 8.5H17.25C17.6642 8.5 18 8.16421 18 7.75C18 7.33579 17.6642 7 17.25 7H6.75Z"/>
<path d="M9.0293 18.1406C7.8208 18.1406 7.07812 17.6177 6.7793 16.9937C6.70898 16.8486 6.67822 16.708 6.67822 16.5762C6.67822 16.2334 6.89795 16.0181 7.2627 16.0181C7.52637 16.0181 7.69336 16.1235 7.8252 16.3652C8.04932 16.8091 8.39209 17.0728 9.05127 17.0728C9.70166 17.0728 10.1499 16.6948 10.1499 16.1675C10.1543 15.5522 9.70166 15.2095 8.93262 15.2095H8.65576C8.33496 15.2095 8.15039 15.0205 8.15039 14.7349C8.15039 14.458 8.33496 14.2646 8.65576 14.2646H8.91504C9.57861 14.2646 10.0093 13.9043 10.0093 13.3857C10.0093 12.876 9.6665 12.5376 9.0249 12.5376C8.48877 12.5376 8.16357 12.7617 7.95703 13.21C7.81201 13.5088 7.6582 13.6187 7.35938 13.6187C6.99023 13.6187 6.80127 13.4033 6.80127 13.0825C6.80127 12.9331 6.83203 12.8057 6.89795 12.6562C7.1792 12.0366 7.8999 11.5181 9.02051 11.5181C10.3608 11.5181 11.2661 12.1816 11.2661 13.1968C11.2661 14.001 10.6904 14.5283 9.94336 14.6821V14.7085C10.8882 14.7964 11.499 15.3501 11.499 16.2246C11.499 17.376 10.5015 18.1406 9.0293 18.1406ZM14.8213 18.1406C13.2129 18.1406 12.2329 16.8706 12.2329 14.8184C12.2329 12.7705 13.2217 11.5137 14.8213 11.5137C16.4209 11.5137 17.4053 12.7661 17.4053 14.814C17.4053 16.8618 16.4297 18.1406 14.8213 18.1406ZM14.8213 17.0771C15.6035 17.0771 16.0562 16.2729 16.0562 14.8184C16.0562 13.3726 15.5991 12.5771 14.8213 12.5771C14.0479 12.5771 13.582 13.377 13.582 14.8184C13.582 16.2729 14.0391 17.0771 14.8213 17.0771Z" fill="white"/>
</svg>
