<svg width="24" height="24" viewBox="0 0 24 24" fill="none" xmlns="http://www.w3.org/2000/svg">
<path d="M8.25296 12.75C8.94332 12.75 9.50296 12.1904 9.50296 11.5C9.50296 10.8096 8.94332 10.25 8.25296 10.25C7.5626 10.25 7.00296 10.8096 7.00296 11.5C7.00296 12.1904 7.5626 12.75 8.25296 12.75Z" />
<path d="M12.4962 12.75C13.1865 12.75 13.7462 12.1904 13.7462 11.5C13.7462 10.8096 13.1865 10.25 12.4962 10.25C11.8058 10.25 11.2462 10.8096 11.2462 11.5C11.2462 12.1904 11.8058 12.75 12.4962 12.75Z" />
<path d="M18.0024 11.5C18.0024 12.1904 17.4427 12.75 16.7524 12.75C16.062 12.75 15.5024 12.1904 15.5024 11.5C15.5024 10.8096 16.062 10.25 16.7524 10.25C17.4427 10.25 18.0024 10.8096 18.0024 11.5Z" />
<path d="M12.4405 3.0152C7.3273 3.0152 3.03624 6.74151 3.03624 11.5085C3.03624 14.2855 4.50687 16.7244 6.73571 18.2622C6.72499 18.2835 6.71333 18.3058 6.70065 18.3291C6.59482 18.5232 6.44434 18.7377 6.2671 18.9575C5.91273 19.3971 5.49956 19.7988 5.2608 20.0196C4.69423 20.5435 5.0625 21.5141 5.85695 21.4969C8.79438 21.4332 10.5551 20.4045 11.2139 19.9302C11.6157 19.9775 12.0251 20.0018 12.4405 20.0018C17.5537 20.0018 21.8448 16.2755 21.8448 11.5085C21.8448 6.74151 17.5537 3.0152 12.4405 3.0152ZM4.53624 11.5085C4.53624 7.72247 7.99448 4.5152 12.4405 4.5152C16.8865 4.5152 20.3448 7.72247 20.3448 11.5085C20.3448 15.2945 16.8865 18.5018 12.4405 18.5018C12.0024 18.5018 11.5731 18.4703 11.1552 18.4098C10.916 18.3752 10.672 18.4427 10.4836 18.6006C10.3579 18.7061 9.38258 19.4831 7.48859 19.8316C7.68036 19.5886 7.86801 19.3215 8.0176 19.0472C8.176 18.7567 8.32225 18.4033 8.34543 18.0297C8.36682 17.6851 8.17952 17.4042 7.94278 17.2589C5.86002 15.9803 4.53624 13.8653 4.53624 11.5085Z" />
</svg>
