<svg width="24" height="24" viewBox="0 0 24 24" fill="none" xmlns="http://www.w3.org/2000/svg">
<path d="M12.5 20C17.7467 20 22 16.1944 22 11.5C22 6.80558 17.7467 3 12.5 3C7.25329 3 3 6.80558 3 11.5C3 14.4327 4.65991 17.0184 7.18496 18.5462C7.02788 19.9797 5.94164 20.8914 5.36226 21.2814C5.27472 21.3403 5.31886 21.4957 5.42429 21.4914C7.72884 21.3963 9.12033 20.5319 9.9369 19.687C10.7523 19.891 11.6119 20 12.5 20ZM7.75 12.75C7.05964 12.75 6.5 12.1904 6.5 11.5C6.5 10.8096 7.05964 10.25 7.75 10.25C8.44036 10.25 9 10.8096 9 11.5C9 12.1904 8.44036 12.75 7.75 12.75ZM12.4962 12.75C11.8058 12.75 11.2462 12.1904 11.2462 11.5C11.2462 10.8096 11.8058 10.25 12.4962 10.25C13.1865 10.25 13.7462 10.8096 13.7462 11.5C13.7462 12.1904 13.1865 12.75 12.4962 12.75ZM18.5 11.5C18.5 12.1904 17.9404 12.75 17.25 12.75C16.5596 12.75 16 12.1904 16 11.5C16 10.8096 16.5596 10.25 17.25 10.25C17.9404 10.25 18.5 10.8096 18.5 11.5Z" />
</svg>
