<svg width="24" height="24" viewBox="0 0 24 24" fill="none" xmlns="http://www.w3.org/2000/svg">
<path d="M8.649 2.05941C9.51985 1.99999 10.5965 2 11.9632 2H12.0369C13.4035 2 14.4801 1.99999 15.351 2.05941C16.2387 2.11997 16.9853 2.2456 17.6788 2.53284C19.394 3.2433 20.7567 4.60602 21.4672 6.32122C21.7544 7.01469 21.88 7.76134 21.9406 8.649C22 9.51986 22 10.5965 22 11.9631V12.0369C22 13.4035 22 14.4801 21.9406 15.351C21.88 16.2387 21.7544 16.9853 21.4672 17.6788C20.7567 19.394 19.394 20.7567 17.6788 21.4672C16.9853 21.7544 16.2387 21.88 15.351 21.9406C14.4801 22 13.4035 22 12.0369 22H11.9631C10.5965 22 9.51986 22 8.649 21.9406C7.76134 21.88 7.01469 21.7544 6.32122 21.4672C4.60602 20.7567 3.2433 19.394 2.53284 17.6788C2.2456 16.9853 2.11997 16.2387 2.05941 15.351C1.99999 14.4801 2 13.4035 2 12.0368V11.9631C2 10.5965 1.99999 9.51985 2.05941 8.649C2.11997 7.76134 2.2456 7.01469 2.53284 6.32122C3.2433 4.60602 4.60602 3.2433 6.32122 2.53284C7.01469 2.2456 7.76134 2.11997 8.649 2.05941ZM8.78514 4.05477C7.99931 4.10839 7.49574 4.21112 7.08658 4.3806C5.86144 4.88807 4.88807 5.86144 4.3806 7.08658C4.21112 7.49574 4.10839 7.99931 4.05477 8.78514C4.00054 9.57995 4 10.5885 4 12C4 13.4115 4.00054 14.4201 4.05477 15.2149C4.10839 16.0007 4.21112 16.5043 4.3806 16.9134C4.88807 18.1386 5.86144 19.1119 7.08658 19.6194C7.49574 19.7889 7.99931 19.8916 8.78514 19.9452C9.57995 19.9995 10.5885 20 12 20C13.4115 20 14.4201 19.9995 15.2149 19.9452C16.0007 19.8916 16.5043 19.7889 16.9134 19.6194C18.1386 19.1119 19.1119 18.1386 19.6194 16.9134C19.7889 16.5043 19.8916 16.0007 19.9452 15.2149C19.9995 14.4201 20 13.4115 20 12C20 10.5885 19.9995 9.57995 19.9452 8.78514C19.8916 7.99931 19.7889 7.49574 19.6194 7.08658C19.1119 5.86144 18.1386 4.88807 16.9134 4.3806C16.5043 4.21112 16.0007 4.10839 15.2149 4.05477C14.4201 4.00054 13.4115 4 12 4C10.5885 4 9.57995 4.00054 8.78514 4.05477Z" />
<path d="M11.7071 8.29289C11.3166 7.90237 10.6834 7.90237 10.2929 8.29289C9.90237 8.68342 9.90237 9.31658 10.2929 9.70711L12.5858 12L10.2929 14.2929C9.90237 14.6834 9.90237 15.3166 10.2929 15.7071C10.6834 16.0976 11.3166 16.0976 11.7071 15.7071L14.7071 12.7071C15.0976 12.3166 15.0976 11.6834 14.7071 11.2929L11.7071 8.29289Z" />
</svg>
