<svg width="24" height="24" viewBox="0 0 24 24" fill="none" xmlns="http://www.w3.org/2000/svg">
<path d="M23 12C23 18.0751 18.0751 23 12 23C5.92487 23 1 18.0751 1 12C1 5.92487 5.92487 1 12 1C18.0751 1 23 5.92487 23 12ZM17.705 10.2111C18.0955 9.82058 18.0955 9.18741 17.705 8.79689C17.3144 8.40637 16.6813 8.40637 16.2908 8.79689L10.5019 14.5857L7.7071 11.7909C7.31657 11.4004 6.68341 11.4004 6.29289 11.7909C5.90236 12.1814 5.90236 12.8146 6.29289 13.2051L9.79483 16.7071C10.1854 17.0976 10.8185 17.0976 11.209 16.707L17.705 10.2111Z" />
</svg>
