<svg width="24" height="24" viewBox="0 0 24 24" fill="none" xmlns="http://www.w3.org/2000/svg">
<path d="M11.9562 3H12.0438C13.4068 2.99999 14.4908 2.99999 15.3654 3.07144C16.261 3.14462 17.0247 3.29768 17.7239 3.65396C18.8529 4.2292 19.7708 5.14708 20.346 6.27606C20.7023 6.9753 20.8554 7.73898 20.9286 8.63458C21 9.50916 21 10.5932 21 11.9562V12.0438C21 13.4068 21 14.4908 20.9286 15.3654C20.8554 16.261 20.7023 17.0247 20.346 17.7239C19.7708 18.8529 18.8529 19.7708 17.7239 20.346C17.0247 20.7023 16.261 20.8554 15.3654 20.9286C14.4908 21 13.4068 21 12.0438 21H11.9562C10.5932 21 9.50916 21 8.63458 20.9286C7.73898 20.8554 6.9753 20.7023 6.27606 20.346C5.14708 19.7708 4.2292 18.8529 3.65396 17.7239C3.29768 17.0247 3.14462 16.261 3.07144 15.3654C2.99999 14.4908 2.99999 13.4068 3 12.0438V11.9562C2.99999 10.5932 2.99999 9.50917 3.07144 8.63458C3.14462 7.73898 3.29768 6.9753 3.65396 6.27606C4.2292 5.14708 5.14708 4.2292 6.27606 3.65396C6.9753 3.29768 7.73898 3.14462 8.63458 3.07144C9.50917 2.99999 10.5932 2.99999 11.9562 3ZM8.79744 5.0648C8.02552 5.12787 7.55435 5.24729 7.18404 5.43597C6.43139 5.81947 5.81947 6.43139 5.43597 7.18404C5.24729 7.55435 5.12787 8.02552 5.0648 8.79744C5.00078 9.58104 5 10.5834 5 12C5 13.4166 5.00078 14.419 5.0648 15.2026C5.12787 15.9745 5.24729 16.4457 5.43597 16.816C5.81947 17.5686 6.43139 18.1805 7.18404 18.564C7.55435 18.7527 8.02552 18.8721 8.79744 18.9352C9.58104 18.9992 10.5834 19 12 19C13.4166 19 14.419 18.9992 15.2026 18.9352C15.9745 18.8721 16.4457 18.7527 16.816 18.564C17.5686 18.1805 18.1805 17.5686 18.564 16.816C18.7527 16.4457 18.8721 15.9745 18.9352 15.2026C18.9992 14.419 19 13.4166 19 12C19 10.5834 18.9992 9.58104 18.9352 8.79744C18.8721 8.02552 18.7527 7.55435 18.564 7.18404C18.1805 6.43139 17.5686 5.81947 16.816 5.43597C16.4457 5.24729 15.9745 5.12787 15.2026 5.0648C14.419 5.00078 13.4166 5 12 5C10.5834 5 9.58104 5.00078 8.79744 5.0648Z"/>
<path d="M7 10.2C7 9.07989 7 8.51984 7.21799 8.09202C7.40973 7.71569 7.71569 7.40973 8.09202 7.21799C8.51984 7 9.07989 7 10.2 7H13.8C14.9201 7 15.4802 7 15.908 7.21799C16.2843 7.40973 16.5903 7.71569 16.782 8.09202C17 8.51984 17 9.07989 17 10.2V13.8C17 14.9201 17 15.4802 16.782 15.908C16.5903 16.2843 16.2843 16.5903 15.908 16.782C15.4802 17 14.9201 17 13.8 17H10.2C9.07989 17 8.51984 17 8.09202 16.782C7.71569 16.5903 7.40973 16.2843 7.21799 15.908C7 15.4802 7 14.9201 7 13.8V10.2Z"/>
</svg>
