<svg width="24" height="24" viewBox="0 0 24 24" fill="none" xmlns="http://www.w3.org/2000/svg">
<path fill-rule="evenodd" clip-rule="evenodd" d="M12 3C12 2.44772 12.4477 2 13 2C13.5523 2 14 2.44772 14 3C14 3.55229 13.5523 4 13 4C12.4477 4 12 3.55229 12 3ZM3.29089 6.17575C2.73861 6.17575 2.29089 6.62347 2.29089 7.17575C2.29089 7.72803 2.73861 8.17575 3.29089 8.17575C3.84318 8.17575 4.29089 7.72803 4.29089 7.17575C4.29089 6.62347 3.84318 6.17575 3.29089 6.17575ZM9 2C8.44772 2 8 2.44771 8 3C8 3.55229 8.44772 4 9 4C9.55229 4 10 3.55229 10 3C10 2.44772 9.55229 2 9 2ZM4.36926 4.22046C4.36926 3.66817 4.81698 3.22046 5.36926 3.22046C5.92155 3.22046 6.36926 3.66817 6.36926 4.22046C6.36926 4.77274 5.92155 5.22046 5.36926 5.22046C4.81698 5.22046 4.36926 4.77274 4.36926 4.22046ZM6.17575 20.7091C6.17575 21.2614 6.62347 21.7091 7.17575 21.7091C7.72804 21.7091 8.17575 21.2614 8.17575 20.7091C8.17575 20.1568 7.72804 19.7091 7.17575 19.7091C6.62347 19.7091 6.17575 20.1568 6.17575 20.7091ZM2 11C2 11.5523 2.44771 12 3 12C3.55229 12 4 11.5523 4 11C4 10.4477 3.55229 10 3 10C2.44771 10 2 10.4477 2 11ZM3 16C2.44771 16 2 15.5523 2 15C2 14.4477 2.44771 14 3 14C3.55229 14 4 14.4477 4 15C4 15.5523 3.55229 16 3 16ZM3.22046 18.6307C3.22046 19.183 3.66817 19.6307 4.22046 19.6307C4.77274 19.6307 5.22046 19.183 5.22046 18.6307C5.22046 18.0785 4.77274 17.6307 4.22046 17.6307C3.66817 17.6307 3.22046 18.0785 3.22046 18.6307ZM22 13C22 13.5523 21.5523 14 21 14C20.4477 14 20 13.5523 20 13C20 12.4477 20.4477 12 21 12C21.5523 12 22 12.4477 22 13ZM12 21C12 21.5523 11.5523 22 11 22C10.4477 22 10 21.5523 10 21C10 20.4477 10.4477 20 11 20C11.5523 20 12 20.4477 12 21ZM15 22C15.5523 22 16 21.5523 16 21C16 20.4477 15.5523 20 15 20C14.4477 20 14 20.4477 14 21C14 21.5523 14.4477 22 15 22ZM21.7091 16.8242C21.7091 17.3765 21.2614 17.8242 20.7091 17.8242C20.1568 17.8242 19.7091 17.3765 19.7091 16.8242C19.7091 16.272 20.1568 15.8242 20.7091 15.8242C21.2614 15.8242 21.7091 16.272 21.7091 16.8242ZM19.6307 19.7795C19.6307 20.3318 19.183 20.7795 18.6307 20.7795C18.0785 20.7795 17.6307 20.3318 17.6307 19.7795C17.6307 19.2273 18.0785 18.7795 18.6307 18.7795C19.183 18.7795 19.6307 19.2273 19.6307 19.7795ZM16.8242 2.29089C17.3765 2.29089 17.8242 2.73861 17.8242 3.29089C17.8242 3.84318 17.3765 4.29089 16.8242 4.29089C16.272 4.29089 15.8242 3.84318 15.8242 3.29089C15.8242 2.73861 16.272 2.29089 16.8242 2.29089ZM22 9C22 8.44772 21.5523 8 21 8C20.4477 8 20 8.44772 20 9C20 9.55228 20.4477 10 21 10C21.5523 10 22 9.55228 22 9ZM20.7795 5.36926C20.7795 4.81698 20.3318 4.36926 19.7795 4.36926C19.2273 4.36926 18.7795 4.81698 18.7795 5.36926C18.7795 5.92155 19.2273 6.36926 19.7795 6.36926C20.3318 6.36926 20.7795 5.92155 20.7795 5.36926ZM12.75 8.24999C12.75 7.83578 12.4142 7.49999 12 7.49999C11.5858 7.49999 11.25 7.83578 11.25 8.24999V11.25H8.25001C7.8358 11.25 7.50001 11.5858 7.50001 12C7.50001 12.4142 7.8358 12.75 8.25001 12.75H11.25V15.75C11.25 16.1642 11.5858 16.5 12 16.5C12.4142 16.5 12.75 16.1642 12.75 15.75V12.75H15.75C16.1642 12.75 16.5 12.4142 16.5 12C16.5 11.5858 16.1642 11.25 15.75 11.25H12.75V8.24999Z" />
</svg>
