<svg width="24" height="24" viewBox="0 0 24 24" fill="none" xmlns="http://www.w3.org/2000/svg">
<path d="M17.2084 8.79289C17.5989 9.18342 17.5989 9.81658 17.2084 10.2071L11.209 16.2065C10.8185 16.597 10.1854 16.597 9.79483 16.2065L6.79015 13.2018C6.39962 12.8113 6.39962 12.1781 6.79014 11.7876C7.18067 11.3971 7.81383 11.3971 8.20436 11.7876L10.5019 14.0852L15.7942 8.79289C16.1847 8.40237 16.8179 8.40237 17.2084 8.79289Z" />
<path d="M2 12C2 6.47715 6.47715 2 12 2C17.5228 2 22 6.47715 22 12C22 17.5228 17.5228 22 12 22C6.47715 22 2 17.5228 2 12ZM12 4C7.58172 4 4 7.58172 4 12C4 16.4183 7.58172 20 12 20C16.4183 20 20 16.4183 20 12C20 7.58172 16.4183 4 12 4Z" />
</svg>
