<svg width="24" height="24" viewBox="0 0 24 24" fill="none" xmlns="http://www.w3.org/2000/svg">
<path d="M8.06917 10.5597C7.82509 10.3157 7.42936 10.3157 7.18529 10.5597C6.94121 10.8038 6.94121 11.1995 7.18529 11.4436L11.5581 15.8164C11.8021 16.0605 12.1979 16.0605 12.4419 15.8164L16.8147 11.4436C17.0588 11.1995 17.0588 10.8038 16.8147 10.5597C16.5706 10.3157 16.1749 10.3157 15.9308 10.5597L12 14.4906L8.06917 10.5597Z" />
<path d="M23 12C23 18.0751 18.0751 23 12 23C5.92487 23 1 18.0751 1 12C1 5.92487 5.92487 1 12 1C18.0751 1 23 5.92487 23 12ZM21.5 12C21.5 6.75329 17.2467 2.5 12 2.5C6.75329 2.5 2.5 6.75329 2.5 12C2.5 17.2467 6.75329 21.5 12 21.5C17.2467 21.5 21.5 17.2467 21.5 12Z" />
</svg>
