<svg width="24" height="24" viewBox="0 0 24 24" fill="none" xmlns="http://www.w3.org/2000/svg">
<path d="M8 1.49841C7.44772 1.49841 7 1.94613 7 2.49841V3.49841H6C4.34315 3.49841 3 4.84156 3 6.49841V18C3 19.6568 4.34315 21 6 21H12.4982C12.1772 20.2304 12 19.3859 12 18.5C12 14.9101 14.9101 12 18.5 12C19.3859 12 20.2304 12.1772 21 12.4982V6.49841C21 4.84156 19.6569 3.49841 18 3.49841H17V2.49841C17 1.94613 16.5523 1.49841 16 1.49841C15.4477 1.49841 15 1.94613 15 2.49841V3.49841H9V2.49841C9 1.94613 8.55228 1.49841 8 1.49841ZM5.75078 6.49841H18.2492C18.6639 6.49841 19 6.83455 19 7.24919C19 7.66383 18.6639 7.99997 18.2492 7.99997H5.75078C5.33613 7.99997 5 7.66383 5 7.24919C5 6.83455 5.33613 6.49841 5.75078 6.49841Z"/>
<path d="M22.0355 22.0355C23.9882 20.0829 23.9882 16.9171 22.0355 14.9645C20.0829 13.0118 16.9171 13.0118 14.9645 14.9645C13.0118 16.9171 13.0118 20.0829 14.9645 22.0355C16.9171 23.9882 20.0829 23.9882 22.0355 22.0355ZM16.019 16.9104C15.7749 16.6663 15.7749 16.2706 16.019 16.0265C16.2631 15.7824 16.6588 15.7824 16.9029 16.0265L18.4925 17.6161L20.0859 16.0227C20.33 15.7787 20.7257 15.7787 20.9698 16.0227C21.2138 16.2668 21.2138 16.6625 20.9698 16.9066L19.3764 18.5L20.9687 20.0923C21.2128 20.3364 21.2128 20.7321 20.9687 20.9762C20.7247 21.2203 20.3289 21.2203 20.0848 20.9762L18.4925 19.3839L16.9039 20.9725C16.6598 21.2166 16.2641 21.2166 16.02 20.9725C15.7759 20.7284 15.7759 20.3327 16.02 20.0886L17.6086 18.5L16.019 16.9104Z"/>
</svg>
