<svg width="24" height="24" viewBox="0 0 24 24" fill="none" xmlns="http://www.w3.org/2000/svg">
<path d="M4.22183 19.7782C8.51759 24.0739 15.4824 24.0739 19.7782 19.7782C24.0739 15.4824 24.0739 8.51759 19.7782 4.22183C15.4824 -0.0739418 8.51759 -0.0739418 4.22183 4.22183C-0.0739418 8.51759 -0.0739418 15.4824 4.22183 19.7782ZM9.17157 7.75736L12 10.5858L14.8284 7.75736C15.2189 7.36683 15.8521 7.36684 16.2426 7.75736C16.6332 8.14788 16.6332 8.78105 16.2426 9.17157L13.4142 12L16.2426 14.8284C16.6332 15.219 16.6332 15.8521 16.2426 16.2426C15.8521 16.6332 15.2189 16.6332 14.8284 16.2426L12 13.4142L9.17157 16.2426C8.78104 16.6332 8.14788 16.6332 7.75735 16.2426C7.36683 15.8521 7.36683 15.219 7.75735 14.8284L10.5858 12L7.75735 9.17157C7.36683 8.78105 7.36683 8.14788 7.75735 7.75736C8.14788 7.36684 8.78104 7.36684 9.17157 7.75736Z" />
</svg>
