<svg width="24" height="24" viewBox="0 0 24 24" fill="none" xmlns="http://www.w3.org/2000/svg">
<path d="M17.5 10.2461C17.5 10.6603 17.8358 10.9961 18.25 10.9961C18.6642 10.9961 19 10.6603 19 10.2461L19 5.75C19 5.33579 18.6642 5 18.25 5H13.75C13.3358 5 13 5.33579 13 5.75C13 6.16421 13.3358 6.5 13.75 6.5H16.4393L13.7194 9.21995C13.4265 9.51284 13.4265 9.98772 13.7194 10.2806C14.0123 10.5735 14.4872 10.5735 14.7801 10.2806L17.5 7.56066L17.5 10.2461Z" />
<path d="M6.5 13.75C6.5 13.3358 6.16421 13 5.75 13C5.33579 13 5 13.3358 5 13.75V18.25C5 18.6642 5.33579 19 5.75 19H10.2456C10.6598 19 10.9956 18.6642 10.9956 18.25C10.9956 17.8358 10.6598 17.5 10.2456 17.5H7.56067L10.276 14.7846C10.5689 14.4918 10.5689 14.0169 10.276 13.724C9.98311 13.4311 9.50824 13.4311 9.21534 13.724L6.5 16.4393V13.75Z" />
</svg>
