<svg width="24" height="24" viewBox="0 0 24 24" fill="none" xmlns="http://www.w3.org/2000/svg">
<path d="M5.99998 14.5551C7.70162 13.534 9.88484 13.799 11.2929 15.2071C13.3782 17.2924 16.6269 17.6624 19.1277 16.0994L19.53 15.848C19.8224 15.6652 20 15.3448 20 15V6.99996C20 6.63644 19.8027 6.30154 19.4847 6.12532C19.1668 5.94909 18.7782 5.95929 18.47 6.15196L18.0677 6.40336C16.3566 7.47279 14.1339 7.21966 12.707 5.79287C10.6217 3.70753 7.37291 3.33758 4.87206 4.90065L4.46997 5.15197C4.17759 5.33471 3.99998 5.65518 3.99998 5.99996V13.9845C3.9998 13.9954 3.9998 14.0064 3.99998 14.0173V20C3.99998 20.5522 4.44769 21 4.99998 21C5.55226 21 5.99998 20.5522 5.99998 20V14.5551ZM5.99998 6.55505C7.70162 5.53404 9.8848 5.79909 11.2928 7.2071C13.0762 8.99042 15.7103 9.51925 18 8.65747V14.4449C16.2983 15.4659 14.1151 15.2009 12.7071 13.7929C10.9238 12.0095 8.2896 11.4807 5.99998 12.3425V6.55505Z"/>
</svg>
