<svg width="24" height="24" viewBox="0 0 24 24" fill="none" xmlns="http://www.w3.org/2000/svg">
<path d="M11.1623 20.8735C10.5417 20.8735 10.0258 20.4763 9.88493 19.8691L9.51998 18.3169L9.25456 18.2256L7.91086 19.0557C7.37928 19.3922 6.72578 19.2974 6.28516 18.8564L5.13224 17.7026C4.684 17.2647 4.59007 16.6157 4.93318 16.084L5.77091 14.7393L5.67967 14.4902L4.12862 14.125C3.52907 13.9832 3.125 13.4614 3.125 12.8467V11.2031C3.125 10.5821 3.52123 10.0659 4.12862 9.9248L5.66308 9.55127L5.76262 9.28564L4.92488 7.94092C4.58027 7.40691 4.68105 6.76551 5.12395 6.32227L6.27687 5.16016C6.71857 4.72889 7.36302 4.63543 7.89428 4.96094L9.23797 5.79102L9.51998 5.68311L9.88493 4.13086C10.028 3.52494 10.5419 3.12646 11.1623 3.12646H12.8377C13.4527 3.12646 13.973 3.52954 14.1151 4.13086L14.4717 5.68311L14.7537 5.79102L16.1057 4.96094C16.6283 4.6341 17.2826 4.72762 17.7148 5.16016L18.8761 6.32227C19.3076 6.76464 19.4166 7.41173 19.0751 7.94092L18.2291 9.28564L18.3369 9.55127L19.8714 9.9248C20.4709 10.0666 20.875 10.5885 20.875 11.2031V12.8467C20.875 13.4614 20.4709 13.9832 19.8714 14.125L18.3203 14.4902L18.2208 14.7393L19.0668 16.084C19.4068 16.6109 19.3046 17.2655 18.8678 17.7026L17.7065 18.8564C17.2697 19.2936 16.6156 19.3959 16.0891 19.0557L14.7371 18.2256L14.4717 18.3169L14.1151 19.8691C13.9753 20.4717 13.4529 20.8735 12.8377 20.8735H11.1623ZM11.295 19.5786H12.705C12.8433 19.5786 12.9207 19.515 12.9373 19.3877L13.4432 17.3291C13.9542 17.2068 14.418 17.0016 14.7703 16.7812L16.5785 17.8936C16.6836 17.9655 16.7886 17.9517 16.8937 17.8521L17.8641 16.8726C17.9581 16.7896 17.9692 16.6872 17.8973 16.5654L16.7859 14.7725C16.9858 14.4167 17.1929 13.9512 17.325 13.4443L19.3903 12.9546C19.5175 12.9325 19.5811 12.8522 19.5811 12.7139V11.3276C19.5811 11.1948 19.5175 11.1146 19.3903 11.0869L17.3333 10.5889C17.2006 10.0465 16.9573 9.56234 16.8025 9.25244L17.9056 7.45947C17.983 7.33773 17.9747 7.22982 17.8807 7.13574L16.902 6.17285C16.8025 6.08431 16.6946 6.07048 16.5785 6.13135L14.7786 7.22705C14.4158 7.029 13.9661 6.8211 13.4432 6.6875L12.9373 4.6123C12.9207 4.48503 12.8433 4.42139 12.705 4.42139H11.295C11.1567 4.42139 11.0766 4.48503 11.0544 4.6123L10.5651 6.6709C10.0722 6.80242 9.56219 7.01756 9.20479 7.21875L7.4132 6.13135C7.30261 6.07048 7.19755 6.08431 7.09801 6.17285L6.11098 7.13574C6.02251 7.22982 6.01421 7.33773 6.0861 7.45947L7.18925 9.25244C6.98577 9.69105 6.77408 10.1162 6.65841 10.5889L4.6097 11.0869C4.48252 11.1146 4.41893 11.1948 4.41893 11.3276V12.7139C4.41893 12.8522 4.48252 12.9325 4.6097 12.9546L6.66671 13.4443C6.79942 13.9535 7.01783 14.4183 7.20584 14.7725L6.09439 16.5654C6.02804 16.6872 6.0391 16.7896 6.12757 16.8726L7.10631 17.8521C7.21137 17.9517 7.31367 17.9655 7.4132 17.8936L9.22138 16.7812C9.57738 17.0039 10.051 17.2081 10.5568 17.3291L11.0544 19.3877C11.0766 19.515 11.1567 19.5786 11.295 19.5786ZM12 13.8843C13.0157 13.8843 13.8579 13.0018 13.8579 12C13.8579 11.0001 13.0096 10.1323 12 10.1323C10.9901 10.1323 10.1255 10.9791 10.1255 12C10.1255 13.0218 10.9644 13.8843 12 13.8843Z" />
</svg>
