<svg width="24" height="24" viewBox="0 0 24 24" fill="none" xmlns="http://www.w3.org/2000/svg">
<path fill-rule="evenodd" clip-rule="evenodd" d="M15.9933 11.9954C15.9933 14.2034 14.2034 15.9933 11.9954 15.9933C9.78747 15.9933 7.99757 14.2034 7.99757 11.9954C7.99757 9.78747 9.78747 7.99757 11.9954 7.99757C14.2034 7.99757 15.9933 9.78747 15.9933 11.9954ZM13.9933 11.9954C13.9933 13.0988 13.0988 13.9933 11.9954 13.9933C10.892 13.9933 9.99757 13.0988 9.99757 11.9954C9.99757 10.892 10.892 9.99757 11.9954 9.99757C13.0988 9.99757 13.9933 10.892 13.9933 11.9954Z" />
<path fill-rule="evenodd" clip-rule="evenodd" d="M13.0989 2.10229C14.1342 1.82489 15.2388 2.12087 15.9967 2.87875L21.1209 8.00292C21.8788 8.76079 22.1747 9.86542 21.8973 10.9007L20.0218 17.9004C19.7444 18.9357 18.9357 19.7444 17.9004 20.0218L10.9007 21.8973C9.86542 22.1747 8.76079 21.8788 8.00292 21.1209L2.87875 15.9967C2.12087 15.2388 1.82489 14.1342 2.10229 13.0989L3.97787 6.09919C4.25527 5.06391 5.06391 4.25527 6.09919 3.97787L13.0989 2.10229ZM14.5825 4.29296L19.7067 9.41713C19.9593 9.66976 20.058 10.038 19.9655 10.3831L18.0899 17.3828C17.9974 17.7279 17.7279 17.9974 17.3828 18.0899L10.3831 19.9655C10.038 20.058 9.66976 19.9593 9.41713 19.7067L4.29296 14.5825C4.04034 14.3299 3.94168 13.9617 4.03414 13.6166L5.90972 6.61682C6.00219 6.27173 6.27173 6.00219 6.61683 5.90972L13.6166 4.03414C13.9617 3.94168 14.3299 4.04034 14.5825 4.29296Z" />
</svg>
