<svg width="24" height="24" viewBox="0 0 24 24" fill="none" xmlns="http://www.w3.org/2000/svg">
<path fill-rule="evenodd" clip-rule="evenodd" d="M14.3347 15.7489C13.2597 16.5356 11.9341 17 10.5 17C6.91015 17 4 14.0899 4 10.5C4 6.91015 6.91015 4 10.5 4C14.0899 4 17 6.91015 17 10.5C17 11.9341 16.5356 13.2597 15.7489 14.3347L20.7071 19.2929C21.0976 19.6834 21.0976 20.3166 20.7071 20.7071C20.3166 21.0976 19.6834 21.0976 19.2929 20.7071L14.3347 15.7489ZM15 10.5C15 12.9853 12.9853 15 10.5 15C8.01472 15 6 12.9853 6 10.5C6 8.01472 8.01472 6 10.5 6C12.9853 6 15 8.01472 15 10.5Z" />
</svg>
