<svg width="24" height="24" viewBox="0 0 24 24" fill="none" xmlns="http://www.w3.org/2000/svg">
<path d="M7 2.49841C7 1.94613 7.44772 1.49841 8 1.49841C8.55228 1.49841 9 1.94613 9 2.49841V3.49841H15V2.49841C15 1.94613 15.4477 1.49841 16 1.49841C16.5523 1.49841 17 1.94613 17 2.49841V3.49841H18C19.6569 3.49841 21 4.84156 21 6.49841V18C21 19.6568 19.6569 21 18 21H6C4.34315 21 3 19.6568 3 18V6.49841C3 4.84156 4.34315 3.49841 6 3.49841H7V2.49841ZM18.2492 6.49841H5.75078C5.33613 6.49841 5 6.83455 5 7.24919C5 7.66383 5.33613 7.99997 5.75078 7.99997H18.2492C18.6639 7.99997 19 7.66383 19 7.24919C19 6.83455 18.6639 6.49841 18.2492 6.49841ZM9 12C9 11.1716 8.32843 10.5 7.5 10.5C6.67157 10.5 6 11.1716 6 12C6 12.8284 6.67157 13.5 7.5 13.5C8.32843 13.5 9 12.8284 9 12ZM9 16.5014C9 15.6729 8.32843 15.0014 7.5 15.0014C6.67157 15.0014 6 15.6729 6 16.5014C6 17.3298 6.67157 18.0014 7.5 18.0014C8.32843 18.0014 9 17.3298 9 16.5014ZM12 13.5C12.8284 13.5 13.5 12.8284 13.5 12C13.5 11.1716 12.8284 10.5 12 10.5C11.1716 10.5 10.5 11.1716 10.5 12C10.5 12.8284 11.1716 13.5 12 13.5ZM13.5 16.5014C13.5 15.6729 12.8284 15.0014 12 15.0014C11.1716 15.0014 10.5 15.6729 10.5 16.5014C10.5 17.3298 11.1716 18.0014 12 18.0014C12.8284 18.0014 13.5 17.3298 13.5 16.5014ZM16.5 13.5C17.3284 13.5 18 12.8284 18 12C18 11.1716 17.3284 10.5 16.5 10.5C15.6716 10.5 15 11.1716 15 12C15 12.8284 15.6716 13.5 16.5 13.5ZM18 16.5014C18 15.6729 17.3284 15.0014 16.5 15.0014C15.6716 15.0014 15 15.6729 15 16.5014C15 17.3298 15.6716 18.0014 16.5 18.0014C17.3284 18.0014 18 17.3298 18 16.5014Z"/>
</svg>
