<svg width="24" height="24" viewBox="0 0 24 24" fill="none" xmlns="http://www.w3.org/2000/svg">
<path d="M12.8829 4.87434L6.46453 11.4645C4.51191 13.4171 4.51184 16.5829 6.46447 18.5355C8.41709 20.4882 11.5829 20.4882 13.5355 18.5355L13.5367 18.5344L18.094 13.9917C18.4852 13.6019 19.1184 13.6029 19.5082 13.994C19.8981 14.3852 19.8971 15.0184 19.506 15.4082L14.9497 19.9497C14.9496 19.9499 14.9499 19.9496 14.9497 19.9497C12.216 22.6828 7.78373 22.6832 5.05025 19.9497C2.3182 17.2177 2.31658 12.7892 5.0454 10.0551L11.4643 3.46441C13.4169 1.51179 16.5828 1.51185 18.5354 3.46447C20.4864 5.41544 20.488 8.57758 18.5403 10.5306L12.1214 17.1214C10.9498 18.293 9.05026 18.2929 7.87868 17.1213C6.70711 15.9497 6.70711 14.0503 7.87868 12.8787L12.4645 8.29289C12.855 7.90237 13.4882 7.90237 13.8787 8.29289C14.2692 8.68342 14.2692 9.31658 13.8787 9.70711L9.2929 14.2929C8.90237 14.6834 8.90237 15.3166 9.2929 15.7071C9.68212 16.0963 10.3124 16.0976 10.7032 15.711L17.1211 9.12126C18.2927 7.94969 18.2927 6.05026 17.1212 4.87868C15.9511 3.70856 14.0548 3.70711 12.8829 4.87434Z"/>
</svg>
