<svg width="24" height="24" viewBox="0 0 24 24" fill="none" xmlns="http://www.w3.org/2000/svg">
<path d="M21.5 2.50001C22.25 3.25001 22.002 4.49804 21.5 5C20.998 5.50196 11.9985 14.5 11.9985 14.5L8.5 15.5L9.5 12C9.5 12 18.498 3.00196 19 2.5C19.502 1.99805 20.75 1.75 21.5 2.50001Z" />
<path d="M20.9882 9.97894L19.4903 11.4731L19.4903 12.2705C19.4903 14.7828 19.4903 16.0389 19.0001 16.9985C18.5689 17.8425 17.8809 18.5287 17.0347 18.9588C16.0726 19.4477 14.8133 19.4477 12.2945 19.4477H11.6949C9.17612 19.4477 7.91674 19.4477 6.95471 18.9588C6.10848 18.5287 5.42047 17.8425 4.9893 16.9985C4.49911 16.0389 4.49911 14.7828 4.49911 12.2705V11.6724C4.49911 9.16016 4.49911 7.90403 4.9893 6.94448C5.42047 6.10043 6.10848 5.4142 6.95471 4.98413C7.91674 4.49521 9.17612 4.49521 11.6949 4.49521L12.4944 4.49522L13.9924 3.0011C13.7815 3.00031 13.5455 2.9988 13.2923 2.99719C11.9419 2.98858 10.1034 2.97685 8.98057 3.05326C8.18215 3.1076 7.51056 3.2203 6.88681 3.478C5.34404 4.11539 4.11832 5.33795 3.47928 6.87674C3.22091 7.49889 3.10792 8.16875 3.05344 8.96511C3 9.7464 3 10.7123 3.00001 11.9384C3.00001 12.0964 2.99962 12.2545 2.99924 12.4127C2.99717 13.2679 2.9951 14.1249 3.05344 14.9778C3.10792 15.7742 3.22091 16.444 3.47928 17.0662C4.11832 18.605 5.34404 19.8275 6.88681 20.4649C7.51056 20.7226 8.18215 20.8353 8.98057 20.8897C10.9638 21.0246 13.0255 21.0247 15.0088 20.8897C15.8072 20.8353 16.4788 20.7226 17.1026 20.4649C18.6454 19.8275 19.8711 18.605 20.5101 17.0662C20.7685 16.444 20.8815 15.7742 20.9359 14.9778C21.0126 13.8577 21.0008 12.0251 20.9922 10.6782L20.9922 10.6768C20.9905 10.4245 20.989 10.1892 20.9882 9.97894Z" />
</svg>
