<svg width="24" height="24" viewBox="0 0 24 24" fill="none" xmlns="http://www.w3.org/2000/svg">
<path d="M1.74933 4.75382C1 6.22446 1 8.14964 1 12C1 15.8504 1 17.7755 1.74933 19.2462C2.40846 20.5398 3.4602 21.5915 4.75382 22.2507C6.22446 23 8.14964 23 12 23C15.8504 23 17.7755 23 19.2462 22.2507C20.5398 21.5915 21.5915 20.5398 22.2507 19.2462C23 17.7755 23 15.8504 23 12C23 8.14964 23 6.22446 22.2507 4.75382C21.5915 3.4602 20.5398 2.40846 19.2462 1.74933C17.7755 1 15.8504 1 12 1C8.14964 1 6.22446 1 4.75382 1.74933C3.4602 2.40846 2.40846 3.4602 1.74933 4.75382Z" fill="url(#paint0_radial_4228_25930)"/>
<path d="M12.4653 5.114L13.9303 9.35264L18.3915 9.44406C18.8585 9.45363 19.0513 10.0504 18.6791 10.3341L15.1233 13.0452L16.4155 17.3403C16.5507 17.7899 16.0459 18.1587 15.6626 17.8904L12 15.3273L8.33734 17.8904C7.95396 18.1587 7.4492 17.7899 7.58445 17.3403L8.87658 13.0452L5.32083 10.3341C4.94865 10.0504 5.14145 9.45363 5.60841 9.44406L10.0696 9.35264L11.5346 5.114C11.688 4.67033 12.3119 4.67033 12.4653 5.114Z" fill="white"/>
<defs>
<radialGradient id="paint0_radial_4228_25930" cx="0" cy="0" r="1" gradientUnits="userSpaceOnUse" gradientTransform="translate(0.999999 23) rotate(-42.7094) scale(32.435)">
<stop stop-color="#40A3E7"/>
<stop offset="1" stop-color="#BC56D7"/>
</radialGradient>
</defs>
</svg>
