<svg width="24" height="24" viewBox="0 0 24 24" fill="none" xmlns="http://www.w3.org/2000/svg">
<path d="M8.4 2C7.76348 2 7.15303 2.27889 6.70294 2.77531C6.25286 3.27173 6 3.94502 6 4.64706V15.5C6 16.5 6.5 17 7.5 17H19.6C20.2365 17 20.847 16.7211 21.2971 16.2247C21.7471 15.7283 22 15.055 22 14.3529V7.29412C22 6.59207 21.7471 5.91878 21.2971 5.42236C20.847 4.92594 20.2365 4.64706 19.6 4.64706H14.3314L12.1657 2.25844C12.0157 2.09296 11.8122 2 11.6 2H8.4Z" />
<path d="M17.8758 19H7C5.34315 19 4 17.6569 4 16V7.15933C2.83481 7.54371 2 8.58086 2 9.8V18.2C2 19.7464 3.34315 21 5 21H15C16.359 21 17.507 20.1566 17.8758 19Z" />
</svg>
