<svg width="24" height="24" viewBox="0 0 24 24" fill="none" xmlns="http://www.w3.org/2000/svg">
<path d="M15.8158 6.60387L12.8071 4.11374C12.4829 3.84547 12 4.08184 12 4.50875V6H9C5.68629 6 3 8.68629 3 12C3 13.3499 3.44718 14.5978 4.20046 15.6006C4.53217 16.0422 5.15904 16.1313 5.60061 15.7995C6.04219 15.4678 6.13125 14.841 5.79954 14.3994C5.29728 13.7308 5 12.9015 5 12C5 9.79086 6.79086 8 9 8H12V9.49125C12 9.91826 12.4832 10.1546 12.8073 9.88612L15.816 7.39374C16.0614 7.19044 16.0613 6.80705 15.8158 6.60387Z"/>
<path d="M18.3993 8.20002C18.8409 7.86828 19.4678 7.95729 19.7995 8.39884C20.5531 9.40183 21 10.6502 21 12C21 15.3137 18.3137 18 15 18H12V19.4913C12 19.9183 11.5168 20.1546 11.1927 19.8861L8.18401 17.3937C7.93859 17.1904 7.93868 16.8071 8.18418 16.6039L11.1929 14.1137C11.5171 13.8455 12 14.0818 12 14.5087V16H15C17.2091 16 19 14.2091 19 12C19 11.0982 18.7028 10.2687 18.2005 9.60019C17.8688 9.15864 17.9578 8.53177 18.3993 8.20002Z"/>
</svg>
