<svg width="24" height="24" viewBox="0 0 24 24" fill="none" xmlns="http://www.w3.org/2000/svg">
<path d="M15.1556 7.86423C15.3568 7.50214 15.2263 7.04554 14.8642 6.84438C14.5021 6.64322 14.0455 6.77368 13.8444 7.13577L8.84438 16.1358C8.64322 16.4979 8.77368 16.9545 9.13577 17.1556C9.49786 17.3568 9.95446 17.2263 10.1556 16.8642L15.1556 7.86423Z" />
<path d="M2 8C2 4.68629 4.68629 2 8 2H16C19.3137 2 22 4.68629 22 8V16C22 19.3137 19.3137 22 16 22H8C4.68629 22 2 19.3137 2 16V8ZM8 3.5C5.51472 3.5 3.5 5.51472 3.5 8V16C3.5 18.4853 5.51472 20.5 8 20.5H16C18.4853 20.5 20.5 18.4853 20.5 16V8C20.5 5.51472 18.4853 3.5 16 3.5H8Z" />
</svg>
