<svg width="24" height="24" viewBox="0 0 24 24" fill="none" xmlns="http://www.w3.org/2000/svg">
<path d="M3.43597 5.18404C3 6.03969 3 7.15979 3 9.4V14.6C3 16.8402 3 17.9603 3.43597 18.816C3.81947 19.5686 4.43139 20.1805 5.18404 20.564C6.03969 21 7.15979 21 9.4 21H14.6C16.8402 21 17.9603 21 18.816 20.564C19.5686 20.1805 20.1805 19.5686 20.564 18.816C21 17.9603 21 16.8402 21 14.6V9.4C21 7.15979 21 6.03969 20.564 5.18404C20.1805 4.43139 19.5686 3.81947 18.816 3.43597C17.9603 3 16.8402 3 14.6 3H9.4C7.15979 3 6.03969 3 5.18404 3.43597C4.43139 3.81947 3.81947 4.43139 3.43597 5.18404ZM17.2461 9.49999H15.8547C15.558 10.233 14.8394 10.7501 14 10.7501C13.1607 10.7501 12.4421 10.233 12.1454 9.49999H6.75391C6.33969 9.49999 6.00391 9.16421 6.00391 8.74999C6.00391 8.33578 6.33969 7.99999 6.75391 7.99999H12.1454C12.4421 7.26704 13.1607 6.74999 14 6.74999C14.8394 6.74999 15.558 7.26704 15.8547 7.99999H17.2461C17.6603 7.99999 17.9961 8.33578 17.9961 8.74999C17.9961 9.16421 17.6603 9.49999 17.2461 9.49999ZM8.14539 14.5C8.44209 13.767 9.16068 13.25 10 13.25C10.8394 13.25 11.558 13.767 11.8547 14.5H17.2461C17.6603 14.5 17.9961 14.8358 17.9961 15.25C17.9961 15.6642 17.6603 16 17.2461 16H11.8547C11.558 16.733 10.8394 17.2501 10 17.2501C9.16066 17.2501 8.44206 16.733 8.14537 16H6.75391C6.33969 16 6.00391 15.6642 6.00391 15.25C6.00391 14.8358 6.33969 14.5 6.75391 14.5H8.14539Z"/>
</svg>
