<svg width="24" height="24" viewBox="0 0 24 24" fill="none" xmlns="http://www.w3.org/2000/svg">
<path d="M11.5097 2.62842C11.8141 2.45719 12.1858 2.45719 12.4903 2.62842L20.4903 7.12842C20.8051 7.30554 21 7.63873 21 8C21 8.36127 20.8051 8.69446 20.4903 8.87158L12.4903 13.3716C12.1858 13.5428 11.8141 13.5428 11.5097 13.3716L3.50973 8.87158C3.19486 8.69446 2.99999 8.36127 2.99999 8C2.99999 7.63873 3.19486 7.30554 3.50973 7.12842L11.5097 2.62842Z" />
<path d="M3.12842 11.5097C3.39918 11.0284 4.0089 10.8577 4.49026 11.1284L12 15.3527L19.5097 11.1284C19.9911 10.8577 20.6008 11.0284 20.8716 11.5097C21.1423 11.9911 20.9716 12.6008 20.4903 12.8716L12.4903 17.3716C12.1858 17.5428 11.8141 17.5428 11.5097 17.3716L3.50973 12.8716C3.02838 12.6008 2.85765 11.9911 3.12842 11.5097Z" />
<path d="M4.49026 15.1284C4.0089 14.8577 3.39918 15.0284 3.12842 15.5097C2.85765 15.9911 3.02838 16.6008 3.50973 16.8716L11.5097 21.3716C11.8141 21.5428 12.1858 21.5428 12.4903 21.3716L20.4903 16.8716C20.9716 16.6008 21.1423 15.9911 20.8716 15.5097C20.6008 15.0284 19.9911 14.8577 19.5097 15.1284L12 19.3527L4.49026 15.1284Z" />
</svg>
