<svg width="24" height="24" viewBox="0 0 24 24" fill="none" xmlns="http://www.w3.org/2000/svg">
<path d="M22.4 13.25L15.25 20.4C14.85 20.8 14.325 21 13.825 21C13.325 21 12.8 20.8 12.4 20.4L4.575 12.575C4.20833 12.2083 4 11.7083 4 11.175V4C4 2.90844 4.90844 2 6 2H13.175C13.7083 2 14.2333 2.23333 14.6 2.6L22.4 10.425C22.8 10.825 22.975 11.35 22.975 11.85C22.975 12.35 22.8 12.85 22.4 13.25ZM13.825 19L20.975 11.85L13.15 4H6V11.15L13.825 19ZM9.5 9C10.3245 9 11 8.32451 11 7.5C11 6.67549 10.3245 6 9.5 6C8.67549 6 8 6.67549 8 7.5C8 8.32451 8.67549 9 9.5 9Z" />
</svg>
