<svg width="24" height="24" viewBox="0 0 24 24" fill="none" xmlns="http://www.w3.org/2000/svg">
<path d="M2.575 14.25L9.725 21.4C10.125 21.8 10.65 22 11.15 22C11.65 22 12.175 21.8 12.575 21.4L20.4 13.575C20.7667 13.2083 20.975 12.7083 20.975 12.175V5C20.975 3.90844 20.0666 3 18.975 3H11.8C11.2667 3 10.7417 3.23333 10.375 3.6L2.575 11.425C2.175 11.825 2 12.35 2 12.85C2 13.35 2.175 13.85 2.575 14.25ZM11.15 20L4 12.85L11.825 5H18.975V12.15L11.15 20ZM15.475 10C14.6505 10 13.975 9.32451 13.975 8.5C13.975 7.67549 14.6505 7 15.475 7C16.2995 7 16.975 7.67549 16.975 8.5C16.975 9.32451 16.2995 10 15.475 10Z"/>
</svg>
