<svg width="24" height="24" viewBox="0 0 24 24" fill="none" xmlns="http://www.w3.org/2000/svg">
<path d="M8 1.49841C7.44772 1.49841 7 1.94613 7 2.49841V3.49841H6C4.34315 3.49841 3 4.84156 3 6.49841V18C3 19.6568 4.34315 21 6 21H18C19.6569 21 21 19.6568 21 18V6.49841C21 4.84156 19.6569 3.49841 18 3.49841H17V2.49841C17 1.94613 16.5523 1.49841 16 1.49841C15.4477 1.49841 15 1.94613 15 2.49841V3.49841H9V2.49841C9 1.94613 8.55228 1.49841 8 1.49841ZM5.75078 6.49841H18.2492C18.6639 6.49841 19 6.83455 19 7.24919C19 7.66383 18.6639 7.99997 18.2492 7.99997H5.75078C5.33613 7.99997 5 7.66383 5 7.24919C5 6.83455 5.33613 6.49841 5.75078 6.49841Z" />
<path d="M8.69922 17.1562C7.35645 17.1562 6.53125 16.5752 6.19922 15.8818C6.12109 15.7207 6.08691 15.5645 6.08691 15.418C6.08691 15.0371 6.33105 14.7979 6.73633 14.7979C7.0293 14.7979 7.21484 14.915 7.36133 15.1836C7.61035 15.6768 7.99121 15.9697 8.72363 15.9697C9.44629 15.9697 9.94434 15.5498 9.94434 14.9639C9.94922 14.2803 9.44629 13.8994 8.5918 13.8994H8.28418C7.92773 13.8994 7.72266 13.6895 7.72266 13.3721C7.72266 13.0645 7.92773 12.8496 8.28418 12.8496H8.57227C9.30957 12.8496 9.78809 12.4492 9.78809 11.873C9.78809 11.3066 9.40723 10.9307 8.69434 10.9307C8.09863 10.9307 7.7373 11.1797 7.50781 11.6777C7.34668 12.0098 7.17578 12.1318 6.84375 12.1318C6.43359 12.1318 6.22363 11.8926 6.22363 11.5361C6.22363 11.3701 6.25781 11.2285 6.33105 11.0625C6.64355 10.374 7.44434 9.79785 8.68945 9.79785C10.1787 9.79785 11.1846 10.5352 11.1846 11.6631C11.1846 12.5566 10.5449 13.1426 9.71484 13.3135V13.3428C10.7646 13.4404 11.4434 14.0557 11.4434 15.0273C11.4434 16.3066 10.335 17.1562 8.69922 17.1562ZM15.1348 17.1562C13.3477 17.1562 12.2588 15.7451 12.2588 13.4648C12.2588 11.1895 13.3574 9.79297 15.1348 9.79297C16.9121 9.79297 18.0059 11.1846 18.0059 13.46C18.0059 15.7354 16.9219 17.1562 15.1348 17.1562ZM15.1348 15.9746C16.0039 15.9746 16.5068 15.0811 16.5068 13.4648C16.5068 11.8584 15.999 10.9746 15.1348 10.9746C14.2754 10.9746 13.7578 11.8633 13.7578 13.4648C13.7578 15.0811 14.2656 15.9746 15.1348 15.9746Z" />
</svg>
