<svg width="24" height="24" viewBox="0 0 24 24" fill="none" xmlns="http://www.w3.org/2000/svg">
<path d="M8 1.49841C7.44772 1.49841 7 1.94613 7 2.49841V3.49841H6C4.34315 3.49841 3 4.84156 3 6.49841V18C3 19.6568 4.34315 21 6 21H18C19.6569 21 21 19.6568 21 18V6.49841C21 4.84156 19.6569 3.49841 18 3.49841H17V2.49841C17 1.94613 16.5523 1.49841 16 1.49841C15.4477 1.49841 15 1.94613 15 2.49841V3.49841H9V2.49841C9 1.94613 8.55228 1.49841 8 1.49841ZM5.75078 6.49841H18.2492C18.6639 6.49841 19 6.83455 19 7.24919C19 7.66383 18.6639 7.99997 18.2492 7.99997H5.75078C5.33613 7.99997 5 7.66383 5 7.24919C5 6.83455 5.33613 6.49841 5.75078 6.49841ZM17 18C15.8954 18 15 17.1046 15 16C15 14.8954 15.8954 14 17 14C18.1046 14 19 14.8954 19 16C19 17.1046 18.1046 18 17 18Z"/>
</svg>
