<svg width="24" height="24" viewBox="0 0 24 24" fill="none" xmlns="http://www.w3.org/2000/svg">
<path fill-rule="evenodd" clip-rule="evenodd" d="M4 12C4 7.58172 7.58172 4 12 4C16.4183 4 20 7.58172 20 12C20 16.4183 16.4183 20 12 20C10.6847 20 9.44144 19.6799 8.34739 19.1181C8.13535 19.0092 7.89171 18.9753 7.65656 19.0235L4.28601 19.7152L4.97899 16.3552C5.02772 16.1189 4.99343 15.874 4.88356 15.6612C4.31765 14.5653 4 13.3239 4 12ZM12 2C6.47715 2 2 6.47715 2 12C2 13.5267 2.3401 14.9736 2.95424 16.2711L2.02367 20.7831C1.87713 21.4937 2.50522 22.1224 3.21589 21.9765L7.74024 21.048C9.03226 21.6567 10.4788 22 12 22C17.5228 22 22 17.5228 22 12C22 6.47715 17.5228 2 12 2ZM8.25179 13.5036C8.94314 13.5036 9.50359 12.9432 9.50359 12.2518C9.50359 11.5605 8.94314 11 8.25179 11C7.56044 11 6.99999 11.5605 6.99999 12.2518C6.99999 12.9432 7.56044 13.5036 8.25179 13.5036ZM13.2518 12.2518C13.2518 12.9432 12.6913 13.5036 12 13.5036C11.3086 13.5036 10.7482 12.9432 10.7482 12.2518C10.7482 11.5605 11.3086 11 12 11C12.6913 11 13.2518 11.5605 13.2518 12.2518ZM15.7486 13.5036C16.4399 13.5036 17.0004 12.9432 17.0004 12.2518C17.0004 11.5605 16.4399 11 15.7486 11C15.0572 11 14.4968 11.5605 14.4968 12.2518C14.4968 12.9432 15.0572 13.5036 15.7486 13.5036Z" />
</svg>
