<svg width="24" height="24" viewBox="0 0 24 24" fill="none" xmlns="http://www.w3.org/2000/svg">
<path d="M10.25 9C10.6642 9 11 9.33579 11 9.75V16.25C11 16.6642 10.6642 17 10.25 17C9.83579 17 9.5 16.6642 9.5 16.25V9.75C9.5 9.33579 9.83579 9 10.25 9Z" />
<path d="M14.5 9.75C14.5 9.33579 14.1642 9 13.75 9C13.3358 9 13 9.33579 13 9.75V16.25C13 16.6642 13.3358 17 13.75 17C14.1642 17 14.5 16.6642 14.5 16.25V9.75Z" />
<path d="M8.5 5V3.75C8.5 2.7835 9.2835 2 10.25 2H13.75C14.7165 2 15.5 2.7835 15.5 3.75V5H20.75C21.1642 5 21.5 5.33579 21.5 5.75C21.5 6.16421 21.1642 6.5 20.75 6.5H19.7168L18.9439 17.5125C18.8061 19.4769 17.1723 21 15.2031 21H8.79685C6.82766 21 5.1939 19.4769 5.05605 17.5125L4.28324 6.5H3.25C2.83579 6.5 2.5 6.16421 2.5 5.75C2.5 5.33579 2.83579 5 3.25 5H8.5ZM10 3.75V5H14V3.75C14 3.61193 13.8881 3.5 13.75 3.5H10.25C10.1119 3.5 10 3.61193 10 3.75ZM5.78693 6.5L6.55237 17.4075C6.63508 18.5861 7.61533 19.5 8.79685 19.5H15.2031C16.3847 19.5 17.3649 18.5861 17.4476 17.4075L18.2131 6.5H5.78693Z" />
</svg>
