<svg width="24" height="24" viewBox="0 0 24 24" fill="none" xmlns="http://www.w3.org/2000/svg">
<path fill-rule="evenodd" clip-rule="evenodd" d="M13.2929 3.29289C13.6834 2.90237 14.3166 2.90237 14.7071 3.29289L19.7071 8.29289C20.0976 8.68342 20.0976 9.31658 19.7071 9.70711L14.7071 14.7071C14.3166 15.0976 13.6834 15.0976 13.2929 14.7071C12.9024 14.3166 12.9024 13.6834 13.2929 13.2929L16.5858 10H9C8.46957 10 7.96086 10.2107 7.58579 10.5858C7.21071 10.9609 7 11.4696 7 12V18C7 18.5523 6.55228 19 6 19C5.44772 19 5 18.5523 5 18V12C5 10.9391 5.42143 9.92172 6.17157 9.17157C6.92172 8.42143 7.93913 8 9 8H16.5858L13.2929 4.70711C12.9024 4.31658 12.9024 3.68342 13.2929 3.29289Z" fill="black"/>
</svg>
