<svg width="24" height="24" viewBox="0 0 24 24" fill="none" xmlns="http://www.w3.org/2000/svg">
<g id="calendar">
<path id="Vector (Stroke)" fill-rule="evenodd" clip-rule="evenodd" d="M6 6C5.44772 6 5 6.44772 5 7V19C5 19.5523 5.44772 20 6 20H18C18.5523 20 19 19.5523 19 19V7C19 6.44772 18.5523 6 18 6H6ZM3 7C3 5.34315 4.34315 4 6 4H18C19.6569 4 21 5.34315 21 7V19C21 20.6569 19.6569 22 18 22H6C4.34315 22 3 20.6569 3 19V7Z" />
<path id="Vector (Stroke)_2" fill-rule="evenodd" clip-rule="evenodd" d="M16 2C16.5523 2 17 2.44772 17 3V7C17 7.55228 16.5523 8 16 8C15.4477 8 15 7.55228 15 7V3C15 2.44772 15.4477 2 16 2Z" />
<path id="Vector (Stroke)_3" fill-rule="evenodd" clip-rule="evenodd" d="M8 2C8.55228 2 9 2.44772 9 3V7C9 7.55228 8.55228 8 8 8C7.44772 8 7 7.55228 7 7V3C7 2.44772 7.44772 2 8 2Z" />
<path id="Vector (Stroke)_4" fill-rule="evenodd" clip-rule="evenodd" d="M3 11C3 10.4477 3.44772 10 4 10H20C20.5523 10 21 10.4477 21 11C21 11.5523 20.5523 12 20 12H4C3.44772 12 3 11.5523 3 11Z" />
<path id="Vector (Stroke)_5" fill-rule="evenodd" clip-rule="evenodd" d="M10 15C10 14.4477 10.4477 14 11 14H12C12.5523 14 13 14.4477 13 15C13 15.5523 12.5523 16 12 16H11C10.4477 16 10 15.5523 10 15Z" />
<path id="Vector (Stroke)_6" fill-rule="evenodd" clip-rule="evenodd" d="M12 14C12.5523 14 13 14.4477 13 15V18C13 18.5523 12.5523 19 12 19C11.4477 19 11 18.5523 11 18V15C11 14.4477 11.4477 14 12 14Z" />
</g>
</svg>
