<svg width="24" height="24" viewBox="0 0 25 25" fill="none" xmlns="http://www.w3.org/2000/svg">
<g clip-path="url(#clip0_2207_34620)">
<path d="M7.07903 22.9607C7.57117 22.9607 7.91267 22.6995 8.52533 22.1572L11.9904 19.0737H18.4385C21.4316 19.0737 23.0386 17.4165 23.0386 14.4737V6.78007C23.0386 3.83722 21.4316 2.17999 18.4385 2.17999H5.50216C2.50911 2.17999 0.9021 3.82719 0.9021 6.78007V14.4737C0.9021 17.4266 2.50911 19.0737 5.50216 19.0737H5.98426V21.6851C5.98426 22.4585 6.37596 22.9607 7.07903 22.9607ZM7.49082 21.1227V18.2099C7.49082 17.6676 7.27991 17.4567 6.73754 17.4567H5.50216C3.47331 17.4567 2.51915 16.4222 2.51915 14.4636V6.78007C2.51915 4.82152 3.47331 3.79705 5.50216 3.79705H18.4385C20.4573 3.79705 21.4216 4.82152 21.4216 6.78007V14.4636C21.4216 16.4222 20.4573 17.4567 18.4385 17.4567H11.9302C11.3677 17.4567 11.0865 17.537 10.7048 17.9287L7.49082 21.1227Z" />
<path d="M5.6227 11.7919H9.76071C10.0821 11.7919 10.3433 11.5308 10.3433 11.1993C10.3433 10.888 10.0821 10.6269 9.76071 10.6269H5.6227C5.3013 10.6269 5.04016 10.888 5.04016 11.1993C5.04016 11.5308 5.3013 11.7919 5.6227 11.7919ZM11.8398 11.7919H18.3382C18.6596 11.7919 18.9106 11.5308 18.9106 11.1993C18.9106 10.888 18.6596 10.6269 18.3382 10.6269H11.8398C11.5184 10.6269 11.2572 10.888 11.2572 11.1993C11.2572 11.5308 11.5184 11.7919 11.8398 11.7919ZM5.6227 14.4134H7.33015C7.65155 14.4134 7.90265 14.1623 7.90265 13.8409C7.90265 13.5095 7.65155 13.2483 7.33015 13.2483H5.6227C5.3013 13.2483 5.04016 13.5095 5.04016 13.8409C5.04016 14.1623 5.3013 14.4134 5.6227 14.4134ZM9.39917 14.4134H14.4311C14.7525 14.4134 15.0136 14.1623 15.0136 13.8409C15.0136 13.5095 14.7525 13.2483 14.4311 13.2483H9.39917C9.07776 13.2483 8.82667 13.5095 8.82667 13.8409C8.82667 14.1623 9.07776 14.4134 9.39917 14.4134ZM16.5101 14.4134H18.3382C18.6596 14.4134 18.9106 14.1623 18.9106 13.8409C18.9106 13.5095 18.6596 13.2483 18.3382 13.2483H16.5101C16.1887 13.2483 15.9276 13.5095 15.9276 13.8409C15.9276 14.1623 16.1887 14.4134 16.5101 14.4134Z" />
</g>
<defs>
<clipPath id="clip0_2207_34620">
<rect width="22.1365" height="22.0663" transform="translate(0.9021 0.894409)"/>
</clipPath>
</defs>
</svg>
