<svg width="12" height="12" viewBox="0 0 12 12" fill="none" xmlns="http://www.w3.org/2000/svg">
<g id="flag">
<path id="Union" fill-rule="evenodd" clip-rule="evenodd" d="M10 6.99941V2.50013L9.99997 2.49456C9.99928 2.42686 9.98513 2.36239 9.96008 2.30368C9.94006 2.25669 9.91251 2.21212 9.8774 2.1718C9.86483 2.15735 9.85145 2.14363 9.83732 2.13071C9.79751 2.09426 9.7532 2.06541 9.70626 2.04418C9.64337 2.01566 9.57354 1.99979 9.5 1.99979C9.42715 1.99979 9.35794 2.01537 9.29552 2.04338C9.2525 2.06264 9.21164 2.0883 9.17435 2.12036C9.1653 2.12814 9.15653 2.13623 9.14806 2.14463C8.7744 2.50989 8.2726 2.71444 7.75 2.71444C7.22649 2.71444 6.72386 2.50918 6.35 2.14273C5.78921 1.59305 5.03526 1.28516 4.25 1.28516C3.46588 1.28516 2.71298 1.59215 2.15244 2.14034C2.14579 2.14677 2.13931 2.1534 2.13302 2.16019C2.05046 2.24936 2 2.36868 2 2.49979V6.99983V10.4998C2 10.7759 2.22386 10.9998 2.5 10.9998C2.77614 10.9998 3 10.7759 3 10.4998V7.2239C3.35315 6.94113 3.79365 6.78516 4.25 6.78516C4.77351 6.78516 5.27614 6.99042 5.65 7.35687C6.21079 7.90655 6.96474 8.21444 7.75 8.21444C8.53526 8.21444 9.28921 7.90655 9.85 7.35687C9.94963 7.25921 9.99974 7.13009 10 7.00079L10 6.99941Z"/>
</g>
</svg>
