<svg width="16" height="16" viewBox="0 0 16 16" fill="none" xmlns="http://www.w3.org/2000/svg">
<g id="flag">
<path id="Union" fill-rule="evenodd" clip-rule="evenodd" d="M13.3334 9.33287V3.33383L13.3334 3.32641C13.3325 3.23615 13.3136 3.15018 13.2802 3.0719C13.2535 3.00925 13.2168 2.94982 13.17 2.89606C13.1532 2.87679 13.1353 2.8585 13.1165 2.84127C13.0634 2.79268 13.0043 2.75421 12.9418 2.72589C12.8579 2.68788 12.7648 2.66671 12.6667 2.66671C12.5696 2.66671 12.4773 2.68748 12.3941 2.72483C12.3368 2.75051 12.2823 2.78472 12.2325 2.82748C12.2205 2.83785 12.2088 2.84864 12.1975 2.85983C11.6993 3.34685 11.0302 3.61958 10.3334 3.61958C9.63541 3.61958 8.96522 3.3459 8.46675 2.8573C7.71903 2.12439 6.71376 1.71387 5.66675 1.71387C4.62126 1.71387 3.61738 2.1232 2.87001 2.85411C2.86113 2.86269 2.85249 2.87152 2.8441 2.88058C2.73403 2.99948 2.66675 3.15857 2.66675 3.33337V9.33343V14C2.66675 14.3682 2.96522 14.6667 3.33341 14.6667C3.7016 14.6667 4.00008 14.3682 4.00008 14V9.63219C4.47095 9.25517 5.05828 9.0472 5.66675 9.0472C6.36476 9.0472 7.03494 9.32088 7.53341 9.80949C8.28113 10.5424 9.2864 10.9529 10.3334 10.9529C11.3804 10.9529 12.3857 10.5424 13.1334 9.80949C13.2663 9.67928 13.3331 9.50711 13.3334 9.33472L13.3334 9.33287Z"/>
</g>
</svg>
