<svg width="24" height="24" viewBox="0 0 24 24" fill="none" xmlns="http://www.w3.org/2000/svg">
<path fill-rule="evenodd" clip-rule="evenodd" d="M5.58337 5.58333C5.34026 5.58333 5.1071 5.67991 4.93519 5.85182C4.76328 6.02373 4.66671 6.25688 4.66671 6.5V16.5833C4.66671 16.8264 4.76328 17.0596 4.93519 17.2315C5.1071 17.4034 5.34026 17.5 5.58337 17.5H18.4167C18.6598 17.5 18.893 17.4034 19.0649 17.2315C19.2368 17.0596 19.3334 16.8264 19.3334 16.5833V9.25C19.3334 9.00689 19.2368 8.77373 19.0649 8.60182C18.893 8.42991 18.6598 8.33333 18.4167 8.33333H12C11.7569 8.33333 11.5238 8.23676 11.3519 8.06485L8.87035 5.58333H5.58337ZM3.63883 4.55546C4.15456 4.03973 4.85403 3.75 5.58337 3.75H9.25004C9.49316 3.75 9.72631 3.84658 9.89822 4.01849L12.3797 6.5H18.4167C19.1461 6.5 19.8455 6.78973 20.3613 7.30546C20.877 7.82118 21.1667 8.52065 21.1667 9.25V16.5833C21.1667 17.3127 20.877 18.0122 20.3613 18.5279C19.8455 19.0436 19.1461 19.3333 18.4167 19.3333H5.58337C4.85403 19.3333 4.15456 19.0436 3.63883 18.5279C3.12311 18.0122 2.83337 17.3127 2.83337 16.5833V6.5C2.83337 5.77065 3.12311 5.07118 3.63883 4.55546Z" />
</svg>
