<svg width="30" height="30" viewBox="0 0 30 30" fill="none" xmlns="http://www.w3.org/2000/svg">
<g id="Icon" clip-path="url(#clip0_2628_397)">
<rect id="Background" width="30" height="30" rx="7" fill="#BC56D7"/>
<g id="Icon_2">
<path d="M14.553 6.10557C14.8345 5.96481 15.1659 5.96481 15.4474 6.10557L23.4474 10.1056C23.7862 10.275 24.0002 10.6212 24.0002 11C24.0002 11.3788 23.7862 11.725 23.4474 11.8944L15.4474 15.8944C15.1659 16.0352 14.8345 16.0352 14.553 15.8944L6.553 11.8944C6.21422 11.725 6.00021 11.3788 6.00021 11C6.00021 10.6212 6.21422 10.275 6.553 10.1056L14.553 6.10557Z" fill="white"/>
<path d="M6.10579 14.5528C6.35278 14.0588 6.95345 13.8586 7.44743 14.1056L15.0002 17.882L22.553 14.1056C23.047 13.8586 23.6477 14.0588 23.8946 14.5528C24.1416 15.0468 23.9414 15.6474 23.4474 15.8944L15.4474 19.8944C15.1659 20.0352 14.8345 20.0352 14.553 19.8944L6.55301 15.8944C6.05903 15.6474 5.8588 15.0468 6.10579 14.5528Z" fill="white"/>
<path d="M7.44743 18.1056C6.95345 17.8586 6.35278 18.0588 6.10579 18.5528C5.8588 19.0468 6.05903 19.6474 6.55301 19.8944L14.553 23.8944C14.8345 24.0352 15.1659 24.0352 15.4474 23.8944L23.4474 19.8944C23.9414 19.6474 24.1416 19.0468 23.8946 18.5528C23.6477 18.0588 23.047 17.8586 22.553 18.1056L15.0002 21.882L7.44743 18.1056Z" fill="white"/>
</g>
</g>
<defs>
<clipPath id="clip0_2628_397">
<rect width="30" height="30" fill="white"/>
</clipPath>
</defs>
</svg>
