<svg width="30" height="30" viewBox="0 0 30 30" fill="none" xmlns="http://www.w3.org/2000/svg">
<g id="Icon" clip-path="url(#clip0_2628_579)">
<rect id="Background" width="30" height="30" rx="7" fill="#0078FF"/>
<path id="Icon_2" d="M6 9C6 7.34315 7.34315 6 9 6H19L24 11V21C24 22.6569 22.6569 24 21 24H9C7.34315 24 6 22.6569 6 21V9ZM13 11.5C13 11.2239 13.2239 11 13.5 11C13.7761 11 14 11.2239 14 11.5V17H16V11.5C16 10.1193 14.8807 9 13.5 9C12.1193 9 11 10.1193 11 11.5V17C11 19.2091 12.7909 21 15 21C17.2091 21 19 19.2091 19 17V13H17V17C17 18.1046 16.1046 19 15 19C13.8954 19 13 18.1046 13 17V11.5Z" fill="white"/>
</g>
<defs>
<clipPath id="clip0_2628_579">
<rect width="30" height="30" fill="white"/>
</clipPath>
</defs>
</svg>
