<svg width="30" height="30" viewBox="0 0 30 30" fill="none" xmlns="http://www.w3.org/2000/svg">
<g id="Icon" clip-path="url(#clip0_2628_273)">
<rect id="Background" width="30" height="30" rx="7" fill="#FB3F30"/>
<g id="Icon_2">
<path d="M7 15C7 10.2557 11.0085 7.00244 14.75 7.00244C15.3023 7.00244 15.75 6.55473 15.75 6.00244C15.75 5.45016 15.3023 5.00244 14.75 5.00244C9.99145 5.00244 5 9.06561 5 15C5 18.4771 6.81181 21.6868 9.72345 23.4902C10.193 23.781 10.8093 23.6361 11.1001 23.1666C11.3909 22.697 11.2461 22.0807 10.7765 21.7899C8.45033 20.3491 7 17.7808 7 15Z" fill="white"/>
<path d="M15.9973 9.99899C15.9973 9.44671 15.5496 8.99899 14.9973 8.99899C14.4451 8.99899 13.9973 9.44671 13.9973 9.99899V14.1415L11.4791 18.4997C11.2028 18.9779 11.3665 19.5896 11.8447 19.8659C12.3229 20.1422 12.9346 19.9785 13.2109 19.5003L15.9973 14.6777V9.99899Z" fill="white"/>
<path d="M20.5033 7.20773C20.5033 7.76002 20.0556 8.20773 19.5033 8.20773C18.951 8.20773 18.5033 7.76002 18.5033 7.20773C18.5033 6.65545 18.951 6.20773 19.5033 6.20773C20.0556 6.20773 20.5033 6.65545 20.5033 7.20773Z" fill="white"/>
<path d="M19.5033 23.7888C20.0556 23.7888 20.5033 23.3411 20.5033 22.7888C20.5033 22.2365 20.0556 21.7888 19.5033 21.7888C18.951 21.7888 18.5033 22.2365 18.5033 22.7888C18.5033 23.3411 18.951 23.7888 19.5033 23.7888Z" fill="white"/>
<path d="M23.7913 10.4995C23.7913 11.0518 23.3436 11.4995 22.7913 11.4995C22.2391 11.4995 21.7913 11.0518 21.7913 10.4995C21.7913 9.94726 22.2391 9.49954 22.7913 9.49954C23.3436 9.49954 23.7913 9.94726 23.7913 10.4995Z" fill="white"/>
<path d="M22.7913 20.4961C23.3436 20.4961 23.7913 20.0484 23.7913 19.4961C23.7913 18.9438 23.3436 18.4961 22.7913 18.4961C22.2391 18.4961 21.7913 18.9438 21.7913 19.4961C21.7913 20.0484 22.2391 20.4961 22.7913 20.4961Z" fill="white"/>
<path d="M25 15C25 15.5523 24.5523 16 24 16C23.4477 16 23 15.5523 23 15C23 14.4477 23.4477 14 24 14C24.5523 14 25 14.4477 25 15Z" fill="white"/>
<path d="M15 25C15.5523 25 16 24.5523 16 24C16 23.4477 15.5523 23 15 23C14.4477 23 14 23.4477 14 24C14 24.5523 14.4477 25 15 25Z" fill="white"/>
</g>
</g>
<defs>
<clipPath id="clip0_2628_273">
<rect width="30" height="30" fill="white"/>
</clipPath>
</defs>
</svg>
