<svg width="30" height="30" viewBox="0 0 30 30" fill="none" xmlns="http://www.w3.org/2000/svg">
<g id="Icon" clip-path="url(#clip0_2628_617)">
<rect id="Background" width="30" height="30" rx="7" fill="#FF9200"/>
<g id="Icon_2">
<path d="M11.4 5C10.7635 5 10.153 5.27889 9.70294 5.77531C9.25286 6.27173 9 6.94502 9 7.64706V18.5C9 19.5 9.5 20 10.5 20H22.6C23.2365 20 23.847 19.7211 24.2971 19.2247C24.7471 18.7283 25 18.055 25 17.3529V10.2941C25 9.59207 24.7471 8.91878 24.2971 8.42236C23.847 7.92594 23.2365 7.64706 22.6 7.64706H17.3314L15.1657 5.25844C15.0157 5.09296 14.8122 5 14.6 5H11.4Z" fill="white"/>
<path d="M20.8758 22H10C8.34315 22 7 20.6569 7 19V10.1593C5.83481 10.5437 5 11.5809 5 12.8V21.2C5 22.7464 6.34315 24 8 24H18C19.359 24 20.507 23.1566 20.8758 22Z" fill="white"/>
</g>
</g>
<defs>
<clipPath id="clip0_2628_617">
<rect width="30" height="30" fill="white"/>
</clipPath>
</defs>
</svg>
