<svg viewBox="0 0 28 28" fill="none" xmlns="http://www.w3.org/2000/svg">
<g clip-path="url(#clip0_830_12402)">
<rect width="28" height="28" rx="6" fill="#BC56D7"/>
<path fill-rule="evenodd" clip-rule="evenodd" d="M4.8381 8.5975C4.83449 8.63349 4.83298 8.66975 4.83365 8.7061V20.5892C4.83207 20.6751 4.84258 20.7619 4.86587 20.8469C4.89451 20.9519 4.94135 21.0494 5.0028 21.1358C5.08288 21.2489 5.18501 21.339 5.29984 21.4036C5.40518 21.4632 5.52348 21.5025 5.64945 21.5163C5.76601 21.5293 5.88569 21.5201 6.00183 21.4868C6.07972 21.4647 6.15338 21.4325 6.22131 21.3917C7.33303 20.7528 8.59292 20.4165 9.87532 20.4165C11.1626 20.4165 12.4272 20.7553 13.542 21.399C13.8256 21.5627 14.175 21.5627 14.4586 21.399C15.5735 20.7553 16.838 20.4165 18.1253 20.4165C19.4079 20.4165 20.6679 20.7529 21.7797 21.3919C21.8475 21.4325 21.921 21.4647 21.9986 21.4868C22.1148 21.5201 22.2346 21.5293 22.3512 21.5163C22.6042 21.4881 22.8425 21.3552 22.9978 21.1358C23.0593 21.0493 23.1062 20.9517 23.1348 20.8466C23.1581 20.7617 23.1686 20.6751 23.167 20.5892V8.70607C23.1676 8.67018 23.1662 8.63438 23.1627 8.59885C23.1495 8.4636 23.107 8.33696 23.0416 8.22539C22.9797 8.11943 22.8959 8.02476 22.7921 7.94891C22.7601 7.92547 22.7266 7.90405 22.6917 7.88483C21.3023 7.08663 19.7279 6.6665 18.1253 6.6665C16.6902 6.6665 15.2776 7.00343 14.0003 7.64707C12.723 7.00343 11.3104 6.6665 9.87532 6.6665C8.27275 6.6665 6.6983 7.08664 5.30893 7.88484C5.27408 7.90403 5.24061 7.92541 5.20871 7.94881C5.10474 8.02474 5.02079 8.11955 4.95887 8.22566C4.89375 8.3368 4.85136 8.46287 4.8381 8.5975ZM14.9168 10.3332C14.9168 9.82691 14.5064 9.4165 14.0002 9.4165C13.4939 9.4165 13.0835 9.82691 13.0835 10.3332V18.5832C13.0835 19.0894 13.4939 19.4998 14.0002 19.4998C14.5064 19.4998 14.9168 19.0894 14.9168 18.5832V10.3332Z" fill="white"/>
</g>
<defs>
<clipPath id="clip0_830_12402">
<rect width="28" height="28" fill="white"/>
</clipPath>
</defs>
</svg>
