<svg width="512" height="512" viewBox="0 0 512 512" fill="none" xmlns="http://www.w3.org/2000/svg">
<rect x="128.32" y="128.32" width="255.36" height="255.36" rx="79.8" stroke="black" stroke-width="50.4"/>
<rect x="182.08" y="182.08" width="147.84" height="147.84" rx="33.6" fill="black"/>
<path d="M71.416 400.558C56.066 400.558 44.5023 396.669 36.725 388.892C28.9477 381.319 25.059 370.063 25.059 355.122V284.512C25.059 279.191 23.831 275.302 21.375 272.846C18.919 270.39 15.542 269.162 11.244 269.162H0.499001V244.602H11.244C15.542 244.602 18.919 243.374 21.375 240.918C23.831 238.462 25.059 234.573 25.059 229.252V158.642C25.059 143.497 28.9477 132.138 36.725 124.565C44.5023 116.992 56.066 113.206 71.416 113.206H84.924V137.459H77.249C69.6763 137.459 63.9457 139.506 60.057 143.599C56.373 147.692 54.531 153.628 54.531 161.405V228.638C54.531 235.801 53.61 241.43 51.768 245.523C49.926 249.412 47.163 252.379 43.479 254.426C39.9997 256.268 35.3947 257.701 29.664 258.724V255.04C35.3947 255.859 39.9997 257.291 43.479 259.338C47.163 261.385 49.926 264.455 51.768 268.548C53.61 272.437 54.531 277.963 54.531 285.126V352.359C54.531 360.136 56.373 366.072 60.057 370.165C63.9457 374.258 69.6763 376.305 77.249 376.305H84.924V400.558H71.416ZM439.756 400.558H426.248V376.305H433.616C441.598 376.305 447.431 374.258 451.115 370.165C455.004 366.072 456.948 360.136 456.948 352.359V285.126C456.948 277.963 457.767 272.437 459.404 268.548C461.246 264.455 464.009 261.385 467.693 259.338C471.377 257.291 475.982 255.859 481.508 255.04V258.724C475.982 257.701 471.377 256.268 467.693 254.426C464.009 252.379 461.246 249.412 459.404 245.523C457.767 241.43 456.948 235.801 456.948 228.638V161.405C456.948 153.628 455.004 147.692 451.115 143.599C447.431 139.506 441.598 137.459 433.616 137.459H426.248V113.206H439.756C455.106 113.206 466.67 116.992 474.447 124.565C482.429 132.138 486.42 143.497 486.42 158.642V229.252C486.42 234.573 487.648 238.462 490.104 240.918C492.56 243.374 495.835 244.602 499.928 244.602H510.366V269.162H499.928C495.835 269.162 492.56 270.39 490.104 272.846C487.648 275.302 486.42 279.191 486.42 284.512V355.122C486.42 370.063 482.429 381.319 474.447 388.892C466.67 396.669 455.106 400.558 439.756 400.558Z" fill="black"/>
</svg>
