<svg width="24" height="24" viewBox="0 0 25 24" fill="none" xmlns="http://www.w3.org/2000/svg">
<path fill-rule="evenodd" clip-rule="evenodd" d="M11.0444 3C6.87776 3 3.5 6.37775 3.5 10.5444C3.5 14.7111 6.87776 18.0888 11.0444 18.0888C12.6885 18.0888 14.2098 17.5629 15.4492 16.6701L20.7791 22L22.5 20.2791L17.1701 14.9493C18.0629 13.7099 18.5889 12.1885 18.5889 10.5444C18.5889 6.37775 15.2111 3 11.0444 3ZM5.93369 10.5444C5.93369 7.72183 8.22184 5.43368 11.0444 5.43368C13.867 5.43368 16.1552 7.72183 16.1552 10.5444C16.1552 13.367 13.867 15.6551 11.0444 15.6551C8.22184 15.6551 5.93369 13.367 5.93369 10.5444Z" fill="#878E99"/>
</svg>
