<svg width="10" height="10" viewBox="0 0 10 10" fill="none" xmlns="http://www.w3.org/2000/svg">
<g id="star" clip-path="url(#clip0_1180_16337)">
<path id="Vector (Stroke)" fill-rule="evenodd" clip-rule="evenodd" d="M5.00012 0.416748C5.15872 0.416748 5.30357 0.50679 5.37376 0.649014L6.56264 3.05797L9.22083 3.44399C9.37779 3.46678 9.5082 3.57671 9.55722 3.72756C9.60624 3.8784 9.56537 4.04399 9.45179 4.1547L7.52824 6.02971L7.98245 8.67755C8.00927 8.83387 7.94501 8.99186 7.8167 9.08509C7.68838 9.17831 7.51827 9.19061 7.37789 9.1168L5.00012 7.86666L2.62235 9.1168C2.48197 9.19061 2.31186 9.17831 2.18354 9.08509C2.05523 8.99186 1.99097 8.83387 2.01778 8.67755L2.472 6.02971L0.548447 4.1547C0.434871 4.04399 0.393999 3.8784 0.443019 3.72756C0.492038 3.57671 0.622446 3.46678 0.779407 3.44399L3.4376 3.05797L4.62648 0.649014C4.69667 0.50679 4.84152 0.416748 5.00012 0.416748Z" />
</g>
<defs>
<clipPath id="clip0_1180_16337">
<rect width="10" height="10" fill="white"/>
</clipPath>
</defs>
</svg>
