<svg width="12" height="12" viewBox="0 0 12 12" fill="none" xmlns="http://www.w3.org/2000/svg">
<path fill-rule="evenodd" clip-rule="evenodd" d="M2 3.5C2 2.11929 3.11929 1 4.5 1C5.88071 1 7 2.11929 7 3.5C7 4.88071 5.88071 6 4.5 6C3.11929 6 2 4.88071 2 3.5Z" />
<path fill-rule="evenodd" clip-rule="evenodd" d="M7.90005 9.89579C7.82669 10.161 7.58414 10.4089 7.20435 10.6004C6.74383 10.8327 5.46795 10.9631 5.46795 10.9631C5.46795 10.9631 4.2662 11.0461 3.50343 10.9631C2.81492 10.8883 2.22755 10.8327 1.76703 10.6004C1.38723 10.4089 1.16869 10.2715 1.07133 9.89579C0.86168 9.08675 1.1205 8.1021 1.76703 7.58039C2.22755 7.20877 2.85215 7 3.50343 7H5.46795C6.11922 7 6.74383 7.20877 7.20435 7.58039C7.78601 8.04976 8.1992 9.14607 7.90005 9.89579Z" />
<path fill-rule="evenodd" clip-rule="evenodd" d="M7.53138 6.016C7.31506 6.016 7.22924 5.75875 7.35624 5.58363C7.77787 5.00221 8.0269 4.28454 8.0269 3.508C8.0269 2.73145 7.77787 2.01379 7.35624 1.43237C7.22924 1.25725 7.31506 1 7.53138 1C8.89971 1 10.009 2.12287 10.009 3.508C10.009 4.89313 8.89971 6.016 7.53138 6.016ZM9.26351 10.6546C8.9718 10.7015 8.79035 10.3654 8.90857 10.0946C8.92313 10.0612 8.93551 10.0289 8.945 9.99822C9.18547 9.346 9.02979 8.89765 8.85308 8.34728C8.74074 7.99741 8.56864 7.6448 8.34288 7.33573C8.25167 7.21086 8.33599 7.01919 8.49062 7.01919C9.13606 7.01919 9.75506 7.22864 10.2115 7.60144C10.7879 8.07232 11.4874 9.18167 10.9009 9.92425C10.7162 10.1581 10.6662 10.189 10.2898 10.3811C10.0444 10.5064 9.63176 10.5954 9.26351 10.6546Z" />
</svg>
