<svg width="12" height="22" viewBox="0 0 12 22" fill="none" xmlns="http://www.w3.org/2000/svg">
<path fill-rule="evenodd" clip-rule="evenodd" d="M2.00006 9.5C2.00006 8.11929 3.11935 7 4.50006 7C5.88077 7 7.00006 8.11929 7.00006 9.5C7.00006 10.8807 5.88077 12 4.50006 12C3.11935 12 2.00006 10.8807 2.00006 9.5Z" />
<path fill-rule="evenodd" clip-rule="evenodd" d="M7.90008 15.8958C7.82672 16.161 7.58418 16.4089 7.20438 16.6004C6.74386 16.8327 5.46798 16.9631 5.46798 16.9631C5.46798 16.9631 4.26624 17.0461 3.50346 16.9631C2.81495 16.8883 2.22758 16.8327 1.76706 16.6004C1.38726 16.4089 1.16872 16.2715 1.07136 15.8958C0.861711 15.0867 1.12053 14.1021 1.76706 13.5804C2.22758 13.2088 2.85218 13 3.50346 13H5.46798C6.11925 13 6.74386 13.2088 7.20438 13.5804C7.78604 14.0498 8.19923 15.1461 7.90008 15.8958Z" />
<path fill-rule="evenodd" clip-rule="evenodd" d="M7.49598 12.016C7.27966 12.016 7.19384 11.7587 7.32084 11.5836C7.74247 11.0022 7.9915 10.2845 7.9915 9.508C7.9915 8.73145 7.74247 8.01379 7.32084 7.43237C7.19384 7.25725 7.27966 7 7.49598 7V7C8.86431 7 9.97356 8.12287 9.97356 9.508C9.97356 10.8931 8.86431 12.016 7.49598 12.016V12.016ZM9.22811 16.6546C8.9364 16.7015 8.75495 16.3654 8.87316 16.0946C8.88773 16.0612 8.90011 16.0289 8.9096 15.9982C9.15007 15.346 8.99439 14.8977 8.81768 14.3473C8.70534 13.9974 8.53324 13.6448 8.30748 13.3357C8.21627 13.2109 8.30059 13.0192 8.45522 13.0192V13.0192C9.10066 13.0192 9.71966 13.2286 10.1761 13.6014C10.7525 14.0723 11.452 15.1817 10.8655 15.9242C10.6808 16.1581 10.6308 16.189 10.2544 16.3811C10.009 16.5064 9.59636 16.5954 9.22811 16.6546Z" />
</svg>
