<svg viewBox="0 0 24 24" fill="none" xmlns="http://www.w3.org/2000/svg">
<path fill-rule="evenodd" clip-rule="evenodd" d="M23 12C23 18.0751 18.0751 23 12 23C5.92487 23 1 18.0751 1 12C1 5.92487 5.92487 1 12 1C18.0751 1 23 5.92487 23 12ZM13.2221 6.99998C13.2221 6.38633 12.6749 5.88887 11.9999 5.88887C11.3248 5.88887 10.7776 6.38633 10.7776 6.99998V10.7779H7.00022C6.38657 10.7779 5.88911 11.3251 5.88911 12.0001C5.88911 12.6751 6.38657 13.2224 7.00022 13.2224H10.7776V17C10.7776 17.6136 11.3248 18.1111 11.9999 18.1111C12.6749 18.1111 13.2221 17.6136 13.2221 17V13.2224H17.0002C17.6139 13.2224 18.1113 12.6751 18.1113 12.0001C18.1113 11.3251 17.6139 10.7779 17.0002 10.7779H13.2221V6.99998Z"/>
</svg>
