<svg viewBox="0 0 28 28" fill="none" xmlns="http://www.w3.org/2000/svg">
<g clip-path="url(#clip0_830_10203)">
<rect width="28" height="28" rx="6" fill="#FB3F30"/>
<g clip-path="url(#clip1_830_10203)">
<path fill-rule="evenodd" clip-rule="evenodd" d="M15.675 6.317C15.249 4.561 12.751 4.561 12.325 6.317C12.049 7.452 10.749 7.99 9.753 7.382C8.209 6.442 6.443 8.209 7.383 9.752C7.5243 9.98375 7.60889 10.2456 7.62987 10.5162C7.65085 10.7868 7.60764 11.0586 7.50375 11.3093C7.39985 11.5601 7.23822 11.7828 7.032 11.9593C6.82578 12.1358 6.5808 12.2611 6.317 12.325C4.561 12.751 4.561 15.249 6.317 15.675C6.58056 15.7391 6.82529 15.8645 7.03127 16.0409C7.23726 16.2174 7.3987 16.44 7.50247 16.6906C7.60624 16.9412 7.64942 17.2128 7.62848 17.4832C7.60755 17.7537 7.5231 18.0153 7.382 18.247C6.442 19.791 8.209 21.557 9.752 20.617C9.98375 20.4757 10.2456 20.3911 10.5162 20.3701C10.7868 20.3491 11.0586 20.3924 11.3093 20.4963C11.5601 20.6001 11.7828 20.7618 11.9593 20.968C12.1358 21.1742 12.2611 21.4192 12.325 21.683C12.751 23.439 15.249 23.439 15.675 21.683C15.7391 21.4194 15.8645 21.1747 16.0409 20.9687C16.2174 20.7627 16.44 20.6013 16.6906 20.4975C16.9412 20.3938 17.2128 20.3506 17.4832 20.3715C17.7537 20.3924 18.0153 20.4769 18.247 20.618C19.791 21.558 21.557 19.791 20.617 18.248C20.4757 18.0162 20.3911 17.7544 20.3701 17.4838C20.3491 17.2132 20.3924 16.9414 20.4963 16.6907C20.6001 16.4399 20.7618 16.2172 20.968 16.0407C21.1742 15.8642 21.4192 15.7389 21.683 15.675C23.439 15.249 23.439 12.751 21.683 12.325C21.4194 12.2609 21.1747 12.1355 20.9687 11.9591C20.7627 11.7826 20.6013 11.56 20.4975 11.3094C20.3938 11.0588 20.3506 10.7872 20.3715 10.5168C20.3924 10.2463 20.4769 9.98466 20.618 9.753C21.558 8.209 19.791 6.443 18.248 7.383C18.0162 7.5243 17.7544 7.60889 17.4838 7.62987C17.2132 7.65085 16.9414 7.60764 16.6907 7.50375C16.4399 7.39985 16.2172 7.23822 16.0407 7.032C15.8642 6.82578 15.7389 6.5808 15.675 6.317ZM17 14C17 15.6569 15.6569 17 14 17C12.3431 17 11 15.6569 11 14C11 12.3431 12.3431 11 14 11C15.6569 11 17 12.3431 17 14Z" fill="white"/>
</g>
</g>
<defs>
<clipPath id="clip0_830_10203">
<rect width="28" height="28" fill="white"/>
</clipPath>
<clipPath id="clip1_830_10203">
<rect width="24" height="24" fill="white" transform="translate(2 2)"/>
</clipPath>
</defs>
</svg>
