<svg width="24" height="24" viewBox="0 0 24 24" fill="none" xmlns="http://www.w3.org/2000/svg">
<path fill-rule="evenodd" clip-rule="evenodd" d="M21 12C21 16.9706 16.9706 21 12 21C7.02944 21 3 16.9706 3 12C3 7.02944 7.02944 3 12 3C16.9706 3 21 7.02944 21 12ZM13.1594 12L9.739 14.3701C9.46894 14.5572 9.38905 14.9979 9.56056 15.3544C9.73207 15.711 10.09 15.8483 10.3601 15.6612L14.6121 12.7149C14.6709 12.6874 14.727 12.6485 14.7782 12.5992C14.947 12.4717 15.0362 12.2417 15.0295 11.9999C15.0361 11.7582 14.947 11.5284 14.7783 11.4008C14.7271 11.3515 14.6709 11.3126 14.6121 11.2851L10.3601 8.33883C10.09 8.1517 9.73206 8.28903 9.56055 8.64556C9.38904 9.0021 9.46893 9.44282 9.73899 9.62996L13.1594 12Z" fill="white"/>
</svg>
