<svg width="16" height="16" viewBox="0 0 16 16" fill="none" xmlns="http://www.w3.org/2000/svg">
<path d="M7.37565 2.33662C7.59161 1.75905 8.40856 1.75905 8.62453 2.33662L9.82051 5.53508C9.91421 5.78564 10.1486 5.95594 10.4158 5.96762L13.8273 6.11669C14.4434 6.1436 14.6958 6.92057 14.2133 7.30444L11.5409 9.43027C11.3316 9.59681 11.2421 9.87235 11.3135 10.1301L12.226 13.4207C12.3907 14.0149 11.7298 14.4951 11.2156 14.1548L8.36803 12.2702C8.14495 12.1225 7.85523 12.1225 7.63215 12.2702L4.78457 14.1548C4.27037 14.4951 3.60944 14.0149 3.7742 13.4207L4.68664 10.1301C4.75812 9.87235 4.66859 9.59681 4.45924 9.43027L1.7869 7.30444C1.30434 6.92057 1.55679 6.1436 2.17283 6.11669L5.58433 5.96762C5.85158 5.95594 6.08597 5.78564 6.17966 5.53508L7.37565 2.33662Z" fill="#878E99"/>
</svg>
