<svg width="24" height="24" viewBox="0 0 29 29" fill="none" xmlns="http://www.w3.org/2000/svg">
<g>
<path d="M11.0229 17.2841L13.3081 16.288L24.2534 5.35444L22.6479 3.77241L11.7143 14.706L10.6596 16.9091C10.5659 17.1083 10.8003 17.3778 11.0229 17.2841ZM25.1206 4.49897L25.9643 3.63178C26.3628 3.20991 26.3628 2.64741 25.9643 2.26069L25.6948 1.97944C25.3315 1.61616 24.7573 1.66303 24.3706 2.03803L23.5151 2.88178L25.1206 4.49897Z" />
<path d="M18.1597 5.99902H6.79248C5.62061 5.99902 4.96436 6.63183 4.96436 7.85058V21.1514C4.96436 22.3701 5.62061 22.9912 6.79248 22.9912H20.1401C21.312 22.9912 21.9565 22.3701 21.9565 21.1514V9.88727L23.8432 7.99715V21.2451C23.8432 23.6709 22.6128 24.8779 20.1635 24.8779H6.75733C4.31983 24.8779 3.07764 23.6709 3.07764 21.2451V7.74511C3.07764 5.33105 4.31983 4.1123 6.75733 4.1123H20.0465L18.1597 5.99902Z" />
</g>
</svg>
