<svg width="25" height="25" viewBox="0 0 26 26" fill="none" xmlns="http://www.w3.org/2000/svg">
<g>
<path d="M10.3208 20.1368C10.7026 20.1368 10.9538 19.8957 10.9437 19.5441L10.6323 8.79421C10.6222 8.44257 10.3711 8.2115 10.0094 8.2115C9.62762 8.2115 9.37645 8.45262 9.3865 8.80425L9.6879 19.5441C9.69795 19.9058 9.94911 20.1368 10.3208 20.1368ZM13.2947 20.1368C13.6764 20.1368 13.9477 19.8957 13.9477 19.5441V8.80425C13.9477 8.45262 13.6764 8.2115 13.2947 8.2115C12.9128 8.2115 12.6517 8.45262 12.6517 8.80425V19.5441C12.6517 19.8957 12.9128 20.1368 13.2947 20.1368ZM16.2784 20.1368C16.6401 20.1368 16.8913 19.9058 16.9014 19.5441L17.2027 8.80425C17.2128 8.45262 16.9616 8.2115 16.5799 8.2115C16.2182 8.2115 15.967 8.44257 15.957 8.80425L15.6556 19.5441C15.6455 19.8957 15.8967 20.1368 16.2784 20.1368ZM8.88417 5.58934H10.4816V3.43937C10.4816 2.86672 10.8834 2.49499 11.4862 2.49499H15.0829C15.6857 2.49499 16.0876 2.86672 16.0876 3.43937V5.58934H17.685V3.3389C17.685 1.88215 16.7406 0.998047 15.1934 0.998047H11.3757C9.82855 0.998047 8.88417 1.88215 8.88417 3.3389V5.58934ZM4.32301 6.39307H22.2763C22.6882 6.39307 23.0197 6.04144 23.0197 5.62952C23.0197 5.21762 22.6882 4.87604 22.2763 4.87604H4.32301C3.92115 4.87604 3.56952 5.21762 3.56952 5.62952C3.56952 6.05148 3.92115 6.39307 4.32301 6.39307ZM8.69328 23.3719H17.9061C19.3426 23.3719 20.3071 22.4375 20.3775 21.0008L21.0808 6.20218H19.4633L18.7901 20.83C18.77 21.4328 18.3381 21.8548 17.7453 21.8548H8.83393C8.26128 21.8548 7.82928 21.4228 7.79913 20.83L7.08583 6.20218H5.50851L6.22182 21.0109C6.29215 22.4475 7.23652 23.3719 8.69328 23.3719Z"/>
</g>
</svg>
