<svg width="24" height="24" viewBox="0 0 24 24" fill="none" xmlns="http://www.w3.org/2000/svg">
<g id="users">
<path id="Vector (Stroke)" fill-rule="evenodd" clip-rule="evenodd" d="M9 4C7.34315 4 6 5.34315 6 7C6 8.65685 7.34315 10 9 10C10.6569 10 12 8.65685 12 7C12 5.34315 10.6569 4 9 4ZM4 7C4 4.23858 6.23858 2 9 2C11.7614 2 14 4.23858 14 7C14 9.76142 11.7614 12 9 12C6.23858 12 4 9.76142 4 7Z"/>
<path id="Vector (Stroke)_2" fill-rule="evenodd" clip-rule="evenodd" d="M7 16C6.20435 16 5.44129 16.3161 4.87868 16.8787C4.31607 17.4413 4 18.2044 4 19V21C4 21.5523 3.55228 22 3 22C2.44772 22 2 21.5523 2 21V19C2 17.6739 2.52678 16.4021 3.46447 15.4645C4.40215 14.5268 5.67392 14 7 14H11C12.3261 14 13.5979 14.5268 14.5355 15.4645C15.4732 16.4021 16 17.6739 16 19V21C16 21.5523 15.5523 22 15 22C14.4477 22 14 21.5523 14 21V19C14 18.2044 13.6839 17.4413 13.1213 16.8787C12.5587 16.3161 11.7956 16 11 16H7Z"/>
<path id="Vector (Stroke)_3" fill-rule="evenodd" clip-rule="evenodd" d="M15.0315 2.88208C15.1685 2.34706 15.7133 2.02439 16.2483 2.16137C17.3238 2.43675 18.2771 3.06225 18.9578 3.93926C19.6386 4.81627 20.0081 5.89491 20.0081 7.00512C20.0081 8.11534 19.6386 9.19397 18.9578 10.071C18.2771 10.948 17.3238 11.5735 16.2483 11.8489C15.7133 11.9859 15.1685 11.6632 15.0315 11.1282C14.8945 10.5931 15.2172 10.0484 15.7522 9.91137C16.3975 9.74615 16.9695 9.37085 17.3779 8.84464C17.7864 8.31843 18.0081 7.67125 18.0081 7.00512C18.0081 6.339 17.7864 5.69181 17.3779 5.16561C16.9695 4.6394 16.3975 4.2641 15.7522 4.09887C15.2172 3.96189 14.8945 3.41711 15.0315 2.88208Z"/>
<path id="Vector (Stroke)_4" fill-rule="evenodd" clip-rule="evenodd" d="M17.032 14.9002C17.1701 14.3654 17.7155 14.0438 18.2502 14.1819C19.3188 14.4578 20.266 15.0794 20.9443 15.9499C21.6226 16.8204 21.9939 17.8908 22.0002 18.9944L22.0003 19.0001H22.0002V21.0001C22.0002 21.5524 21.5525 22.0001 21.0002 22.0001C20.448 22.0001 20.0002 21.5524 20.0002 21.0001V19.0032C19.9959 18.342 19.7732 17.7008 19.3667 17.1792C18.9597 16.6569 18.3914 16.2839 17.7503 16.1184C17.2155 15.9803 16.8939 15.4349 17.032 14.9002Z"/>
</g>
</svg>
