<svg width="22" height="22" viewBox="0 0 22 22" fill="none" xmlns="http://www.w3.org/2000/svg">
<g id="user">
<path id="Vector (Stroke)" fill-rule="evenodd" clip-rule="evenodd" d="M10.9998 3.66659C9.48105 3.66659 8.24984 4.8978 8.24984 6.41659C8.24984 7.93537 9.48105 9.16659 10.9998 9.16659C12.5186 9.16659 13.7498 7.93537 13.7498 6.41659C13.7498 4.8978 12.5186 3.66659 10.9998 3.66659ZM6.4165 6.41659C6.4165 3.88528 8.46853 1.83325 10.9998 1.83325C13.5311 1.83325 15.5832 3.88528 15.5832 6.41659C15.5832 8.94789 13.5311 10.9999 10.9998 10.9999C8.46853 10.9999 6.4165 8.94789 6.4165 6.41659Z"/>
<path id="Vector (Stroke)_2" fill-rule="evenodd" clip-rule="evenodd" d="M9.16683 14.6666C8.43748 14.6666 7.73801 14.9563 7.22229 15.472C6.70656 15.9878 6.41683 16.6872 6.41683 17.4166V19.2499C6.41683 19.7562 6.00642 20.1666 5.50016 20.1666C4.9939 20.1666 4.5835 19.7562 4.5835 19.2499V17.4166C4.5835 16.201 5.06638 15.0352 5.92592 14.1757C6.78546 13.3161 7.95125 12.8333 9.16683 12.8333H12.8335C14.0491 12.8333 15.2149 13.3161 16.0744 14.1757C16.9339 15.0352 17.4168 16.201 17.4168 17.4166V19.2499C17.4168 19.7562 17.0064 20.1666 16.5002 20.1666C15.9939 20.1666 15.5835 19.7562 15.5835 19.2499V17.4166C15.5835 16.6872 15.2938 15.9878 14.778 15.472C14.2623 14.9563 13.5628 14.6666 12.8335 14.6666H9.16683Z"/>
</g>
</svg>
