<svg width="28" height="28" viewBox="0 0 28 28" xmlns="http://www.w3.org/2000/svg">
<path fill-rule="evenodd" clip-rule="evenodd" d="M11.9985 2.51773C12.6049 2.16023 13.2959 1.97168 13.9999 1.97168C14.7038 1.97168 15.3948 2.16023 16.0012 2.51773C16.6047 2.87354 17.1024 3.38378 17.443 3.99583L26.6338 20.0796C26.6627 20.1303 26.6883 20.1829 26.7103 20.237C26.9468 20.8193 27.0406 21.4499 26.9838 22.0759C26.9271 22.7019 26.7214 23.3052 26.3839 23.8355C26.0464 24.3658 25.587 24.8077 25.0439 25.1243C24.5009 25.4409 23.89 25.6229 23.2622 25.6553C23.2397 25.6565 23.2172 25.657 23.1946 25.657H4.89705C4.88197 25.657 4.86695 25.6568 4.852 25.6563C4.81417 25.6576 4.77597 25.6573 4.73747 25.6553C4.10973 25.6229 3.49883 25.4409 2.95578 25.1243C2.41273 24.8077 1.9533 24.3659 1.61583 23.8355C1.27835 23.3052 1.07264 22.7019 1.01587 22.0759C0.959087 21.4499 1.05289 20.8193 1.28944 20.237C1.31142 20.1829 1.33698 20.1303 1.36595 20.0796L10.5567 3.99583C10.8973 3.38378 11.395 2.87354 11.9985 2.51773ZM13.9999 9.89468C14.7253 9.89468 15.3134 10.4828 15.3134 11.2082V13.8353C15.3134 14.5607 14.7253 15.1488 13.9999 15.1488C13.2744 15.1488 12.6863 14.5607 12.6863 13.8353V11.2082C12.6863 10.4828 13.2744 9.89468 13.9999 9.89468ZM13.9999 17.7759C14.7253 17.7759 15.3134 18.364 15.3134 19.0894V19.1026C15.3134 19.828 14.7253 20.4161 13.9999 20.4161C13.2744 20.4161 12.6863 19.828 12.6863 19.1026V19.0894C12.6863 18.364 13.2744 17.7759 13.9999 17.7759Z" fill-opacity="0.8"/>
</svg>
