<svg width="80" height="80" viewBox="0 0 80 80" fill="none" xmlns="http://www.w3.org/2000/svg">
<g clip-path="url(#clip0_1111_2)">
<path d="M16.4387 62.2824C16.4387 62.2824 19.2208 62.7069 19.613 63.1829C20.0053 63.6589 20.8425 67.3336 23.5599 66.9279C26.2774 66.5222 27.0226 66.5386 27.6309 65.4093L24.0037 64.5378L22.4437 61.9379L21.4037 61.4179L17.7638 60.3779L16.4387 62.2824Z" fill="#35468B" stroke="#35468B" stroke-width="0.5" stroke-miterlimit="10" stroke-linejoin="round"/>
<path d="M35.4372 60.2499C35.4372 60.2499 33.0693 62.5946 30.924 61.6902C28.7785 60.7857 29.543 61.0192 29.543 61.0192L29.7237 59.8579L31.2837 59.3379L35.4372 60.2499Z" fill="#35468B" stroke="#35468B" stroke-width="0.5" stroke-miterlimit="10" stroke-linejoin="round"/>
<path d="M17.8884 42.1996C17.8884 42.1996 22.4891 41.2606 24.9907 45.2112C27.4923 49.1619 26.8683 53.7398 22.5038 55.3554L22.9639 55.6979H26.0838L29.7237 53.618L31.2837 49.4581L29.7237 42.6983L25.5638 39.5783L22.4439 39.0583L18.804 40.0983L17.8884 42.1996Z" fill="#3557C2" stroke="#35468B" stroke-width="0.5" stroke-miterlimit="10" stroke-linejoin="round"/>
<path d="M11.195 34.6721C10.2886 34.6368 8.71141 35.0205 7.7849 36.299C7.44422 36.7691 7.1596 37.1306 6.98316 37.4984C6.67975 38.1308 6.69624 38.7817 7.29768 40.0353C8.24883 42.0178 8.48844 41.7942 8.0631 43.77C7.63775 45.7459 7.62308 46.3515 5.95964 47.1248C4.29615 47.8981 4.6685 49.6804 4.65518 50.2292C4.64186 50.7781 4.75059 52.5884 6.84851 52.8649C8.94645 53.1414 9.22059 54.1646 9.81254 55.1468C10.4044 56.129 10.6313 56.4564 10.3764 57.9354C10.1215 59.4144 9.64604 61.4276 11.1792 62.4902C12.7123 63.5529 12.9214 64.0376 15.7353 62.491L11.195 34.6721Z" fill="#3557C2" stroke="#35468B" stroke-width="0.5" stroke-miterlimit="10" stroke-linejoin="round"/>
<path d="M18.8039 30.2188C18.8039 30.2188 15.6364 30.7886 15.3646 32.5442C15.093 34.2998 15.1975 35.303 15.1975 35.303L18.2839 34.3786L18.8039 30.2188Z" fill="#35468C" stroke="#35468B" stroke-width="0.5" stroke-miterlimit="10" stroke-linejoin="round"/>
<path d="M18.9771 30.1613C18.9771 30.1613 21.7663 28.8675 22.9122 31.1901C24.0582 33.5126 24.404 33.902 25.1476 34.1133C25.8911 34.3246 27.1599 35.1491 28.1596 34.5254C29.1593 33.9015 30.4652 32.796 32.1139 34.5181C33.7628 36.2402 33.3414 36.0791 33.1369 37.9066C32.9326 39.7342 32.6822 39.5729 33.5161 41.2818C34.3501 42.9906 34.2859 43.3414 36.3791 43.8854C38.4723 44.4294 38.5009 45.632 38.6411 46.7155C38.7813 47.7989 38.9183 48.545 37.246 49.4928C35.5737 50.4405 35.7321 50.538 35.3696 52.2115C35.007 53.8852 35.5397 54.7188 36.175 55.7411C36.8104 56.7634 37.554 58.0901 36.2154 59.5215C34.8766 60.9529 34.569 60.6402 32.9714 60.1666C31.3737 59.693 31.2252 59.624 30.0158 60.5207C28.8063 61.4175 28.6981 61.8175 28.3297 63.5793C27.9613 65.3411 27.5132 65.9524 26.0539 65.8735C24.5945 65.7945 24.4056 66.0628 23.343 63.9658C22.2804 61.8688 22.2925 62.1403 21.0016 61.5747C19.7106 61.0093 18.6369 60.5756 17.13 61.8467C15.6232 63.1178 14.5953 62.2359 13.9251 61.6811C13.2549 61.1263 12.4343 60.5808 12.752 58.4996C13.0697 56.4183 13.5578 56.3479 12.5177 54.5862C11.4778 52.8245 11.9567 52.6936 9.29776 51.8273C6.63896 50.9609 7.11965 50.092 6.94004 48.9965C6.76048 47.9009 6.71474 46.7634 8.07746 46.1977C9.44024 45.632 10.3109 45.1879 10.5268 43.4314C10.7426 41.675 11.3213 41.3694 10.3595 39.9643C9.3977 38.5592 8.88552 37.1627 9.51116 36.2616C10.1367 35.3606 10.6495 34.1773 12.3001 34.8895C13.9505 35.6016 14.5259 35.6815 15.7086 34.9586C16.8911 34.2357 17.7295 34.4852 17.9777 32.7675C18.2259 31.0499 18.634 30.3878 18.9771 30.1613Z" stroke="#35468B" stroke-width="0.5" stroke-miterlimit="10" stroke-linejoin="round"/>
<path fill-rule="evenodd" clip-rule="evenodd" d="M18.9771 30.1613C18.9771 30.1613 21.7663 28.8675 22.9122 31.1901C24.0582 33.5126 24.404 33.902 25.1476 34.1133C25.8911 34.3246 27.1599 35.1491 28.1596 34.5254C29.1593 33.9015 30.4652 32.796 32.1139 34.5181C33.7628 36.2402 33.3414 36.0791 33.1369 37.9066C32.9326 39.7342 32.6822 39.5729 33.5161 41.2818C34.3501 42.9906 34.2859 43.3414 36.3791 43.8854C38.4723 44.4294 38.5009 45.632 38.6411 46.7155C38.7813 47.7989 38.9183 48.545 37.246 49.4928C35.5737 50.4405 35.7321 50.538 35.3696 52.2115C35.0107 53.8681 35.5289 54.7017 36.1556 55.7098L36.175 55.7411C36.8104 56.7634 37.554 58.0901 36.2154 59.5215C34.8766 60.9529 34.569 60.6402 32.9714 60.1666C31.3737 59.693 31.2252 59.624 30.0158 60.5207C28.8063 61.4175 28.6981 61.8175 28.3297 63.5793C27.9613 65.3411 27.5132 65.9524 26.0539 65.8735C24.5945 65.7945 24.4056 66.0628 23.343 63.9658C22.2804 61.8688 22.2925 62.1403 21.0016 61.5747C19.7106 61.0093 18.6369 60.5756 17.13 61.8467C15.6411 63.1027 14.6198 62.2566 13.9492 61.7011L13.9251 61.6811C13.2549 61.1263 12.4343 60.5808 12.752 58.4996C13.0697 56.4183 13.5578 56.3479 12.5177 54.5862C11.4778 52.8245 11.9567 52.6936 9.29776 51.8273C6.63896 50.9609 7.11965 50.092 6.94004 48.9965C6.76048 47.9009 6.71474 46.7634 8.07746 46.1977C9.44024 45.632 10.3109 45.1879 10.5268 43.4314C10.7426 41.675 11.3213 41.3694 10.3595 39.9643C9.3977 38.5592 8.88552 37.1627 9.51116 36.2616C10.1367 35.3606 10.6495 34.1773 12.3001 34.8895C13.9505 35.6016 14.5259 35.6815 15.7086 34.9586C16.8911 34.2357 17.7295 34.4852 17.9777 32.7675C18.2259 31.0499 18.634 30.3878 18.9771 30.1613ZM17.7038 42.3718C16.6863 43.8235 16.1818 45.4777 16.4391 47.841C16.9363 52.4076 20.8874 56.102 25.0375 55.6503C29.1876 55.1984 31.0968 51.3726 30.5997 46.806C30.3614 44.6179 29.0892 42.7551 27.6313 41.4664C26.0463 40.0654 24.1969 39.3415 22.0352 39.5768C20.0328 39.7947 18.6523 41.0185 17.7038 42.3718Z" fill="#A5B5E8"/>
<path d="M36.175 55.7411C36.8104 56.7634 37.554 58.0901 36.2154 59.5215C34.8766 60.9529 34.569 60.6402 32.9714 60.1666C31.3737 59.693 31.2252 59.624 30.0158 60.5207C28.8063 61.4175 28.6981 61.8175 28.3297 63.5793C27.9613 65.3411 27.5132 65.9524 26.0539 65.8735C24.5945 65.7945 24.4056 66.0628 23.343 63.9658C22.2804 61.8688 22.2925 62.1403 21.0016 61.5747C19.7106 61.0093 18.6369 60.5756 17.13 61.8467C15.6411 63.1027 14.6198 62.2566 13.9492 61.7011M36.175 55.7411L36.1556 55.7098M36.175 55.7411C36.1685 55.7307 36.162 55.7203 36.1556 55.7098M13.9251 61.6811C13.2549 61.1263 12.4343 60.5808 12.752 58.4996C13.0697 56.4183 13.5578 56.3479 12.5177 54.5862C11.4778 52.8245 11.9567 52.6936 9.29776 51.8273C6.63896 50.9609 7.11965 50.092 6.94004 48.9965C6.76048 47.9009 6.71474 46.7634 8.07746 46.1977C9.44024 45.632 10.3109 45.1879 10.5268 43.4314C10.7426 41.675 11.3213 41.3694 10.3595 39.9643C9.3977 38.5592 8.88552 37.1627 9.51116 36.2616C10.1367 35.3606 10.6495 34.1773 12.3001 34.8895C13.9505 35.6016 14.5259 35.6815 15.7086 34.9586C16.8911 34.2357 17.7295 34.4852 17.9777 32.7675C18.2259 31.0499 18.634 30.3878 18.9771 30.1613C18.9771 30.1613 21.7663 28.8675 22.9122 31.1901C24.0582 33.5126 24.404 33.902 25.1476 34.1133C25.8911 34.3246 27.1599 35.1491 28.1596 34.5254C29.1593 33.9015 30.4652 32.796 32.1139 34.5181C33.7628 36.2402 33.3414 36.0791 33.1369 37.9066C32.9326 39.7342 32.6822 39.5729 33.5161 41.2818C34.3501 42.9906 34.2859 43.3414 36.3791 43.8854C38.4723 44.4294 38.5009 45.632 38.6411 46.7155C38.7813 47.7989 38.9183 48.545 37.246 49.4928C35.5737 50.4405 35.7321 50.538 35.3696 52.2115C35.0107 53.8681 35.5289 54.7017 36.1556 55.7098M13.9251 61.6811L13.9492 61.7011M13.9251 61.6811C13.9331 61.6877 13.9411 61.6944 13.9492 61.7011M16.4391 47.841C16.1818 45.4777 16.6863 43.8235 17.7038 42.3718C18.6523 41.0185 20.0328 39.7947 22.0352 39.5768C24.1969 39.3415 26.0463 40.0654 27.6313 41.4664C29.0892 42.7551 30.3614 44.6179 30.5997 46.806C31.0968 51.3726 29.1876 55.1984 25.0375 55.6503C20.8874 56.102 16.9363 52.4076 16.4391 47.841Z" stroke="#35468B" stroke-width="0.5" stroke-miterlimit="10" stroke-linejoin="round"/>
<path d="M19.324 40.6183C19.324 40.6183 22.1772 39.7065 24.5238 40.6183C25.862 41.1383 27.2463 42.2894 28.1637 43.7383C29.2657 45.4786 29.799 47.274 29.7237 49.4581C29.628 52.2319 28.5256 54.4821 26.0838 55.3859C26.9504 55.2126 28.2322 55.074 28.5062 54.658C28.8487 54.138 30.2437 53.098 30.7637 51.0181C31.2837 48.9381 30.7637 46.3382 30.7637 45.8182C30.7637 45.4022 29.7237 43.5649 29.2037 42.6983C28.6837 42.005 27.3318 40.5143 26.0838 40.0984C24.5238 39.5784 24.0038 39.5784 22.4439 39.5784C21.1959 39.5784 19.4973 40.445 19.324 40.6183Z" fill="#35468C"/>
<path d="M7.29768 40.0353C8.24883 42.0178 8.48844 41.7942 8.0631 43.77C7.75201 45.2151 7.6606 45.9273 6.98316 46.5081L8.0631 46.8581L10.4841 45.2982L11.5241 41.1383L9.44413 37.4984L6.8442 38.2263C6.54079 38.8588 6.69624 38.7817 7.29768 40.0353Z" fill="#35468B"/>
<path d="M10.3764 57.9354C10.2211 58.8365 9.98394 59.9359 10.169 60.8977L13.084 59.3378L13.604 56.7378L12.564 53.6179L11.0041 52.578L8.76582 53.6182L9.96412 55.1779L10.3912 56.7378C10.4316 57.138 10.4398 57.5678 10.3764 57.9354Z" fill="#35468B"/>
<path fill-rule="evenodd" clip-rule="evenodd" d="M18.9771 30.1613C18.9771 30.1613 21.7663 28.8675 22.9122 31.1901C24.0582 33.5126 24.404 33.902 25.1476 34.1133C25.8911 34.3246 27.1599 35.1491 28.1596 34.5254C29.1593 33.9015 30.4652 32.796 32.1139 34.5181C33.7628 36.2402 33.3414 36.0791 33.1369 37.9066C32.9326 39.7342 32.6822 39.5729 33.5161 41.2818C34.3501 42.9906 34.2859 43.3414 36.3791 43.8854C38.4723 44.4294 38.5009 45.632 38.6411 46.7155C38.7813 47.7989 38.9183 48.545 37.246 49.4928C35.5737 50.4405 35.7321 50.538 35.3696 52.2115C35.0107 53.8681 35.5289 54.7017 36.1556 55.7098L36.175 55.7411C36.8104 56.7634 37.554 58.0901 36.2154 59.5215C34.8766 60.9529 34.569 60.6402 32.9714 60.1666C31.3737 59.693 31.2252 59.624 30.0158 60.5207C28.8063 61.4175 28.6981 61.8175 28.3297 63.5793C27.9613 65.3411 27.5132 65.9524 26.0539 65.8735C24.5945 65.7945 24.4056 66.0628 23.343 63.9658C22.2804 61.8688 22.2925 62.1403 21.0016 61.5747C19.7106 61.0093 18.6369 60.5756 17.13 61.8467C15.6411 63.1027 14.6198 62.2566 13.9492 61.7011L13.9251 61.6811C13.2549 61.1263 12.4343 60.5808 12.752 58.4996C13.0697 56.4183 13.5578 56.3479 12.5177 54.5862C11.4778 52.8245 11.9567 52.6936 9.29776 51.8273C6.63896 50.9609 7.11965 50.092 6.94004 48.9965C6.76048 47.9009 6.71474 46.7634 8.07746 46.1977C9.44024 45.632 10.3109 45.1879 10.5268 43.4314C10.7426 41.675 11.3213 41.3694 10.3595 39.9643C9.3977 38.5592 8.88552 37.1627 9.51116 36.2616C10.1367 35.3606 10.6495 34.1773 12.3001 34.8895C13.9505 35.6016 14.5259 35.6815 15.7086 34.9586C16.8911 34.2357 17.7295 34.4852 17.9777 32.7675C18.2259 31.0499 18.634 30.3878 18.9771 30.1613ZM17.7038 42.3718C16.6863 43.8235 16.1818 45.4777 16.4391 47.841C16.9363 52.4076 20.8874 56.102 25.0375 55.6503C29.1876 55.1984 31.0968 51.3726 30.5997 46.806C30.3614 44.6179 29.0892 42.7551 27.6313 41.4664C26.0463 40.0654 24.1969 39.3415 22.0352 39.5768C20.0328 39.7947 18.6523 41.0185 17.7038 42.3718Z" fill="#A5B5E8"/>
<path d="M36.175 55.7411C36.8104 56.7634 37.554 58.0901 36.2154 59.5215C34.8766 60.9529 34.569 60.6402 32.9714 60.1666C31.3737 59.693 31.2252 59.624 30.0158 60.5207C28.8063 61.4175 28.6981 61.8175 28.3297 63.5793C27.9613 65.3411 27.5132 65.9524 26.0539 65.8735C24.5945 65.7945 24.4056 66.0628 23.343 63.9658C22.2804 61.8688 22.2925 62.1403 21.0016 61.5747C19.7106 61.0093 18.6369 60.5756 17.13 61.8467C15.6411 63.1027 14.6198 62.2566 13.9492 61.7011M36.175 55.7411L36.1556 55.7098M36.175 55.7411C36.1685 55.7307 36.162 55.7203 36.1556 55.7098M13.9251 61.6811C13.2549 61.1263 12.4343 60.5808 12.752 58.4996C13.0697 56.4183 13.5578 56.3479 12.5177 54.5862C11.4778 52.8245 11.9567 52.6936 9.29776 51.8273C6.63896 50.9609 7.11965 50.092 6.94004 48.9965C6.76048 47.9009 6.71474 46.7634 8.07746 46.1977C9.44024 45.632 10.3109 45.1879 10.5268 43.4314C10.7426 41.675 11.3213 41.3694 10.3595 39.9643C9.3977 38.5592 8.88552 37.1627 9.51116 36.2616C10.1367 35.3606 10.6495 34.1773 12.3001 34.8895C13.9505 35.6016 14.5259 35.6815 15.7086 34.9586C16.8911 34.2357 17.7295 34.4852 17.9777 32.7675C18.2259 31.0499 18.634 30.3878 18.9771 30.1613C18.9771 30.1613 21.7663 28.8675 22.9122 31.1901C24.0582 33.5126 24.404 33.902 25.1476 34.1133C25.8911 34.3246 27.1599 35.1491 28.1596 34.5254C29.1593 33.9015 30.4652 32.796 32.1139 34.5181C33.7628 36.2402 33.3414 36.0791 33.1369 37.9066C32.9326 39.7342 32.6822 39.5729 33.5161 41.2818C34.3501 42.9906 34.2859 43.3414 36.3791 43.8854C38.4723 44.4294 38.5009 45.632 38.6411 46.7155C38.7813 47.7989 38.9183 48.545 37.246 49.4928C35.5737 50.4405 35.7321 50.538 35.3696 52.2115C35.0107 53.8681 35.5289 54.7017 36.1556 55.7098M13.9251 61.6811L13.9492 61.7011M13.9251 61.6811C13.9331 61.6877 13.9411 61.6944 13.9492 61.7011M16.4391 47.841C16.1818 45.4777 16.6863 43.8235 17.7038 42.3718C18.6523 41.0185 20.0328 39.7947 22.0352 39.5768C24.1969 39.3415 26.0463 40.0654 27.6313 41.4664C29.0892 42.7551 30.3614 44.6179 30.5997 46.806C31.0968 51.3726 29.1876 55.1984 25.0375 55.6503C20.8874 56.102 16.9363 52.4076 16.4391 47.841Z" stroke="#35468B" stroke-width="0.5" stroke-miterlimit="10" stroke-linejoin="round"/>
<path d="M17.8884 42.1995C17.8884 42.1995 22.4891 41.2605 24.9907 45.2112C27.4923 49.1618 26.8683 53.7398 22.5038 55.3554" stroke="#35468B" stroke-width="0.5" stroke-miterlimit="10" stroke-linejoin="round"/>
<path d="M37.1377 36.8247C37.1377 36.8247 38.5585 40.1704 40.5593 40.5625C42.5602 40.9546 43.0613 41.2286 43.0613 41.2286V38.8107L40.6433 38.0185L37.1377 36.8247Z" fill="#35468C" stroke="#35468B" stroke-width="0.5" stroke-miterlimit="10" stroke-linejoin="round"/>
<path d="M67.4325 14.813C67.4325 14.813 70.8489 17.1517 70.3268 18.8808C69.8047 20.6101 69.323 22.3381 69.323 22.3381L68.2025 22.4188L66.6426 20.3389L67.4325 14.813Z" fill="#3557C2" stroke="#35468B" stroke-width="0.5" stroke-miterlimit="10" stroke-linejoin="round"/>
<path d="M72.9723 22.8611C72.9723 22.8611 75.9739 24.2138 75.9995 26.8761C76.0251 29.5384 75.3462 29.4623 74.928 29.929C74.5098 30.3958 71.9009 31.6587 71.6704 33.0667C71.6258 33.3392 70.9841 35.3663 71.2189 36.535C71.3281 37.0786 71.8236 37.6195 72.5267 38.355C72.5267 38.355 73.2191 39.3047 72.8228 40.1733C72.4264 41.0419 71.5139 43.1601 70.0346 43.0529C68.5553 42.9455 65.6509 43.0695 65.2242 43.4913C64.7974 43.9131 61.8729 45.7174 61.8556 47.6104C61.8385 49.5035 60.384 50.1518 59.5915 50.4213C58.7991 50.6907 57.3433 51.3451 56.1679 49.7779L56.1584 49.7651C54.9872 48.2036 54.0275 46.924 52.2834 47.0671C50.5346 47.2106 49.5494 47.9015 48.6046 48.7301C47.6598 49.5586 46.8921 49.8035 45.1352 48.7289C43.3782 47.6544 42.5394 46.1656 42.3489 45.4154L59.3629 40.6183L72.9723 22.8611Z" fill="#3557C2"/>
<path d="M52.4355 38.3305C51.5061 37.7329 48.4391 34.9654 51.8877 29.8019C53.4295 27.4933 55.7807 26.3806 57.856 26.2117C60.4222 26.003 62.3685 26.9586 62.7895 28.1024L63.0028 27.6187L62.4828 25.5388L60.9229 23.4589L56.763 21.3789L50.5231 23.4589L46.8832 27.6187L45.8433 31.2586L46.8832 35.4185L48.9632 37.4985L50.7197 38.3305H52.4355Z" fill="#3557C2"/>
<path d="M75.9039 28.3981C75.7053 29.534 75.2428 29.5777 74.928 29.929C74.5781 30.3196 72.6945 31.2675 71.9537 32.3914L69.2427 30.2186L69.7627 28.6586L73.4026 26.5787L75.9039 28.3981Z" fill="#35468B"/>
<path d="M65.2242 43.4913C65.6509 43.0695 68.5553 42.9455 70.0346 43.0529L68.2027 40.0983H65.2242L63.0028 40.6183L60.4029 42.6983L62.2607 46.3382C63.0825 44.9628 64.8952 43.8164 65.2242 43.4913Z" fill="#35468B"/>
<path d="M48.6046 48.7301C49.5494 47.9015 50.5346 47.2106 52.2834 47.0671C53.0528 47.004 53.6696 47.2177 54.2192 47.6104V45.4154L50.5232 43.7382L45.8433 45.8182H43.2434L42.3489 45.4154C42.5394 46.1656 43.3782 47.6544 45.1352 48.7289C46.8921 49.8035 47.6598 49.5586 48.6046 48.7301Z" fill="#35468B"/>
<path d="M72.9723 22.8611C72.9723 22.8611 75.9739 24.2138 75.9995 26.8761C76.0058 27.5343 75.9691 28.0251 75.9039 28.3981M70.0346 43.0529C71.5139 43.1601 72.4264 41.0419 72.8228 40.1733C73.2191 39.3047 72.5267 38.355 72.5267 38.355C71.8236 37.6195 71.3281 37.0786 71.2189 36.535C70.9841 35.3663 71.6258 33.3392 71.6704 33.0667C71.708 32.8368 71.8091 32.6108 71.9537 32.3914M70.0346 43.0529C68.5553 42.9455 65.6509 43.0695 65.2242 43.4913C64.8952 43.8164 63.0825 44.9628 62.2607 46.3382M70.0346 43.0529L68.2027 40.0983H65.2242L63.0028 40.6183L60.4029 42.6983L62.2607 46.3382M56.1679 49.7779C57.3433 51.3451 58.7991 50.6907 59.5915 50.4213C60.384 50.1518 61.8385 49.5035 61.8556 47.6104C61.8596 47.1765 62.0163 46.7472 62.2607 46.3382M56.1679 49.7779L56.1584 49.7651M56.1679 49.7779C56.1647 49.7736 56.1615 49.7694 56.1584 49.7651M56.1584 49.7651C55.5039 48.8925 54.9154 48.1079 54.2192 47.6104M75.9039 28.3981C75.7053 29.534 75.2428 29.5777 74.928 29.929C74.5781 30.3196 72.6945 31.2675 71.9537 32.3914M75.9039 28.3981L73.4026 26.5787L69.7627 28.6586L69.2427 30.2186L71.9537 32.3914M54.2192 47.6104C53.6696 47.2177 53.0528 47.004 52.2834 47.0671C50.5346 47.2106 49.5494 47.9015 48.6046 48.7301C47.6598 49.5586 46.8921 49.8035 45.1352 48.7289C43.3782 47.6544 42.5394 46.1656 42.3489 45.4154L43.2434 45.8182H45.8433L50.5232 43.7382L54.2192 45.4154V47.6104Z" stroke="#35468B" stroke-width="0.3" stroke-miterlimit="10" stroke-linejoin="round"/>
<path fill-rule="evenodd" clip-rule="evenodd" d="M51.9425 13.473C51.9425 13.473 50.8829 13.534 50.4303 15.9448C49.9777 18.3557 49.4919 18.3673 48.2742 19.3411C47.0565 20.3148 46.3059 20.8336 44.932 20.4857C43.5582 20.1378 41.9625 20.0328 40.6683 22.2288C40.1541 23.1014 40.1777 23.5976 40.1234 23.9788C40.041 24.5571 40.1318 24.8712 40.6818 25.8338C41.5946 27.4311 41.5499 26.8584 40.9362 29.2781C40.3224 31.6978 39.6003 31.6278 38.925 32.1672C38.2498 32.7065 36.4191 33.265 36.8613 35.8435C37.3036 38.4219 38.6212 37.6452 40.2354 38.0665C41.8496 38.4877 41.8146 38.5614 42.7049 40.1018C43.5952 41.6423 42.2525 42.5632 42.1605 44.2285C42.0685 45.8938 42.8748 46.1401 44.253 46.8534C45.6312 47.5668 46.671 46.1491 47.7829 45.5496C48.8948 44.9501 49.2689 44.6228 50.7546 44.7892C52.2402 44.9555 52.7819 44.5143 53.7805 46.3513C54.7792 48.1883 55.8306 48.5747 57.7134 47.7533C59.596 46.9321 59.1775 46.4335 59.9718 44.7825C60.7661 43.1317 60.3798 43.2992 62.1252 42.0202C63.8708 40.7412 63.7548 40.5024 66.1514 40.4418C68.548 40.3812 69.1213 40.1157 69.933 38.6883C70.4783 37.7295 70.805 37.2638 70.7512 36.6885C70.7249 36.4073 70.6171 36.1793 70.3814 35.7011C69.663 34.2448 68.6581 33.8795 69.3671 31.6441C70.076 29.4087 69.7081 29.4518 71.5021 28.4555C73.2961 27.4592 73.9885 26.4983 73.7906 25.3908C73.5926 24.2833 73.6789 22.8791 72.5028 22.6429C71.3267 22.4066 69.2918 22.5906 68.7744 22.074C68.257 21.5575 67.5921 20.731 67.2143 20.208C66.8366 19.6849 67.8238 17.2298 67.9545 16.4162C68.0853 15.6027 67.7414 14.6326 66.2049 14.0373C64.6683 13.4419 64.5618 13.8565 62.5219 15.3433C61.5599 16.0446 60.6391 16.106 59.6979 16.0916C58.6434 16.0753 57.6072 15.9242 57.3313 15.6885C56.8092 15.2421 55.6334 12.6628 53.8747 12.9912C52.116 13.3196 51.9425 13.473 51.9425 13.473ZM55.3081 22.3381C50.928 22.861 46.5617 26.9127 46.5617 31.5211C46.5617 36.1296 49.6093 38.429 53.8938 38.429C58.1782 38.429 62.8754 33.7824 62.8754 29.1739C62.8754 24.5655 59.6884 21.8151 55.3081 22.3381Z" fill="#A5B5E8" stroke="#35468B" stroke-width="0.5" stroke-miterlimit="10" stroke-linejoin="round"/>
<path d="M48.7519 36.7981C47.5007 36.0977 45.7684 32.4024 48.9632 27.6188C50.5051 25.3101 53.6478 23.4718 55.723 23.3029C58 22.9541 61.4429 24.3949 61.4429 24.9148C61.4429 24.3949 61.6343 24.6903 60.9229 23.9789C59.8829 22.9389 56.763 21.8989 56.243 21.8989C55.723 21.8989 53.6431 21.8989 51.5631 23.4589C49.4832 25.0188 48.4432 26.0588 47.9232 26.5788C47.4033 27.0988 46.3633 28.6587 46.3633 31.7787C46.3633 34.0851 47.8433 35.977 48.7519 36.7981Z" fill="#35468B"/>
<path fill-rule="evenodd" clip-rule="evenodd" d="M51.9425 13.473C51.9425 13.473 50.8829 13.534 50.4303 15.9448C49.9777 18.3557 49.4919 18.3673 48.2742 19.3411C47.0565 20.3148 46.3059 20.8336 44.932 20.4857C43.5582 20.1378 41.9625 20.0328 40.6683 22.2288C40.1541 23.1014 40.1777 23.5976 40.1234 23.9788C40.041 24.5571 40.1318 24.8712 40.6818 25.8338C41.5946 27.4311 41.5499 26.8584 40.9362 29.2781C40.3224 31.6978 39.6003 31.6278 38.925 32.1672C38.2498 32.7065 36.4191 33.265 36.8613 35.8435C37.3036 38.4219 38.6212 37.6452 40.2354 38.0665C41.8496 38.4877 41.8146 38.5614 42.7049 40.1018C43.5952 41.6423 42.2525 42.5632 42.1605 44.2285C42.0685 45.8938 42.8748 46.1401 44.253 46.8534C45.6312 47.5668 46.671 46.1491 47.7829 45.5496C48.8948 44.9501 49.2689 44.6228 50.7546 44.7892C52.2402 44.9555 52.7819 44.5143 53.7805 46.3513C54.7792 48.1883 55.8306 48.5747 57.7134 47.7533C59.596 46.9321 59.1775 46.4335 59.9718 44.7825C60.7661 43.1317 60.3798 43.2992 62.1252 42.0202C63.8708 40.7412 63.7548 40.5024 66.1514 40.4418C68.548 40.3812 69.1213 40.1157 69.933 38.6883C70.4783 37.7295 70.805 37.2638 70.7512 36.6885C70.7249 36.4073 70.6171 36.1793 70.3814 35.7011C69.663 34.2448 68.6581 33.8795 69.3671 31.6441C70.076 29.4087 69.7081 29.4518 71.5021 28.4555C73.2961 27.4592 73.9885 26.4983 73.7906 25.3908C73.5926 24.2833 73.6789 22.8791 72.5028 22.6429C71.3267 22.4066 69.2918 22.5906 68.7744 22.074C68.257 21.5575 67.5921 20.731 67.2143 20.208C66.8366 19.6849 67.8238 17.2298 67.9545 16.4162C68.0853 15.6027 67.7414 14.6326 66.2049 14.0373C64.6683 13.4419 64.5618 13.8565 62.5219 15.3433C61.5599 16.0446 60.6391 16.106 59.6979 16.0916C58.6434 16.0753 57.6072 15.9242 57.3313 15.6885C56.8092 15.2421 55.6334 12.6628 53.8747 12.9912C52.116 13.3196 51.9425 13.473 51.9425 13.473ZM55.3081 22.3381C50.928 22.861 46.5617 26.9127 46.5617 31.5211C46.5617 36.1296 49.6093 38.429 53.8938 38.429C58.1782 38.429 62.8754 33.7824 62.8754 29.1739C62.8754 24.5655 59.6884 21.8151 55.3081 22.3381Z" fill="#A5B5E8" stroke="#35468B" stroke-width="0.5" stroke-miterlimit="10" stroke-linejoin="round"/>
<path d="M72.9723 22.8611C72.9723 22.8611 75.9739 24.2138 75.9995 26.8761C76.0058 27.5343 75.9691 28.0251 75.9039 28.3981C75.7053 29.534 75.2428 29.5777 74.928 29.929C74.5098 30.3958 71.9009 31.6587 71.6704 33.0667C71.6258 33.3392 70.9841 35.3663 71.2189 36.535C71.3281 37.0786 71.8236 37.6195 72.5267 38.355C72.5267 38.355 73.2191 39.3047 72.8228 40.1733C72.4264 41.0419 71.5139 43.1601 70.0346 43.0529C68.5553 42.9455 65.6509 43.0695 65.2242 43.4913C64.7974 43.9131 61.8729 45.7174 61.8556 47.6104C61.8385 49.5035 60.384 50.1518 59.5915 50.4213C58.7991 50.6907 57.3433 51.3451 56.1679 49.7779M56.1679 49.7779L56.1584 49.7651M56.1679 49.7779C56.1647 49.7736 56.1615 49.7694 56.1584 49.7651M42.3489 45.4154C42.5394 46.1656 43.3782 47.6544 45.1352 48.7289C46.8921 49.8035 47.6598 49.5586 48.6046 48.7301C49.5494 47.9015 50.5346 47.2106 52.2834 47.0671C54.0275 46.924 54.9872 48.2036 56.1584 49.7651" stroke="#35468B" stroke-width="0.5" stroke-miterlimit="10" stroke-linejoin="round"/>
<path d="M52.4355 38.3304C51.5061 37.7328 48.4391 34.9653 51.8877 29.8019C53.4295 27.4932 55.7807 26.3806 57.856 26.2117C60.4222 26.0029 62.3685 26.9585 62.7895 28.1023" stroke="#35468B" stroke-width="0.5" stroke-miterlimit="10" stroke-linecap="round" stroke-linejoin="round"/>
</g>
<defs>
<clipPath id="clip0_1111_2">
<rect width="80" height="80" fill="white"/>
</clipPath>
</defs>
</svg>
