<svg width="80" height="80" viewBox="0 0 80 80" fill="none" xmlns="http://www.w3.org/2000/svg">
<path d="M60.5834 39.6108L60.6567 54.2003C60.6567 54.2003 60.7229 54.993 60.284 55.2811C59.8452 55.5691 45.5611 61.4415 45.3575 61.522C45.1538 61.6025 44.5554 61.9525 43.8522 61.8298C43.149 61.7073 18.5098 58.3841 17.9202 58.2767C17.3306 58.1694 17.1265 57.8756 17.0988 57.3329C17.071 56.7903 17.1006 42.2495 17.1006 42.2495" fill="#FDD87F"/>
<path d="M60.5834 39.6108L60.6567 54.2003C60.6567 54.2003 60.7229 54.993 60.284 55.2811C59.8452 55.5691 45.5611 61.4415 45.3575 61.522C45.1538 61.6025 44.5554 61.9525 43.8522 61.8298C43.149 61.7073 18.5098 58.3841 17.9202 58.2767C17.3306 58.1694 17.1265 57.8756 17.0988 57.3329C17.071 56.7903 17.1006 42.2495 17.1006 42.2495M49.1912 60.2403L51.6663 59.3454" stroke="#F49823" stroke-width="0.9" stroke-miterlimit="10" stroke-linejoin="round"/>
<path d="M43.5614 45.6169L16.01 41.9943C16.01 41.9943 15.1803 41.945 15.1971 41.188C15.2138 40.4311 15.183 31.5427 15.183 31.5427C15.183 31.5427 15.1022 30.8026 15.3626 30.6536C15.6228 30.5045 25.3379 26.5781 25.3379 26.5781L47.5638 25.7302L59.952 27.4036C59.952 27.4036 61.5632 27.5461 62.0075 27.7274C62.4518 27.9087 62.3623 28.0563 62.42 28.7851C62.4777 29.5138 62.4379 37.8879 62.4379 37.8879C62.4379 37.8879 62.5207 38.7929 62.1412 38.9308C61.7617 39.0686 46.3671 45.4117 46.3671 45.4117C46.3671 45.4117 45.5513 45.7995 45.019 45.7857C44.4868 45.772 43.5614 45.6169 43.5614 45.6169Z" fill="#FDD87F" stroke="#F49823" stroke-width="0.9" stroke-miterlimit="10" stroke-linejoin="round"/>
<path d="M45.2469 34.9718L45.1616 61.4477L60.443 54.9172L60.4632 39.5024L62.5368 38.4778L62.2115 28.0566L45.2469 34.9718Z" fill="#EFB159"/>
<path d="M44.7838 45.7205L44.7361 61.8363" stroke="#FFE8A7" stroke-width="0.9" stroke-miterlimit="10" stroke-linejoin="round"/>
<path d="M17.9239 41.9688L17.9165 58.1037" stroke="#FFE8A7" stroke-width="0.9" stroke-miterlimit="10" stroke-linejoin="round"/>
<path d="M45.0006 34.4568L44.9951 45.4056" stroke="#FFE8A7" stroke-width="0.8" stroke-miterlimit="10" stroke-linejoin="round"/>
<path d="M15.9598 30.8645L15.9543 41.8133" stroke="#FFE8A7" stroke-width="0.8" stroke-miterlimit="10" stroke-linejoin="round"/>
<path d="M16.021 30.7242L45.3915 34.6716L61.2917 28.0357L48.8166 25.8955L25.8772 26.4965L16.021 30.7242Z" fill="#FCC171"/>
<path d="M32.9048 33.1431L33.3088 59.1224L33.2455 59.9744" stroke="#EFB259" stroke-width="0.9" stroke-miterlimit="10" stroke-linejoin="round"/>
<path d="M32.7043 32.8525L40.4811 29.2043" stroke="#EFB159" stroke-width="0.9" stroke-miterlimit="10" stroke-linejoin="round"/>
<path d="M43.5614 45.6169L16.01 41.9943C16.01 41.9943 15.1803 41.945 15.1971 41.188C15.2138 40.4311 15.183 31.5427 15.183 31.5427C15.183 31.5427 15.1022 30.8026 15.3626 30.6536C15.6228 30.5045 25.3379 26.5781 25.3379 26.5781L47.5638 25.7302L59.952 27.4036C59.952 27.4036 61.5632 27.5461 62.0075 27.7274C62.4518 27.9087 62.3623 28.0563 62.42 28.7851C62.4777 29.5138 62.4379 37.8879 62.4379 37.8879C62.4379 37.8879 62.5207 38.7929 62.1412 38.9308C61.7617 39.0686 46.3671 45.4117 46.3671 45.4117C46.3671 45.4117 45.5513 45.7995 45.019 45.7857C44.4868 45.772 43.5614 45.6169 43.5614 45.6169Z" stroke="#F49823" stroke-width="0.9" stroke-miterlimit="10" stroke-linejoin="round"/>
<path d="M15.3804 30.9306L44.0806 34.4316C44.0806 34.4316 45.2876 34.6403 45.5205 34.6057C45.7534 34.5712 61.9841 27.8213 61.9841 27.8213" stroke="#F49823" stroke-width="0.9" stroke-miterlimit="10" stroke-linejoin="round"/>
<path d="M21.3256 28.1039C21.6896 28.1566 21.5896 27.6062 21.5896 27.6062C21.5896 27.6062 22.1101 26.8486 22.9837 26.8325C23.8573 26.8164 33.3192 28.1504 33.3192 28.1504C33.3192 28.1504 29.0747 29.9497 28.1818 30.4569C27.2889 30.9641 26.639 31.5758 26.4447 32.0762C26.2506 32.5766 26.2546 33.0065 26.2726 33.3972C26.2906 33.788 27.0028 58.4412 27.0028 58.4412C27.0028 58.4412 26.9744 59.647 27.2164 60.1139C27.4583 60.5809 27.8593 60.8125 28.4397 61.0395C29.0201 61.2667 33.3962 61.5861 33.7701 61.5356C34.1441 61.485 35.2024 61.1815 35.9005 60.822C35.9005 60.822 34.5152 61.5882 33.6144 61.0939C33.1468 60.8373 32.9637 60.6812 32.8473 60.381C32.7496 60.1294 32.7937 59.7797 32.8254 59.2077C32.8911 58.018 32.3935 34.2512 32.3935 34.2512C32.3935 34.2512 32.3168 33.1087 32.6055 32.6826C32.8942 32.2565 33.6749 31.7731 34.1711 31.5289C34.6674 31.2846 39.674 29.0246 39.674 29.0246L50.8648 30.7498C50.8648 30.7498 52.008 30.8649 52.4686 31.5334C52.9292 32.2018 52.5498 34.7688 52.6293 35.1242C52.7088 35.4796 51.9176 57.7503 51.9176 57.7503C51.9176 57.7503 51.931 58.8075 51.6733 59.2509C51.4155 59.6945 51.2281 59.9386 50.6225 60.163C50.0168 60.3875 48.6952 60.1361 48.3114 60.2266C47.9276 60.3172 50.7508 60.4743 51.3497 60.2596C51.9487 60.045 54.1096 59.529 54.9272 58.6964C55.7449 57.8637 55.6924 56.9991 55.7709 55.8378C55.8494 54.6766 56.5471 32.2582 56.5471 32.2582C56.5471 32.2582 56.5803 30.9284 56.2646 30.2996C55.9487 29.6707 55.3934 29.0045 54.5477 28.6746C53.702 28.3447 44.9146 27.4643 44.9146 27.4643L26.2801 24.6758L22.6423 26.1405C22.6423 26.1405 20.7306 26.8662 20.9024 28.2644C20.9469 28.6258 20.7964 28.3668 20.8719 28.3618C20.9474 28.3568 21.3256 28.1727 21.3256 28.1727" fill="#FEA8AA"/>
<path d="M26.2464 24.3508C25.8896 24.3844 25.581 24.601 25.2478 24.7325C24.9438 24.8526 24.6406 24.9923 24.3374 25.1143C23.1238 25.6031 21.1611 26.0828 20.6663 27.5226C20.554 27.8495 20.5707 27.9482 20.5783 28.286C20.5786 28.2988 20.5785 28.2943 20.5783 28.3155C20.5717 28.3375 20.522 28.3199 20.5195 28.3449C20.5033 28.5117 20.6238 28.699 20.7838 28.7559C20.8067 28.7641 21.0332 28.7883 21.0188 28.7559C21.0302 28.7814 21.1826 28.6322 21.1951 28.6091C21.1996 28.6007 21.1909 28.5883 21.1951 28.5798C21.244 28.5592 21.1986 28.581 21.4593 28.4623C21.5684 28.4097 21.5677 28.2812 21.5768 28.1686C21.7497 28.0107 21.9811 27.8811 21.9292 27.5812C21.9167 27.509 21.8257 27.8448 21.8705 27.7868C22.6867 26.7283 24.3568 27.2975 25.4534 27.4344C26.8446 27.6081 28.2345 27.7745 29.6237 27.963C30.0185 28.0166 30.4037 28.085 30.7984 28.1393C31.2248 28.1979 31.6643 28.2562 32.0906 28.3155C31.9951 28.3566 31.8973 28.3895 31.7969 28.4329C31.61 28.5138 31.4257 28.6158 31.2389 28.6973C30.7479 28.9112 30.2591 29.1238 29.7706 29.3433C28.4217 29.9495 26.4928 30.639 26.0408 32.2215C25.8032 33.0531 25.959 34.192 25.982 34.982C26.0125 36.0255 26.0397 37.0516 26.0701 38.0951C26.1918 42.2691 26.3302 46.4612 26.4519 50.6353C26.4824 51.6788 26.5096 52.7048 26.54 53.7483C26.5704 54.7919 26.5977 55.8472 26.6281 56.8908C26.6833 58.7832 26.3114 61.0166 28.772 61.4428C29.947 61.6463 31.1383 61.7157 32.3256 61.7952C32.74 61.8229 33.3166 61.8685 33.7646 61.8539C34.1119 61.8427 34.4055 61.6925 34.7489 61.5734C34.7864 61.5677 35.0191 61.484 35.0595 61.473C35.1879 61.4289 35.3049 61.3936 35.4596 61.3408C35.4867 61.3316 35.9092 61.204 35.9966 61.1491C36.0019 61.1458 36.024 61.1219 36.0259 61.1198C36.0274 61.1182 36.0553 61.1198 36.0553 61.1198C35.9702 60.919 35.89 60.6973 35.791 60.503C35.791 60.503 35.75 60.5248 35.7323 60.5324C35.7313 60.5303 35.5924 60.5914 35.5267 60.6205C35.5187 60.6242 35.4973 60.6499 35.4973 60.6499C35.4657 60.6646 35.4417 60.6665 35.4093 60.6792C35.2751 60.7341 35.1531 60.8396 35.0133 60.8787C34.4101 61.0477 33.1669 60.9237 33.1184 60.0625C33.0934 59.6184 33.1479 59.1865 33.1479 58.7409C33.1478 57.626 33.1353 56.5077 33.1184 55.3929C33.0578 51.3525 32.992 47.304 32.9129 43.2639C32.8864 41.9111 32.8521 40.5638 32.8249 39.211C32.7946 37.7122 32.7678 36.2166 32.7367 34.7177C32.7251 34.1557 32.5792 33.3487 32.8835 32.8675C33.254 32.2819 34.066 31.9448 34.675 31.6634C36.2585 30.9319 37.8924 30.2495 39.462 29.4902C39.9329 29.2624 40.5016 29.4982 41.0185 29.5782C41.951 29.7229 42.8759 29.8457 43.8085 29.9895C45.6737 30.277 47.5528 30.583 49.4178 30.8704C49.8842 30.9423 50.3611 31.0045 50.8275 31.0761C51.0182 31.1054 51.2031 31.1274 51.3856 31.1935C52.757 31.6909 52.3909 32.9248 52.3253 34.1597C52.2238 36.0696 52.237 38.0025 52.1785 39.9159C52.0447 44.2864 51.9195 48.6736 51.7673 53.0435C51.7126 54.6126 51.6455 56.1732 51.5911 57.7424C51.5777 58.1275 51.4934 58.7626 51.381 59.1358C51.0328 60.2915 50.0247 60.1823 49.0685 60.1357C48.8284 60.1241 48.6577 59.9679 48.4204 60.0563C48.3454 60.0842 47.8943 60.2363 47.9494 60.2386C47.9416 60.2384 47.9761 60.348 47.9789 60.3561C48.022 60.4877 48.2737 60.4764 48.4487 60.5324C48.4171 60.5498 48.2951 60.5624 48.3313 60.5617C48.3884 60.5607 48.4494 60.5616 48.5074 60.5617C49.0196 60.695 49.6949 60.7069 49.829 60.7085C51.5326 60.7297 54.3097 59.9842 55.3796 58.6822C56.1325 57.7659 56.0675 56.5147 56.1138 55.3929C56.1503 54.5119 56.2009 53.6311 56.2313 52.7498C56.4125 47.4834 56.5646 42.2166 56.7305 36.9497C56.7532 36.2298 56.7667 35.5257 56.7893 34.8059C56.8568 32.6522 57.357 29.8572 55.1153 28.5798C54.1418 28.0251 52.7898 28.0108 51.7086 27.875C49.4603 27.5924 47.199 27.4394 44.9539 27.1407C40.6774 26.5719 36.4161 25.8702 32.1493 25.2318C30.5965 24.9994 29.0335 24.7533 27.4798 24.5269C27.0655 24.4666 26.6632 24.3114 26.2464 24.3508ZM26.305 24.9968C26.67 24.9639 27.0296 25.1173 27.3917 25.1731C27.7796 25.2328 28.1782 25.2911 28.5664 25.3492C29.7311 25.5236 30.8966 25.7036 32.0612 25.8779C36.3315 26.5169 40.5858 27.2179 44.8657 27.7868C47.1126 28.0855 49.3706 28.2677 51.6205 28.5504C52.4157 28.6503 53.6759 28.6719 54.4104 28.9909C55.0758 29.2799 55.6598 29.7603 55.967 30.43C56.4968 31.585 56.1508 34.0659 56.1138 35.2464C55.9422 40.7129 55.7696 46.1971 55.5852 51.6631C55.5321 53.2368 55.5121 54.7906 55.409 56.362C55.3625 57.0696 55.2873 57.9412 54.7041 58.4472C53.9556 59.0968 52.9867 59.4583 51.8447 59.7125C51.993 59.5209 51.9988 59.3909 52.0904 59.0933C52.1776 58.8098 52.2175 58.507 52.2372 58.2123C52.4054 55.7046 52.4161 53.1768 52.5015 50.6647C52.6356 46.7209 52.7671 42.7736 52.8833 38.8293C52.9359 37.0421 52.9569 35.2397 53.0302 33.4548C53.0551 32.8472 53.1175 32.0567 52.8246 31.4872C52.2661 30.4017 50.521 30.3515 49.506 30.195C49.0397 30.1231 48.592 30.0613 48.1256 29.9895C46.2606 29.7019 44.3815 29.4253 42.5163 29.1378C41.5707 28.992 40.6537 28.7122 39.6969 28.6973C39.5188 28.6945 39.3615 28.8036 39.1977 28.8734C38.8766 29.0104 38.5466 29.17 38.2286 29.314C37.7178 29.5451 37.1666 29.8105 36.6426 30.0481C35.4844 30.5737 33.0067 31.4089 32.3256 32.5151C31.8785 33.241 32.0734 34.443 32.0906 35.2758C32.1359 37.4704 32.1646 39.6596 32.2081 41.8542C32.2936 46.1694 32.3756 50.49 32.443 54.8056C32.4634 56.112 32.5017 57.4342 32.5018 58.7409C32.5019 59.2001 32.4412 59.6637 32.4724 60.1212C32.5053 60.6049 32.7873 60.9083 33.1479 61.1491C32.1088 61.1266 31.0638 61.0529 30.0348 60.9435C29.3649 60.8723 28.6672 60.8363 28.0671 60.503C27.2774 60.0643 27.3554 59.2122 27.333 58.4179C27.3182 57.896 27.2894 57.3832 27.2742 56.8613C27.259 56.3396 27.26 55.8266 27.2448 55.3048C27.2297 54.7831 27.2013 54.2701 27.1862 53.7483C27.034 48.5308 26.8977 43.3126 26.7456 38.0951C26.6999 36.5297 26.6457 34.9614 26.5988 33.3962C26.5888 33.0661 26.5966 32.719 26.6869 32.3976C26.8635 31.7681 27.426 31.3346 27.9496 30.9879C29.1235 30.2109 30.5114 29.725 31.7969 29.1672C31.9781 29.0885 33.3728 28.5789 33.4415 28.4623C33.778 27.8916 33.5172 27.844 33.1184 27.7868C32.9745 27.7662 32.8515 27.7481 32.7074 27.7281C32.1068 27.6448 31.4872 27.5758 30.8865 27.4932C30.0964 27.3845 29.3275 27.2767 28.537 27.1701C27.5406 27.0357 26.5393 26.8835 25.5415 26.7589C24.6375 26.6461 23.4128 26.3227 22.4873 26.5828C22.3804 26.6128 22.3103 26.7607 22.1935 26.8177C22.3051 26.7475 22.3676 26.6423 22.4873 26.5828C22.8775 26.3882 23.289 26.2337 23.662 26.0835C24.2682 25.8393 24.8782 25.5979 25.4827 25.3492C25.756 25.2369 26.0109 25.0234 26.305 24.9968ZM20.8132 28.2274C20.8693 28.324 20.93 28.4904 20.9894 28.6385C20.982 28.6431 20.9986 28.6607 20.9894 28.6679C20.9879 28.6644 20.9616 28.6714 20.9601 28.6679C20.958 28.6633 20.9915 28.6432 20.9894 28.6385C20.9325 28.5093 20.8424 28.3852 20.7838 28.2567C20.7817 28.2521 20.8153 28.2319 20.8132 28.2274Z" fill="#FE6578"/>
<path d="M50.3769 59.678C50.3769 59.678 45.5762 61.4858 45.4945 61.518C45.2908 61.5986 44.5556 61.9556 43.8524 61.833C43.5646 61.7829 39.2689 61.1968 34.2532 60.5144" stroke="#F49823" stroke-width="0.9" stroke-miterlimit="10" stroke-linejoin="round"/>
<path d="M51.0796 57.4211L45.751 59.6927" stroke="#EFB159" stroke-width="0.3"/>
<path d="M15.3625 30.6536C15.5315 30.5568 19.6867 28.8675 22.5803 27.6946" stroke="#F49823" stroke-width="0.9" stroke-miterlimit="10" stroke-linejoin="round"/>
<path d="M26.005 59.3895C21.6403 58.7953 18.1382 58.3165 17.9202 58.2767C17.3306 58.1694 17.1265 57.8756 17.0988 57.3329C17.071 56.7903 17.1006 42.2495 17.1006 42.2495" stroke="#F49823" stroke-width="0.9" stroke-miterlimit="10" stroke-linejoin="round"/>
<path d="M46.2677 26.781C47.2945 26.5843 50.7071 26.179 52.0285 24.4602C53.3498 22.7414 51.7173 20.9815 51.3599 20.5391C51.0025 20.0968 49.5535 18.6233 48.6379 18.6059C47.7221 18.5885 46.3968 18.8031 44.5807 19.7742C42.7648 20.7454 41.6545 22.0269 41.6545 22.0269C41.6545 22.0269 41.3954 20.7351 41.0746 18.6721C40.7537 16.6091 39.4383 16.7539 37.8096 16.7388C36.1808 16.7238 31.9376 17.252 30.9144 17.6306C29.8913 18.0092 29.5557 18.3414 29.4359 18.8252C29.316 19.309 29.6177 20.0467 29.6177 20.0467L32.2698 22.7431L36.7498 26.1505" fill="#FEA8AA"/>
<path d="M46.2677 26.781C47.2945 26.5843 50.7071 26.179 52.0285 24.4602C53.3498 22.7414 51.7173 20.9815 51.3599 20.5391C51.0025 20.0968 49.5535 18.6233 48.6379 18.6059C47.7221 18.5885 46.3968 18.8031 44.5807 19.7742C42.7648 20.7454 41.6545 22.0269 41.6545 22.0269C41.6545 22.0269 41.3954 20.7351 41.0746 18.6721C40.7537 16.6091 39.4383 16.7539 37.8096 16.7388C36.1808 16.7238 31.9376 17.252 30.9144 17.6306C29.8913 18.0092 29.5557 18.3414 29.4359 18.8252C29.316 19.309 29.6177 20.0467 29.6177 20.0467L32.2698 22.7431L36.7498 26.1505" stroke="#FE6578" stroke-width="0.9" stroke-miterlimit="10" stroke-linejoin="round"/>
<path d="M35.6562 28.0611C35.6562 28.0611 33.6759 28.3973 31.0296 27.8538C29.5558 27.5511 28.0241 27.0228 26.3221 25.7796C25.3743 25.0872 24.9039 24.222 24.6698 23.5062C23.7286 20.6289 28.0152 18.5743 31.9386 21.0043C37.2594 24.2998 36.9582 26.75 35.6562 28.0611Z" fill="#FEA8AA" stroke="#FE6578" stroke-width="0.9" stroke-miterlimit="10" stroke-linejoin="round"/>
<path d="M35.9699 28.1686C35.9699 28.1686 36.5159 28.7713 37.4397 28.7533C38.3635 28.7355 44.7574 28.2746 44.7574 28.2746C44.7574 28.2746 45.8008 28.2206 46.2677 27.9047C46.7346 27.5887 47.4202 26.6929 47.4828 25.1658C47.5453 23.6386 46.7169 22.5465 46.1351 22.1754C45.5534 21.8044 45.0707 21.84 44.463 21.8952C43.8551 21.9503 38.6796 22.3813 38.3451 22.423C38.0106 22.4648 37.1955 22.4569 36.67 22.9033C36.1445 23.3497 35.9801 24.0438 35.866 24.8755C35.866 24.8755 35.5334 26.8221 35.5411 27.0647C35.5488 27.3075 35.6313 27.8374 35.9699 28.1686Z" fill="#FEA8AA" stroke="#FE6578" stroke-width="0.9" stroke-miterlimit="10" stroke-linejoin="round"/>
<path d="M29.9709 18.3877C29.9709 18.3877 33.7698 19.1625 35.8604 23.1442C36.9518 25.2227 35.4229 23.7843 33.4868 22.1932C31.7141 20.7364 29.562 19.5249 29.562 19.5249" fill="#F5999B"/>
<path d="M30.0055 18.3008C29.9547 18.2899 29.8989 18.3089 29.888 18.3597C29.8791 18.4002 29.9128 18.4277 29.9466 18.4477C29.9552 18.4527 29.9366 18.4749 29.9466 18.4771C29.7753 18.9589 29.9009 19.0534 29.7705 18.947C29.6377 18.8387 29.8966 18.6289 29.976 18.4771C29.9863 18.4575 30.3712 18.5894 30.3872 18.5946C30.7718 18.7179 31.1397 18.8886 31.5032 19.0645C32.9982 19.7877 34.3034 20.8881 35.2329 22.2656C35.4835 22.6369 35.7112 23.0382 35.9084 23.4403C35.9879 23.6024 36.0642 23.7653 36.114 23.9395C36.1281 23.9893 36.1872 24.1139 36.1434 24.0864C34.5987 23.1147 33.2581 21.8056 31.7381 20.7678C31.2482 20.4333 30.7474 20.1069 30.2404 19.7986C30.2299 19.7923 29.6488 19.5007 29.653 19.4756C29.6812 19.3059 29.6652 19.2893 29.653 19.3288C29.7347 19.1911 29.8395 19.0351 29.7411 18.947C29.6082 18.828 29.6334 19.1111 29.5649 19.4462C29.5763 19.4478 29.5837 19.4402 29.5942 19.4462C29.5601 19.5098 29.5707 19.5627 29.5649 19.6224C29.5529 19.7461 29.7811 19.7644 29.888 19.828C30.0827 19.9439 30.2528 20.0308 30.4459 20.1511C31.4811 20.7959 32.487 21.5062 33.4415 22.2656C33.6018 22.3931 33.7538 22.5165 33.9114 22.6473C34.0616 22.7721 34.2017 22.9044 34.3519 23.0291C34.8039 23.4043 35.258 23.8082 35.7616 24.1158C35.9102 24.2065 36.2624 24.4144 36.3196 24.1158C36.4026 23.6823 35.8615 22.9336 35.6735 22.618C34.8272 21.1977 33.6125 20.0022 32.1786 19.182C31.6288 18.8674 31.0494 18.6119 30.4459 18.4183C30.4308 18.4135 30.0125 18.2842 30.0055 18.3008ZM29.5649 19.4462C29.5279 19.4411 29.4964 19.4411 29.4767 19.4756C29.4512 19.5208 29.461 19.5675 29.5061 19.593C29.5607 19.4424 29.5444 19.5463 29.5649 19.4462Z" fill="#F5999B"/>
<path d="M35.5233 26.5476C35.5233 26.5476 30.1919 21.9444 28.0176 22.6028C25.8435 23.2611 26.7603 25.3928 27.7345 26.218C28.7086 27.0432 33.5909 28.4184 35.4476 27.7996" fill="#F5999B"/>
<path d="M29.3593 22.5885C28.3279 22.3081 26.8817 22.5702 26.6281 23.7925C26.5106 24.3593 26.6987 24.9488 26.9805 25.4372C27.1087 25.6593 27.3919 25.7297 27.5679 25.907C26.524 24.7551 26.3912 22.8437 28.3021 22.6471C29.1757 22.5573 30.1464 23.0253 30.8865 23.4108C31.596 23.7802 32.2848 24.2194 32.9423 24.6736C33.6003 25.1282 34.2277 25.612 34.8512 26.1127C34.9191 26.1671 35.4327 26.5106 35.4386 26.6119C35.4602 26.9815 35.4427 26.5903 35.4679 26.6119C35.4975 26.6373 35.5233 26.6282 35.5561 26.6119C35.5435 26.5507 35.5591 26.5156 35.5561 26.4651C35.5544 26.4364 34.5163 25.6136 34.4401 25.5546C33.3478 24.7108 32.2004 23.8729 30.9746 23.2345C30.4621 22.9676 29.9209 22.7411 29.3593 22.5885ZM35.5561 26.6119C35.6042 26.8447 35.7123 27.1179 35.5267 27.1699C35.3349 27.2236 35.5016 26.9802 35.5854 26.6119C35.577 26.6218 35.567 26.6064 35.5561 26.6119ZM27.6561 25.9658C28.6196 26.8753 30.0087 27.3641 31.2389 27.6398C31.8224 27.7705 32.2325 27.853 32.8249 27.9334C33.2742 27.9945 33.8363 28.0555 34.2932 28.0509C34.5063 28.0488 34.8048 28.1868 34.9394 28.0216C35.2894 27.5917 34.9402 28.0225 35.4679 27.9041C35.5186 27.8927 35.5381 27.8373 35.5267 27.7866C35.5153 27.736 35.4892 27.6871 35.4386 27.6985C35.4562 27.154 35.6069 27.1225 35.4386 27.1699C35.1671 27.2464 35.1506 27.6689 34.91 27.8159C34.7349 27.923 34.4984 27.8728 34.2932 27.8748C33.5465 27.8817 32.7931 27.7783 32.0612 27.6398C30.8054 27.4019 28.6206 26.9339 27.6561 25.9658Z" fill="#F5999B"/>
<path d="M36.4711 28.251C36.4711 28.251 37.8611 27.1047 37.9703 25.5763C38.0794 24.0481 37.1227 23.4941 36.191 24.1904C35.2593 24.8868 36.117 27.8889 36.117 27.8889" fill="#F5999B"/>
<path d="M36.4711 28.251C36.4711 28.251 37.8611 27.1047 37.9703 25.5763C38.0794 24.0481 37.1227 23.4941 36.191 24.1904C35.2593 24.8868 36.117 27.8889 36.117 27.8889" stroke="#F5999B" stroke-width="0.2" stroke-miterlimit="10" stroke-linejoin="round"/>
<path d="M46.4006 22.639C50.2115 20.0908 52.1504 22.0405 52.1504 22.0405C52.1504 22.0405 53.0644 23.4848 51.7222 24.7366C50.3801 25.9885 48.2285 26.4492 47.346 26.5842C46.4633 26.7191 47.6979 25.3083 47.1478 23.9559" fill="#F5999B"/>
<path d="M46.4006 22.639C50.2115 20.0908 52.1504 22.0405 52.1504 22.0405C52.1504 22.0405 53.0644 23.4848 51.7222 24.7366C50.3801 25.9885 48.2285 26.4492 47.346 26.5842C46.4633 26.7191 47.6979 25.3083 47.1478 23.9559" stroke="#F5999B" stroke-width="0.2" stroke-miterlimit="10" stroke-linejoin="round"/>
<path d="M46.9241 23.0454C46.9241 23.0454 48.1775 21.8932 50.2008 22.2689C52.2243 22.6446 49.3677 25.5625 47.4241 24.842" fill="#F5485B"/>
<path d="M46.9241 23.0454C46.9241 23.0454 48.1775 21.8932 50.2008 22.2689C52.2243 22.6446 49.3677 25.5625 47.4241 24.842" stroke="#FE6578" stroke-width="0.5" stroke-miterlimit="10" stroke-linejoin="round"/>
<path d="M47.3036 26.5981C48.757 26.3275 51.0118 25.7826 52.0285 24.4602C53.3498 22.7414 51.7173 20.9815 51.3599 20.5391C51.0025 20.0968 49.5535 18.6233 48.6379 18.6059C47.7221 18.5885 46.3968 18.8031 44.5807 19.7742C42.7648 20.7454 41.6545 22.0269 41.6545 22.0269C41.6545 22.0269 41.3954 20.7351 41.0746 18.6721C40.7537 16.6091 39.4383 16.7539 37.8096 16.7388C36.1808 16.7238 31.9376 17.252 30.9144 17.6306C29.8913 18.0092 29.5557 18.3414 29.4359 18.8252C29.316 19.309 29.6177 20.0467 29.6177 20.0467" stroke="#FE6578" stroke-width="0.9" stroke-miterlimit="10" stroke-linejoin="round"/>
<path d="M35.6562 28.0611C35.6562 28.0611 33.6759 28.3973 31.0296 27.8538C29.5558 27.5511 28.0241 27.0228 26.3221 25.7796C25.3743 25.0872 24.9039 24.222 24.6698 23.5062C23.7286 20.6289 28.0152 18.5743 31.9386 21.0043C33.9286 22.2368 35.1321 23.3511 35.7911 24.3318" stroke="#FE6578" stroke-width="0.9" stroke-miterlimit="10" stroke-linejoin="round"/>
<path d="M35.9495 24.3601C35.9173 24.5249 35.8905 24.697 35.866 24.8755C35.866 24.8755 35.5334 26.8221 35.5411 27.0647C35.5488 27.3075 35.6313 27.8374 35.9699 28.1686C35.9699 28.1686 36.5159 28.7713 37.4397 28.7533C38.3635 28.7355 44.7574 28.2746 44.7574 28.2746C44.7574 28.2746 45.8008 28.2206 46.2677 27.9047C46.7346 27.5887 47.4202 26.6929 47.4828 25.1658C47.5453 23.6386 46.7169 22.5465 46.1351 22.1754C45.5534 21.8044 45.0707 21.84 44.463 21.8952C43.8551 21.9503 38.6796 22.3813 38.3451 22.423C38.0106 22.4648 37.1955 22.4569 36.67 22.9033C36.2574 23.2539 36.0673 23.7573 35.9495 24.3601Z" stroke="#FE6578" stroke-width="0.9" stroke-miterlimit="10" stroke-linejoin="round"/>
</svg>
