<svg width="80" height="80" viewBox="0 0 80 80" fill="none" xmlns="http://www.w3.org/2000/svg">
<path d="M51.7488 61.588C49.9107 61.9068 47.6464 61.5133 47.0458 61.4258C46.2696 61.3127 44.424 61.4321 42.8804 62.947C41.3367 64.4619 38.6429 65.962 37.1814 65.7997C35.72 65.6376 35.1916 65.2597 32.7587 62.9558C30.3258 60.6518 27.7423 61.2882 26.9055 61.3142C26.0687 61.3402 23.9951 61.4999 23.0685 60.7762C22.1419 60.0524 19.6896 58.0244 19.5011 57.5309C19.3128 57.0373 33.3348 55.6895 33.3348 55.6895L49.7612 58.4968L51.1743 61.6402" fill="#A81731"/>
<path d="M51.7488 61.588C49.9107 61.9068 47.6464 61.5133 47.0458 61.4258C46.2696 61.3127 44.424 61.4321 42.8804 62.947C41.3367 64.4619 38.6429 65.962 37.1814 65.7997C35.72 65.6376 35.1694 65.0768 32.7365 62.7728C30.3036 60.4688 27.7423 61.2882 26.9055 61.3142C26.0687 61.3402 23.9951 61.4999 23.0685 60.7762C22.1419 60.0524 19.6896 58.0244 19.5011 57.5309C19.3128 57.0373 33.3348 55.6895 33.3348 55.6895L49.7612 58.4968L51.1743 61.6402" stroke="#CD2543" stroke-miterlimit="10" stroke-linejoin="round"/>
<path d="M50.7605 61.7045C51.6596 61.6574 52.5456 61.4937 53.2048 61.1091C55.0275 60.0458 55.9928 57.5664 56.2023 56.2786C56.4117 54.9908 57.4899 53.185 58.1468 52.3647C58.8037 51.5445 60.7445 50.7019 61.4381 50.3553C62.1317 50.0087 63.5285 49.1263 64.0168 48.4464C64.5052 47.7665 66.055 46.024 64.2077 41.8278C62.3603 37.6317 64.3876 37.9261 65.9115 34.9961C67.4355 32.0662 65.1428 30.6482 64.6045 30.143C64.2782 29.8367 63.2189 28.9625 62.2535 28.0953C61.6259 27.5315 60.9621 27.0024 60.8242 26.5263C60.4743 25.3178 60.3539 24.8418 60.0504 22.9208C59.747 20.9999 56.4009 18.0313 55.698 17.9157C54.9951 17.8003 56.4347 41.0277 56.4347 41.0277L50.1942 55.9781L50.0259 57.6162L49.9023 58.8194L51.1885 61.6687" fill="#D44660"/>
<path d="M49.762 58.5029L50.4069 59.9474L51.0871 61.4405" stroke="#A81731" stroke-miterlimit="10" stroke-linejoin="round"/>
<path d="M50.4039 61.7023C51.3029 61.7532 52.5456 61.4937 53.2048 61.1091C55.0275 60.0458 55.9928 57.5663 56.2023 56.2786C56.4117 54.9908 57.4899 53.1849 58.1468 52.3646C58.8037 51.5444 60.7445 50.7019 61.4381 50.3552C62.1317 50.0087 63.5285 49.1263 64.0168 48.4464C64.5052 47.7665 66.055 46.0239 64.2077 41.8278C62.3603 37.6317 64.3876 37.9261 65.9115 34.9961C67.4355 32.0661 65.1428 30.6482 64.6045 30.1429C64.2782 29.8367 63.2189 28.9624 62.2535 28.0953C61.6259 27.5315 60.9621 27.0024 60.8242 26.5262C60.4743 25.3177 60.3539 24.8417 60.0504 22.9208C59.747 20.9999 56.0019 17.7957 55.299 17.6801C54.5962 17.5647 56.4347 41.0276 56.4347 41.0276L52.7968 49.743L50.1942 55.9781L50.0259 57.6162L49.9023 58.8194" stroke="#CD2543" stroke-miterlimit="10" stroke-linejoin="round"/>
<path d="M23.2301 25.4806C23.2301 25.4806 24.8753 18.8633 29.8318 18.6281C34.7884 18.3928 35.2622 18.6559 36.6436 17.2819C38.0251 15.9078 40.6003 14.1937 42.2408 14.3725C43.8812 14.5513 45.447 16.0389 45.8162 16.5061C46.1854 16.9734 47.8813 18.37 50.2654 17.5885C52.6494 16.8071 53.9685 17.2281 54.6714 17.3435C55.3742 17.4591 56.7682 18.349 57.0718 20.2699C57.3752 22.1908 57.3398 22.695 57.6898 23.9035C58.0397 25.112 60.9865 26.9492 61.5248 27.4545C62.063 27.9597 64.4981 29.4105 62.9742 32.3405C61.4502 35.2705 59.4229 34.9761 61.2703 39.1722C63.1176 43.3683 61.5678 45.1108 61.0794 45.7908C60.5911 46.4707 59.1944 47.353 58.5007 47.6996C57.8071 48.0463 55.8663 48.8887 55.2094 49.709C54.5524 50.5293 53.4744 52.3351 53.2649 53.623C53.0554 54.9107 52.0901 57.3902 50.2674 58.4534C48.4448 59.5167 44.8893 58.8924 44.1132 58.7792C43.337 58.6661 41.4913 58.7855 39.9477 60.3004C38.4042 61.8153 35.7102 63.3154 34.2488 63.1532C32.7873 62.9911 32.259 62.6132 29.826 60.3092C27.3931 58.0053 24.7672 58.6468 23.9304 58.6728C23.0936 58.6987 19.6853 59.2597 19.0271 56.5423C18.369 53.8248 18.7724 52.3387 18.4539 51.5107C18.1355 50.6827 17.3739 50.0222 16.7301 49.5903C16.0863 49.1582 13.7517 47.4714 13.5673 45.7911C13.3829 44.1108 14.3552 42.0062 14.9844 40.8319C15.6136 39.6575 16.3157 38.7174 16.4239 37.7947C16.5322 36.8718 16.5331 35.8126 16.4033 34.8782C16.2735 33.9438 15.793 32.5177 16.4413 31.1609C17.0896 29.8041 17.9951 28.7111 19.4533 27.8601C20.9116 27.009 22.7774 26.4161 23.2301 25.4806Z" fill="url(#paint0_linear_1118_35)"/>
<path d="M19.7553 56.7239C19.1456 54.22 19.5819 51.275 19.4017 50.431C19.2215 49.587 18.7488 49.0082 18.1492 48.6093C17.5495 48.2105 15.3751 46.6534 15.2056 45.1055C15.0361 43.5576 15.9458 41.6206 16.5342 40.54C17.1225 39.4592 17.7786 38.5944 17.8809 37.7447C17.9832 36.8948 17.9856 35.9193 17.8659 35.0585C17.7462 34.1976 17.1533 32.7155 17.7599 31.4668C18.3663 30.2181 19.3591 29.3806 20.72 28.5988C22.081 27.8172 23.7181 27.251 24.1416 26.3901C24.1416 26.3901 25.6418 20.1525 30.2637 19.9432C34.8856 19.7339 35.474 20.1449 36.7641 18.8813C38.0542 17.6177 40.6212 15.8386 42.1505 16.0057C43.6799 16.1728 45.1565 17.653 45.5 18.0839C45.8437 18.5149 47.3794 19.7589 49.6035 19.0428C51.8275 18.3265 53.1662 18.4604 53.8215 18.5678C54.4767 18.6753 55.3903 19.3719 55.6705 21.1416C55.9507 22.9113 56.0536 23.8976 56.3782 25.0112C56.7027 26.1248 59.3264 27.4572 59.8275 27.9234C60.3287 28.3896 62.7525 29.6852 61.3272 32.3817C59.902 35.0781 57.9781 34.872 59.6945 38.7395C61.4109 42.607 60.6096 44.4818 60.1532 45.1073C59.6969 45.7329 57.883 47.2238 57.2357 47.542C56.5885 47.8602 54.7711 48.994 54.1574 49.7486C53.5436 50.5032 53.2377 52.6596 53.0405 53.8454C52.8433 55.0312 54.5036 50.2622 54.5036 50.2622C54.5036 50.2622 55.7807 48.8961 59.4505 46.7519C63.1203 44.6079 61.8736 42.0691 61.4272 40.5555C60.9808 39.0419 58.9179 37.4358 62.2627 33.1297C65.6075 28.8236 59.0906 26.317 58.2146 25.2164C57.6795 24.544 57.3667 22.0998 56.765 20.1485C56.3818 18.9056 55.7479 17.7849 55.2965 17.7013C54.1363 17.4864 52.8469 17.0905 50.2494 17.9316C47.6521 18.7727 46.4203 16.4169 43.0046 14.8793C40.7699 13.8734 37.5142 17.2234 37.5142 17.2234C37.5142 17.2234 35.6387 18.6392 34.4886 18.6701C31.162 18.7596 28.4051 18.7044 27.0018 19.6419C25.5984 20.5796 23.5289 24.8571 23.1042 25.9956C22.6796 27.1339 17.1973 28.5748 16.723 30.7438C16.2487 32.9128 16.6703 36.5686 16.7677 37.0752C16.8197 37.3463 14.2146 42.8739 14.2146 42.8739C14.2146 42.8739 13.7239 45.4171 13.8908 45.8099C14.1054 46.3151 14.1347 46.7344 14.6175 47.4147C15.4005 48.5179 16.8602 49.5689 17.5513 49.9459C18.6685 50.5552 18.8717 52.3834 19.0239 53.526C19.1763 54.6686 20.365 59.2278 19.7553 56.7239Z" fill="#F92549" stroke="#F92549" stroke-width="0.2" stroke-miterlimit="10" stroke-linejoin="round"/>
<path d="M25.3644 34.0997L23.9776 41.7459C23.9776 41.7459 23.4609 43.5759 24.7777 43.7616C26.0945 43.9472 26.0531 42.049 26.1605 41.5905C26.268 41.1321 26.7346 37.7208 26.7346 37.7208L29.7523 43.1525C29.7523 43.1525 30.1241 43.921 30.7775 43.7868C31.4308 43.6527 31.6545 42.8434 31.7272 42.193C31.7998 41.5427 32.9683 34.2339 32.9683 34.2339C32.9683 34.2339 33.2018 32.8765 32.1106 32.72C31.0194 32.5634 30.7914 33.9907 30.7361 34.3416C30.6808 34.6926 30.2079 38.8678 30.2079 38.8678L27.2634 33.6905C27.2634 33.6905 26.8597 32.901 26.2977 33.0048C25.7356 33.1085 25.443 33.6171 25.3644 34.0997Z" fill="#D44660" stroke="#D44660" stroke-width="0.4" stroke-miterlimit="10" stroke-linejoin="round"/>
<path d="M35.5447 33.3372L34.2354 41.4417C34.2354 41.4417 33.8692 43.1298 34.9442 43.2814C36.0192 43.4331 41.2628 43.3412 41.2628 43.3412C41.2628 43.3412 42.6087 43.2409 42.4335 42.0584C42.2583 40.8759 40.8289 41.0977 40.5817 41.0743C40.3346 41.0508 36.2709 41.2166 36.2709 41.2166L36.5924 38.9412L41.1653 38.8398C41.1653 38.8398 42.5186 38.9406 42.6831 37.971C42.8477 37.0014 41.602 36.8066 41.037 36.7986C40.472 36.7907 37.2766 36.8036 37.2766 36.8036C37.2766 36.8036 36.984 36.7137 37.1165 36.1629" fill="#D44660"/>
<path d="M35.5447 33.3372L34.2354 41.4417C34.2354 41.4417 33.8692 43.1298 34.9442 43.2814C36.0192 43.4331 41.2628 43.3412 41.2628 43.3412C41.2628 43.3412 42.6087 43.2409 42.4335 42.0584C42.2583 40.8759 40.8289 41.0977 40.5817 41.0743C40.3346 41.0508 36.2709 41.2166 36.2709 41.2166L36.5924 38.9412L41.1653 38.8398C41.1653 38.8398 42.5186 38.9406 42.6831 37.971C42.8477 37.0014 41.602 36.8066 41.037 36.7986C40.472 36.7907 37.2766 36.8036 37.2766 36.8036C37.2766 36.8036 36.984 36.7137 37.1165 36.1629" stroke="#D44660" stroke-width="0.4" stroke-miterlimit="10" stroke-linejoin="round"/>
<path d="M35.4852 33.7594C35.4852 33.7594 35.4363 32.7904 36.4571 32.6553C37.4778 32.5202 42.1655 32.5842 42.1655 32.5842C42.1655 32.5842 43.474 32.5152 43.2983 33.6352C43.1225 34.7552 41.7686 34.5333 41.5341 34.5535C41.2995 34.5737 37.3135 34.5293 37.3135 34.5293L37.082 36.368" fill="#D44660"/>
<path d="M35.4852 33.7594C35.4852 33.7594 35.4363 32.7904 36.4571 32.6553C37.4778 32.5202 42.1655 32.5842 42.1655 32.5842C42.1655 32.5842 43.474 32.5152 43.2983 33.6352C43.1225 34.7552 41.7686 34.5333 41.5341 34.5535C41.2995 34.5737 37.3135 34.5293 37.3135 34.5293L37.082 36.368" stroke="#D44660" stroke-width="0.4" stroke-miterlimit="10" stroke-linejoin="round"/>
<path d="M44.8035 41.2758L45.7287 33.9142C45.7287 33.9142 45.9867 31.9677 46.905 32.0612C47.8233 32.1546 47.9181 33.2922 47.8187 34.1332C47.7194 34.974 47.2552 38.5842 47.2552 38.5842C47.2552 38.5842 48.2585 37.5084 48.4773 37.3221C48.6962 37.1359 49.0677 36.7866 49.3529 36.6802C49.6381 36.5738 50.0258 36.655 50.3452 37.1482C50.6646 37.6412 51.2099 38.6021 51.2099 38.6021L51.6853 33.5953C51.6853 33.5953 51.8447 31.8905 52.8006 32.0216C53.7566 32.1528 53.9219 32.999 53.8384 33.858C53.755 34.7169 53.0772 41.7747 53.0772 41.7747C53.0772 41.7747 53.0329 42.9508 52.3159 43.1236C51.599 43.2964 51.244 42.9321 50.2777 41.456C49.3113 39.98 49.0744 39.4336 49.0744 39.4336L46.7211 42.5139C46.7211 42.5139 46.2821 43.236 45.5158 43.0608C44.7494 42.8857 44.6649 41.9214 44.8035 41.2758Z" fill="#D44660" stroke="#D44660" stroke-width="0.4" stroke-miterlimit="10" stroke-linejoin="round"/>
<path d="M24.7622 33.6981L23.3753 41.3443C23.3753 41.3443 22.8586 43.1743 24.1755 43.36C25.4922 43.5456 25.4507 41.6474 25.5583 41.1889C25.6658 40.7304 26.1323 37.3192 26.1323 37.3192L29.15 42.751C29.15 42.751 29.5219 43.5194 30.1752 43.3852C30.8286 43.2511 31.0523 42.4418 31.125 41.7914C31.1976 41.1411 32.3661 33.8323 32.3661 33.8323C32.3661 33.8323 32.5995 32.4749 31.5084 32.3184C30.4171 32.1617 30.1891 33.5891 30.1338 33.94C30.0785 34.2909 29.6056 38.4662 29.6056 38.4662L26.6611 33.2889C26.6611 33.2889 26.2574 32.4994 25.6954 32.6031C25.1334 32.7069 24.8407 33.2155 24.7622 33.6981Z" fill="white" stroke="white" stroke-width="0.4" stroke-miterlimit="10" stroke-linejoin="round"/>
<path d="M34.9421 32.9358L33.6329 41.0404C33.6329 41.0404 33.2667 42.7285 34.3417 42.8802C35.4166 43.0318 40.6603 42.9399 40.6603 42.9399C40.6603 42.9399 42.0061 42.8396 41.831 41.6571C41.6558 40.4747 40.2264 40.6964 39.9792 40.673C39.7321 40.6496 35.6683 40.8153 35.6683 40.8153L35.9898 38.54L40.5627 38.4385C40.5627 38.4385 41.9161 38.5393 42.0806 37.5697C42.2452 36.6001 40.9995 36.4053 40.4345 36.3973C39.8694 36.3893 36.6742 36.4024 36.6742 36.4024C36.6742 36.4024 36.3814 36.3124 36.514 35.7616" fill="white"/>
<path d="M34.9421 32.9358L33.6329 41.0404C33.6329 41.0404 33.2667 42.7285 34.3417 42.8802C35.4166 43.0318 40.6603 42.9399 40.6603 42.9399C40.6603 42.9399 42.0061 42.8396 41.831 41.6571C41.6558 40.4747 40.2264 40.6964 39.9792 40.673C39.7321 40.6496 35.6683 40.8153 35.6683 40.8153L35.9898 38.54L40.5627 38.4385C40.5627 38.4385 41.9161 38.5393 42.0806 37.5697C42.2452 36.6001 40.9995 36.4053 40.4345 36.3973C39.8694 36.3893 36.6742 36.4024 36.6742 36.4024C36.6742 36.4024 36.3814 36.3124 36.514 35.7616" stroke="white" stroke-width="0.4" stroke-miterlimit="10" stroke-linejoin="round"/>
<path d="M34.8827 33.358C34.8827 33.358 34.8338 32.389 35.8545 32.254C36.8752 32.1189 41.5629 32.1829 41.5629 32.1829C41.5629 32.1829 42.8715 32.1137 42.6957 33.2338C42.52 34.3538 41.166 34.1319 40.9315 34.1521C40.697 34.1723 36.7109 34.1279 36.7109 34.1279L36.4795 35.9666" fill="white"/>
<path d="M34.8827 33.358C34.8827 33.358 34.8338 32.389 35.8545 32.254C36.8752 32.1189 41.5629 32.1829 41.5629 32.1829C41.5629 32.1829 42.8715 32.1137 42.6957 33.2338C42.52 34.3538 41.166 34.1319 40.9315 34.1521C40.697 34.1723 36.7109 34.1279 36.7109 34.1279L36.4795 35.9666" stroke="white" stroke-width="0.4" stroke-miterlimit="10" stroke-linejoin="round"/>
<path d="M44.201 40.8742L45.1263 33.5126C45.1263 33.5126 45.3841 31.5661 46.3024 31.6595C47.2208 31.753 47.3155 32.8906 47.2162 33.7315C47.1168 34.5724 46.6526 38.1826 46.6526 38.1826C46.6526 38.1826 47.6559 37.1067 47.8748 36.9205C48.0936 36.7342 48.4652 36.385 48.7504 36.2786C49.0355 36.1722 49.4232 36.2533 49.7426 36.7465C50.062 37.2396 50.6073 38.2005 50.6073 38.2005L51.0827 33.1937C51.0827 33.1937 51.2422 31.4888 52.1981 31.62C53.1541 31.7512 53.3194 32.5973 53.2359 33.4563C53.1524 34.3153 52.4747 41.3731 52.4747 41.3731C52.4747 41.3731 52.4304 42.5491 51.7134 42.722C50.9964 42.8947 50.6415 42.5304 49.6751 41.0544C48.7088 39.5784 48.4719 39.032 48.4719 39.032L46.1186 42.1123C46.1186 42.1123 45.6796 42.8344 44.9132 42.6592C44.1469 42.484 44.0623 41.5198 44.201 40.8742Z" fill="white" stroke="white" stroke-width="0.4" stroke-miterlimit="10" stroke-linejoin="round"/>
<path d="M53.3717 53.1538C53.3257 53.3157 53.2895 53.4729 53.2651 53.623C53.0556 54.9108 52.2042 57.5704 50.0515 58.5586" stroke="#FF8FA6" stroke-miterlimit="10" stroke-linejoin="round"/>
<path d="M20.89 58.5052C20.0488 58.2344 19.3006 57.6713 19.0271 56.5423C18.369 53.8248 18.7724 52.3387 18.4539 51.5107C18.1355 50.6827 17.3739 50.0222 16.7301 49.5903C16.0863 49.1583 13.7517 47.4714 13.5673 45.7911C13.3829 44.1108 14.3552 42.0062 14.9844 40.8319C15.6136 39.6576 16.3157 38.7174 16.4239 37.7947C16.5322 36.8718 16.5331 35.8126 16.4033 34.8782C16.2735 33.9438 15.793 32.5177 16.4413 31.1609C17.0896 29.8041 17.9951 28.7111 19.4533 27.8601C20.9116 27.009 22.7774 26.4161 23.2301 25.4806C23.2301 25.4806 24.8753 18.8633 29.8318 18.6281C34.7884 18.3928 35.2622 18.6559 36.6436 17.2819C38.0251 15.9078 40.6003 14.1937 42.2408 14.3725C43.8812 14.5513 45.447 16.0389 45.8162 16.5061C46.1854 16.9734 47.8813 18.37 50.2654 17.5885C52.6494 16.8071 54.0967 17.1677 54.6714 17.3435C55.246 17.5195 56.7682 18.349 57.0718 20.2699C57.3752 22.1908 57.3398 22.695 57.6898 23.9035C58.0397 25.112 60.9865 26.9492 61.5248 27.4545C62.063 27.9597 64.4981 29.4105 62.9742 32.3405C61.4502 35.2705 59.4229 34.9761 61.2703 39.1722C63.1176 43.3683 61.5678 45.1108 61.0794 45.7908C60.5911 46.4707 59.1944 47.353 58.5007 47.6996C57.8071 48.0463 55.8663 48.8887 55.2094 49.709C54.629 50.4337 53.72 51.9275 53.3715 53.1538" stroke="#FF8FA6" stroke-miterlimit="10" stroke-linejoin="round"/>
<path d="M19.9179 58.0003C19.7746 57.8856 19.6419 57.7539 19.5229 57.6028" stroke="#FF8FA6" stroke-miterlimit="10" stroke-linejoin="round"/>
<path d="M50.2227 58.4837C48.366 59.3996 44.8866 58.893 44.1105 58.7799C43.3343 58.6668 41.4886 58.7862 39.9451 60.3011C38.4014 61.816 35.7075 63.3161 34.2461 63.1539C32.7846 62.9917 32.2563 62.6138 29.8234 60.3099C27.3904 58.0059 24.7645 58.6475 23.9277 58.6734C23.2948 58.6931 21.1904 59.0189 19.918 58.0002" stroke="#A81731" stroke-miterlimit="10" stroke-linejoin="round"/>
<defs>
<linearGradient id="paint0_linear_1118_35" x1="37.1736" y1="49.9018" x2="44.0117" y2="16.079" gradientUnits="userSpaceOnUse">
<stop stop-color="#F82047"/>
<stop offset="1" stop-color="#FF97AA"/>
</linearGradient>
</defs>
</svg>
