<svg width="80" height="80" viewBox="0 0 80 80" fill="none" xmlns="http://www.w3.org/2000/svg">
<g clip-path="url(#clip0_1111_2)">
<g clip-path="url(#clip1_1111_2)">
<path d="M67.7197 25.9709L70.8907 27.986C72.6393 29.0971 73.6151 31.0965 73.4153 33.1586L71.324 54.7361C71.031 57.7595 68.3425 59.9729 65.3191 59.6799L11.0144 54.417C8.61633 54.1846 6.56217 50.5809 5.40405 48.0859" fill="#1F4EA1"/>
<path d="M6.58884 25.2676C6.88185 22.2442 9.57033 20.0307 12.5937 20.3238L64.6573 25.3694C67.6807 25.6624 69.8942 28.3509 69.6011 31.3743L67.7929 50.0327C67.4999 53.0561 64.8114 55.2695 61.788 54.9765L9.72435 49.9307C6.70095 49.6377 4.48754 46.9492 4.78055 43.9258L6.58884 25.2676Z" fill="url(#paint0_linear_1111_2)" stroke="#80BCFE" stroke-width="1.2" stroke-miterlimit="10" stroke-linejoin="round"/>
<path d="M10.4954 28.299C10.7197 25.9847 12.7776 24.2905 15.0919 24.5148L61.6421 29.0262C63.9564 29.2505 65.6506 31.3085 65.4263 33.6227L64.0166 48.1684C63.7923 50.4826 61.7344 52.1769 59.4201 51.9526L12.8773 47.4419C10.559 47.2172 8.85709 45.2036 9.07611 42.9443L10.4954 28.299Z" stroke="#3777F2" stroke-miterlimit="10" stroke-linejoin="round"/>
<path d="M10.0083 27.3207C10.2326 25.0065 12.2905 23.3122 14.6048 23.5365L62.0621 28.1358C64.3764 28.3601 66.0706 30.418 65.8463 32.7323L64.3409 48.2662C64.1166 50.5805 62.0587 52.2748 59.7444 52.0505L12.287 47.4511C9.97277 47.2268 8.2785 45.1689 8.50279 42.8546L10.0083 27.3207Z" stroke="#498EE1" stroke-width="1.2" stroke-miterlimit="10" stroke-linejoin="round"/>
<path d="M17.908 33.0957C17.908 33.0957 17.1088 40.5638 17.0694 41.1355C17.0299 41.7073 16.7737 42.9422 18.1121 43.0776C19.4505 43.213 20.71 43.5298 20.7424 42.0836C20.7749 40.6373 21.0447 38.2496 21.0958 37.5322C21.1467 36.8147 24.5978 42.8853 24.5978 42.8853C24.5978 42.8853 25.0627 43.8229 25.8242 44.0262C26.5857 44.2295 27.1874 44.1677 27.4889 44.123C27.7904 44.0783 28.289 44.049 28.352 43.4353C28.415 42.8215 29.4704 32.8708 29.4805 32.7357C29.4907 32.6006 29.7315 31.6182 28.8636 31.4813C27.9957 31.3445 25.9249 30.9015 25.6951 31.5786C25.4654 32.2558 25.2867 36.7581 25.2867 36.7581L21.6706 31.274C21.6706 31.274 21.1389 30.5781 20.5412 30.5386C19.9436 30.4992 18.7331 30.3913 18.3691 30.7816C18.0051 31.1719 17.908 33.0957 17.908 33.0957Z" fill="#327BD0" stroke="#327BD0" stroke-width="0.1" stroke-miterlimit="10" stroke-linejoin="round"/>
<path d="M38.6295 38.77C38.8004 37.2142 37.8652 37.2754 37.8652 37.2754L34.622 36.9808L34.7999 35.2306C34.7999 35.2306 36.9408 35.4547 38.0723 35.5972C39.2036 35.7396 39.3271 35.0999 39.3271 35.0999C39.3271 35.0999 39.5011 34.12 39.5151 33.2688C39.5291 32.4177 38.4623 32.4404 38.4623 32.4404C38.4623 32.4404 32.8905 31.7677 32.1373 31.8368C31.3841 31.9059 31.3217 32.9801 31.3217 32.9801L31.26 36.225L31.0669 38.1909" fill="#327BD0"/>
<path d="M38.6295 38.77C38.8004 37.2142 37.8652 37.2754 37.8652 37.2754L34.622 36.9808L34.7999 35.2306C34.7999 35.2306 36.9408 35.4547 38.0723 35.5972C39.2036 35.7396 39.3271 35.0999 39.3271 35.0999C39.3271 35.0999 39.5011 34.12 39.5151 33.2688C39.5291 32.4177 38.4623 32.4404 38.4623 32.4404C38.4623 32.4404 32.8905 31.7677 32.1373 31.8368C31.3841 31.9059 31.3217 32.9801 31.3217 32.9801L31.26 36.225L31.0669 38.1909" stroke="#327BD0" stroke-width="0.1" stroke-miterlimit="10" stroke-linejoin="round"/>
<path d="M31.3214 32.9243L30.4061 43.3412C30.4061 43.3412 30.3096 44.3442 31.0376 44.5494C31.7657 44.7548 37.3809 45.0731 37.3809 45.0731C37.3809 45.0731 38.4863 45.2073 38.5267 44.4585C38.5672 43.7098 38.5903 42.8093 38.5903 42.8093C38.5903 42.8093 38.7309 42.0338 37.5152 41.9443C36.2995 41.8548 34.2219 41.6136 34.2219 41.6136L34.3554 39.8663L37.6038 40.1793C37.6038 40.1793 38.5973 40.2958 38.6384 38.7288C38.6797 37.1619 38.0199 37.5585 38.0199 37.5585L34.2857 37.0764L34.4738 35.2127" fill="#327BD0"/>
<path d="M31.3214 32.9243L30.4061 43.3412C30.4061 43.3412 30.3096 44.3442 31.0376 44.5494C31.7657 44.7548 37.3809 45.0731 37.3809 45.0731C37.3809 45.0731 38.4863 45.2073 38.5267 44.4585C38.5672 43.7098 38.5903 42.8093 38.5903 42.8093C38.5903 42.8093 38.7309 42.0338 37.5152 41.9443C36.2995 41.8548 34.2219 41.6136 34.2219 41.6136L34.3554 39.8663L37.6038 40.1793C37.6038 40.1793 38.5973 40.2958 38.6384 38.7288C38.6797 37.1619 38.0199 37.5585 38.0199 37.5585L34.2857 37.0764L34.4738 35.2127" stroke="#327BD0" stroke-width="0.1" stroke-miterlimit="10" stroke-linejoin="round"/>
<path d="M38.6299 38.77C38.8007 37.2142 37.8655 37.2754 37.8655 37.2754L34.6223 36.9808L34.8002 35.2306C34.8002 35.2306 36.9411 35.4547 38.0726 35.5972C39.2039 35.7396 39.3274 35.0999 39.3274 35.0999C39.3274 35.0999 39.5014 34.12 39.5154 33.2688C39.5294 32.4177 38.4626 32.4404 38.4626 32.4404C38.4626 32.4404 32.8908 31.7677 32.1376 31.8368C31.3844 31.9059 31.322 32.9801 31.322 32.9801" stroke="#327BD0" stroke-width="0.1" stroke-miterlimit="10" stroke-linejoin="round"/>
<path d="M31.3214 32.9243L30.4061 43.3412C30.4061 43.3412 30.3096 44.3442 31.0376 44.5494C31.7657 44.7548 37.3809 45.0731 37.3809 45.0731C37.3809 45.0731 38.4863 45.2073 38.5267 44.4585C38.5672 43.7098 38.5903 42.8093 38.5903 42.8093C38.5903 42.8093 38.7309 42.0338 37.5151 41.9443C36.2995 41.8548 34.2219 41.6136 34.2219 41.6136L34.3554 39.8663L37.6038 40.1793C37.6038 40.1793 38.5973 40.2958 38.6384 38.7288" stroke="#327BD0" stroke-width="0.1" stroke-miterlimit="10" stroke-linejoin="round"/>
<path d="M40.8711 33.85L42.6632 43.7165C42.6632 43.7165 42.8367 45.3461 43.2149 45.4041C43.5931 45.4619 46.096 45.8904 46.4513 45.618C46.8068 45.3455 48.8114 41.1022 48.8114 41.1022C48.8114 41.1022 50.4634 46.1749 50.6904 46.3077C50.9173 46.4404 53.6585 46.7447 53.9832 46.3913C54.3079 46.0379 59.3514 34.7753 58.8072 34.5289C58.2629 34.2824 55.2008 33.8031 54.9186 34.3701C54.6362 34.937 52.598 40.1849 52.598 40.1849C52.598 40.1849 50.7003 33.4066 49.5635 33.5843C48.4266 33.762 45.9017 39.1931 45.7494 39.6345C45.5972 40.0759 44.7096 33.1161 44.2 33.048C43.6903 32.9798 40.8835 32.6267 40.8378 33.052C40.792 33.4772 40.8711 33.85 40.8711 33.85Z" fill="#327BD0" stroke="#327BD0" stroke-width="0.1" stroke-miterlimit="10" stroke-linejoin="round"/>
<path d="M17.2715 32.6835C17.2715 32.6835 16.4724 40.1516 16.4329 40.7234C16.3935 41.2952 16.1373 42.5301 17.4756 42.6655C18.814 42.8009 20.0734 43.1177 20.1059 41.6715C20.1385 40.2252 20.4083 37.8375 20.4593 37.1201C20.5103 36.4026 23.9614 42.4732 23.9614 42.4732C23.9614 42.4732 24.4263 43.4108 25.1878 43.6141C25.9493 43.8174 26.551 43.7556 26.8525 43.7109C27.154 43.6662 27.6525 43.6369 27.7156 43.0232C27.7786 42.4094 28.834 32.4586 28.8441 32.3236C28.8542 32.1885 29.0951 31.2061 28.2272 31.0692C27.3593 30.9324 25.2884 30.4894 25.0586 31.1665C24.829 31.8437 24.6502 36.346 24.6502 36.346L21.0341 30.8619C21.0341 30.8619 20.5023 30.166 19.9048 30.1265C19.3071 30.0871 18.0967 29.9791 17.7326 30.3695C17.3686 30.7598 17.2715 32.6835 17.2715 32.6835Z" fill="white" stroke="white" stroke-width="0.1" stroke-miterlimit="10" stroke-linejoin="round"/>
<path d="M37.9934 38.3574C38.1642 36.8016 37.2291 36.8628 37.2291 36.8628L33.9859 36.5682L34.1638 34.818C34.1638 34.818 36.3047 35.0421 37.436 35.1846C38.5675 35.327 38.6909 34.6873 38.6909 34.6873C38.6909 34.6873 38.8649 33.7074 38.879 32.8562C38.893 32.0051 37.8262 32.0278 37.8262 32.0278C37.8262 32.0278 32.2544 31.3551 31.5012 31.4242C30.7479 31.4933 30.6855 32.5675 30.6855 32.5675L30.6239 35.8124L30.4307 37.7784" fill="white"/>
<path d="M37.9934 38.3574C38.1642 36.8016 37.2291 36.8628 37.2291 36.8628L33.9859 36.5682L34.1638 34.818C34.1638 34.818 36.3047 35.0421 37.436 35.1846C38.5675 35.327 38.6909 34.6873 38.6909 34.6873C38.6909 34.6873 38.8649 33.7074 38.879 32.8562C38.893 32.0051 37.8262 32.0278 37.8262 32.0278C37.8262 32.0278 32.2544 31.3551 31.5012 31.4242C30.7479 31.4933 30.6855 32.5675 30.6855 32.5675L30.6239 35.8124L30.4307 37.7784" stroke="white" stroke-width="0.1" stroke-miterlimit="10" stroke-linejoin="round"/>
<path d="M30.685 32.5117L29.7696 42.9286C29.7696 42.9286 29.6731 43.9316 30.4011 44.1368C31.1291 44.3422 36.7444 44.6605 36.7444 44.6605C36.7444 44.6605 37.8497 44.7947 37.8902 44.0459C37.9306 43.2972 37.9538 42.3967 37.9538 42.3967C37.9538 42.3967 38.0943 41.6212 36.8787 41.5317C35.6629 41.4422 33.5854 41.201 33.5854 41.201L33.7188 39.4537L36.9674 39.7667C36.9674 39.7667 37.9608 39.8832 38.002 38.3162C38.0431 36.7493 37.3834 37.146 37.3834 37.146L33.6492 36.6638L33.8373 34.8001" fill="white"/>
<path d="M30.685 32.5117L29.7696 42.9286C29.7696 42.9286 29.6731 43.9316 30.4011 44.1368C31.1291 44.3422 36.7444 44.6605 36.7444 44.6605C36.7444 44.6605 37.8497 44.7947 37.8902 44.0459C37.9306 43.2972 37.9538 42.3967 37.9538 42.3967C37.9538 42.3967 38.0943 41.6212 36.8787 41.5317C35.6629 41.4422 33.5854 41.201 33.5854 41.201L33.7188 39.4537L36.9674 39.7667C36.9674 39.7667 37.9608 39.8832 38.002 38.3162C38.0431 36.7493 37.3834 37.146 37.3834 37.146L33.6492 36.6638L33.8373 34.8001" stroke="white" stroke-width="0.1" stroke-miterlimit="10" stroke-linejoin="round"/>
<path d="M37.9932 38.3574C38.1641 36.8016 37.2289 36.8628 37.2289 36.8628L33.9857 36.5682L34.1636 34.818C34.1636 34.818 36.3045 35.0421 37.4359 35.1846C38.5673 35.327 38.6907 34.6873 38.6907 34.6873C38.6907 34.6873 38.8648 33.7074 38.8788 32.8562C38.8928 32.0051 37.826 32.0278 37.826 32.0278C37.826 32.0278 32.2542 31.3551 31.501 31.4242C30.7478 31.4933 30.6853 32.5675 30.6853 32.5675" stroke="white" stroke-width="0.1" stroke-miterlimit="10" stroke-linejoin="round"/>
<path d="M30.685 32.5117L29.7696 42.9286C29.7696 42.9286 29.6731 43.9316 30.4011 44.1368C31.1291 44.3422 36.7444 44.6605 36.7444 44.6605C36.7444 44.6605 37.8497 44.7947 37.8902 44.0459C37.9306 43.2972 37.9538 42.3967 37.9538 42.3967C37.9538 42.3967 38.0943 41.6212 36.8787 41.5317C35.6629 41.4422 33.5854 41.201 33.5854 41.201L33.7188 39.4537L36.9674 39.7667C36.9674 39.7667 37.9608 39.8832 38.002 38.3162" stroke="white" stroke-width="0.1" stroke-miterlimit="10" stroke-linejoin="round"/>
<path d="M40.2349 33.4376L42.0271 43.3042C42.0271 43.3042 42.2005 44.9337 42.5787 44.9917C42.9569 45.0496 45.4598 45.4781 45.8151 45.2056C46.1705 44.9332 48.1751 40.6899 48.1751 40.6899C48.1751 40.6899 49.8272 45.7626 50.0542 45.8953C50.2812 46.0281 53.0222 46.3324 53.347 45.979C53.6717 45.6256 58.7152 34.363 58.171 34.1166C57.6268 33.87 54.5646 33.3907 54.2824 33.9577C54 34.5247 51.9618 39.7726 51.9618 39.7726C51.9618 39.7726 50.0641 32.9943 48.9272 33.1719C47.7905 33.3496 45.2655 38.7807 45.1133 39.2221C44.961 39.6635 44.0734 32.7038 43.5638 32.6356C43.0542 32.5674 40.2473 32.2144 40.2015 32.6397C40.1558 33.0649 40.2349 33.4376 40.2349 33.4376Z" fill="white" stroke="white" stroke-width="0.1" stroke-miterlimit="10" stroke-linejoin="round"/>
</g>
</g>
<defs>
<linearGradient id="paint0_linear_1111_2" x1="35.8061" y1="48.414" x2="40.4615" y2="23.1804" gradientUnits="userSpaceOnUse">
<stop stop-color="#3577F2"/>
<stop offset="1" stop-color="#8EBAF8"/>
</linearGradient>
<clipPath id="clip0_1111_2">
<rect width="80" height="80" fill="white"/>
</clipPath>
<clipPath id="clip1_1111_2">
<rect width="80" height="80" fill="white"/>
</clipPath>
</defs>
</svg>
