<svg width="80" height="80" viewBox="0 0 80 80" fill="none" xmlns="http://www.w3.org/2000/svg">
<path d="M18.3479 56.4217C18.5725 57.2295 19.6472 58.2566 19.6472 58.2566L22.2972 61.1718C24.4172 63.4664 24.8704 63.124 26.4866 62.5178L38.1071 58.2582C38.7333 58.0234 39.07 58.2851 39.6193 58.6664L47.9379 64.4117C50.1101 65.8486 52.2722 64.2763 52.3775 62.2091L53.0559 50.0964C53.0863 49.4851 53.1761 49.0616 53.6689 48.6988L63.7486 41.4945C66.295 39.8409 65.4933 38.09 64.328 36.7683L61.3859 33.0555C61.3859 33.0555 60.1544 31.146 58.8279 30.8264" fill="url(#paint0_linear_1123_2)"/>
<path d="M50.0424 29.8855C50.0424 29.8855 48.374 22.3732 47.7049 21.4393C47.7049 21.4393 43.2551 16.199 41.9711 15.6043C40.6871 15.0096 44.6007 29.2308 44.6007 29.2308" fill="#FE99FE"/>
<path d="M31.7705 40.5772C30.0043 40.8317 28.5033 40.935 28.3807 40.9464C27.9378 40.9876 25.7387 41.1658 25.7387 41.1658C25.7387 41.1658 24.168 41.1073 23.5384 40.7238C22.9089 40.3404 19.1921 37.7827 18.2823 36.8405C18.0989 36.6507 34.0068 34.5693 35.9464 35.7787C37.886 36.988 35.962 39.0241 35.1103 39.3678" fill="url(#paint1_linear_1123_2)"/>
<path d="M48.6228 42.1448C48.4678 42.2034 48.3771 42.3538 48.2618 42.48C48.3768 42.361 48.487 42.2193 48.6485 42.1706C48.6582 42.1673 48.6518 42.1545 48.6485 42.1448C48.6453 42.1351 48.6325 42.1415 48.6228 42.1448ZM48.2618 42.48C48.1866 42.5578 48.088 42.6118 48.0298 42.712C48.0912 42.605 48.1851 42.564 48.2618 42.48ZM48.0298 42.712C47.9365 42.8743 47.8869 43.0806 47.8235 43.2791C47.8808 43.0781 47.9352 42.875 48.0298 42.712ZM47.7462 43.5112C47.5418 44.3081 47.4942 45.218 47.4626 45.7284C47.4519 45.9004 47.4452 46.0719 47.4368 46.244C47.3831 47.3394 47.2452 48.4251 47.1533 49.5183C47.0849 50.3303 47.044 50.9733 46.9985 51.787C46.9571 52.5279 46.9225 53.34 46.8954 54.0815C46.8646 54.9233 46.9648 55.8564 46.7923 56.6854C46.5297 57.9477 45.2697 59.1516 43.9306 58.6448C43.3184 58.4132 42.6926 57.8341 42.2033 57.4847C41.2016 56.7692 40.1941 56.0359 39.2126 55.2933C40.5125 56.2948 41.824 57.3043 43.0798 58.3612C43.5346 58.7439 43.9631 59.0702 44.5751 59.1347C46.0757 59.2926 47.426 57.8083 47.5141 56.376C47.6539 54.1069 47.7397 51.8174 47.7204 49.544C47.7081 48.0904 47.5659 46.6399 47.5915 45.187C47.5988 44.7756 47.6176 44.113 47.7462 43.5112Z" fill="#C791FE"/>
<path d="M56.3571 30.5691C56.3469 30.5681 56.3323 30.5847 56.3313 30.5949C56.3303 30.6051 56.3469 30.6197 56.3571 30.6207C57.216 30.6959 57.7237 30.7252 58.5485 30.8269C57.8398 30.6971 57.0472 30.6473 56.3571 30.5691ZM58.6516 30.8269C59.0047 30.8715 59.2895 31.0439 59.5282 31.2394C59.3241 31.0893 59.1358 30.9227 58.8578 30.8528C58.7946 30.8368 58.7173 30.8403 58.6516 30.8269ZM59.6828 31.3426C60.4229 32.0885 60.4657 33.4796 59.7602 34.3074C59.3939 34.7373 58.8756 35.0234 58.4196 35.3386C57.6925 35.8414 56.9696 36.3408 56.254 36.8598C54.3474 38.2423 52.4817 39.6798 50.6337 41.1394C49.7151 41.865 48.7262 42.5523 47.8751 43.3566C47.4794 43.7305 47.3967 45.0654 47.3337 45.5738C47.0587 47.793 46.893 50.0215 46.7407 52.2511C46.9037 50.0287 47.13 47.7838 47.5915 45.5996C47.6594 45.2776 47.8898 43.9171 48.1587 43.7176C49.1008 43.0186 50.098 42.3727 51.0462 41.6809C53.1861 40.1193 55.3019 38.499 57.3626 36.834C58.1893 36.1659 59.1467 35.5355 59.8376 34.7199C60.6695 33.7377 60.6111 32.1688 59.6828 31.3426Z" fill="#A95DC0"/>
<path d="M44.2927 21.3652L46.1361 27.3779C46.347 28.0831 46.9981 28.6065 47.7174 28.7629" stroke="#FEAEFE" stroke-width="0.7" stroke-miterlimit="10" stroke-linecap="round" stroke-linejoin="round"/>
<path d="M41.77 15.8142C42.164 16.0275 42.7817 16.4806 42.9445 16.968L43.8391 19.8861" stroke="#FEAEFE" stroke-width="0.7" stroke-miterlimit="10" stroke-linecap="round" stroke-linejoin="round"/>
<path d="M19.4641 50.0854C19.0243 51.3569 18.5677 52.6314 18.1235 53.9011C17.9815 54.3075 17.9098 54.7328 17.9173 55.1644C17.9223 55.4529 17.9711 55.7443 18.072 56.0152C18.7827 57.9239 20.6774 57.0489 22.0423 56.5823C22.5567 56.4065 23.0766 56.2218 23.5891 56.041C24.1017 55.8602 24.5996 55.6854 25.1103 55.4996C25.6209 55.3137 26.1223 55.1223 26.6314 54.9323C27.1404 54.7424 27.6705 54.5585 28.1783 54.3652C28.686 54.1718 29.193 53.9692 29.6993 53.7722C30.7115 53.3784 31.7071 52.963 32.7158 52.5604C32.8894 52.4912 33.0209 52.4317 33.2056 52.4058C33.896 52.3092 34.6555 52.964 35.165 53.2566C35.5143 53.4572 35.8727 53.6488 36.222 53.8496C38.3165 55.0535 40.385 56.2951 42.4095 57.6136C42.4181 57.6191 42.4298 57.6223 42.4353 57.6136C42.4408 57.605 42.4439 57.5934 42.4353 57.5878C40.3787 56.3201 38.3596 54.9717 36.3766 53.5917C35.7151 53.1313 35.0567 52.6805 34.3915 52.2253C34.0119 51.9655 33.6234 51.8052 33.154 51.8386C32.9245 51.8549 32.6999 51.8923 32.4837 51.9675C31.9697 52.1464 31.474 52.3484 30.9627 52.5347C30.4521 52.7207 29.9247 52.9113 29.4158 53.1019C28.5003 53.4447 27.2842 53.9066 26.3735 54.2621C25.3275 54.6704 24.3957 55.0466 23.3572 55.4738C22.8544 55.6805 22.3625 55.8808 21.8618 56.0925C20.6885 56.5886 18.9897 57.6647 18.2266 55.9636C18.1451 55.7816 18.0763 55.5677 18.0462 55.3706C17.999 55.0619 18.0231 54.7504 18.072 54.4425C18.1526 53.9349 18.3523 53.4532 18.5103 52.9729C18.8256 52.0147 19.1388 51.0404 19.4641 50.0854Z" fill="#7E65DE"/>
<path d="M35.8232 38.3539C36.8022 37.346 36.0616 36.2911 34.952 36.1743C33.8423 36.0576 22.3737 37.1502 21.9931 37.1723C21.6124 37.1945 19.9293 37.4098 19.4178 37.244C18.9062 37.0783 18.7092 36.9437 17.4187 35.2493" stroke="#975BC5" stroke-width="0.7" stroke-miterlimit="10" stroke-linejoin="round"/>
<path d="M43.7675 20.51L44.3784 22.5509L45.0971 24.9205L45.7209 26.9772C45.9351 27.6933 46.5793 28.0395 47.3097 28.1983L58.2084 30.5621C60.101 30.9585 61.5494 33.4753 58.5846 35.4334L48.3296 43.1068C47.84 43.4684 47.7665 44.0081 47.7363 44.616L47.1651 56.2716C47.0922 58.139 44.6136 60.3085 41.9015 57.7453L34.3579 52.4933C33.8082 52.1014 33.2854 51.9653 32.6532 52.2025L20.5849 56.7187C18.8101 57.6704 16.9247 55.8448 17.7901 53.3207L20.0633 46.4525C20.0633 46.4525 20.4215 44.8295 22.254 43.9209C23.072 43.5153 25.2284 42.7136 27.5337 41.7697C30.3921 40.5991 32.7659 39.6715 33.2722 39.4088C34.4037 38.8218 35.8414 38.3667 36.0459 37.4586C36.2504 36.5505 35.4925 35.8711 34.2305 35.9301C32.9686 35.9892 21.3616 36.946 20.9751 36.9685C20.5886 36.9909 19.0137 37.1704 18.4943 37.0021C17.9748 36.8338 17.7014 36.4901 16.3909 34.7693C15.0804 33.0485 14.5548 32.3428 14.5686 31.327C14.5834 30.2403 15.7702 28.4156 17.3587 28.2399L29.0826 27.2413C29.6325 27.1804 30.1341 26.6765 30.4746 26.2404L35.1652 20.2462L38.4299 16.0743C39.3831 14.6644 41.8685 14.5418 42.5994 16.6071L43.7675 20.51Z" fill="url(#paint2_linear_1123_2)"/>
<defs>
<linearGradient id="paint0_linear_1123_2" x1="18.1909" y1="60.8545" x2="65.7065" y2="38.1339" gradientUnits="userSpaceOnUse">
<stop stop-color="#807FFA"/>
<stop offset="1" stop-color="#D377ED"/>
</linearGradient>
<linearGradient id="paint1_linear_1123_2" x1="25.9995" y1="39.7276" x2="35.9257" y2="36.1307" gradientUnits="userSpaceOnUse">
<stop stop-color="#8560D8"/>
<stop offset="0.979167" stop-color="#9A60D1"/>
</linearGradient>
<linearGradient id="paint2_linear_1123_2" x1="18.4502" y1="55.2228" x2="52.0187" y2="21.7608" gradientUnits="userSpaceOnUse">
<stop stop-color="#8384F7"/>
<stop offset="1" stop-color="#E983FE"/>
</linearGradient>
</defs>
</svg>
