<svg width="80" height="80" viewBox="0 0 80 80" fill="none" xmlns="http://www.w3.org/2000/svg">
<path d="M51.8101 16.8906C57.029 19.0724 60.7424 22.1707 62.9514 26.4703C64.6797 29.8342 65.5399 33.9955 65.467 38.6211C65.3607 45.3567 62.426 52.4373 57.9131 57.2119C53.1545 62.2466 46.7667 65.9898 40.1703 66.0889C35.0701 66.1655 31.502 64.6321 26.6995 61.8547" fill="url(#paint0_linear_1123_83)"/>
<path d="M48.9937 15.7545C48.9839 15.7502 48.971 15.7715 48.9668 15.7814C48.9626 15.7912 48.9839 15.804 48.9937 15.8082C49.9334 16.1991 50.7723 16.7097 51.6274 17.2057C50.771 16.7037 49.9359 16.1707 48.9937 15.7545ZM51.6274 17.2057C52.0452 17.4506 52.5215 17.6324 52.9174 17.9044C52.5197 17.6291 52.048 17.4496 51.6274 17.2057ZM52.9174 17.9044C53.6364 18.4022 54.2436 19.0601 54.8792 19.6781C54.2375 19.0742 53.6364 18.3985 52.9174 17.9044ZM54.8792 19.6781C55.3123 20.0856 55.7735 20.4467 56.1691 20.9143C56.1283 20.8637 56.1031 20.8032 56.0616 20.7531C55.7111 20.3291 55.2631 20.0515 54.8792 19.6781ZM56.1691 20.9143C56.634 21.4898 57.0184 22.1193 57.4053 22.7418C57.0943 22.2683 56.8917 21.7019 56.5454 21.2637C56.4349 21.1239 56.2828 21.0487 56.1691 20.9143ZM57.4053 22.7418C57.6552 23.122 57.8773 23.5239 58.1041 23.9242C57.8911 23.5193 57.6473 23.1311 57.4053 22.7418ZM58.1041 23.9242C59.5042 26.5859 60.3251 29.5561 60.6572 32.5509C61.128 36.7975 60.7421 40.9722 59.0984 44.9399C56.9806 50.0521 53.2391 54.4633 48.8056 57.7321C44.2733 61.0737 38.7869 63.3805 33.0841 63.2682C32.1797 63.2504 31.2609 63.1554 30.3698 62.9994C32.0582 63.3325 33.7752 63.4894 35.4759 63.3757C41.3222 62.985 46.8878 60.3444 51.3318 56.6034C55.4046 53.1747 58.7337 48.6593 60.3883 43.5693C62.3886 37.4168 61.3968 29.7377 58.1041 23.9242ZM21.7163 57.8933C23.4853 59.65 25.3261 61.3312 27.6556 62.3007C28.3658 62.5964 29.1358 62.6916 29.8861 62.8651C29.1308 62.7064 28.3741 62.5375 27.6556 62.2469C25.3157 61.3008 23.4883 59.6466 21.7163 57.8933Z" fill="#FEA6FE"/>
<path d="M14.5283 41.5027C14.5283 28.0417 27.639 13.9084 40.6595 13.9084C53.6801 13.9084 60.8798 23.0721 60.8798 36.5331C60.8798 49 48.9215 61.3114 36.8116 63.0615C35.8461 63.2011 34.8797 63.2735 33.9182 63.2735C27.9428 63.2735 23.5995 60.7973 20.443 57.5621C16.7213 53.7478 14.5283 48.7861 14.5283 41.5027Z" fill="url(#paint1_linear_1123_83)"/>
<path d="M38.4051 14.9214C36.4498 15.1428 34.5348 15.6225 32.7346 16.3726C24.3325 19.8735 17.383 28.335 15.75 37.3077C15.0923 40.9217 15.3473 44.7931 16.3413 48.3261C16.8605 50.1718 17.7051 51.9004 18.7331 53.5129C16.8815 50.6504 15.9807 47.2348 15.75 43.865C15.6013 41.6919 15.6895 39.4991 16.1263 37.3614C17.9609 28.3821 25.1321 19.8678 33.7021 16.5876C40.5599 13.9627 49.1606 15.1212 54.3415 20.5919C56.7318 23.1158 58.242 26.3164 59.0445 29.6754C59.0037 29.4993 59.0078 29.3129 58.9639 29.1379C58.162 25.9458 56.7306 22.9035 54.5027 20.4574C50.4516 16.0096 44.2707 14.2571 38.4051 14.9214ZM59.0445 29.6754C59.2057 30.3709 59.257 31.0901 59.367 31.7985C59.2622 31.1487 59.2465 30.4763 59.0982 29.8366C59.0854 29.7812 59.0577 29.7307 59.0445 29.6754ZM59.367 31.7985C59.5475 32.9185 59.7561 34.0508 59.797 35.1846C59.7618 34.0422 59.5423 32.9269 59.367 31.7985ZM59.797 35.1846C59.8548 37.0625 59.7597 38.9406 59.3939 40.7744C59.76 38.9285 59.865 37.067 59.797 35.1846ZM18.7331 53.5129C18.7768 53.5805 18.7957 53.6609 18.8406 53.7279C18.8731 53.7765 18.9152 53.814 18.9481 53.8622C18.8721 53.7486 18.8065 53.628 18.7331 53.5129ZM18.9481 53.8622C19.1538 54.1699 19.3148 54.5071 19.5393 54.8029C20.222 55.702 21.0606 56.435 21.8774 57.1946C20.8062 56.1822 19.7968 55.1085 18.9481 53.8622ZM21.8774 57.1946C22.131 57.4344 22.3369 57.722 22.603 57.9471C22.3357 57.724 22.1326 57.4321 21.8774 57.1946ZM22.603 57.9471C23.9586 59.0787 25.4386 60.0571 27.0641 60.7958C27.0673 60.7885 27.0715 60.7721 27.0641 60.7689C25.4195 60.0476 23.938 59.0772 22.603 57.9471Z" fill="#755FD4"/>
<path d="M48.6568 32.1738C49.7473 32.7446 50.5269 33.2346 50.7279 34.3621C50.9455 35.5817 49.6803 37.2744 48.4446 38.4964L46.1136 40.6952C45.5265 41.2462 45.4141 42.5382 45.3751 43.3423L45.0581 47.2223C44.9855 48.4569 44.1932 50.0857 43.3567 50.5913C42.4682 51.1284 41.2644 51.2421 39.7912 50.6293C39.7912 50.6293 38.8628 50.32 38.0207 49.8688C37.1785 49.4177 36.0611 48.7716 36.0611 48.7716C35.2219 48.3582 34.447 48.4626 33.5971 48.8539L30.4958 50.1617C29.7639 50.4378 28.9316 50.6613 28.1699 50.4489C27.5094 50.2649 27.0722 50.0789 26.4594 49.5652C26.0137 49.1916 25.6208 48.532 25.5044 48.1489" fill="#725DD3"/>
<path d="M48.6568 32.1738C49.7473 32.7446 50.5269 33.2346 50.7279 34.3621C50.9455 35.5817 49.6803 37.2744 48.4446 38.4964L46.1136 40.6952C45.5265 41.2462 45.4141 42.5382 45.3751 43.3423L45.0581 47.2223C44.9855 48.4569 44.1932 50.0857 43.3567 50.5913C42.4682 51.1284 41.2644 51.2421 39.7912 50.6293C39.7912 50.6293 38.8628 50.32 38.0207 49.8688C37.1785 49.4177 36.0611 48.7716 36.0611 48.7716C35.2219 48.3582 34.447 48.4626 33.5971 48.8539L30.4958 50.1617C29.7639 50.4378 28.9316 50.6613 28.1699 50.4489C27.5094 50.2649 27.0722 50.0789 26.4594 49.5652C26.0137 49.1916 25.6208 48.532 25.5044 48.1489" stroke="#725DD3" stroke-width="0.927813" stroke-miterlimit="10" stroke-linejoin="round"/>
<path d="M38.1902 22.8911C39.4427 22.9726 40.9037 23.8195 41.08 23.9813C42.0357 24.8583 42.5452 26.5078 43.074 27.7428C43.074 27.7428 44.0931 30.6067 44.546 30.982C45.0181 31.3733 42.7346 31.1164 42.7346 31.1164" fill="#725DD3"/>
<path d="M38.1902 22.8911C39.4427 22.9726 40.9037 23.8195 41.08 23.9813C42.0357 24.8583 42.5452 26.5078 43.074 27.7428C43.074 27.7428 44.0931 30.6067 44.546 30.982C45.0181 31.3733 42.7346 31.1164 42.7346 31.1164" stroke="#725DD3" stroke-width="0.927813" stroke-miterlimit="10" stroke-linejoin="round"/>
<path d="M24.3535 35.719C24.5213 36.2173 25.0497 37.11 25.4871 37.5061C26.369 38.3046 27.4888 38.0873 28.4313 38.0724C29.3736 38.0574 31.9444 37.4614 32.7815 37.355C33.0838 37.3166 34.5416 37.0345 35.2714 37.455C35.6664 37.6828 35.647 36.1327 35.647 36.1327" fill="#725DD3"/>
<path d="M24.3535 35.719C24.5213 36.2173 25.0497 37.11 25.4871 37.5061C26.369 38.3046 27.4888 38.0873 28.4313 38.0724C29.3736 38.0574 31.9444 37.4614 32.7815 37.355C33.0838 37.3166 34.5416 37.0345 35.2714 37.455C35.6664 37.6828 35.647 36.1327 35.647 36.1327" stroke="#725DD3" stroke-width="0.927813" stroke-miterlimit="10" stroke-linejoin="round"/>
<path d="M46.5531 31.2725C47.699 31.6085 49.364 32.2517 49.565 33.3791C49.7826 34.5988 48.7787 36.1609 47.543 37.3829L45.2474 39.4153C44.6605 39.9665 44.3106 40.724 44.2716 41.5282L43.9079 46.2088C43.8543 47.3138 43.2852 48.7662 42.4487 49.2719C41.5604 49.8089 40.4125 49.7807 39.1636 49.189L34.3048 46.6697L29.5491 48.8591C28.0939 49.4081 26.6193 49.4116 25.7645 48.5101C24.9613 47.663 25.0207 45.6925 25.4243 44.3408C25.4243 44.3408 25.8072 42.8435 26.3973 42.0532C26.9874 41.2629 27.8942 40.9431 28.6471 40.5724C29.4001 40.2018 34.2957 38.7501 35.366 37.3916C35.7419 36.9145 35.4292 36.3974 35.0342 36.1697C34.3044 35.7492 32.537 36.0098 32.2324 36.0191C31.4157 36.044 28.5512 36.6882 27.2896 36.6113C26.0281 36.5344 25.2793 36.567 24.3974 35.7684C23.5155 34.9698 23.7424 33.383 23.7962 33.1415C24.105 31.7571 25.7322 30.6209 27.2618 30.3244L32.0731 29.6475L35.4377 24.7969C36.3256 23.7002 37.0947 22.9099 38.0491 22.8809C39.3457 22.8415 40.4556 25.0248 40.9844 26.2598L41.7189 27.9936C42.1479 28.9569 42.3752 29.9842 42.8282 30.3596C43.3003 30.7508 44.0527 30.829 44.7694 30.9577L46.5531 31.2725Z" fill="white" stroke="white" stroke-width="0.927813" stroke-miterlimit="10" stroke-linejoin="round"/>
<defs>
<linearGradient id="paint0_linear_1123_83" x1="29.3217" y1="62.662" x2="62.9158" y2="27.0561" gradientUnits="userSpaceOnUse">
<stop stop-color="#7F85F7"/>
<stop offset="1" stop-color="#F993FC"/>
</linearGradient>
<linearGradient id="paint1_linear_1123_83" x1="25.5204" y1="61.2318" x2="50.6508" y2="16.8137" gradientUnits="userSpaceOnUse">
<stop stop-color="#7F85F7"/>
<stop offset="1" stop-color="#E281FE"/>
</linearGradient>
</defs>
</svg>
