<svg width="80" height="80" viewBox="0 0 80 80" fill="none" xmlns="http://www.w3.org/2000/svg">
<path fill-rule="evenodd" clip-rule="evenodd" d="M59.7474 18.8574C61.0098 20.3096 61.3952 22.4264 61.1278 24.6041L57.8257 51.4973C57.291 55.8527 53.3007 59.3213 48.9133 59.2448L21.8222 58.7719C19.6724 58.7344 17.2648 57.653 16.0037 56.251L20.356 60.8116C21.6171 62.2136 23.4634 63.0954 25.6132 63.1329L52.7043 63.6058C57.0917 63.6824 61.082 60.2137 61.6167 55.8583L64.9188 28.9651C65.1862 26.7874 64.5391 24.8004 63.2767 23.3482L59.7474 18.8574Z" fill="#CC0E3C"/>
<path fill-rule="evenodd" clip-rule="evenodd" d="M16.5648 56.4503C15.2522 54.991 14.5735 52.9681 14.8462 50.7469L18.1483 23.8537C18.6831 19.4983 22.6733 16.0296 27.0607 16.1062L54.1518 16.5791C56.3455 16.6174 58.2231 17.5347 59.4855 18.9869L63.2765 23.348C62.0141 21.8958 60.1365 20.9784 57.9428 20.9401L30.8517 20.4673C26.4643 20.3907 22.4741 23.8593 21.9393 28.2147L18.6372 55.1079C18.3645 57.3292 19.0432 59.3521 20.3558 60.8114L16.5648 56.4503Z" fill="#CC0E3C"/>
<path d="M18.1484 23.8539C18.6832 19.4985 22.6734 16.0299 27.0608 16.1064L54.1519 16.5793C58.5393 16.6559 61.6625 20.2487 61.1277 24.6041L57.8257 51.4973C57.2909 55.8527 53.3007 59.3214 48.9132 59.2448L21.8222 58.7719C17.4347 58.6953 14.3116 55.1025 14.8463 50.7471L18.1484 23.8539Z" fill="url(#paint0_linear_1153_37)"/>
<path fill-rule="evenodd" clip-rule="evenodd" d="M53.8246 18.0919L27.6883 17.6357C23.8403 17.5685 20.3385 20.6289 19.8667 24.4713L16.6622 50.5697C16.1904 54.4121 19.0954 58.3361 22.9434 58.4033L49.1189 58.806C52.9669 58.8731 56.8522 55.7521 57.3239 51.9097L60.6345 25.1829C61.1063 21.3405 57.6726 18.159 53.8246 18.0919ZM27.7738 16.9399C23.541 16.866 19.6889 20.2325 19.1699 24.4592L15.9655 50.5575C15.4465 54.7842 18.7106 58.3294 22.9434 58.4033L49.1189 58.806C53.3517 58.8799 56.9057 55.5827 57.4246 51.356L60.6345 25.1829C61.1535 20.9563 58.1428 17.47 53.91 17.3961L27.7738 16.9399Z" fill="black" fill-opacity="0.2"/>
<path d="M22.9434 58.4033C19.0954 58.3361 16.1904 54.4121 16.6622 50.5697L19.8667 24.4713C20.3385 20.6289 23.8403 17.5685 27.6883 17.6357L53.8246 18.0919C57.6726 18.159 61.1063 21.3405 60.6345 25.1829M22.9434 58.4033L49.1189 58.806M22.9434 58.4033C18.7106 58.3294 15.4465 54.7842 15.9655 50.5575L19.1699 24.4592C19.6889 20.2325 23.541 16.866 27.7738 16.9399L53.91 17.3961C58.1428 17.47 61.1535 20.9563 60.6345 25.1829M49.1189 58.806C52.9669 58.8731 56.8522 55.7521 57.3239 51.9097L60.6345 25.1829M49.1189 58.806C53.3517 58.8799 56.9057 55.5827 57.4246 51.356L60.6345 25.1829" stroke="#D81943" stroke-width="1.08346"/>
<path fill-rule="evenodd" clip-rule="evenodd" d="M18.1484 23.8539C18.6832 19.4985 22.6734 16.0299 27.0608 16.1064L54.1519 16.5793C58.5393 16.6559 61.6625 20.2487 61.1277 24.6041L59.4767 38.0507L57.8257 51.4973C57.2909 55.8527 53.3007 59.3214 48.9132 59.2448L21.8222 58.7719C17.4347 58.6953 14.3116 55.1025 14.8463 50.7471L16.4974 37.3005L18.1484 23.8539ZM26.9728 16.8234C22.9842 16.7537 19.3568 19.9071 18.8706 23.8665L15.5685 50.7597C15.0824 54.7192 17.9216 57.9854 21.9102 58.055L49.0013 58.5279C52.9898 58.5975 56.6173 55.4442 57.1035 51.4847L60.4056 24.5915C60.8917 20.6321 58.0524 17.3659 54.0639 17.2962L26.9728 16.8234Z" fill="#FF889D" stroke="#FF889D" stroke-width="0.577843"/>
<path d="M48.5217 38.8801C49.222 39.4313 50.2908 39.2766 50.909 38.5346C51.5272 37.7927 51.4607 36.7445 50.7604 36.1934L48.5217 38.8801ZM26.8574 35.7087C26.0439 36.2291 25.7566 37.2701 26.2156 38.0339C26.6747 38.7977 27.7063 38.9949 28.5199 38.4745L26.8574 35.7087ZM39.2689 31.5981L48.5217 38.8801L50.7604 36.1934L41.5076 28.9114L39.2689 31.5981ZM37.6065 28.8323L26.8574 35.7087L28.5199 38.4745L39.2689 31.5981L37.6065 28.8323ZM41.5076 28.9114C40.4274 28.0612 38.8615 28.0294 37.6065 28.8323L39.2689 31.5981L39.2689 31.5981L41.5076 28.9114Z" fill="#CC0E3C"/>
<path d="M48.4324 38.8243C48.7127 39.0446 49.1402 38.9825 49.3873 38.6856C49.6345 38.3888 49.6076 37.9695 49.3274 37.7492L48.4324 38.8243ZM27.5251 37.4041C27.1963 37.6066 27.0737 38.0215 27.2513 38.3308C27.4288 38.6401 27.8393 38.7267 28.168 38.5243L27.5251 37.4041ZM40.8259 31.9555L40.3784 32.493L40.8259 31.9555ZM37.75 31.8654L37.4285 31.3053L37.75 31.8654ZM40.3784 32.493L48.4324 38.8243L49.3274 37.7492L41.2734 31.4179L40.3784 32.493ZM37.4285 31.3053L27.5251 37.4041L28.168 38.5243L38.0715 32.4255L37.4285 31.3053ZM41.2734 31.4179C40.2103 30.5822 38.6756 30.5373 37.4285 31.3053L38.0715 32.4255C38.8197 31.9647 39.7406 31.9916 40.3784 32.493L41.2734 31.4179Z" fill="#CC0E3C"/>
<path d="M47.8486 37.5342C48.5489 38.0853 49.6177 37.9306 50.2359 37.1887C50.8541 36.4468 50.7876 35.3986 50.0873 34.8474L47.8486 37.5342ZM26.1843 34.3627C25.3708 34.8831 25.0835 35.9242 25.5425 36.6879C26.0016 37.4517 27.0332 37.649 27.8468 37.1286L26.1843 34.3627ZM38.4431 30.1319L47.8486 37.5342L50.0873 34.8474L40.6818 27.4452L38.4431 30.1319ZM37.1109 27.3728L26.1843 34.3627L27.8468 37.1286L38.7733 30.1386L37.1109 27.3728ZM40.6818 27.4452C39.6929 26.667 38.2596 26.6379 37.1109 27.3728L38.7733 30.1386C38.6671 30.2066 38.5345 30.2039 38.4431 30.1319L40.6818 27.4452Z" fill="white"/>
<path d="M47.7593 37.4781C48.0396 37.6984 48.4671 37.6363 48.7142 37.3395C48.9614 37.0426 48.9345 36.6233 48.6543 36.403L47.7593 37.4781ZM26.852 36.0579C26.5232 36.2604 26.4006 36.6753 26.5782 36.9846C26.7557 37.2939 27.1662 37.3805 27.495 37.1781L26.852 36.0579ZM40.1528 30.6093L39.7053 31.1468L40.1528 30.6093ZM37.0769 30.5192L36.7554 29.9591L37.0769 30.5192ZM39.7053 31.1468L47.7593 37.4781L48.6543 36.403L40.6003 30.0717L39.7053 31.1468ZM36.7554 29.9591L26.852 36.0579L27.495 37.1781L37.3984 31.0793L36.7554 29.9591ZM40.6003 30.0717C39.5372 29.2361 38.0025 29.1911 36.7554 29.9591L37.3984 31.0793C38.1466 30.6185 39.0675 30.6454 39.7053 31.1468L40.6003 30.0717Z" fill="white"/>
<path d="M47.8486 48.1536C48.5489 48.7047 49.6177 48.55 50.2359 47.8081C50.8541 47.0662 50.7876 46.0179 50.0873 45.4668L47.8486 48.1536ZM26.1843 44.9821C25.3708 45.5025 25.0835 46.5436 25.5425 47.3073C26.0016 48.0711 27.0332 48.2684 27.8468 47.748L26.1843 44.9821ZM38.5958 40.8716L47.8486 48.1536L50.0873 45.4668L40.8346 38.1848L38.5958 40.8716ZM36.9334 38.1057L26.1843 44.9821L27.8468 47.748L38.5958 40.8716L36.9334 38.1057ZM40.8346 38.1848C39.7543 37.3346 38.1884 37.3029 36.9334 38.1057L38.5958 40.8716L38.5958 40.8716L40.8346 38.1848Z" fill="#CC0E3C"/>
<path d="M47.7593 48.0978C48.0396 48.3181 48.4671 48.256 48.7142 47.9591C48.9614 47.6622 48.9345 47.2429 48.6543 47.0226L47.7593 48.0978ZM26.852 46.6776C26.5232 46.88 26.4006 47.2949 26.5782 47.6042C26.7557 47.9135 27.1662 48.0002 27.495 47.7977L26.852 46.6776ZM40.1528 41.2289L39.7053 41.7664L40.1528 41.2289ZM37.0769 41.1388L36.7554 40.5787L37.0769 41.1388ZM39.7053 41.7664L47.7593 48.0978L48.6543 47.0226L40.6003 40.6913L39.7053 41.7664ZM36.7554 40.5787L26.852 46.6776L27.495 47.7977L37.3984 41.6989L36.7554 40.5787ZM40.6003 40.6913C39.5372 39.8557 38.0025 39.8107 36.7554 40.5787L37.3984 41.6989C38.1466 41.2381 39.0675 41.2651 39.7053 41.7664L40.6003 40.6913Z" fill="#CC0E3C"/>
<path d="M47.1758 46.8076C47.876 47.3587 48.9449 47.2041 49.5631 46.4621C50.1813 45.7202 50.1148 44.672 49.4145 44.1209L47.1758 46.8076ZM25.5115 43.6362C24.6979 44.1566 24.4106 45.1976 24.8697 45.9614C25.3288 46.7252 26.3604 46.9224 27.1739 46.402L25.5115 43.6362ZM37.7702 39.4054L47.1758 46.8076L49.4145 44.1209L40.0089 36.7186L37.7702 39.4054ZM36.438 36.6462L25.5115 43.6362L27.1739 46.402L38.1005 39.4121L36.438 36.6462ZM40.0089 36.7186C39.0201 35.9404 37.5868 35.9113 36.438 36.6462L38.1005 39.4121C37.9942 39.48 37.8617 39.4774 37.7702 39.4054L40.0089 36.7186Z" fill="white"/>
<path d="M47.0865 46.7518C47.3667 46.9721 47.7942 46.91 48.0414 46.6131C48.2885 46.3162 48.2617 45.897 47.9814 45.6767L47.0865 46.7518ZM26.1791 45.3316C25.8504 45.5341 25.7278 45.949 25.9053 46.2583C26.0829 46.5676 26.4933 46.6542 26.8221 46.4518L26.1791 45.3316ZM39.4799 39.8829L39.0324 40.4205L39.4799 39.8829ZM36.404 39.7929L36.0825 39.2328L36.404 39.7929ZM39.0324 40.4205L47.0865 46.7518L47.9814 45.6767L39.9274 39.3454L39.0324 40.4205ZM36.0825 39.2328L26.1791 45.3316L26.8221 46.4518L36.7255 40.3529L36.0825 39.2328ZM39.9274 39.3454C38.8644 38.5097 37.3296 38.4648 36.0825 39.2328L36.7255 40.3529C37.4738 39.8921 38.3946 39.9191 39.0324 40.4205L39.9274 39.3454Z" fill="white"/>
<defs>
<linearGradient id="paint0_linear_1153_37" x1="40.1327" y1="17.518" x2="36.4643" y2="59.559" gradientUnits="userSpaceOnUse">
<stop stop-color="#FF8EA4"/>
<stop offset="0.779197" stop-color="#FC3A5F"/>
</linearGradient>
</defs>
</svg>
