<svg width="80" height="80" viewBox="0 0 80 80" fill="none" xmlns="http://www.w3.org/2000/svg">
<path d="M17.8478 53.1959C15.1092 57.8596 23.5748 62.0912 25.5399 62.3822C25.5399 62.3822 51.8023 63.2017 53.3404 62.8975C54.8785 62.5933 59.8488 62.4628 61.1436 53.5412L64.5147 27.7888C64.5147 27.7888 65.1785 23.3467 63.2282 21.6613C61.2779 19.9759 59.4475 18.4701 57.0156 17.4348C54.5838 16.3994 48.9872 56.8669 48.9872 56.8669C48.9872 56.8669 24.9568 41.0897 17.8478 53.1959Z" fill="#286DE6" stroke="#286DE6" stroke-width="1.2" stroke-miterlimit="10" stroke-linejoin="round"/>
<path d="M59.6258 20.1094C59.0192 18.4573 57.5289 16.8544 53.9948 17.0511C46.9267 17.4446 26.1114 17.2845 25.2719 17.3952C24.4324 17.5058 19.7383 17.4213 18.9328 23.8684C18.1274 30.3154 15.5303 49.0201 15.4705 49.925C15.4107 50.8298 14.3234 57.2558 21.3899 58.3019C21.3899 58.3019 47.1228 59.1406 48.661 58.8364C50.1992 58.5323 55.1693 58.4018 56.4641 49.4801L59.9557 23.4628C59.9557 23.4628 60.2325 21.7615 59.6258 20.1094Z" fill="url(#paint0_linear_1117_16)"/>
<path d="M58.7412 19.3535C58.1722 17.7619 56.1272 17.3781 52.8127 17.5677C46.1835 17.9468 26.6613 17.7926 25.874 17.8991C25.0866 18.0056 20.2908 17.6884 19.5354 23.899C18.78 30.1098 16.0826 48.5334 16.0266 49.4051C15.9705 50.2768 15.0886 57.3283 21.7161 58.3361C21.7161 58.3361 26.7796 58.4574 32.0923 58.6068C38.932 58.799 47.5044 58.9624 48.3164 58.7975C49.759 58.5044 54.8258 58.9435 56.0401 50.3488L59.4379 23.5233C59.4379 23.5233 59.3102 20.945 58.7412 19.3535Z" stroke="#0198F3" stroke-width="1.2" stroke-miterlimit="10" stroke-linejoin="round"/>
<path d="M58.8572 20.6859C58.2882 19.0943 56.3962 18.0989 53.0816 18.2884C46.4525 18.6674 26.9303 18.5133 26.1429 18.6198C25.3556 18.7264 20.5597 18.4091 19.8043 24.6197C19.0489 30.8304 16.3516 49.2541 16.2955 50.1258C16.2394 50.9975 15.7178 57.189 22.3453 58.1968C22.3453 58.1968 27.1689 58.4349 32.4817 58.5842C39.3214 58.7765 47.2037 58.9526 48.0157 58.7877C49.4583 58.4947 54.7367 58.8182 55.951 50.2237L59.1333 24.244C59.1333 24.244 59.4262 22.2774 58.8572 20.6859Z" stroke="#0198F3" stroke-width="1.2" stroke-miterlimit="10" stroke-linejoin="round"/>
<path d="M59.6258 20.1094C59.0192 18.4573 57.5289 16.8544 53.9948 17.0511C46.9267 17.4446 26.1114 17.2845 25.2719 17.3952C24.4324 17.5058 19.7383 17.4213 18.9328 23.8684C18.1274 30.3154 15.5303 49.0201 15.4705 49.925C15.4107 50.8298 14.3234 57.2558 21.3899 58.3019C21.3899 58.3019 47.1228 59.1406 48.661 58.8364C50.1992 58.5323 55.1693 58.4018 56.4641 49.4801L59.9557 23.4628C59.9557 23.4628 60.2325 21.7615 59.6258 20.1094Z" stroke="#78B8F9" stroke-width="1.2" stroke-miterlimit="10" stroke-linejoin="round"/>
<path d="M43.5031 47.1813C43.5031 47.1813 46.5025 32.6439 46.7476 31.2881C46.9927 29.9323 47.6004 27.7025 45.3423 28.795C43.084 29.8875 26.4887 40.3671 26.4887 40.3671C26.4887 40.3671 23.8176 41.812 25.2694 42.1199C26.7212 42.4279 29.0717 42.561 29.6452 42.5043C30.2186 42.4477 32.3085 40.7042 33.6426 39.555C34.9767 38.4056 39.9336 34.3484 41.8228 33.3626C43.7121 32.3768 34.2966 42.6573 33.8218 43.3363C33.3469 44.0154 34.0247 44.5628 36.0389 45.8722C38.0531 47.1818 42.6295 51.4815 43.5031 47.1813Z" fill="#286DE6" stroke="#286DE6" stroke-width="1.2" stroke-miterlimit="10" stroke-linejoin="round"/>
<path d="M42.8549 46.3382C42.8549 46.3382 45.8543 31.8008 46.0994 30.445C46.3446 29.0892 46.9522 26.8595 44.6941 27.952C42.4359 29.0444 25.8405 39.5241 25.8405 39.5241C25.8405 39.5241 23.1694 40.9689 24.6212 41.2768C26.073 41.5848 28.4235 41.7179 28.997 41.6612C29.5704 41.6046 31.6603 39.8611 32.9944 38.7119C34.3285 37.5625 39.2854 33.5053 41.1746 32.5195C43.0639 31.5337 33.6484 41.8142 33.1736 42.4933C32.6988 43.1723 33.3765 43.7197 35.3907 45.0292C37.4049 46.3387 41.9813 50.6384 42.8549 46.3382Z" fill="white" stroke="white" stroke-width="1.2" stroke-miterlimit="10" stroke-linejoin="round"/>
<defs>
<linearGradient id="paint0_linear_1117_16" x1="33.2342" y1="59.4831" x2="40.5066" y2="19.2758" gradientUnits="userSpaceOnUse">
<stop offset="0.260417" stop-color="#377BF7"/>
<stop offset="1" stop-color="#78B7FA"/>
</linearGradient>
</defs>
</svg>
