<svg width="80" height="80" viewBox="0 0 80 80" fill="none" xmlns="http://www.w3.org/2000/svg">
<path d="M16.9773 52.7484C14.1969 57.5622 23.0029 62.6061 24.9981 62.9063C24.9981 62.9063 51.6614 63.7521 53.2231 63.4382C54.7847 63.1242 59.8308 62.9896 61.1454 53.7808L64.568 27.1999C64.568 27.1999 65.2419 22.6151 63.2618 20.8754C61.2817 19.1357 59.4234 17.5816 56.9544 16.5129C54.4854 15.4443 40.6581 55.6426 40.6581 55.6426C40.6581 55.6426 24.1949 40.2528 16.9773 52.7484Z" fill="#6494BC"/>
<path d="M59.8355 19.795C59.2252 18.1331 57.7261 16.5205 54.1708 16.7184C47.0603 17.1143 26.1204 16.9533 25.276 17.0645C24.4315 17.1758 19.7092 17.0909 18.8989 23.5765C18.0887 30.0621 15.476 48.8788 15.4159 49.7891C15.3558 50.6993 14.2619 57.1638 21.3707 58.2162C21.3707 58.2162 47.2576 59.0599 48.805 58.7538C50.3524 58.4479 55.3523 58.3167 56.6548 49.3415L60.1673 23.1686C60.1673 23.1686 60.4458 21.4571 59.8355 19.795Z" fill="#E9F6FF"/>
<path d="M58.9457 19.0348C58.3733 17.4338 56.3161 17.0477 52.9817 17.2383C46.3129 17.6197 26.6738 17.4646 25.8817 17.5718C25.0897 17.6789 20.2652 17.3598 19.5053 23.6076C18.7453 29.8555 16.0318 48.3895 15.9754 49.2664C15.919 50.1432 15.3707 57.1066 22.0378 58.1205C22.0378 58.1205 26.7928 58.3728 32.1373 58.5231C39.018 58.7165 47.7161 58.9128 48.533 58.7469C49.9842 58.4521 55.0069 58.8618 56.2284 50.2157L59.6466 23.2296C59.6466 23.2296 59.5181 20.6359 58.9457 19.0348Z" stroke="#3078AA" stroke-width="1.1" stroke-miterlimit="10" stroke-linejoin="round"/>
<path d="M59.0624 20.3749C58.4899 18.7739 56.5866 17.7724 53.2521 17.9631C46.5834 18.3444 26.9443 18.1893 26.1523 18.2965C25.3602 18.4037 20.5356 18.0845 19.7757 24.3323C19.0158 30.5802 16.3023 49.1142 16.2459 49.9911C16.1895 50.868 15.6647 57.0966 22.3319 58.1104C22.3319 58.1104 27.1843 58.3499 32.5289 58.5001C39.4096 58.6936 47.7965 58.9027 48.6134 58.7367C50.0646 58.442 54.9172 58.7355 56.1387 50.0895L59.3401 23.9543C59.3401 23.9543 59.6347 21.976 59.0624 20.3749Z" stroke="#3078AA" stroke-width="1.08" stroke-miterlimit="10" stroke-linejoin="round"/>
<path d="M59.8355 19.795C59.2252 18.1331 57.7261 16.5205 54.1708 16.7184C47.0603 17.1143 26.1204 16.9533 25.276 17.0645C24.4315 17.1758 19.7092 17.0909 18.8989 23.5765C18.0887 30.0621 15.476 48.8788 15.4159 49.7891C15.3558 50.6993 14.2619 57.1638 21.3707 58.2162C21.3707 58.2162 47.2576 59.0599 48.805 58.7538C50.3524 58.4479 55.3523 58.3167 56.6548 49.3415L60.1673 23.1686C60.1673 23.1686 60.4458 21.4571 59.8355 19.795Z" stroke="#75A3CB" stroke-width="1.2" stroke-miterlimit="10" stroke-linejoin="round"/>
<path d="M23.8536 33.8471C25.1792 30.5973 28.2685 26.9123 31.8327 24.9517C36.0696 22.6212 41.3636 22.3206 44.9739 23.7932C51.6215 26.5048 53.9063 33.7476 51.0048 40.8607C48.1033 47.9738 36.9524 53.3947 30.305 50.6831C23.6574 47.9716 20.952 40.9603 23.8536 33.8471Z" fill="#1D638F"/>
<path d="M24.5498 34.5469C25.8754 31.2971 28.7432 27.7069 32.3074 25.7464C36.5444 23.4159 42.0352 23.3667 45.6455 24.8394C52.2931 27.551 54.1781 35.0408 51.2765 42.1539C48.375 49.267 38.1878 54.2189 31.5403 51.5074C24.8928 48.7957 21.6482 41.66 24.5498 34.5469Z" fill="#3078AA" stroke="#3078AA" stroke-width="1.2" stroke-miterlimit="10" stroke-linejoin="round"/>
<path d="M41.5349 44.9858C41.5349 44.9858 43.7045 34.1632 43.8776 33.1302C44.0507 32.0972 44.7628 30.1374 43.1676 30.9698C41.5724 31.8022 29.1731 39.5372 29.1731 39.5372C29.1731 39.5372 26.5694 40.8826 27.5949 41.1172C28.6205 41.3518 30.4808 41.4881 30.8859 41.445C31.291 41.4018 33.3187 39.8428 34.2611 38.9671C35.2034 38.0914 39.3723 34.6912 40.7069 33.9401C42.0416 33.189 34.6968 41.6778 34.3613 42.1952C34.0259 42.7125 35.0446 43.2818 36.4675 44.2794C37.8903 45.2772 40.9178 48.262 41.5349 44.9858Z" fill="#1E638F" stroke="#1E638F" stroke-width="1.2" stroke-miterlimit="10" stroke-linejoin="round"/>
<path d="M41.0093 44.3102C41.0093 44.3102 43.1788 33.4876 43.352 32.4546C43.5251 31.4216 44.2371 29.4619 42.6419 30.2942C41.0467 31.1265 28.6475 38.8616 28.6475 38.8616C28.6475 38.8616 26.0437 40.207 27.0693 40.4416C28.0949 40.6763 29.9552 40.8126 30.3602 40.7694C30.7653 40.7262 32.793 39.1672 33.7354 38.2915C34.6777 37.4159 38.8466 34.0156 40.1812 33.2646C41.5159 32.5135 34.1711 41.0022 33.8356 41.5195C33.5002 42.037 34.5189 42.6061 35.9418 43.6039C37.3646 44.6016 40.3922 47.5864 41.0093 44.3102Z" fill="white" stroke="white" stroke-width="1.2" stroke-miterlimit="10" stroke-linejoin="round"/>
</svg>
