<svg width="80" height="80" viewBox="0 0 80 80" fill="none" xmlns="http://www.w3.org/2000/svg">
<path d="M24.5461 38.3118C20.5432 38.7986 10.2826 41.1572 12.4292 50.4287C14.9716 61.4096 39.0431 68.2254 49.2668 63.8438C59.4904 59.4623 56.1366 51.7269 54.2434 49.6173" stroke="black" stroke-width="0.757307" stroke-linejoin="round"/>
<path d="M27.8459 44.5325C31.7587 49.207 44.0199 54.4251 57.4891 46.9241" stroke="#D7A93F" stroke-width="1.51461" stroke-linecap="round" stroke-linejoin="round"/>
<path d="M13.3489 52.5923C14.7012 55.6756 19.7211 61.2689 25.7363 63.3028C33.2552 65.8452 45.6426 69.5235 54.3517 60.544" stroke="#D7A93F" stroke-width="1.6228" stroke-linecap="round" stroke-linejoin="round"/>
<path d="M13.5112 52.5383C14.0183 53.8706 15.8199 57.9607 20.4849 60.7537" stroke="white" stroke-width="1.6228" stroke-linecap="round" stroke-linejoin="round"/>
<path d="M67.0096 24.4639C68.5783 27.7636 69.6548 37.9577 61.3839 45.0734C51.7012 53.4038 40.3957 51.6187 40.3957 51.6187C40.3957 51.6187 28.1706 50.1582 25.6282 40.9083" stroke="black" stroke-width="0.757307" stroke-linecap="round" stroke-linejoin="round"/>
<path d="M17.7883 50.7324C19.7058 58.9983 37.8599 64.1288 45.5704 60.8306C52.2684 57.9655 51.2391 53.1951 49.9173 50.9508C44.5185 52.2697 40.3955 51.6187 40.3955 51.6187C40.3955 51.6187 28.9349 50.2495 25.899 41.7665C22.4602 42.3828 16.3305 44.4479 17.7883 50.7324Z" fill="#F7D570"/>
<path d="M67.0095 24.4639C68.5782 27.7636 69.6547 37.9577 61.3837 45.0734C57.5484 48.3731 53.4584 50.0857 49.9173 50.9508M25.628 40.9083C25.7088 41.2021 25.7993 41.4881 25.899 41.7665M25.899 41.7665C28.9349 50.2495 40.3955 51.6187 40.3955 51.6187C40.3955 51.6187 44.5185 52.2697 49.9173 50.9508M25.899 41.7665C22.4602 42.3828 16.3305 44.4479 17.7883 50.7324C19.7058 58.9983 37.8599 64.1288 45.5704 60.8306C52.2684 57.9655 51.2391 53.1951 49.9173 50.9508" stroke="black" stroke-width="0.757307" stroke-linecap="round" stroke-linejoin="round"/>
<path d="M17.7883 50.7324C19.7057 58.9982 37.8599 64.1288 45.5703 60.8306C52.2684 57.9654 51.2391 53.1951 49.9172 50.9508C44.5185 52.2697 40.3955 51.6187 40.3955 51.6187C40.3955 51.6187 28.9348 50.2495 25.8989 41.7664C22.4602 42.3828 16.3305 44.4478 17.7883 50.7324Z" fill="#F7D570"/>
<path d="M24.5461 38.3117C20.5432 38.7986 10.2826 41.1571 12.4292 50.4286C14.9716 61.4096 39.0431 68.2253 49.2668 63.8438C59.4904 59.4622 56.1366 51.7269 54.2434 49.6172L54.1771 49.5445C52.7068 50.1649 51.2719 50.6198 49.9172 50.9508C51.2391 53.1951 52.2684 57.9654 45.5703 60.8306C37.8599 64.1288 19.7057 58.9982 17.7883 50.7324C16.3305 44.4478 22.4602 42.3828 25.8989 41.7664C25.7993 41.4881 25.7088 41.2021 25.628 40.9082L25.628 40.8541C25.1941 39.9902 24.8454 39.1412 24.5724 38.3088L24.5461 38.3117Z" fill="#E4BA48"/>
<path d="M17.7883 40.185C14.2354 41.8743 11.1585 44.9403 12.4292 50.4285C14.9716 61.4095 39.0432 68.2252 49.2668 63.8437C54.4711 61.6133 56.1367 57.8934 56.1367 55.2428C54.4057 58.4344 51.6794 61.918 43.1543 62.87C32.4979 64.0601 22.4537 59.4621 17.4647 53.7282C12.4757 47.9943 13.1942 44.242 17.7883 40.185Z" fill="#EDC852"/>
<path d="M12.4292 50.4286C10.2826 41.1571 20.5432 38.7986 24.5461 38.3117L24.5724 38.3088C24.8454 39.1412 25.1941 39.9902 25.628 40.8541L25.628 40.9082C25.7088 41.2021 25.7993 41.4881 25.8989 41.7664C28.9348 50.2495 40.3955 51.6187 40.3955 51.6187C40.3955 51.6187 44.5185 52.2697 49.9172 50.9508C51.2719 50.6198 52.7068 50.1649 54.1771 49.5445L54.2434 49.6172C56.1366 51.7269 59.4904 59.4622 49.2668 63.8438C39.0431 68.2253 14.9716 61.4096 12.4292 50.4286Z" stroke="#AA7A2A" stroke-width="0.757307" stroke-linejoin="round"/>
<path d="M12.2129 46.8584C12.2129 47.2911 9.56234 60.1113 29.9556 65.5206C50.7575 71.0384 56.7317 60.2195 56.2989 55.7297" stroke="#AA7A2A" stroke-width="0.757307" stroke-linecap="round" stroke-linejoin="round"/>
<path d="M17.1587 55.1348C17.6143 55.6003 18.0143 56.1677 19.4614 57.1903" stroke="white" stroke-width="0.757307" stroke-linecap="round" stroke-linejoin="round"/>
<path d="M20.7056 58.0557C22.8069 59.7271 27.9673 62.038 32.6519 62.9186" stroke="white" stroke-width="0.757307" stroke-linecap="round" stroke-linejoin="round"/>
<path d="M67.8208 30.0896C67.2619 34.94 65.008 43.2343 55.9744 47.6699" stroke="white" stroke-width="1.19005" stroke-linecap="round" stroke-linejoin="round"/>
<path d="M67.0095 24.4639C68.5782 27.7636 69.6547 37.9577 61.3838 45.0734C57.5484 48.3731 53.4584 50.0857 49.9173 50.9508C44.5186 52.2697 40.3956 51.6187 40.3956 51.6187C40.3956 51.6187 28.9349 50.2495 25.899 41.7665C25.7994 41.4881 25.7088 41.2021 25.6281 40.9083L25.6281 40.8542C25.1942 39.9903 24.8455 39.1412 24.5725 38.3089L24.5461 38.3118" stroke="#AA7A2A" stroke-width="0.757307" stroke-linecap="round" stroke-linejoin="round"/>
<path fill-rule="evenodd" clip-rule="evenodd" d="M61.0592 16.2118C58.8761 14.6661 56.5134 13.7136 54.6221 13.2665C42.3788 10.0226 33.1214 17.2546 31.696 18.3681C31.6477 18.4058 31.6085 18.4365 31.5783 18.4595C30.7313 19.1072 21.1269 27.0709 24.4704 37.9872C33.3514 50.9345 46.3537 47.1304 48.4957 46.5037C48.6447 46.4601 48.7411 46.4319 48.78 46.4258C49.8077 46.2635 59.815 42.8556 63.7097 33.4975C66.8255 26.0109 63.2409 18.8543 61.0592 16.2118Z" fill="#E4BA48"/>
<path d="M25.628 40.8542C32.3544 54.2472 60.0941 52.5314 66.1981 35.2284C69.6022 25.5788 65.7443 19.5291 61.0592 16.2118C63.2409 18.8543 66.8255 26.0109 63.7097 33.4975C59.815 42.8556 49.8077 46.2635 48.78 46.4258C48.7411 46.4319 48.6447 46.4601 48.4957 46.5037C46.3537 47.1304 33.3514 50.9345 24.4704 37.9872C24.7568 38.9221 25.1381 39.8787 25.628 40.8542Z" fill="#F3D159"/>
<path fill-rule="evenodd" clip-rule="evenodd" d="M31.6615 18.395C31.6724 18.3865 31.6838 18.3776 31.6959 18.3682L31.696 18.3681C31.6839 18.3775 31.6724 18.3865 31.6615 18.395Z" fill="#E4BA48"/>
<path d="M31.696 18.3681C33.1214 17.2546 42.3788 10.0226 54.6221 13.2665C56.5134 13.7136 58.8761 14.6661 61.0592 16.2118C65.7443 19.5291 69.6022 25.5788 66.1981 35.2284C60.0941 52.5314 32.3544 54.2472 25.628 40.8542C25.1381 39.8787 24.7568 38.9221 24.4704 37.9872C21.1269 27.0709 30.7313 19.1072 31.5783 18.4595C31.6009 18.4422 31.6287 18.4207 31.6615 18.395M31.696 18.3681L31.6959 18.3682C31.6838 18.3776 31.6724 18.3865 31.6615 18.395M31.696 18.3681C31.6839 18.3775 31.6724 18.3865 31.6615 18.395" stroke="#AA7A2A" stroke-width="0.757307"/>
<path d="M62.087 39.6641C60.5183 41.8278 56.1909 45.3439 52.2961 46.6421" stroke="white" stroke-width="0.757307" stroke-linecap="round" stroke-linejoin="round"/>
<path d="M65.3576 33.7347C64.8413 35.865 63.7934 37.639 63.1689 38.3118" stroke="white" stroke-width="0.757307" stroke-linecap="round" stroke-linejoin="round"/>
<path d="M52.0269 17.5689C56.5023 18.6259 64.4868 23.4433 60.7335 34.0755C56.1426 47.0805 35.2789 48.3701 30.2198 38.3038C25.5488 29.0099 34.0035 22.0004 34.6952 21.4719C35.3868 20.9434 42.5066 15.0481 52.0269 17.5689Z" fill="#F7D570" stroke="#E4BA48" stroke-width="0.540934"/>
<path d="M39.4761 38.3658L53.8878 29.2229C54.1791 29.0381 54.1476 28.6033 53.8326 28.4625L47.6712 25.708M39.4761 38.3658L41.2985 23.5259C41.3338 23.2384 41.6362 23.066 41.9016 23.1822L47.6712 25.708M39.4761 38.3658L47.6712 25.708" stroke="#AA7A2A" stroke-width="1.40643" stroke-linejoin="round"/>
</svg>
