<svg width="80" height="80" viewBox="0 0 80 80" fill="none" xmlns="http://www.w3.org/2000/svg">
<path d="M54.8084 17.7207C58.7644 18.8026 61.4501 20.6254 62.0132 21.3424C62.5762 22.0594 64.8701 23.6024 63.8471 30.8875L60.9371 56.3227C60.3463 61.9585 55.2824 65.8415 49.643 65.2872L27.1537 63.4106C21.458 62.8135 20.5538 61.6183 18.7655 60.142C16.9773 58.6657 14.4868 55.1905 14.29 53.8132" fill="url(#paint0_linear_1123_245)"/>
<path d="M39.3197 16.4834C39.3085 16.4824 39.2926 16.5005 39.2915 16.5117C39.2904 16.5228 39.3085 16.5388 39.3197 16.5398C42.9148 16.8584 46.5005 17.2161 50.0909 17.5831C50.9487 17.6708 51.878 17.7046 52.7978 17.7805C52.4032 17.7578 52.0061 17.7023 51.6136 17.6677C50.5863 17.5774 49.5668 17.4808 48.5401 17.3857C45.4597 17.1004 42.3963 16.8074 39.3197 16.4834ZM52.7978 17.7805C53.7177 17.8564 54.6228 17.9924 55.4484 18.2598C59.0169 19.4158 60.3938 22.5965 60.3545 26.1268C60.3271 28.5982 59.8186 31.0981 59.5087 33.5426C59.1102 36.6864 58.7293 39.8421 58.3526 42.9886C58.0387 45.6106 57.7251 48.2323 57.4221 50.8555C57.2517 52.3308 57.1861 53.8632 56.83 55.3107C56.1755 57.9706 54.378 60.2262 51.9519 61.4858C49.139 62.9462 46.5432 62.575 43.4929 62.3317C41.1417 62.1441 38.7954 61.9738 36.4435 61.7959C33.6213 61.5825 30.7783 61.3635 27.9563 61.1474C26.1045 61.0056 24.1879 61.0423 22.3733 60.6117C20.0393 60.0578 17.9074 58.686 16.3956 56.8332C17.9024 58.718 19.9734 60.1244 22.3169 60.7245C24.1323 61.1893 26.0991 61.2127 27.9563 61.4012C30.7721 61.687 33.5716 61.9868 36.3872 62.2753C38.7334 62.5157 41.0892 62.7495 43.4364 62.9803C46.6328 63.2943 49.325 63.6733 52.2903 62.1625C54.9289 60.8182 56.9073 58.3597 57.6195 55.4798C57.9857 53.9987 58.0405 52.4504 58.2116 50.9401C58.5089 48.3162 58.7993 45.6983 59.0857 43.0731C59.4294 39.9229 59.779 36.7516 60.1008 33.5989C60.3526 31.1327 60.7942 28.6135 60.7494 26.1268C60.7318 25.152 60.609 24.1933 60.3545 23.2507C60.1354 22.4385 59.806 21.641 59.3395 20.9386C58.347 19.4443 56.7018 18.3345 54.9407 17.9779C54.2393 17.8358 53.5117 17.8216 52.7978 17.7805ZM14.1398 49.2483C14.0499 50.2276 14.0183 51.2256 14.1962 52.2089C14.2393 52.4473 14.3889 52.6515 14.4499 52.8857C14.3885 52.6537 14.2681 52.4445 14.2243 52.2089C14.0423 51.2265 14.0518 50.2272 14.1398 49.2483ZM14.4499 52.8857C14.6213 53.5324 14.775 54.1761 15.0703 54.7749C15.1245 54.8848 15.2097 54.9772 15.2677 55.0851C14.902 54.3896 14.6482 53.6461 14.4499 52.8857ZM15.2677 55.0851C15.3191 55.1829 15.3261 55.299 15.3805 55.3952C15.6305 55.8374 15.9465 56.233 16.2545 56.6359C15.8784 56.1537 15.5575 55.6245 15.2677 55.0851Z" fill="#DAC6FF"/>
<path d="M16.7206 24.013C17.3142 18.3512 22.0947 14.1222 27.7564 14.7158L51.4009 17.0081C52.5371 17.101 53.6041 17.3088 54.5783 17.6371C58.596 18.9911 61.0324 22.3961 60.209 28.2596L57.299 53.6949C56.7081 59.3306 51.6444 63.2136 46.0049 62.6593L23.2309 60.632C17.5352 60.0349 12.8757 54.7353 13.5211 49.0448L16.7206 24.013Z" fill="url(#paint1_linear_1123_245)"/>
<path d="M27.0259 15.6659C25.1227 15.6871 23.2367 16.3279 21.6966 17.4424C19.692 18.8932 18.338 21.0956 17.8054 23.5048C17.4879 24.9411 17.3945 26.4465 17.2133 27.9035C16.9069 30.3666 16.6078 32.8267 16.311 35.291C15.9548 38.2483 15.587 41.2148 15.2395 44.1731C15.0161 46.0751 14.5977 48.0319 14.6755 49.9534C14.8174 53.4541 16.9623 56.6406 20.033 58.2716C21.0063 58.7886 22.0753 59.1331 23.1629 59.3148C24.186 59.4859 25.2202 59.5098 26.2645 59.5686C25.2363 59.4869 24.1806 59.4643 23.1629 59.2866C22.0812 59.0978 21.0257 58.739 20.0612 58.2152C17.0473 56.578 14.9727 53.4112 14.9011 49.9534C14.8617 48.044 15.314 46.0844 15.5778 44.2012C16.0601 40.7599 16.5462 37.3244 17.0159 33.8812C17.3514 31.4218 17.6766 28.9542 18.0029 26.4936C18.1276 25.552 18.2142 24.5772 18.4258 23.6457C18.9367 21.3965 20.2148 19.3614 22.0914 18.0063C23.5221 16.9732 25.2589 16.3657 27.0259 16.3427C28.3427 16.3256 29.6943 16.5556 31.0016 16.681C33.7656 16.9464 36.5267 17.214 39.2915 17.4705C41.1347 17.6416 42.9744 17.8116 44.8181 17.9782C46.6621 18.1446 48.4998 18.3029 50.3447 18.4575C53.8432 18.7506 57.2033 19.8684 58.5218 23.4483C58.7966 24.1944 58.9383 24.9691 59.0011 25.7605C59.1053 27.0704 58.9224 28.3527 58.7756 29.6516C58.587 31.3201 58.4035 33.0026 58.2116 34.6708C57.6841 39.258 57.1495 43.8456 56.6044 48.4309C57.2045 43.4294 57.7878 38.4288 58.409 33.4301C58.6161 31.7637 58.848 30.1052 59.0576 28.4392C59.1958 27.3401 59.2544 26.244 59.1139 25.1401C59.0132 24.3487 58.8119 23.5606 58.4937 22.828C56.5599 18.3772 51.8073 18.2003 47.6378 17.7526C46.2574 17.6043 44.8736 17.4472 43.4929 17.3014C42.1121 17.1556 40.7289 17.0216 39.3479 16.8784C36.586 16.592 33.8208 16.3102 31.058 16.0325C29.727 15.8988 28.3672 15.651 27.0259 15.6659ZM26.2645 59.5686C26.6637 59.5911 27.0538 59.6516 27.4488 59.6814C29.4698 59.8338 31.4915 59.9919 33.5111 60.1608C33.5205 60.1614 33.5386 60.1701 33.5393 60.1608C33.54 60.1514 33.5486 60.1333 33.5393 60.1326C31.1134 59.9607 28.6889 59.7614 26.2645 59.5686Z" fill="#735CD5"/>
<path d="M49.1996 29.1802C51.1473 30.9651 52.3685 34.0608 51.9437 36.6163L50.6569 47.0149C50.3922 50.9356 47.1847 54.7595 41.8674 54.0221L31.5873 52.7941C28.4128 52.6084 26.5379 51.2841 25.4309 49.5533C24.1953 47.6213 29.5843 48.4091 29.5843 48.4091L43.9034 50.8954L47.8727 45.7907" fill="#624DC2"/>
<path d="M29.6466 46.4699C29.0271 45.6249 28.6292 44.4653 28.8018 43.2715L29.7716 36.2808C30.0471 32.4812 32.002 30.8527 34.8215 31.2691L43.3589 32.3096C44.6724 32.4238 45.6747 32.8521 46.2642 33.9879C46.5239 34.4883 47.0269 30.844 47.0269 30.844L31.6196 28.677L27.8053 33.0133L26.7649 44.3526L27.8977 46.9606" fill="#624DC2"/>
<path d="M42.239 34.7537C43.1126 35.7475 43.9131 37.0945 43.7031 38.3576L43.1502 42.8251C43.0365 44.5095 41.6585 46.1524 39.3741 45.8356L35.1104 45.2853C33.0469 45.1521 32.7957 44.5885 32.0017 43.4915" fill="#624DC2"/>
<path d="M31.6979 36.3825C31.8724 34.1777 33.532 32.9745 34.9472 33.1229L40.5427 33.8048C42.333 34.1163 43.3489 35.9928 43.0793 37.6151L42.5264 42.0825C42.4127 43.767 41.0347 45.4098 38.7503 45.093L34.5147 44.5507C32.0865 44.377 30.9577 42.6501 31.1493 40.9594L31.6979 36.3825Z" fill="#624DC2"/>
<path d="M33.9523 30.1314C31.1329 29.715 29.1805 31.3508 28.905 35.1504L27.9463 42.1433C27.5217 45.0808 29.2255 47.3465 33.3038 47.5852L39.7608 48.403C43.712 49.0545 45.3632 46.5443 45.513 43.8068L46.3589 36.9832C46.5401 35.729 46.5036 34.6922 46.2461 33.8534C45.7416 32.2094 44.4321 31.3431 42.496 31.1746L33.9523 30.1314Z" stroke="#624DC2" stroke-width="0.4" stroke-miterlimit="10" stroke-linejoin="round"/>
<path d="M32.0349 25.169C28.7406 24.8236 24.8842 27.6218 24.4781 32.7539L23.181 43.4124C22.7352 47.3477 25.3678 51.3545 31.0198 51.7587L40.8887 53.0276C46.2061 53.7649 49.3933 49.9273 49.658 46.0065L50.9551 35.63C51.5827 31.854 49.229 27.4731 45.0618 26.748L32.0349 25.169ZM33.9522 30.1316L42.496 31.1749C44.4321 31.3433 45.7416 32.2096 46.2461 33.8536C46.5036 34.6925 46.5401 35.7293 46.3589 36.9835L45.513 43.8071C45.3632 46.5446 43.712 49.0548 39.7608 48.4033L33.3038 47.5855C29.2255 47.3468 27.5217 45.0811 27.9463 42.1435L28.905 35.1507C29.1805 31.3511 31.1329 29.7152 33.9522 30.1316Z" fill="#624DC2"/>
<path d="M48.8105 28.7461C50.7581 30.5311 51.9794 33.6267 51.5546 36.1822L50.2677 46.5808C50.003 50.5016 46.7955 54.3254 41.4783 53.588L31.1982 52.36C28.0235 52.1743 26.1487 50.8501 25.0418 49.1193C23.8061 47.1873 29.1951 47.9751 29.1951 47.9751L43.5142 50.4614L47.4835 45.3568" fill="#81BCEE"/>
<path d="M29.2574 46.0355C28.638 45.1906 28.2401 44.0309 28.4126 42.8371L29.3825 35.8464C29.6579 32.0468 31.6128 30.4183 34.4322 30.8347L42.9697 31.8752C44.2833 31.9895 45.2856 32.4177 45.875 33.5534C46.1347 34.0539 46.6377 30.4096 46.6377 30.4096L31.2305 28.2427L27.4161 32.5789L26.3757 43.9183L27.5086 46.5263" fill="#83BAEF"/>
<path d="M41.8498 34.3198C42.7234 35.3136 43.5239 36.6607 43.314 37.9237L42.761 42.3912C42.6473 44.0756 41.2693 45.7184 38.9849 45.4016L34.7213 44.8515C32.6578 44.7182 32.4066 44.1546 31.6125 43.0575" fill="#3187E8"/>
<path d="M31.3087 35.9482C31.4832 33.7433 33.1427 32.5401 34.5581 32.6886L40.1535 33.3704C41.9439 33.6819 42.9598 35.5585 42.6902 37.1807L42.1372 41.6482C42.0236 43.3327 40.6456 44.9755 38.3611 44.6587L34.1255 44.1163C31.6972 43.9426 30.5686 42.2157 30.7601 40.525L31.3087 35.9482Z" fill="url(#paint2_linear_1123_245)"/>
<path d="M33.5633 29.6973C30.7439 29.2809 28.7916 30.9168 28.5161 34.7163L27.5574 41.7092C27.1328 44.6468 28.8366 46.9124 32.9149 47.1512L39.3719 47.9689C43.3231 48.6205 44.9743 46.1103 45.1241 43.3728L45.97 36.5492C46.1512 35.295 46.1147 34.2582 45.8572 33.4193C45.3526 31.7753 44.0431 30.909 42.1071 30.7406L33.5633 29.6973Z" stroke="white" stroke-width="0.4" stroke-miterlimit="10" stroke-linejoin="round"/>
<path d="M31.6457 24.7344C28.3515 24.3891 24.4951 27.1872 24.0889 32.3194L22.7919 42.9779C22.346 46.9132 24.9787 50.9199 30.6306 51.3242L40.4996 52.593C45.8169 53.3304 49.0042 49.4927 49.2689 45.572L50.5659 35.1955C51.1936 31.4196 48.8399 27.0385 44.6727 26.3134L31.6457 24.7344ZM33.5631 29.6971L42.1068 30.7404C44.0429 30.9088 45.3524 31.7751 45.857 33.4191C46.1145 34.258 46.1509 35.2948 45.9698 36.549L45.1239 43.3726C44.9741 46.11 43.3229 48.6202 39.3717 47.9687L32.9146 47.151C28.8364 46.9122 27.1326 44.6466 27.5572 41.709L28.5159 34.7161C28.7914 30.9166 30.7437 29.2806 33.5631 29.6971Z" fill="white"/>
<defs>
<linearGradient id="paint0_linear_1123_245" x1="23.3788" y1="63.7265" x2="64.6506" y2="23.2666" gradientUnits="userSpaceOnUse">
<stop stop-color="#C881FB"/>
<stop offset="1" stop-color="#7A60DA"/>
</linearGradient>
<linearGradient id="paint1_linear_1123_245" x1="17.7204" y1="58.5583" x2="51.4517" y2="32.0341" gradientUnits="userSpaceOnUse">
<stop stop-color="#C681F2"/>
<stop offset="1" stop-color="#7A80F1"/>
</linearGradient>
<linearGradient id="paint2_linear_1123_245" x1="30.4556" y1="44.05" x2="40.9315" y2="36.8177" gradientUnits="userSpaceOnUse">
<stop offset="0.0166667" stop-color="#D5F6FF"/>
<stop offset="1" stop-color="#73DCF8"/>
</linearGradient>
</defs>
</svg>
