<svg width="24" height="24" viewBox="0 0 24 24" fill="none" xmlns="http://www.w3.org/2000/svg">
<path fill-rule="evenodd" clip-rule="evenodd" d="M12.4961 6.13176C12.1887 5.95608 11.8113 5.95608 11.5038 6.13176L4.50385 10.1318C4.02433 10.4058 3.85773 11.0166 4.13174 11.4961C4.40575 11.9757 5.01661 12.1423 5.49613 11.8682L12 8.15175L18.5038 11.8682C18.9834 12.1423 19.5942 11.9757 19.8682 11.4961C20.1422 11.0166 19.9756 10.4058 19.4961 10.1318L12.4961 6.13176ZM12.4961 11.1318C12.1887 10.9561 11.8113 10.9561 11.5038 11.1318L4.50385 15.1318C4.02433 15.4058 3.85773 16.0166 4.13174 16.4961C4.40575 16.9757 5.01661 17.1423 5.49613 16.8682L12 13.1518L18.5038 16.8682C18.9834 17.1423 19.5942 16.9757 19.8682 16.4961C20.1422 16.0166 19.9756 15.4058 19.4961 15.1318L12.4961 11.1318Z" fill="#FB3F30"/>
</svg>
