<svg width="24" height="24" viewBox="0 0 24 24" fill="none" xmlns="http://www.w3.org/2000/svg">
<path fill-rule="evenodd" clip-rule="evenodd" d="M5.49613 7.13174C5.01661 6.85773 4.40575 7.02433 4.13174 7.50385C3.85773 7.98337 4.02433 8.59422 4.50385 8.86823L11.5038 12.8682C11.8113 13.0439 12.1887 13.0439 12.4961 12.8682L19.4961 8.86823C19.9756 8.59422 20.1422 7.98337 19.8682 7.50385C19.5942 7.02433 18.9834 6.85773 18.5038 7.13174L12 10.8482L5.49613 7.13174ZM5.49613 12.1317C5.01661 11.8577 4.40575 12.0243 4.13174 12.5038C3.85773 12.9834 4.02433 13.5942 4.50385 13.8682L11.5038 17.8682C11.8113 18.0439 12.1887 18.0439 12.4961 17.8682L19.4961 13.8682C19.9756 13.5942 20.1422 12.9834 19.8682 12.5038C19.5942 12.0243 18.9834 11.8577 18.5038 12.1317L12 15.8482L5.49613 12.1317Z" fill="#0078FF"/>
</svg>
