<svg width="6190" height="1511" viewBox="0 0 6190 1511" fill="none" xmlns="http://www.w3.org/2000/svg">
<rect width="6190" height="1511" rx="256" fill="url(#paint0_linear_68_7073)"/>
<path fill-rule="evenodd" clip-rule="evenodd" d="M779.558 258.436H530.549C452.971 258.436 390.082 319.614 390.082 395.082V637.32C390.082 712.788 452.971 773.967 530.549 773.967H779.558C857.136 773.967 920.025 712.788 920.025 637.32V395.082C920.025 319.614 857.136 258.436 779.558 258.436ZM530.549 128C378.92 128 256 247.577 256 395.082V637.32C256 784.825 378.92 904.402 530.549 904.402H779.558C931.187 904.402 1054.11 784.825 1054.11 637.32V395.082C1054.11 247.577 931.187 128 779.558 128H530.549Z" fill="#F7F9F7"/>
<path d="M489.052 424.265C489.052 385.845 521.068 354.699 560.562 354.699H749.554C789.048 354.699 821.064 385.845 821.064 424.265V608.117C821.064 646.537 789.048 677.683 749.554 677.683H560.562C521.068 677.683 489.052 646.537 489.052 608.117V424.265Z" fill="#BEE4F7"/>
<path d="M1387.73 632.406C1398.89 632.406 1408.82 630.653 1417.52 627.146C1426.38 623.481 1433.85 618.301 1439.92 611.607C1446 604.914 1450.59 596.786 1453.71 587.223C1456.99 577.502 1458.63 566.505 1458.63 554.233V347.925H1541.85V554.233C1541.85 575.589 1538.24 595.192 1531.02 613.042C1523.96 630.892 1513.78 646.271 1500.49 659.18C1487.19 672.09 1471.03 682.13 1451.99 689.302C1432.95 696.474 1411.53 700.06 1387.73 700.06C1363.76 700.06 1342.26 696.474 1323.22 689.302C1304.18 682.13 1288.01 672.09 1274.72 659.18C1261.42 646.271 1251.25 630.892 1244.19 613.042C1237.13 595.192 1233.6 575.589 1233.6 554.233V347.925H1316.82V553.994C1316.82 566.266 1318.38 577.262 1321.5 586.984C1324.78 596.547 1329.46 604.754 1335.53 611.607C1341.61 618.301 1348.99 623.481 1357.69 627.146C1366.55 630.653 1376.57 632.406 1387.73 632.406Z" fill="white"/>
<path d="M1670.66 700.06C1658.51 700.06 1647.76 698.386 1638.41 695.039C1629.21 691.533 1621.42 686.672 1615.02 680.457C1608.78 674.082 1604.02 666.432 1600.74 657.507C1597.45 648.582 1595.81 638.621 1595.81 627.624V499.488H1574.15C1570.21 499.488 1566.84 498.293 1564.05 495.903C1561.26 493.353 1559.87 489.687 1559.87 484.906V455.98L1600.49 448.33L1615.51 387.847C1617.48 380.198 1623.06 376.373 1632.25 376.373H1672.14V448.808H1734.18V499.488H1672.14V622.604C1672.14 628.342 1673.53 633.123 1676.32 636.948C1679.28 640.613 1683.46 642.446 1688.88 642.446C1691.67 642.446 1693.97 642.207 1695.77 641.729C1697.74 641.091 1699.38 640.454 1700.7 639.816C1702.17 639.02 1703.49 638.382 1704.64 637.904C1705.95 637.267 1707.43 636.948 1709.07 636.948C1711.37 636.948 1713.17 637.506 1714.48 638.621C1715.96 639.577 1717.44 641.171 1718.92 643.402L1742.06 678.544C1732.21 685.716 1721.13 691.135 1708.82 694.8C1696.51 698.306 1683.79 700.06 1670.66 700.06Z" fill="white"/>
<path d="M1939.71 696.235C1932.49 696.235 1926.99 695.278 1923.21 693.366C1919.6 691.453 1916.56 687.469 1914.1 681.413L1908.69 667.786C1902.28 673.046 1896.13 677.668 1890.22 681.652C1884.31 685.636 1878.16 689.063 1871.76 691.932C1865.52 694.641 1858.79 696.633 1851.57 697.908C1844.51 699.342 1836.63 700.06 1827.93 700.06C1816.28 700.06 1805.69 698.625 1796.17 695.756C1786.65 692.728 1778.53 688.346 1771.8 682.608C1765.23 676.871 1760.14 669.779 1756.53 661.332C1752.92 652.726 1751.11 642.845 1751.11 631.688C1751.11 622.923 1753.41 613.918 1758.01 604.675C1762.6 595.431 1770.56 587.064 1781.89 579.573C1793.22 571.924 1808.48 565.549 1827.68 560.449C1846.89 555.349 1871.1 552.48 1900.32 551.842V541.324C1900.32 526.821 1897.2 516.382 1890.96 510.007C1884.89 503.473 1876.19 500.206 1864.86 500.206C1855.83 500.206 1848.45 501.162 1842.7 503.074C1836.96 504.987 1831.79 507.138 1827.19 509.529C1822.76 511.92 1818.41 514.071 1814.14 515.984C1809.88 517.896 1804.79 518.852 1798.88 518.852C1793.63 518.852 1789.11 517.657 1785.34 515.266C1781.73 512.716 1778.85 509.609 1776.72 505.943L1762.93 482.754C1778.36 469.526 1795.43 459.725 1814.14 453.35C1833.02 446.816 1853.21 443.548 1874.71 443.548C1890.14 443.548 1904.01 446.019 1916.32 450.959C1928.79 455.74 1939.3 462.514 1947.83 471.279C1956.53 479.886 1963.18 490.165 1967.78 502.118C1972.37 514.071 1974.67 527.14 1974.67 541.324V696.235H1939.71ZM1852.06 651.052C1861.91 651.052 1870.52 649.379 1877.91 646.032C1885.3 642.685 1892.76 637.266 1900.32 629.776V595.351C1885.05 595.989 1872.49 597.264 1862.65 599.176C1852.8 601.089 1845 603.479 1839.26 606.348C1833.51 609.217 1829.49 612.484 1827.19 616.15C1825.06 619.815 1823.99 623.799 1823.99 628.103C1823.99 636.549 1826.37 642.526 1831.13 646.032C1835.89 649.379 1842.87 651.052 1852.06 651.052Z" fill="white"/>
<path d="M2170.19 502.596C2168.22 505.624 2166.08 507.776 2163.79 509.051C2161.65 510.326 2158.86 510.963 2155.41 510.963C2151.8 510.963 2148.19 510.246 2144.58 508.812C2140.97 507.218 2137.03 505.545 2132.76 503.791C2128.66 502.038 2123.98 500.445 2118.73 499.01C2113.48 497.417 2107.49 496.62 2100.76 496.62C2091.07 496.62 2083.6 498.453 2078.35 502.118C2073.26 505.624 2070.72 510.565 2070.72 516.94C2070.72 521.562 2072.36 525.387 2075.64 528.415C2079.09 531.443 2083.6 534.152 2089.18 536.543C2094.77 538.774 2101.08 540.925 2108.14 542.997C2115.2 545.069 2122.42 547.38 2129.81 549.93C2137.2 552.48 2144.42 555.508 2151.48 559.014C2158.53 562.361 2164.85 566.585 2170.43 571.684C2176.01 576.625 2180.45 582.681 2183.73 589.853C2187.17 597.025 2188.9 605.631 2188.9 615.671C2188.9 627.943 2186.6 639.259 2182 649.618C2177.41 659.977 2170.51 668.902 2161.32 676.393C2152.3 683.883 2141.05 689.7 2127.59 693.844C2114.3 697.988 2098.95 700.06 2081.55 700.06C2072.85 700.06 2064.15 699.263 2055.45 697.669C2046.76 696.075 2038.3 693.924 2030.1 691.214C2022.05 688.505 2014.58 685.317 2007.69 681.652C2000.8 677.827 1994.89 673.763 1989.96 669.46L2007.69 642.207C2009.82 639.02 2012.37 636.549 2015.32 634.796C2018.28 632.884 2022.14 631.928 2026.9 631.928C2031.33 631.928 2035.27 632.884 2038.71 634.796C2042.32 636.709 2046.18 638.781 2050.28 641.012C2054.39 643.243 2059.15 645.315 2064.56 647.227C2070.15 649.14 2077.12 650.096 2085.49 650.096C2091.4 650.096 2096.41 649.538 2100.51 648.423C2104.61 647.148 2107.9 645.474 2110.36 643.402C2112.82 641.331 2114.63 639.02 2115.78 636.47C2116.92 633.92 2117.5 631.29 2117.5 628.581C2117.5 623.64 2115.78 619.576 2112.33 616.389C2108.88 613.201 2104.37 610.492 2098.79 608.261C2093.21 605.87 2086.8 603.718 2079.58 601.806C2072.53 599.734 2065.3 597.423 2057.92 594.873C2050.53 592.323 2043.23 589.295 2036 585.789C2028.95 582.123 2022.63 577.581 2017.05 572.163C2011.47 566.585 2006.95 559.811 2003.51 551.842C2000.06 543.874 1998.34 534.232 1998.34 522.916C1998.34 512.398 2000.39 502.437 2004.49 493.034C2008.76 483.471 2015.08 475.104 2023.45 467.933C2031.82 460.761 2042.32 455.103 2054.96 450.959C2067.6 446.656 2082.37 444.505 2099.28 444.505C2108.47 444.505 2117.33 445.302 2125.87 446.895C2134.57 448.489 2142.69 450.72 2150.24 453.589C2157.79 456.458 2164.69 459.884 2170.93 463.869C2177.16 467.693 2182.66 471.917 2187.42 476.539L2170.19 502.596Z" fill="white"/>
<path d="M2292.52 338.362V538.933H2303.84C2308.6 538.933 2312.21 538.296 2314.67 537.021C2317.3 535.746 2319.76 533.435 2322.06 530.088L2370.32 460.283C2373.11 456.139 2376.39 453.111 2380.16 451.198C2384.1 449.286 2389.03 448.33 2394.94 448.33H2464.86L2398.88 536.543C2395.76 540.686 2392.31 544.352 2388.54 547.539C2384.92 550.727 2380.99 553.596 2376.72 556.146C2384.1 561.564 2390.51 568.736 2395.92 577.661L2467.81 696.235H2398.88C2393.13 696.235 2388.13 695.358 2383.86 693.605C2379.75 691.692 2376.39 688.425 2373.76 683.803L2325.51 596.069C2323.21 592.084 2320.83 589.534 2318.37 588.419C2315.91 587.144 2312.21 586.506 2307.29 586.506H2292.52V696.235H2216.19V338.362H2292.52Z" fill="white"/>
<path d="M2641.23 502.596C2639.26 505.624 2637.12 507.776 2634.83 509.051C2632.69 510.326 2629.9 510.963 2626.45 510.963C2622.84 510.963 2619.23 510.246 2615.62 508.812C2612.01 507.218 2608.07 505.545 2603.8 503.791C2599.7 502.038 2595.02 500.445 2589.77 499.01C2584.52 497.417 2578.53 496.62 2571.8 496.62C2562.11 496.62 2554.64 498.453 2549.39 502.118C2544.3 505.624 2541.76 510.565 2541.76 516.94C2541.76 521.562 2543.4 525.387 2546.68 528.415C2550.13 531.443 2554.64 534.152 2560.23 536.543C2565.81 538.774 2572.13 540.925 2579.18 542.997C2586.24 545.069 2593.46 547.38 2600.85 549.93C2608.24 552.48 2615.46 555.508 2622.52 559.014C2629.57 562.361 2635.89 566.585 2641.47 571.684C2647.05 576.625 2651.49 582.681 2654.77 589.853C2658.22 597.025 2659.94 605.631 2659.94 615.671C2659.94 627.943 2657.64 639.259 2653.04 649.618C2648.45 659.977 2641.56 668.902 2632.36 676.393C2623.34 683.883 2612.09 689.7 2598.63 693.844C2585.34 697.988 2569.99 700.06 2552.59 700.06C2543.89 700.06 2535.19 699.263 2526.5 697.669C2517.8 696.075 2509.34 693.924 2501.14 691.214C2493.09 688.505 2485.63 685.317 2478.73 681.652C2471.84 677.827 2465.93 673.763 2461 669.46L2478.73 642.207C2480.87 639.02 2483.41 636.549 2486.36 634.796C2489.32 632.884 2493.18 631.928 2497.94 631.928C2502.37 631.928 2506.31 632.884 2509.75 634.796C2513.36 636.709 2517.22 638.781 2521.33 641.012C2525.43 643.243 2530.19 645.315 2535.6 647.227C2541.19 649.14 2548.16 650.096 2556.53 650.096C2562.44 650.096 2567.45 649.538 2571.55 648.423C2575.65 647.148 2578.94 645.474 2581.4 643.402C2583.86 641.331 2585.67 639.02 2586.82 636.47C2587.96 633.92 2588.54 631.29 2588.54 628.581C2588.54 623.64 2586.82 619.576 2583.37 616.389C2579.92 613.201 2575.41 610.492 2569.83 608.261C2564.25 605.87 2557.85 603.718 2550.62 601.806C2543.57 599.734 2536.34 597.423 2528.96 594.873C2521.57 592.323 2514.27 589.295 2507.04 585.789C2499.99 582.123 2493.67 577.581 2488.09 572.163C2482.51 566.585 2477.99 559.811 2474.55 551.842C2471.1 543.874 2469.38 534.232 2469.38 522.916C2469.38 512.398 2471.43 502.437 2475.53 493.034C2479.8 483.471 2486.12 475.104 2494.49 467.933C2502.86 460.761 2513.36 455.103 2526 450.959C2538.64 446.656 2553.41 444.505 2570.32 444.505C2579.51 444.505 2588.38 445.302 2596.91 446.895C2605.61 448.489 2613.73 450.72 2621.28 453.589C2628.83 456.458 2635.73 459.884 2641.97 463.869C2648.2 467.693 2653.7 471.917 2658.46 476.539L2641.23 502.596Z" fill="white"/>
<g opacity="0.8">
<path fill-rule="evenodd" clip-rule="evenodd" d="M1344.53 783.832C1346.02 785.15 1346.66 787.193 1346.17 789.127L1324.84 874.46C1324.37 876.324 1322.94 877.794 1321.09 878.306C1319.24 878.819 1317.25 878.297 1315.89 876.938L1293.58 854.619L1281.27 871.033C1280.08 872.62 1278.1 873.416 1276.15 873.098C1274.19 872.78 1272.57 871.402 1271.94 869.52L1261.97 839.616L1242.61 829.937C1240.73 828.994 1239.57 827.027 1239.67 824.919C1239.77 822.812 1241.1 820.961 1243.07 820.196L1339.07 782.863C1340.92 782.14 1343.03 782.514 1344.53 783.832ZM1296.84 842.794C1296.8 842.753 1296.76 842.713 1296.72 842.673L1295.21 841.167L1312.77 823.605C1314.85 821.522 1314.85 818.145 1312.77 816.062C1310.69 813.979 1307.31 813.979 1305.23 816.062L1283.89 837.395C1281.81 839.478 1281.81 842.855 1283.89 844.938L1285.96 847L1278.84 856.49L1271.39 834.147C1270.95 832.805 1269.98 831.696 1268.72 831.063L1258.15 825.777L1333.33 796.54L1316.78 862.735L1296.84 842.794Z" fill="white"/>
<path d="M1399.61 873V788.449H1452.4V799.758H1412.73V826.535H1449.06V837.609H1412.73V873H1399.61ZM1471.01 798C1466.61 798 1463.04 794.426 1463.04 790.09C1463.04 785.695 1466.61 782.121 1471.01 782.121C1475.34 782.121 1478.97 785.695 1478.97 790.09C1478.97 794.426 1475.34 798 1471.01 798ZM1464.62 873V809.367H1477.28V873H1464.62ZM1492.19 873V809.367H1504.91V818.977H1505.84C1508.13 812.238 1514.05 808.254 1522.54 808.254C1524.59 808.254 1526.82 808.547 1528.11 808.84V820.559C1525.82 820.09 1523.66 819.797 1521.25 819.797C1511.53 819.797 1504.91 825.773 1504.91 834.973V873H1492.19ZM1558.49 874.23C1543.14 874.23 1533.41 867.023 1532.18 856.359V856.301H1544.9L1544.96 856.359C1546.54 861.164 1551.17 864.387 1558.73 864.387C1566.58 864.387 1572.03 860.812 1572.03 855.598V855.48C1572.03 851.496 1569.04 848.801 1561.66 847.102L1551.52 844.758C1539.51 842.004 1533.94 836.555 1533.94 827.238V827.18C1533.94 816.105 1544.25 808.137 1558.67 808.137C1573.2 808.137 1582.52 815.402 1583.63 825.773V825.832H1571.5V825.715C1570.27 821.262 1565.76 817.922 1558.61 817.922C1551.64 817.922 1546.6 821.379 1546.6 826.477V826.594C1546.6 830.578 1549.53 833.039 1556.68 834.738L1566.75 837.023C1579 839.895 1584.86 845.109 1584.86 854.309V854.426C1584.86 866.203 1573.61 874.23 1558.49 874.23ZM1619.99 873.41C1605.99 873.41 1600.24 868.488 1600.24 856.242V819.387H1590.28V809.367H1600.24V793.312H1613.19V809.367H1626.85V819.387H1613.19V853.195C1613.19 860.051 1615.77 862.863 1622.04 862.863C1623.98 862.863 1625.09 862.805 1626.85 862.629V872.766C1624.8 873.117 1622.45 873.41 1619.99 873.41ZM1691.31 873.41C1677.3 873.41 1671.56 868.488 1671.56 856.242V819.387H1661.6V809.367H1671.56V793.312H1684.51V809.367H1698.16V819.387H1684.51V853.195C1684.51 860.051 1687.09 862.863 1693.36 862.863C1695.29 862.863 1696.4 862.805 1698.16 862.629V872.766C1696.11 873.117 1693.77 873.41 1691.31 873.41ZM1726.85 874.055C1714.72 874.055 1705.75 866.672 1705.75 855.129V855.012C1705.75 843.645 1714.31 837.023 1729.48 836.086L1746.71 835.09V829.465C1746.71 822.492 1742.32 818.625 1733.7 818.625C1726.67 818.625 1722.04 821.203 1720.52 825.715L1720.46 825.949H1708.21L1708.27 825.539C1709.8 815.109 1719.82 808.137 1734.29 808.137C1750.28 808.137 1759.31 816.105 1759.31 829.465V873H1746.71V863.977H1745.71C1741.96 870.422 1735.28 874.055 1726.85 874.055ZM1718.41 854.602C1718.41 860.461 1723.39 863.918 1730.25 863.918C1739.74 863.918 1746.71 857.707 1746.71 849.504V844.055L1731.18 845.051C1722.39 845.578 1718.41 848.742 1718.41 854.484V854.602ZM1796.78 874.23C1781.43 874.23 1771.7 867.023 1770.47 856.359V856.301H1783.19L1783.25 856.359C1784.83 861.164 1789.46 864.387 1797.02 864.387C1804.87 864.387 1810.32 860.812 1810.32 855.598V855.48C1810.32 851.496 1807.33 848.801 1799.95 847.102L1789.81 844.758C1777.8 842.004 1772.23 836.555 1772.23 827.238V827.18C1772.23 816.105 1782.54 808.137 1796.96 808.137C1811.49 808.137 1820.81 815.402 1821.92 825.773V825.832H1809.79V825.715C1808.56 821.262 1804.05 817.922 1796.9 817.922C1789.93 817.922 1784.89 821.379 1784.89 826.477V826.594C1784.89 830.578 1787.82 833.039 1794.97 834.738L1805.04 837.023C1817.29 839.895 1823.15 845.109 1823.15 854.309V854.426C1823.15 866.203 1811.9 874.23 1796.78 874.23ZM1835.31 873V784.406H1848.03V836.203H1848.96L1874.22 809.367H1889.1L1862.56 836.203L1890.86 873H1875.39L1853.48 844.406L1848.03 849.855V873H1835.31ZM1928.07 873V809.367H1940.79V819.152H1941.72C1944.54 812.18 1950.75 808.137 1959.07 808.137C1967.74 808.137 1973.89 812.648 1976.7 819.504H1977.7C1980.92 812.648 1988.25 808.137 1997.1 808.137C2009.93 808.137 2017.43 815.871 2017.43 829.113V873H2004.77V832.16C2004.77 823.371 2000.79 819.035 1992.47 819.035C1984.38 819.035 1979.05 825.07 1979.05 832.746V873H1966.39V830.871C1966.39 823.605 1961.65 819.035 1954.15 819.035C1946.47 819.035 1940.79 825.598 1940.79 833.918V873H1928.07ZM2049.04 874.055C2036.91 874.055 2027.95 866.672 2027.95 855.129V855.012C2027.95 843.645 2036.5 837.023 2051.68 836.086L2068.91 835.09V829.465C2068.91 822.492 2064.51 818.625 2055.9 818.625C2048.87 818.625 2044.24 821.203 2042.71 825.715L2042.66 825.949H2030.41L2030.47 825.539C2031.99 815.109 2042.01 808.137 2056.48 808.137C2072.48 808.137 2081.5 816.105 2081.5 829.465V873H2068.91V863.977H2067.91C2064.16 870.422 2057.48 874.055 2049.04 874.055ZM2040.6 854.602C2040.6 860.461 2045.59 863.918 2052.44 863.918C2061.93 863.918 2068.91 857.707 2068.91 849.504V844.055L2053.38 845.051C2044.59 845.578 2040.6 848.742 2040.6 854.484V854.602ZM2095.83 873V809.367H2108.55V819.035H2109.49C2112.59 812.238 2118.68 808.137 2127.94 808.137C2142.18 808.137 2150.03 816.633 2150.03 831.809V873H2137.38V834.797C2137.38 824.25 2132.98 819.035 2123.66 819.035C2114.35 819.035 2108.55 825.422 2108.55 835.676V873H2095.83ZM2181.65 874.055C2169.52 874.055 2160.55 866.672 2160.55 855.129V855.012C2160.55 843.645 2169.11 837.023 2184.28 836.086L2201.51 835.09V829.465C2201.51 822.492 2197.12 818.625 2188.5 818.625C2181.47 818.625 2176.84 821.203 2175.32 825.715L2175.26 825.949H2163.01L2163.07 825.539C2164.6 815.109 2174.62 808.137 2189.09 808.137C2205.08 808.137 2214.11 816.105 2214.11 829.465V873H2201.51V863.977H2200.51C2196.76 870.422 2190.08 874.055 2181.65 874.055ZM2173.21 854.602C2173.21 860.461 2178.19 863.918 2185.05 863.918C2194.54 863.918 2201.51 857.707 2201.51 849.504V844.055L2185.98 845.051C2177.19 845.578 2173.21 848.742 2173.21 854.484V854.602ZM2255.33 895.441C2239.16 895.441 2229.2 888.352 2227.68 877.746L2227.79 877.629H2240.62L2240.68 877.746C2241.74 882.141 2246.89 885.246 2255.51 885.246C2266 885.246 2272.21 880.324 2272.21 871.652V859.113H2271.27C2267.4 866.027 2260.37 869.895 2251.64 869.895C2235.29 869.895 2225.21 857.297 2225.21 839.367V839.25C2225.21 821.086 2235.35 808.254 2251.88 808.254C2260.78 808.254 2267.7 812.648 2271.39 819.797H2272.15V809.367H2284.8V871.711C2284.8 886.184 2273.38 895.441 2255.33 895.441ZM2255.16 859.406C2265.94 859.406 2272.44 851.203 2272.44 839.309V839.191C2272.44 827.355 2265.88 819.035 2255.16 819.035C2244.32 819.035 2238.22 827.355 2238.22 839.191V839.309C2238.22 851.145 2244.32 859.406 2255.16 859.406ZM2326.2 874.23C2307.57 874.23 2296.32 861.516 2296.32 841.359V841.301C2296.32 821.438 2307.81 808.137 2325.56 808.137C2343.31 808.137 2354.21 820.969 2354.21 840.07V844.523H2309.1C2309.33 856.711 2316.01 863.801 2326.5 863.801C2334.64 863.801 2339.51 859.758 2341.03 856.477L2341.26 856.008L2353.51 855.949L2353.39 856.477C2351.28 864.855 2342.49 874.23 2326.2 874.23ZM2325.62 818.566C2316.95 818.566 2310.38 824.484 2309.27 835.441H2341.61C2340.62 824.074 2334.23 818.566 2325.62 818.566ZM2365.73 873V809.367H2378.44V818.977H2379.38C2381.67 812.238 2387.59 808.254 2396.08 808.254C2398.13 808.254 2400.36 808.547 2401.65 808.84V820.559C2399.36 820.09 2397.19 819.797 2394.79 819.797C2385.07 819.797 2378.44 825.773 2378.44 834.973V873H2365.73ZM2446.01 798C2441.62 798 2438.04 794.426 2438.04 790.09C2438.04 785.695 2441.62 782.121 2446.01 782.121C2450.35 782.121 2453.98 785.695 2453.98 790.09C2453.98 794.426 2450.35 798 2446.01 798ZM2439.62 873V809.367H2452.28V873H2439.62ZM2467.2 873V809.367H2479.91V819.035H2480.85C2483.95 812.238 2490.05 808.137 2499.3 808.137C2513.54 808.137 2521.39 816.633 2521.39 831.809V873H2508.74V834.797C2508.74 824.25 2504.34 819.035 2495.03 819.035C2485.71 819.035 2479.91 825.422 2479.91 835.676V873H2467.2ZM2587.67 873V799.758H2561.07V788.449H2627.34V799.758H2600.8V873H2587.67ZM2653.62 874.23C2634.99 874.23 2623.74 861.516 2623.74 841.359V841.301C2623.74 821.438 2635.22 808.137 2652.98 808.137C2670.73 808.137 2681.63 820.969 2681.63 840.07V844.523H2636.51C2636.75 856.711 2643.43 863.801 2653.91 863.801C2662.06 863.801 2666.92 859.758 2668.45 856.477L2668.68 856.008L2680.93 855.949L2680.81 856.477C2678.7 864.855 2669.91 874.23 2653.62 874.23ZM2653.04 818.566C2644.36 818.566 2637.8 824.484 2636.69 835.441H2669.03C2668.04 824.074 2661.65 818.566 2653.04 818.566ZM2693.73 873V784.406H2706.45V873H2693.73ZM2748.49 874.23C2729.86 874.23 2718.61 861.516 2718.61 841.359V841.301C2718.61 821.438 2730.09 808.137 2747.85 808.137C2765.6 808.137 2776.5 820.969 2776.5 840.07V844.523H2731.38C2731.62 856.711 2738.3 863.801 2748.79 863.801C2756.93 863.801 2761.79 859.758 2763.32 856.477L2763.55 856.008L2775.8 855.949L2775.68 856.477C2773.57 864.855 2764.78 874.23 2748.49 874.23ZM2747.91 818.566C2739.23 818.566 2732.67 824.484 2731.56 835.441H2763.9C2762.91 824.074 2756.52 818.566 2747.91 818.566ZM2814.91 895.441C2798.74 895.441 2788.78 888.352 2787.26 877.746L2787.37 877.629H2800.2L2800.26 877.746C2801.32 882.141 2806.47 885.246 2815.09 885.246C2825.58 885.246 2831.79 880.324 2831.79 871.652V859.113H2830.85C2826.98 866.027 2819.95 869.895 2811.22 869.895C2794.87 869.895 2784.79 857.297 2784.79 839.367V839.25C2784.79 821.086 2794.93 808.254 2811.45 808.254C2820.36 808.254 2827.28 812.648 2830.97 819.797H2831.73V809.367H2844.38V871.711C2844.38 886.184 2832.96 895.441 2814.91 895.441ZM2814.74 859.406C2825.52 859.406 2832.02 851.203 2832.02 839.309V839.191C2832.02 827.355 2825.46 819.035 2814.74 819.035C2803.9 819.035 2797.8 827.355 2797.8 839.191V839.309C2797.8 851.145 2803.9 859.406 2814.74 859.406ZM2859.07 873V809.367H2871.78V818.977H2872.72C2875 812.238 2880.92 808.254 2889.42 808.254C2891.47 808.254 2893.69 808.547 2894.98 808.84V820.559C2892.7 820.09 2890.53 819.797 2888.13 819.797C2878.4 819.797 2871.78 825.773 2871.78 834.973V873H2859.07ZM2920.5 874.055C2908.38 874.055 2899.41 866.672 2899.41 855.129V855.012C2899.41 843.645 2907.97 837.023 2923.14 836.086L2940.37 835.09V829.465C2940.37 822.492 2935.97 818.625 2927.36 818.625C2920.33 818.625 2915.7 821.203 2914.18 825.715L2914.12 825.949H2901.87L2901.93 825.539C2903.45 815.109 2913.47 808.137 2927.95 808.137C2943.94 808.137 2952.97 816.105 2952.97 829.465V873H2940.37V863.977H2939.37C2935.62 870.422 2928.94 874.055 2920.5 874.055ZM2912.07 854.602C2912.07 860.461 2917.05 863.918 2923.9 863.918C2933.4 863.918 2940.37 857.707 2940.37 849.504V844.055L2924.84 845.051C2916.05 845.578 2912.07 848.742 2912.07 854.484V854.602ZM2967.3 873V809.367H2980.01V819.152H2980.95C2983.76 812.18 2989.97 808.137 2998.29 808.137C3006.96 808.137 3013.12 812.648 3015.93 819.504H3016.92C3020.15 812.648 3027.47 808.137 3036.32 808.137C3049.15 808.137 3056.65 815.871 3056.65 829.113V873H3043.99V832.16C3043.99 823.371 3040.01 819.035 3031.69 819.035C3023.6 819.035 3018.27 825.07 3018.27 832.746V873H3005.62V830.871C3005.62 823.605 3000.87 819.035 2993.37 819.035C2985.69 819.035 2980.01 825.598 2980.01 833.918V873H2967.3Z" fill="white"/>
</g>
<path fill-rule="evenodd" clip-rule="evenodd" d="M277.334 1255C277.334 1249.11 282.11 1244.33 288.001 1244.33H320.001C325.892 1244.33 330.667 1249.11 330.667 1255C330.667 1260.89 325.892 1265.67 320.001 1265.67H288.001C282.11 1265.67 277.334 1260.89 277.334 1255Z" fill="white"/>
<path fill-rule="evenodd" clip-rule="evenodd" d="M384.001 1148.33C389.892 1148.33 394.667 1153.11 394.667 1159V1191C394.667 1196.89 389.892 1201.67 384.001 1201.67C378.11 1201.67 373.334 1196.89 373.334 1191V1159C373.334 1153.11 378.11 1148.33 384.001 1148.33Z" fill="white"/>
<path fill-rule="evenodd" clip-rule="evenodd" d="M308.191 1179.19C312.356 1175.03 319.11 1175.03 323.276 1179.19L346.742 1202.66C350.908 1206.82 350.908 1213.58 346.742 1217.74C342.577 1221.91 335.823 1221.91 331.657 1217.74L308.191 1194.28C304.025 1190.11 304.025 1183.36 308.191 1179.19Z" fill="white"/>
<path fill-rule="evenodd" clip-rule="evenodd" d="M459.809 1179.19C463.974 1183.36 463.974 1190.11 459.809 1194.28L436.342 1217.74C432.176 1221.91 425.423 1221.91 421.257 1217.74C417.091 1213.58 417.091 1206.82 421.257 1202.66L444.724 1179.19C448.889 1175.03 455.643 1175.03 459.809 1179.19Z" fill="white"/>
<path fill-rule="evenodd" clip-rule="evenodd" d="M346.742 1292.26C350.908 1296.42 350.908 1303.18 346.742 1307.34L323.276 1330.81C319.11 1334.97 312.356 1334.97 308.191 1330.81C304.025 1326.64 304.025 1319.89 308.191 1315.72L331.657 1292.26C335.823 1288.09 342.577 1288.09 346.742 1292.26Z" fill="white"/>
<path fill-rule="evenodd" clip-rule="evenodd" d="M376.458 1247.46C379.315 1244.6 383.541 1243.6 387.374 1244.88L483.374 1276.88C487.467 1278.25 490.335 1281.94 490.641 1286.24C490.947 1290.55 488.63 1294.61 484.771 1296.54L445.285 1316.28L425.542 1355.77C423.612 1359.63 419.548 1361.95 415.245 1361.64C410.941 1361.33 407.246 1358.47 405.882 1354.37L373.882 1258.37C372.604 1254.54 373.602 1250.31 376.458 1247.46ZM400.866 1271.87L417.977 1323.2L427.794 1303.56C428.826 1301.5 430.5 1299.82 432.564 1298.79L452.198 1288.98L400.866 1271.87Z" fill="white"/>
<path d="M590.347 1328V1182.55H683.528V1204.63H616.696V1244.12H677.136V1266.21H616.696V1328H590.347ZM698.835 1328V1218.91H723.764V1237.09H724.901C726.889 1230.79 730.298 1225.94 735.128 1222.53C740.005 1219.07 745.568 1217.35 751.818 1217.35C753.239 1217.35 754.825 1217.42 756.577 1217.56C758.376 1217.65 759.867 1217.82 761.051 1218.06V1241.71C759.962 1241.33 758.234 1241 755.866 1240.71C753.546 1240.38 751.297 1240.22 749.119 1240.22C744.432 1240.22 740.218 1241.23 736.477 1243.27C732.784 1245.26 729.872 1248.03 727.741 1251.58C725.611 1255.13 724.545 1259.23 724.545 1263.87V1328H698.835ZM815.225 1330.13C804.572 1330.13 795.339 1327.79 787.526 1323.1C779.714 1318.41 773.653 1311.85 769.344 1303.43C765.083 1295 762.952 1285.15 762.952 1273.88C762.952 1262.61 765.083 1252.74 769.344 1244.26C773.653 1235.79 779.714 1229.21 787.526 1224.52C795.339 1219.83 804.572 1217.49 815.225 1217.49C825.879 1217.49 835.112 1219.83 842.924 1224.52C850.737 1229.21 856.773 1235.79 861.035 1244.26C865.344 1252.74 867.498 1262.61 867.498 1273.88C867.498 1285.15 865.344 1295 861.035 1303.43C856.773 1311.85 850.737 1318.41 842.924 1323.1C835.112 1327.79 825.879 1330.13 815.225 1330.13ZM815.367 1309.53C821.144 1309.53 825.973 1307.95 829.856 1304.78C833.738 1301.56 836.627 1297.25 838.521 1291.85C840.462 1286.45 841.433 1280.44 841.433 1273.81C841.433 1267.13 840.462 1261.1 838.521 1255.7C836.627 1250.25 833.738 1245.92 829.856 1242.7C825.973 1239.48 821.144 1237.87 815.367 1237.87C809.449 1237.87 804.524 1239.48 800.594 1242.7C796.712 1245.92 793.8 1250.25 791.859 1255.7C789.965 1261.1 789.018 1267.13 789.018 1273.81C789.018 1280.44 789.965 1286.45 791.859 1291.85C793.8 1297.25 796.712 1301.56 800.594 1304.78C804.524 1307.95 809.449 1309.53 815.367 1309.53ZM909.03 1264.08V1328H883.32V1218.91H907.893V1237.45H909.172C911.681 1231.34 915.682 1226.48 921.175 1222.89C926.714 1219.29 933.556 1217.49 941.7 1217.49C949.229 1217.49 955.786 1219.1 961.374 1222.32C967.008 1225.54 971.364 1230.2 974.442 1236.31C977.567 1242.42 979.106 1249.83 979.058 1258.54V1328H953.348V1262.52C953.348 1255.23 951.454 1249.52 947.666 1245.4C943.926 1241.28 938.741 1239.22 932.112 1239.22C927.614 1239.22 923.613 1240.22 920.109 1242.2C916.653 1244.15 913.93 1246.96 911.942 1250.66C910 1254.35 909.03 1258.82 909.03 1264.08ZM1053.67 1218.91V1238.8H990.956V1218.91H1053.67ZM1006.44 1192.77H1032.15V1295.19C1032.15 1298.64 1032.67 1301.3 1033.71 1303.14C1034.8 1304.94 1036.22 1306.17 1037.97 1306.84C1039.72 1307.5 1041.67 1307.83 1043.8 1307.83C1045.41 1307.83 1046.87 1307.71 1048.2 1307.47C1049.57 1307.24 1050.62 1307.02 1051.33 1306.84L1055.66 1326.93C1054.28 1327.41 1052.32 1327.93 1049.76 1328.5C1047.25 1329.07 1044.18 1329.4 1040.53 1329.49C1034.09 1329.68 1028.29 1328.71 1023.13 1326.58C1017.97 1324.4 1013.87 1321.04 1010.84 1316.49C1007.86 1311.95 1006.39 1306.27 1006.44 1299.45V1192.77ZM1131.78 1256.84V1278H1066.29V1256.84H1131.78ZM1153.96 1328V1182.55H1248.56V1204.63H1180.31V1244.12H1243.66V1266.21H1180.31V1305.91H1249.13V1328H1153.96ZM1294.01 1264.08V1328H1268.3V1218.91H1292.88V1237.45H1294.16C1296.67 1231.34 1300.67 1226.48 1306.16 1222.89C1311.7 1219.29 1318.54 1217.49 1326.68 1217.49C1334.21 1217.49 1340.77 1219.1 1346.36 1222.32C1351.99 1225.54 1356.35 1230.2 1359.43 1236.31C1362.55 1242.42 1364.09 1249.83 1364.04 1258.54V1328H1338.33V1262.52C1338.33 1255.23 1336.44 1249.52 1332.65 1245.4C1328.91 1241.28 1323.73 1239.22 1317.1 1239.22C1312.6 1239.22 1308.6 1240.22 1305.09 1242.2C1301.64 1244.15 1298.91 1246.96 1296.93 1250.66C1294.98 1254.35 1294.01 1258.82 1294.01 1264.08ZM1424.66 1329.92C1416.09 1329.92 1408.42 1327.72 1401.65 1323.31C1394.88 1318.91 1389.53 1312.52 1385.6 1304.14C1381.67 1295.76 1379.7 1285.58 1379.7 1273.6C1379.7 1261.48 1381.69 1251.25 1385.67 1242.91C1389.7 1234.53 1395.12 1228.21 1401.93 1223.95C1408.75 1219.64 1416.35 1217.49 1424.73 1217.49C1431.13 1217.49 1436.38 1218.58 1440.5 1220.76C1444.62 1222.89 1447.89 1225.47 1450.3 1228.5C1452.72 1231.48 1454.59 1234.3 1455.91 1236.95H1456.98V1182.55H1482.76V1328H1457.47V1310.81H1455.91C1454.59 1313.46 1452.67 1316.28 1450.16 1319.26C1447.65 1322.2 1444.34 1324.71 1440.22 1326.79C1436.1 1328.88 1430.91 1329.92 1424.66 1329.92ZM1431.84 1308.82C1437.28 1308.82 1441.92 1307.36 1445.76 1304.42C1449.59 1301.44 1452.5 1297.29 1454.49 1291.99C1456.48 1286.69 1457.47 1280.51 1457.47 1273.45C1457.47 1266.4 1456.48 1260.27 1454.49 1255.06C1452.55 1249.85 1449.66 1245.8 1445.83 1242.91C1442.04 1240.03 1437.38 1238.58 1431.84 1238.58C1426.11 1238.58 1421.32 1240.07 1417.49 1243.06C1413.65 1246.04 1410.77 1250.16 1408.82 1255.41C1406.88 1260.67 1405.91 1266.68 1405.91 1273.45C1405.91 1280.27 1406.88 1286.36 1408.82 1291.71C1410.81 1297.01 1413.72 1301.2 1417.56 1304.28C1421.44 1307.31 1426.2 1308.82 1431.84 1308.82ZM1547.76 1328V1218.91H1572.34V1237.45H1573.62C1575.89 1231.2 1579.65 1226.32 1584.91 1222.82C1590.17 1219.26 1596.44 1217.49 1603.73 1217.49C1611.12 1217.49 1617.34 1219.29 1622.41 1222.89C1627.52 1226.44 1631.12 1231.29 1633.21 1237.45H1634.34C1636.76 1231.39 1640.83 1226.56 1646.56 1222.96C1652.33 1219.31 1659.18 1217.49 1667.08 1217.49C1677.12 1217.49 1685.31 1220.66 1691.66 1227.01C1698 1233.35 1701.17 1242.61 1701.17 1254.78V1328H1675.39V1258.75C1675.39 1251.98 1673.59 1247.03 1670 1243.91C1666.4 1240.74 1661.99 1239.15 1656.78 1239.15C1650.58 1239.15 1645.73 1241.09 1642.23 1244.97C1638.77 1248.81 1637.04 1253.8 1637.04 1259.96V1328H1611.83V1257.69C1611.83 1252.05 1610.12 1247.55 1606.71 1244.19C1603.35 1240.83 1598.95 1239.15 1593.5 1239.15C1589.81 1239.15 1586.45 1240.1 1583.42 1241.99C1580.39 1243.84 1577.97 1246.47 1576.17 1249.88C1574.37 1253.24 1573.48 1257.17 1573.48 1261.66V1328H1547.76ZM1768.84 1330.13C1758.19 1330.13 1748.96 1327.79 1741.14 1323.1C1733.33 1318.41 1727.27 1311.85 1722.96 1303.43C1718.7 1295 1716.57 1285.15 1716.57 1273.88C1716.57 1262.61 1718.7 1252.74 1722.96 1244.26C1727.27 1235.79 1733.33 1229.21 1741.14 1224.52C1748.96 1219.83 1758.19 1217.49 1768.84 1217.49C1779.5 1217.49 1788.73 1219.83 1796.54 1224.52C1804.35 1229.21 1810.39 1235.79 1814.65 1244.26C1818.96 1252.74 1821.12 1262.61 1821.12 1273.88C1821.12 1285.15 1818.96 1295 1814.65 1303.43C1810.39 1311.85 1804.35 1318.41 1796.54 1323.1C1788.73 1327.79 1779.5 1330.13 1768.84 1330.13ZM1768.98 1309.53C1774.76 1309.53 1779.59 1307.95 1783.47 1304.78C1787.36 1301.56 1790.24 1297.25 1792.14 1291.85C1794.08 1286.45 1795.05 1280.44 1795.05 1273.81C1795.05 1267.13 1794.08 1261.1 1792.14 1255.7C1790.24 1250.25 1787.36 1245.92 1783.47 1242.7C1779.59 1239.48 1774.76 1237.87 1768.98 1237.87C1763.07 1237.87 1758.14 1239.48 1754.21 1242.7C1750.33 1245.92 1747.42 1250.25 1745.48 1255.7C1743.58 1261.1 1742.63 1267.13 1742.63 1273.81C1742.63 1280.44 1743.58 1286.45 1745.48 1291.85C1747.42 1297.25 1750.33 1301.56 1754.21 1304.78C1758.14 1307.95 1763.07 1309.53 1768.98 1309.53ZM1862.65 1264.08V1328H1836.94V1218.91H1861.51V1237.45H1862.79C1865.3 1231.34 1869.3 1226.48 1874.79 1222.89C1880.33 1219.29 1887.17 1217.49 1895.32 1217.49C1902.85 1217.49 1909.4 1219.1 1914.99 1222.32C1920.63 1225.54 1924.98 1230.2 1928.06 1236.31C1931.18 1242.42 1932.72 1249.83 1932.68 1258.54V1328H1906.97V1262.52C1906.97 1255.23 1905.07 1249.52 1901.28 1245.4C1897.54 1241.28 1892.36 1239.22 1885.73 1239.22C1881.23 1239.22 1877.23 1240.22 1873.73 1242.2C1870.27 1244.15 1867.55 1246.96 1865.56 1250.66C1863.62 1254.35 1862.65 1258.82 1862.65 1264.08ZM2000.4 1330.13C1989.74 1330.13 1980.51 1327.79 1972.7 1323.1C1964.89 1318.41 1958.83 1311.85 1954.52 1303.43C1950.25 1295 1948.12 1285.15 1948.12 1273.88C1948.12 1262.61 1950.25 1252.74 1954.52 1244.26C1958.83 1235.79 1964.89 1229.21 1972.7 1224.52C1980.51 1219.83 1989.74 1217.49 2000.4 1217.49C2011.05 1217.49 2020.28 1219.83 2028.1 1224.52C2035.91 1229.21 2041.95 1235.79 2046.21 1244.26C2050.52 1252.74 2052.67 1262.61 2052.67 1273.88C2052.67 1285.15 2050.52 1295 2046.21 1303.43C2041.95 1311.85 2035.91 1318.41 2028.1 1323.1C2020.28 1327.79 2011.05 1330.13 2000.4 1330.13ZM2000.54 1309.53C2006.32 1309.53 2011.15 1307.95 2015.03 1304.78C2018.91 1301.56 2021.8 1297.25 2023.69 1291.85C2025.63 1286.45 2026.6 1280.44 2026.6 1273.81C2026.6 1267.13 2025.63 1261.1 2023.69 1255.7C2021.8 1250.25 2018.91 1245.92 2015.03 1242.7C2011.15 1239.48 2006.32 1237.87 2000.54 1237.87C1994.62 1237.87 1989.7 1239.48 1985.77 1242.7C1981.88 1245.92 1978.97 1250.25 1977.03 1255.7C1975.14 1261.1 1974.19 1267.13 1974.19 1273.81C1974.19 1280.44 1975.14 1286.45 1977.03 1291.85C1978.97 1297.25 1981.88 1301.56 1985.77 1304.78C1989.7 1307.95 1994.62 1309.53 2000.54 1309.53ZM2068.49 1328V1218.91H2093.42V1237.09H2094.56C2096.55 1230.79 2099.95 1225.94 2104.78 1222.53C2109.66 1219.07 2115.22 1217.35 2121.47 1217.35C2122.89 1217.35 2124.48 1217.42 2126.23 1217.56C2128.03 1217.65 2129.52 1217.82 2130.71 1218.06V1241.71C2129.62 1241.33 2127.89 1241 2125.52 1240.71C2123.2 1240.38 2120.95 1240.22 2118.78 1240.22C2114.09 1240.22 2109.87 1241.23 2106.13 1243.27C2102.44 1245.26 2099.53 1248.03 2097.4 1251.58C2095.27 1255.13 2094.2 1259.23 2094.2 1263.87V1328H2068.49ZM2185.59 1330.13C2174.65 1330.13 2165.21 1327.86 2157.25 1323.31C2149.35 1318.72 2143.26 1312.23 2139 1303.85C2134.74 1295.42 2132.61 1285.5 2132.61 1274.09C2132.61 1262.87 2134.74 1253.02 2139 1244.55C2143.31 1236.03 2149.32 1229.4 2157.04 1224.66C2164.76 1219.88 2173.83 1217.49 2184.24 1217.49C2190.97 1217.49 2197.31 1218.58 2203.28 1220.76C2209.29 1222.89 2214.59 1226.2 2219.19 1230.7C2223.83 1235.2 2227.47 1240.93 2230.12 1247.89C2232.77 1254.8 2234.1 1263.04 2234.1 1272.6V1280.49H2144.68V1263.16H2209.46C2209.41 1258.23 2208.34 1253.85 2206.26 1250.02C2204.18 1246.13 2201.26 1243.08 2197.52 1240.86C2193.83 1238.63 2189.52 1237.52 2184.6 1237.52C2179.34 1237.52 2174.73 1238.8 2170.75 1241.35C2166.77 1243.86 2163.67 1247.18 2161.44 1251.3C2159.27 1255.37 2158.15 1259.84 2158.11 1264.72V1279.85C2158.11 1286.19 2159.27 1291.64 2161.59 1296.18C2163.91 1300.68 2167.15 1304.14 2171.32 1306.55C2175.48 1308.92 2180.36 1310.1 2185.95 1310.1C2189.69 1310.1 2193.07 1309.58 2196.1 1308.54C2199.13 1307.45 2201.76 1305.86 2203.99 1303.78C2206.21 1301.7 2207.89 1299.12 2209.03 1296.04L2233.03 1298.74C2231.52 1305.08 2228.63 1310.62 2224.37 1315.36C2220.16 1320.05 2214.76 1323.69 2208.18 1326.3C2201.6 1328.85 2194.07 1330.13 2185.59 1330.13ZM2249.85 1368.91V1218.91H2275.13V1236.95H2276.63C2277.95 1234.3 2279.82 1231.48 2282.24 1228.5C2284.65 1225.47 2287.92 1222.89 2292.04 1220.76C2296.16 1218.58 2301.41 1217.49 2307.81 1217.49C2316.23 1217.49 2323.83 1219.64 2330.6 1223.95C2337.42 1228.21 2342.82 1234.53 2346.8 1242.91C2350.82 1251.25 2352.83 1261.48 2352.83 1273.6C2352.83 1285.58 2350.87 1295.76 2346.94 1304.14C2343.01 1312.52 2337.66 1318.91 2330.89 1323.31C2324.12 1327.72 2316.45 1329.92 2307.88 1329.92C2301.63 1329.92 2296.44 1328.88 2292.32 1326.79C2288.2 1324.71 2284.89 1322.2 2282.38 1319.26C2279.92 1316.28 2278 1313.46 2276.63 1310.81H2275.56V1368.91H2249.85ZM2275.06 1273.45C2275.06 1280.51 2276.06 1286.69 2278.05 1291.99C2280.08 1297.29 2282.99 1301.44 2286.78 1304.42C2290.62 1307.36 2295.26 1308.82 2300.7 1308.82C2306.38 1308.82 2311.14 1307.31 2314.98 1304.28C2318.81 1301.2 2321.7 1297.01 2323.64 1291.71C2325.63 1286.36 2326.63 1280.27 2326.63 1273.45C2326.63 1266.68 2325.66 1260.67 2323.71 1255.41C2321.77 1250.16 2318.88 1246.04 2315.05 1243.06C2311.21 1240.07 2306.43 1238.58 2300.7 1238.58C2295.21 1238.58 2290.55 1240.03 2286.71 1242.91C2282.88 1245.8 2279.96 1249.85 2277.98 1255.06C2276.03 1260.27 2275.06 1266.4 2275.06 1273.45ZM2416.44 1330.13C2405.78 1330.13 2396.55 1327.79 2388.74 1323.1C2380.92 1318.41 2374.86 1311.85 2370.56 1303.43C2366.29 1295 2364.16 1285.15 2364.16 1273.88C2364.16 1262.61 2366.29 1252.74 2370.56 1244.26C2374.86 1235.79 2380.92 1229.21 2388.74 1224.52C2396.55 1219.83 2405.78 1217.49 2416.44 1217.49C2427.09 1217.49 2436.32 1219.83 2444.13 1224.52C2451.95 1229.21 2457.98 1235.79 2462.25 1244.26C2466.55 1252.74 2468.71 1262.61 2468.71 1273.88C2468.71 1285.15 2466.55 1295 2462.25 1303.43C2457.98 1311.85 2451.95 1318.41 2444.13 1323.1C2436.32 1327.79 2427.09 1330.13 2416.44 1330.13ZM2416.58 1309.53C2422.35 1309.53 2427.18 1307.95 2431.07 1304.78C2434.95 1301.56 2437.84 1297.25 2439.73 1291.85C2441.67 1286.45 2442.64 1280.44 2442.64 1273.81C2442.64 1267.13 2441.67 1261.1 2439.73 1255.7C2437.84 1250.25 2434.95 1245.92 2431.07 1242.7C2427.18 1239.48 2422.35 1237.87 2416.58 1237.87C2410.66 1237.87 2405.74 1239.48 2401.81 1242.7C2397.92 1245.92 2395.01 1250.25 2393.07 1255.7C2391.18 1261.1 2390.23 1267.13 2390.23 1273.81C2390.23 1280.44 2391.18 1286.45 2393.07 1291.85C2395.01 1297.25 2397.92 1301.56 2401.81 1304.78C2405.74 1307.95 2410.66 1309.53 2416.58 1309.53Z" fill="white"/>
<path d="M3898.59 474.5L3898.59 1036.5" stroke="white" stroke-width="28" stroke-linecap="round"/>
<path d="M5249.83 125.57C5244.07 125.57 5238.55 127.859 5234.47 131.932C5230.4 136.006 5228.11 141.531 5228.11 147.291C5228.11 153.052 5230.4 158.577 5234.47 162.651C5238.55 166.724 5244.07 169.013 5249.83 169.013H5271.55V125.57H5249.83Z" fill="white"/>
<path d="M5271.55 125.57H5314.99V169.013H5271.55V125.57Z" fill="white"/>
<path d="M5314.99 125.57H5358.44V169.013H5314.99V125.57Z" fill="white"/>
<path d="M5358.44 125.57H5401.88V169.013H5358.44V125.57Z" fill="white"/>
<path d="M5423.6 125.57C5429.36 125.57 5434.89 127.859 5438.96 131.932C5443.03 136.006 5445.32 141.531 5445.32 147.291C5445.32 153.052 5443.03 158.577 5438.96 162.651C5434.89 166.724 5429.36 169.013 5423.6 169.013H5401.88V125.57H5423.6Z" fill="white"/>
<path d="M5597.37 125.57C5591.61 125.57 5586.08 127.859 5582.01 131.932C5577.94 136.006 5575.65 141.531 5575.65 147.291C5575.65 153.052 5577.94 158.577 5582.01 162.651C5586.08 166.724 5591.61 169.013 5597.37 169.013H5619.09V125.57H5597.37Z" fill="white"/>
<path d="M5640.81 125.57C5646.57 125.57 5652.1 127.859 5656.17 131.932C5660.25 136.006 5662.53 141.531 5662.53 147.291C5662.53 153.052 5660.25 158.577 5656.17 162.651C5652.1 166.724 5646.57 169.013 5640.81 169.013H5619.09V125.57H5640.81Z" fill="white"/>
<path d="M5206.39 169.013C5212.15 169.013 5217.67 171.301 5221.75 175.375C5225.82 179.448 5228.11 184.973 5228.11 190.734C5228.11 196.495 5225.82 202.019 5221.75 206.093C5217.67 210.167 5212.15 212.455 5206.39 212.455C5200.63 212.455 5195.1 210.167 5191.03 206.093C5186.96 202.019 5184.67 196.495 5184.67 190.734C5184.67 184.973 5186.96 179.448 5191.03 175.375C5195.1 171.301 5200.63 169.013 5206.39 169.013Z" fill="white"/>
<path d="M5271.55 169.013C5271.55 180.534 5276.13 191.584 5284.28 199.731C5292.42 207.878 5303.47 212.455 5314.99 212.455V169.013H5271.55Z" fill="white"/>
<path d="M5314.99 169.013H5358.44V212.455H5314.99V169.013Z" fill="white"/>
<path d="M5358.44 169.013H5401.88V212.455H5358.44V169.013Z" fill="white"/>
<path d="M5510.49 169.013C5516.25 169.013 5521.77 171.301 5525.84 175.375C5529.92 179.448 5532.21 184.973 5532.21 190.734C5532.21 196.495 5529.92 202.019 5525.84 206.093C5521.77 210.167 5516.25 212.455 5510.49 212.455C5504.72 212.455 5499.2 210.167 5495.13 206.093C5491.05 202.019 5488.76 196.495 5488.76 190.734C5488.76 184.973 5491.05 179.448 5495.13 175.375C5499.2 171.301 5504.72 169.013 5510.49 169.013Z" fill="white"/>
<path d="M5662.53 190.734C5662.53 184.973 5664.82 179.448 5668.9 175.375C5672.97 171.301 5678.49 169.013 5684.26 169.013C5690.02 169.013 5695.54 171.301 5699.61 175.375C5703.69 179.448 5705.98 184.973 5705.98 190.734V212.455H5662.53V190.734Z" fill="white"/>
<path d="M5141.23 234.176C5141.23 228.415 5143.51 222.891 5147.59 218.817C5151.66 214.743 5157.19 212.455 5162.95 212.455C5168.71 212.455 5174.23 214.743 5178.31 218.817C5182.38 222.891 5184.67 228.415 5184.67 234.176V255.897H5141.23V234.176Z" fill="white"/>
<path d="M5314.99 212.455C5314.99 223.977 5319.57 235.026 5327.72 243.173C5335.87 251.32 5346.92 255.897 5358.44 255.897V212.455H5314.99Z" fill="white"/>
<path d="M5358.44 212.455H5401.88V255.897H5358.44V212.455Z" fill="white"/>
<path d="M5445.32 234.176C5445.32 228.415 5447.61 222.891 5451.68 218.817C5455.76 214.743 5461.28 212.455 5467.04 212.455C5472.8 212.455 5478.33 214.743 5482.4 218.817C5486.48 222.891 5488.76 228.415 5488.76 234.176V255.897H5445.32V234.176Z" fill="white"/>
<path d="M5662.53 212.455H5705.98V255.897H5662.53V212.455Z" fill="white"/>
<path d="M5141.23 277.619C5141.23 283.379 5143.51 288.904 5147.59 292.978C5151.66 297.051 5157.19 299.34 5162.95 299.34C5168.71 299.34 5174.23 297.051 5178.31 292.978C5182.38 288.904 5184.67 283.379 5184.67 277.619V255.897H5141.23V277.619Z" fill="white"/>
<path d="M5228.11 299.34C5228.11 287.818 5232.69 276.768 5240.83 268.621C5248.98 260.474 5260.03 255.897 5271.55 255.897V299.34H5228.11Z" fill="white"/>
<path d="M5293.27 255.897C5299.03 255.897 5304.56 258.186 5308.63 262.259C5312.71 266.333 5314.99 271.858 5314.99 277.619C5314.99 283.379 5312.71 288.904 5308.63 292.978C5304.56 297.051 5299.03 299.34 5293.27 299.34H5271.55V255.897H5293.27Z" fill="white"/>
<path d="M5358.44 277.619C5358.44 283.379 5360.73 288.904 5364.8 292.978C5368.87 297.051 5374.4 299.34 5380.16 299.34C5385.92 299.34 5391.44 297.051 5395.52 292.978C5399.59 288.904 5401.88 283.379 5401.88 277.619V255.897H5358.44V277.619Z" fill="white"/>
<path d="M5445.32 255.897C5445.32 267.419 5449.9 278.469 5458.05 286.616C5466.19 294.763 5477.24 299.34 5488.76 299.34V255.897H5445.32Z" fill="white"/>
<path d="M5488.76 255.897H5532.21V299.34H5488.76V255.897Z" fill="white"/>
<path d="M5532.21 255.897C5543.73 255.897 5554.78 260.474 5562.93 268.621C5571.07 276.768 5575.65 287.818 5575.65 299.34H5532.21V255.897Z" fill="white"/>
<path d="M5619.09 299.34C5619.09 287.818 5623.67 276.768 5631.82 268.621C5639.96 260.474 5651.01 255.897 5662.53 255.897V299.34H5619.09Z" fill="white"/>
<path d="M5662.53 299.34C5674.06 299.34 5685.11 294.763 5693.25 286.616C5701.4 278.469 5705.98 267.419 5705.98 255.897H5662.53V299.34Z" fill="white"/>
<path d="M5228.11 299.34H5271.55V342.782H5228.11V299.34Z" fill="white"/>
<path d="M5314.99 321.061C5314.99 315.3 5317.28 309.775 5321.36 305.702C5325.43 301.628 5330.96 299.34 5336.72 299.34C5342.48 299.34 5348 301.628 5352.08 305.702C5356.15 309.775 5358.44 315.3 5358.44 321.061V342.782H5314.99V321.061Z" fill="white"/>
<path d="M5488.76 299.34C5488.76 310.861 5493.34 321.911 5501.49 330.058C5509.64 338.205 5520.69 342.782 5532.21 342.782V299.34H5488.76Z" fill="white"/>
<path d="M5532.21 299.34H5575.65V342.782H5532.21V299.34Z" fill="white"/>
<path d="M5575.65 299.34H5619.09V342.782H5575.65V299.34Z" fill="white"/>
<path d="M5619.09 342.782C5630.61 342.782 5641.66 338.205 5649.81 330.058C5657.96 321.911 5662.53 310.861 5662.53 299.34H5619.09V342.782Z" fill="white"/>
<path d="M5206.39 342.782C5200.63 342.782 5195.1 345.071 5191.03 349.144C5186.96 353.218 5184.67 358.743 5184.67 364.503C5184.67 370.264 5186.96 375.789 5191.03 379.863C5195.1 383.936 5200.63 386.225 5206.39 386.225H5228.11V342.782H5206.39Z" fill="white"/>
<path d="M5228.11 342.782H5271.55V386.225H5228.11V342.782Z" fill="white"/>
<path d="M5271.55 342.782H5314.99V386.225H5271.55V342.782Z" fill="white"/>
<path d="M5314.99 342.782H5358.44V386.225H5314.99V342.782Z" fill="white"/>
<path d="M5358.44 342.782H5401.88V386.225H5358.44V342.782Z" fill="white"/>
<path d="M5401.88 342.782H5445.32V386.225H5401.88V342.782Z" fill="white"/>
<path d="M5467.04 342.782C5472.8 342.782 5478.33 345.071 5482.4 349.144C5486.48 353.218 5488.76 358.743 5488.76 364.503C5488.76 370.264 5486.48 375.789 5482.4 379.863C5478.33 383.936 5472.8 386.225 5467.04 386.225H5445.32V342.782H5467.04Z" fill="white"/>
<path d="M5532.21 342.782C5532.21 354.304 5536.78 365.354 5544.93 373.501C5553.08 381.648 5564.13 386.225 5575.65 386.225V342.782H5532.21Z" fill="white"/>
<path d="M5575.65 342.782H5619.09V386.225H5575.65V342.782Z" fill="white"/>
<path d="M5162.95 386.225C5168.71 386.225 5174.23 388.513 5178.31 392.587C5182.38 396.66 5184.67 402.185 5184.67 407.946C5184.67 413.707 5182.38 419.232 5178.31 423.305C5174.23 427.379 5168.71 429.667 5162.95 429.667C5157.19 429.667 5151.66 427.379 5147.59 423.305C5143.51 419.232 5141.23 413.707 5141.23 407.946C5141.23 402.185 5143.51 396.66 5147.59 392.587C5151.66 388.513 5157.19 386.225 5162.95 386.225Z" fill="white"/>
<path d="M5228.11 407.946C5228.11 413.707 5230.4 419.232 5234.47 423.305C5238.55 427.379 5244.07 429.667 5249.83 429.667C5255.59 429.667 5261.12 427.379 5265.19 423.305C5269.26 419.232 5271.55 413.707 5271.55 407.946V386.225H5228.11V407.946Z" fill="white"/>
<path d="M5314.99 386.225H5358.44V429.667H5314.99V386.225Z" fill="white"/>
<path d="M5401.88 386.225H5445.32V429.667H5401.88V386.225Z" fill="white"/>
<path d="M5510.49 386.225C5516.25 386.225 5521.77 388.513 5525.84 392.587C5529.92 396.66 5532.21 402.185 5532.21 407.946C5532.21 413.707 5529.92 419.232 5525.84 423.305C5521.77 427.379 5516.25 429.667 5510.49 429.667C5504.72 429.667 5499.2 427.379 5495.13 423.305C5491.05 419.232 5488.76 413.707 5488.76 407.946C5488.76 402.185 5491.05 396.66 5495.13 392.587C5499.2 388.513 5504.72 386.225 5510.49 386.225Z" fill="white"/>
<path d="M5575.65 407.946C5575.65 413.707 5577.94 419.232 5582.01 423.305C5586.08 427.379 5591.61 429.667 5597.37 429.667C5603.13 429.667 5608.66 427.379 5612.73 423.305C5616.8 419.232 5619.09 413.707 5619.09 407.946V386.225H5575.65V407.946Z" fill="white"/>
<path d="M5684.26 386.225C5690.02 386.225 5695.54 388.513 5699.61 392.587C5703.69 396.66 5705.98 402.185 5705.98 407.946C5705.98 413.707 5703.69 419.232 5699.61 423.305C5695.54 427.379 5690.02 429.667 5684.26 429.667C5678.49 429.667 5672.97 427.379 5668.9 423.305C5664.82 419.232 5662.53 413.707 5662.53 407.946C5662.53 402.185 5664.82 396.66 5668.9 392.587C5672.97 388.513 5678.49 386.225 5684.26 386.225Z" fill="white"/>
<path d="M5314.99 429.667C5314.99 441.189 5319.57 452.238 5327.72 460.386C5335.87 468.533 5346.92 473.11 5358.44 473.11V429.667H5314.99Z" fill="white"/>
<path d="M5358.44 429.667H5401.88V473.11H5358.44V429.667Z" fill="white"/>
<path d="M5401.88 473.11C5413.4 473.11 5424.45 468.533 5432.6 460.386C5440.74 452.238 5445.32 441.189 5445.32 429.667H5401.88V473.11Z" fill="white"/>
<path d="M4945.73 473.11C4939.97 473.11 4934.45 475.398 4930.38 479.472C4926.3 483.545 4924.01 489.07 4924.01 494.831C4924.01 500.592 4926.3 506.116 4930.38 510.19C4934.45 514.263 4939.97 516.552 4945.73 516.552H4967.46V473.11H4945.73Z" fill="white"/>
<path d="M4967.46 473.11C4978.98 473.11 4990.03 477.686 4998.17 485.834C5006.32 493.981 5010.9 505.03 5010.9 516.552H4967.46V473.11Z" fill="white"/>
<path d="M5076.06 473.11C5070.3 473.11 5064.78 475.398 5060.7 479.472C5056.63 483.545 5054.34 489.07 5054.34 494.831C5054.34 500.592 5056.63 506.116 5060.7 510.19C5064.78 514.263 5070.3 516.552 5076.06 516.552H5097.78V473.11H5076.06Z" fill="white"/>
<path d="M5119.5 473.11C5125.26 473.11 5130.79 475.398 5134.86 479.472C5138.94 483.545 5141.23 489.07 5141.23 494.831C5141.23 500.592 5138.94 506.116 5134.86 510.19C5130.79 514.263 5125.26 516.552 5119.5 516.552H5097.78V473.11H5119.5Z" fill="white"/>
<path d="M5249.83 473.11C5255.59 473.11 5261.12 475.398 5265.19 479.472C5269.26 483.545 5271.55 489.07 5271.55 494.831C5271.55 500.592 5269.26 506.116 5265.19 510.19C5261.12 514.263 5255.59 516.552 5249.83 516.552C5244.07 516.552 5238.55 514.263 5234.47 510.19C5230.4 506.116 5228.11 500.592 5228.11 494.831C5228.11 489.07 5230.4 483.545 5234.47 479.472C5238.55 475.398 5244.07 473.11 5249.83 473.11Z" fill="white"/>
<path d="M5467.04 473.11C5461.28 473.11 5455.76 475.398 5451.68 479.472C5447.61 483.545 5445.32 489.07 5445.32 494.831C5445.32 500.592 5447.61 506.116 5451.68 510.19C5455.76 514.263 5461.28 516.552 5467.04 516.552H5488.76V473.11H5467.04Z" fill="white"/>
<path d="M5488.76 473.11C5500.29 473.11 5511.34 477.686 5519.48 485.834C5527.63 493.981 5532.21 505.03 5532.21 516.552H5488.76V473.11Z" fill="white"/>
<path d="M5597.37 473.11C5603.13 473.11 5608.66 475.398 5612.73 479.472C5616.8 483.545 5619.09 489.07 5619.09 494.831C5619.09 500.592 5616.8 506.116 5612.73 510.19C5608.66 514.263 5603.13 516.552 5597.37 516.552C5591.61 516.552 5586.08 514.263 5582.01 510.19C5577.94 506.116 5575.65 500.592 5575.65 494.831C5575.65 489.07 5577.94 483.545 5582.01 479.472C5586.08 475.398 5591.61 473.11 5597.37 473.11Z" fill="white"/>
<path d="M5879.75 516.552C5879.75 505.03 5884.32 493.981 5892.47 485.834C5900.62 477.686 5911.67 473.11 5923.19 473.11V516.552H5879.75Z" fill="white"/>
<path d="M5923.19 473.11C5934.71 473.11 5945.76 477.686 5953.91 485.834C5962.05 493.981 5966.63 505.03 5966.63 516.552H5923.19V473.11Z" fill="white"/>
<path d="M4815.41 516.552C4809.65 516.552 4804.12 518.84 4800.05 522.914C4795.97 526.987 4793.69 532.512 4793.69 538.273C4793.69 544.034 4795.97 549.559 4800.05 553.632C4804.12 557.706 4809.65 559.994 4815.41 559.994H4837.13V516.552H4815.41Z" fill="white"/>
<path d="M4837.13 516.552H4880.57V559.994H4837.13V516.552Z" fill="white"/>
<path d="M4902.29 516.552C4908.05 516.552 4913.58 518.84 4917.65 522.914C4921.72 526.987 4924.01 532.512 4924.01 538.273C4924.01 544.034 4921.72 549.559 4917.65 553.632C4913.58 557.706 4908.05 559.994 4902.29 559.994H4880.57V516.552H4902.29Z" fill="white"/>
<path d="M4967.46 516.552H5010.9V559.994H4967.46V516.552Z" fill="white"/>
<path d="M5032.62 516.552C5038.38 516.552 5043.9 518.84 5047.98 522.914C5052.05 526.987 5054.34 532.512 5054.34 538.273C5054.34 544.034 5052.05 549.559 5047.98 553.632C5043.9 557.706 5038.38 559.994 5032.62 559.994H5010.9V516.552H5032.62Z" fill="white"/>
<path d="M5162.95 516.552C5168.71 516.552 5174.23 518.84 5178.31 522.914C5182.38 526.987 5184.67 532.512 5184.67 538.273C5184.67 544.034 5182.38 549.559 5178.31 553.632C5174.23 557.706 5168.71 559.994 5162.95 559.994C5157.19 559.994 5151.66 557.706 5147.59 553.632C5143.51 549.559 5141.23 544.034 5141.23 538.273C5141.23 532.512 5143.51 526.987 5147.59 522.914C5151.66 518.84 5157.19 516.552 5162.95 516.552Z" fill="white"/>
<path d="M5271.55 538.273C5271.55 532.512 5273.84 526.987 5277.91 522.914C5281.99 518.84 5287.51 516.552 5293.27 516.552C5299.03 516.552 5304.56 518.84 5308.63 522.914C5312.71 526.987 5314.99 532.512 5314.99 538.273V559.994H5271.55V538.273Z" fill="white"/>
<path d="M5488.76 516.552H5532.21V559.994H5488.76V516.552Z" fill="white"/>
<path d="M5553.93 516.552C5559.69 516.552 5565.21 518.84 5569.29 522.914C5573.36 526.987 5575.65 532.512 5575.65 538.273C5575.65 544.034 5573.36 549.559 5569.29 553.632C5565.21 557.706 5559.69 559.994 5553.93 559.994H5532.21V516.552H5553.93Z" fill="white"/>
<path d="M5662.53 559.994C5662.53 548.473 5667.11 537.423 5675.26 529.276C5683.41 521.129 5694.45 516.552 5705.98 516.552V559.994H5662.53Z" fill="white"/>
<path d="M5705.98 516.552C5717.5 516.552 5728.55 521.129 5736.69 529.276C5744.84 537.423 5749.42 548.473 5749.42 559.994H5705.98V516.552Z" fill="white"/>
<path d="M5814.58 516.552C5808.82 516.552 5803.3 518.84 5799.22 522.914C5795.15 526.987 5792.86 532.512 5792.86 538.273C5792.86 544.034 5795.15 549.559 5799.22 553.632C5803.3 557.706 5808.82 559.994 5814.58 559.994H5836.3V516.552H5814.58Z" fill="white"/>
<path d="M5836.3 516.552H5879.75V559.994H5836.3V516.552Z" fill="white"/>
<path d="M5879.75 516.552H5923.19V559.994H5879.75V516.552Z" fill="white"/>
<path d="M5923.19 516.552H5966.63V559.994H5923.19V516.552Z" fill="white"/>
<path d="M5988.35 516.552C5994.11 516.552 5999.64 518.84 6003.71 522.914C6007.78 526.987 6010.07 532.512 6010.07 538.273C6010.07 544.034 6007.78 549.559 6003.71 553.632C5999.64 557.706 5994.11 559.994 5988.35 559.994H5966.63V516.552H5988.35Z" fill="white"/>
<path d="M4837.13 581.716C4837.13 587.476 4839.42 593.001 4843.49 597.075C4847.56 601.148 4853.09 603.437 4858.85 603.437C4864.61 603.437 4870.14 601.148 4874.21 597.075C4878.28 593.001 4880.57 587.476 4880.57 581.716V559.994H4837.13V581.716Z" fill="white"/>
<path d="M4924.01 603.437C4924.01 591.915 4928.59 580.865 4936.74 572.718C4944.88 564.571 4955.93 559.994 4967.46 559.994V603.437H4924.01Z" fill="white"/>
<path d="M4967.46 559.994H5010.9V603.437H4967.46V559.994Z" fill="white"/>
<path d="M5076.06 559.994C5081.82 559.994 5087.35 562.283 5091.42 566.356C5095.49 570.43 5097.78 575.955 5097.78 581.716C5097.78 587.476 5095.49 593.001 5091.42 597.075C5087.35 601.148 5081.82 603.437 5076.06 603.437C5070.3 603.437 5064.78 601.148 5060.7 597.075C5056.63 593.001 5054.34 587.476 5054.34 581.716C5054.34 575.955 5056.63 570.43 5060.7 566.356C5064.78 562.283 5070.3 559.994 5076.06 559.994Z" fill="white"/>
<path d="M5206.39 559.994C5212.15 559.994 5217.67 562.283 5221.75 566.356C5225.82 570.43 5228.11 575.955 5228.11 581.716C5228.11 587.476 5225.82 593.001 5221.75 597.075C5217.67 601.148 5212.15 603.437 5206.39 603.437C5200.63 603.437 5195.1 601.148 5191.03 597.075C5186.96 593.001 5184.67 587.476 5184.67 581.716C5184.67 575.955 5186.96 570.43 5191.03 566.356C5195.1 562.283 5200.63 559.994 5206.39 559.994Z" fill="white"/>
<path d="M5271.55 559.994H5314.99V603.437H5271.55V559.994Z" fill="white"/>
<path d="M5380.16 559.994C5374.4 559.994 5368.87 562.283 5364.8 566.356C5360.73 570.43 5358.44 575.955 5358.44 581.716C5358.44 587.476 5360.73 593.001 5364.8 597.075C5368.87 601.148 5374.4 603.437 5380.16 603.437H5401.88V559.994H5380.16Z" fill="white"/>
<path d="M5401.88 559.994H5445.32V603.437H5401.88V559.994Z" fill="white"/>
<path d="M5445.32 559.994H5488.76V603.437H5445.32V559.994Z" fill="white"/>
<path d="M5488.76 603.437C5500.29 603.437 5511.34 598.86 5519.48 590.713C5527.63 582.566 5532.21 571.516 5532.21 559.994H5488.76V603.437Z" fill="white"/>
<path d="M5662.53 559.994H5705.98V603.437H5662.53V559.994Z" fill="white"/>
<path d="M5705.98 559.994H5749.42V603.437H5705.98V559.994Z" fill="white"/>
<path d="M5771.14 559.994C5776.9 559.994 5782.43 562.283 5786.5 566.356C5790.57 570.43 5792.86 575.955 5792.86 581.716C5792.86 587.476 5790.57 593.001 5786.5 597.075C5782.43 601.148 5776.9 603.437 5771.14 603.437H5749.42V559.994H5771.14Z" fill="white"/>
<path d="M5879.75 559.994H5923.19V603.437H5879.75V559.994Z" fill="white"/>
<path d="M5923.19 603.437C5934.71 603.437 5945.76 598.86 5953.91 590.713C5962.05 582.566 5966.63 571.516 5966.63 559.994H5923.19V603.437Z" fill="white"/>
<path d="M4793.69 625.158C4793.69 619.397 4795.97 613.872 4800.05 609.799C4804.12 605.725 4809.65 603.437 4815.41 603.437C4821.17 603.437 4826.69 605.725 4830.77 609.799C4834.84 613.872 4837.13 619.397 4837.13 625.158V646.879H4793.69V625.158Z" fill="white"/>
<path d="M4924.01 603.437C4924.01 614.958 4928.59 626.008 4936.74 634.155C4944.88 642.302 4955.93 646.879 4967.46 646.879V603.437H4924.01Z" fill="white"/>
<path d="M4967.46 603.437H5010.9V646.879H4967.46V603.437Z" fill="white"/>
<path d="M5032.62 603.437C5038.38 603.437 5043.9 605.725 5047.98 609.799C5052.05 613.872 5054.34 619.397 5054.34 625.158C5054.34 630.919 5052.05 636.444 5047.98 640.517C5043.9 644.591 5038.38 646.879 5032.62 646.879H5010.9V603.437H5032.62Z" fill="white"/>
<path d="M5271.55 603.437H5314.99V646.879H5271.55V603.437Z" fill="white"/>
<path d="M5445.32 625.158C5445.32 630.919 5447.61 636.444 5451.68 640.517C5455.76 644.591 5461.28 646.879 5467.04 646.879C5472.8 646.879 5478.33 644.591 5482.4 640.517C5486.48 636.444 5488.76 630.919 5488.76 625.158V603.437H5445.32V625.158Z" fill="white"/>
<path d="M5553.93 603.437C5559.69 603.437 5565.21 605.725 5569.29 609.799C5573.36 613.872 5575.65 619.397 5575.65 625.158C5575.65 630.919 5573.36 636.444 5569.29 640.517C5565.21 644.591 5559.69 646.879 5553.93 646.879C5548.17 646.879 5542.64 644.591 5538.57 640.517C5534.5 636.444 5532.21 630.919 5532.21 625.158C5532.21 619.397 5534.5 613.872 5538.57 609.799C5542.64 605.725 5548.17 603.437 5553.93 603.437Z" fill="white"/>
<path d="M5662.53 603.437H5705.98V646.879H5662.53V603.437Z" fill="white"/>
<path d="M5814.58 603.437C5820.34 603.437 5825.87 605.725 5829.94 609.799C5834.02 613.872 5836.3 619.397 5836.3 625.158C5836.3 630.919 5834.02 636.444 5829.94 640.517C5825.87 644.591 5820.34 646.879 5814.58 646.879C5808.82 646.879 5803.3 644.591 5799.22 640.517C5795.15 636.444 5792.86 630.919 5792.86 625.158C5792.86 619.397 5795.15 613.872 5799.22 609.799C5803.3 605.725 5808.82 603.437 5814.58 603.437Z" fill="white"/>
<path d="M5879.75 625.158C5879.75 630.919 5882.03 636.444 5886.11 640.517C5890.18 644.591 5895.71 646.879 5901.47 646.879C5907.23 646.879 5912.75 644.591 5916.83 640.517C5920.9 636.444 5923.19 630.919 5923.19 625.158V603.437H5879.75V625.158Z" fill="white"/>
<path d="M6031.79 603.437C6037.56 603.437 6043.08 605.725 6047.15 609.799C6051.23 613.872 6053.52 619.397 6053.52 625.158C6053.52 630.919 6051.23 636.444 6047.15 640.517C6043.08 644.591 6037.56 646.879 6031.79 646.879C6026.03 646.879 6020.51 644.591 6016.44 640.517C6012.36 636.444 6010.07 630.919 6010.07 625.158C6010.07 619.397 6012.36 613.872 6016.44 609.799C6020.51 605.725 6026.03 603.437 6031.79 603.437Z" fill="white"/>
<path d="M4793.69 646.879C4793.69 658.401 4798.26 669.451 4806.41 677.598C4814.56 685.745 4825.61 690.322 4837.13 690.322V646.879H4793.69Z" fill="white"/>
<path d="M4837.13 646.879C4848.65 646.879 4859.7 651.456 4867.85 659.603C4875.99 667.75 4880.57 678.8 4880.57 690.322H4837.13V646.879Z" fill="white"/>
<path d="M4967.46 668.6C4967.46 674.361 4969.74 679.886 4973.82 683.96C4977.89 688.033 4983.42 690.322 4989.18 690.322C4994.94 690.322 5000.46 688.033 5004.54 683.96C5008.61 679.886 5010.9 674.361 5010.9 668.6V646.879H4967.46V668.6Z" fill="white"/>
<path d="M5076.06 646.879C5081.82 646.879 5087.35 649.168 5091.42 653.241C5095.49 657.315 5097.78 662.84 5097.78 668.6C5097.78 674.361 5095.49 679.886 5091.42 683.96C5087.35 688.033 5081.82 690.322 5076.06 690.322C5070.3 690.322 5064.78 688.033 5060.7 683.96C5056.63 679.886 5054.34 674.361 5054.34 668.6C5054.34 662.84 5056.63 657.315 5060.7 653.241C5064.78 649.168 5070.3 646.879 5076.06 646.879Z" fill="white"/>
<path d="M5206.39 646.879C5200.63 646.879 5195.1 649.168 5191.03 653.241C5186.96 657.315 5184.67 662.84 5184.67 668.6C5184.67 674.361 5186.96 679.886 5191.03 683.96C5195.1 688.033 5200.63 690.322 5206.39 690.322H5228.11V646.879H5206.39Z" fill="white"/>
<path d="M5228.11 646.879H5271.55V690.322H5228.11V646.879Z" fill="white"/>
<path d="M5271.55 646.879H5314.99V690.322H5271.55V646.879Z" fill="white"/>
<path d="M5314.99 646.879C5326.52 646.879 5337.57 651.456 5345.71 659.603C5353.86 667.75 5358.44 678.8 5358.44 690.322H5314.99V646.879Z" fill="white"/>
<path d="M5640.81 646.879C5635.05 646.879 5629.53 649.168 5625.45 653.241C5621.38 657.315 5619.09 662.84 5619.09 668.6C5619.09 674.361 5621.38 679.886 5625.45 683.96C5629.53 688.033 5635.05 690.322 5640.81 690.322H5662.53V646.879H5640.81Z" fill="white"/>
<path d="M5662.53 646.879H5705.98V690.322H5662.53V646.879Z" fill="white"/>
<path d="M5705.98 646.879H5749.42V690.322H5705.98V646.879Z" fill="white"/>
<path d="M5749.42 646.879C5760.94 646.879 5771.99 651.456 5780.14 659.603C5788.28 667.75 5792.86 678.8 5792.86 690.322H5749.42V646.879Z" fill="white"/>
<path d="M5923.19 690.322C5923.19 678.8 5927.77 667.75 5935.91 659.603C5944.06 651.456 5955.11 646.879 5966.63 646.879V690.322H5923.19Z" fill="white"/>
<path d="M5966.63 646.879C5978.15 646.879 5989.2 651.456 5997.35 659.603C6005.5 667.75 6010.07 678.8 6010.07 690.322H5966.63V646.879Z" fill="white"/>
<path d="M4837.13 712.043C4837.13 717.804 4839.42 723.328 4843.49 727.402C4847.56 731.476 4853.09 733.764 4858.85 733.764C4864.61 733.764 4870.14 731.476 4874.21 727.402C4878.28 723.328 4880.57 717.804 4880.57 712.043V690.322H4837.13V712.043Z" fill="white"/>
<path d="M5119.5 690.322C5125.26 690.322 5130.79 692.61 5134.86 696.684C5138.94 700.757 5141.23 706.282 5141.23 712.043C5141.23 717.804 5138.94 723.328 5134.86 727.402C5130.79 731.476 5125.26 733.764 5119.5 733.764C5113.74 733.764 5108.22 731.476 5104.14 727.402C5100.07 723.328 5097.78 717.804 5097.78 712.043C5097.78 706.282 5100.07 700.757 5104.14 696.684C5108.22 692.61 5113.74 690.322 5119.5 690.322Z" fill="white"/>
<path d="M5228.11 690.322C5228.11 701.843 5232.69 712.893 5240.83 721.04C5248.98 729.187 5260.03 733.764 5271.55 733.764V690.322H5228.11Z" fill="white"/>
<path d="M5271.55 690.322H5314.99V733.764H5271.55V690.322Z" fill="white"/>
<path d="M5314.99 733.764C5326.52 733.764 5337.57 729.187 5345.71 721.04C5353.86 712.893 5358.44 701.843 5358.44 690.322H5314.99V733.764Z" fill="white"/>
<path d="M5423.6 690.322C5429.36 690.322 5434.89 692.61 5438.96 696.684C5443.03 700.757 5445.32 706.282 5445.32 712.043C5445.32 717.804 5443.03 723.328 5438.96 727.402C5434.89 731.476 5429.36 733.764 5423.6 733.764C5417.84 733.764 5412.32 731.476 5408.24 727.402C5404.17 723.328 5401.88 717.804 5401.88 712.043C5401.88 706.282 5404.17 700.757 5408.24 696.684C5412.32 692.61 5417.84 690.322 5423.6 690.322Z" fill="white"/>
<path d="M5510.49 690.322C5516.25 690.322 5521.77 692.61 5525.84 696.684C5529.92 700.757 5532.21 706.282 5532.21 712.043C5532.21 717.804 5529.92 723.328 5525.84 727.402C5521.77 731.476 5516.25 733.764 5510.49 733.764C5504.72 733.764 5499.2 731.476 5495.13 727.402C5491.05 723.328 5488.76 717.804 5488.76 712.043C5488.76 706.282 5491.05 700.757 5495.13 696.684C5499.2 692.61 5504.72 690.322 5510.49 690.322Z" fill="white"/>
<path d="M5575.65 712.043C5575.65 706.282 5577.94 700.757 5582.01 696.684C5586.08 692.61 5591.61 690.322 5597.37 690.322C5603.13 690.322 5608.66 692.61 5612.73 696.684C5616.8 700.757 5619.09 706.282 5619.09 712.043V733.764H5575.65V712.043Z" fill="white"/>
<path d="M5662.53 712.043C5662.53 717.804 5664.82 723.328 5668.9 727.402C5672.97 731.476 5678.49 733.764 5684.26 733.764C5690.02 733.764 5695.54 731.476 5699.61 727.402C5703.69 723.328 5705.98 717.804 5705.98 712.043V690.322H5662.53V712.043Z" fill="white"/>
<path d="M5749.42 690.322H5792.86V733.764H5749.42V690.322Z" fill="white"/>
<path d="M5858.02 690.322C5863.79 690.322 5869.31 692.61 5873.38 696.684C5877.46 700.757 5879.75 706.282 5879.75 712.043C5879.75 717.804 5877.46 723.328 5873.38 727.402C5869.31 731.476 5863.79 733.764 5858.02 733.764C5852.26 733.764 5846.74 731.476 5842.67 727.402C5838.59 723.328 5836.3 717.804 5836.3 712.043C5836.3 706.282 5838.59 700.757 5842.67 696.684C5846.74 692.61 5852.26 690.322 5858.02 690.322Z" fill="white"/>
<path d="M5923.19 690.322C5923.19 701.843 5927.77 712.893 5935.91 721.04C5944.06 729.187 5955.11 733.764 5966.63 733.764V690.322H5923.19Z" fill="white"/>
<path d="M5966.63 733.764C5978.15 733.764 5989.2 729.187 5997.35 721.04C6005.5 712.893 6010.07 701.843 6010.07 690.322H5966.63V733.764Z" fill="white"/>
<path d="M4815.41 733.764C4821.17 733.764 4826.69 736.052 4830.77 740.126C4834.84 744.2 4837.13 749.724 4837.13 755.485C4837.13 761.246 4834.84 766.771 4830.77 770.844C4826.69 774.918 4821.17 777.206 4815.41 777.206C4809.65 777.206 4804.12 774.918 4800.05 770.844C4795.97 766.771 4793.69 761.246 4793.69 755.485C4793.69 749.724 4795.97 744.2 4800.05 740.126C4804.12 736.052 4809.65 733.764 4815.41 733.764Z" fill="white"/>
<path d="M4924.01 777.206C4924.01 765.685 4928.59 754.635 4936.74 746.488C4944.88 738.341 4955.93 733.764 4967.46 733.764V777.206H4924.01Z" fill="white"/>
<path d="M4967.46 733.764H5010.9V777.206H4967.46V733.764Z" fill="white"/>
<path d="M5010.9 733.764H5054.34V777.206H5010.9V733.764Z" fill="white"/>
<path d="M5076.06 733.764C5081.82 733.764 5087.35 736.052 5091.42 740.126C5095.49 744.2 5097.78 749.724 5097.78 755.485C5097.78 761.246 5095.49 766.771 5091.42 770.844C5087.35 774.918 5081.82 777.206 5076.06 777.206H5054.34V733.764H5076.06Z" fill="white"/>
<path d="M5575.65 733.764C5575.65 745.286 5580.23 756.335 5588.37 764.482C5596.52 772.629 5607.57 777.206 5619.09 777.206V733.764H5575.65Z" fill="white"/>
<path d="M5640.81 733.764C5646.57 733.764 5652.1 736.052 5656.17 740.126C5660.25 744.2 5662.53 749.724 5662.53 755.485C5662.53 761.246 5660.25 766.771 5656.17 770.844C5652.1 774.918 5646.57 777.206 5640.81 777.206H5619.09V733.764H5640.81Z" fill="white"/>
<path d="M5705.98 777.206C5705.98 765.685 5710.55 754.635 5718.7 746.488C5726.85 738.341 5737.9 733.764 5749.42 733.764V777.206H5705.98Z" fill="white"/>
<path d="M5749.42 733.764H5792.86V777.206H5749.42V733.764Z" fill="white"/>
<path d="M5814.58 733.764C5820.34 733.764 5825.87 736.052 5829.94 740.126C5834.02 744.2 5836.3 749.724 5836.3 755.485C5836.3 761.246 5834.02 766.771 5829.94 770.844C5825.87 774.918 5820.34 777.206 5814.58 777.206H5792.86V733.764H5814.58Z" fill="white"/>
<path d="M5879.75 755.485C5879.75 749.724 5882.03 744.2 5886.11 740.126C5890.18 736.052 5895.71 733.764 5901.47 733.764C5907.23 733.764 5912.75 736.052 5916.83 740.126C5920.9 744.2 5923.19 749.724 5923.19 755.485V777.206H5879.75V755.485Z" fill="white"/>
<path d="M6031.79 733.764C6037.56 733.764 6043.08 736.052 6047.15 740.126C6051.23 744.2 6053.52 749.724 6053.52 755.485C6053.52 761.246 6051.23 766.771 6047.15 770.844C6043.08 774.918 6037.56 777.206 6031.79 777.206C6026.03 777.206 6020.51 774.918 6016.44 770.844C6012.36 766.771 6010.07 761.246 6010.07 755.485C6010.07 749.724 6012.36 744.2 6016.44 740.126C6020.51 736.052 6026.03 733.764 6031.79 733.764Z" fill="white"/>
<path d="M4902.29 777.206C4896.53 777.206 4891.01 779.495 4886.93 783.568C4882.86 787.642 4880.57 793.167 4880.57 798.928C4880.57 804.688 4882.86 810.213 4886.93 814.287C4891.01 818.36 4896.53 820.649 4902.29 820.649H4924.01V777.206H4902.29Z" fill="white"/>
<path d="M4924.01 777.206H4967.46V820.649H4924.01V777.206Z" fill="white"/>
<path d="M4967.46 777.206H5010.9V820.649H4967.46V777.206Z" fill="white"/>
<path d="M5097.78 820.649C5097.78 809.127 5102.36 798.077 5110.51 789.93C5118.65 781.783 5129.7 777.206 5141.23 777.206V820.649H5097.78Z" fill="white"/>
<path d="M5141.23 777.206H5184.67V820.649H5141.23V777.206Z" fill="white"/>
<path d="M5206.39 777.206C5212.15 777.206 5217.67 779.495 5221.75 783.568C5225.82 787.642 5228.11 793.167 5228.11 798.928C5228.11 804.688 5225.82 810.213 5221.75 814.287C5217.67 818.36 5212.15 820.649 5206.39 820.649H5184.67V777.206H5206.39Z" fill="white"/>
<path d="M5293.27 777.206C5287.51 777.206 5281.99 779.495 5277.91 783.568C5273.84 787.642 5271.55 793.167 5271.55 798.928C5271.55 804.688 5273.84 810.213 5277.91 814.287C5281.99 818.36 5287.51 820.649 5293.27 820.649H5314.99V777.206H5293.27Z" fill="white"/>
<path d="M5314.99 777.206C5326.52 777.206 5337.57 781.783 5345.71 789.93C5353.86 798.077 5358.44 809.127 5358.44 820.649H5314.99V777.206Z" fill="white"/>
<path d="M5423.6 777.206C5417.84 777.206 5412.32 779.495 5408.24 783.568C5404.17 787.642 5401.88 793.167 5401.88 798.928C5401.88 804.688 5404.17 810.213 5408.24 814.287C5412.32 818.36 5417.84 820.649 5423.6 820.649H5445.32V777.206H5423.6Z" fill="white"/>
<path d="M5467.04 777.206C5472.8 777.206 5478.33 779.495 5482.4 783.568C5486.48 787.642 5488.76 793.167 5488.76 798.928C5488.76 804.688 5486.48 810.213 5482.4 814.287C5478.33 818.36 5472.8 820.649 5467.04 820.649H5445.32V777.206H5467.04Z" fill="white"/>
<path d="M5532.21 798.928C5532.21 793.167 5534.5 787.642 5538.57 783.568C5542.64 779.495 5548.17 777.206 5553.93 777.206C5559.69 777.206 5565.21 779.495 5569.29 783.568C5573.36 787.642 5575.65 793.167 5575.65 798.928V820.649H5532.21V798.928Z" fill="white"/>
<path d="M5705.98 798.928C5705.98 804.688 5708.26 810.213 5712.34 814.287C5716.41 818.36 5721.94 820.649 5727.7 820.649C5733.46 820.649 5738.98 818.36 5743.06 814.287C5747.13 810.213 5749.42 804.688 5749.42 798.928V777.206H5705.98V798.928Z" fill="white"/>
<path d="M5858.02 777.206C5852.26 777.206 5846.74 779.495 5842.67 783.568C5838.59 787.642 5836.3 793.167 5836.3 798.928C5836.3 804.688 5838.59 810.213 5842.67 814.287C5846.74 818.36 5852.26 820.649 5858.02 820.649H5879.75V777.206H5858.02Z" fill="white"/>
<path d="M5879.75 777.206H5923.19V820.649H5879.75V777.206Z" fill="white"/>
<path d="M5923.19 777.206H5966.63V820.649H5923.19V777.206Z" fill="white"/>
<path d="M5988.35 777.206C5994.11 777.206 5999.64 779.495 6003.71 783.568C6007.78 787.642 6010.07 793.167 6010.07 798.928C6010.07 804.688 6007.78 810.213 6003.71 814.287C5999.64 818.36 5994.11 820.649 5988.35 820.649H5966.63V777.206H5988.35Z" fill="white"/>
<path d="M4837.13 842.37C4837.13 836.609 4839.42 831.084 4843.49 827.011C4847.56 822.937 4853.09 820.649 4858.85 820.649C4864.61 820.649 4870.14 822.937 4874.21 827.011C4878.28 831.084 4880.57 836.609 4880.57 842.37V864.091H4837.13V842.37Z" fill="white"/>
<path d="M4967.46 820.649C4967.46 832.17 4972.03 843.22 4980.18 851.367C4988.33 859.514 4999.38 864.091 5010.9 864.091V820.649H4967.46Z" fill="white"/>
<path d="M5010.9 820.649H5054.34V864.091H5010.9V820.649Z" fill="white"/>
<path d="M5054.34 820.649H5097.78V864.091H5054.34V820.649Z" fill="white"/>
<path d="M5097.78 864.091C5109.3 864.091 5120.35 859.514 5128.5 851.367C5136.65 843.22 5141.23 832.17 5141.23 820.649H5097.78V864.091Z" fill="white"/>
<path d="M5249.83 820.649C5255.59 820.649 5261.12 822.937 5265.19 827.011C5269.26 831.084 5271.55 836.609 5271.55 842.37C5271.55 848.131 5269.26 853.656 5265.19 857.729C5261.12 861.803 5255.59 864.091 5249.83 864.091C5244.07 864.091 5238.55 861.803 5234.47 857.729C5230.4 853.656 5228.11 848.131 5228.11 842.37C5228.11 836.609 5230.4 831.084 5234.47 827.011C5238.55 822.937 5244.07 820.649 5249.83 820.649Z" fill="white"/>
<path d="M5314.99 842.37C5314.99 848.131 5317.28 853.656 5321.36 857.729C5325.43 861.803 5330.96 864.091 5336.72 864.091C5342.48 864.091 5348 861.803 5352.08 857.729C5356.15 853.656 5358.44 848.131 5358.44 842.37V820.649H5314.99V842.37Z" fill="white"/>
<path d="M5510.49 820.649C5504.72 820.649 5499.2 822.937 5495.13 827.011C5491.05 831.084 5488.76 836.609 5488.76 842.37C5488.76 848.131 5491.05 853.656 5495.13 857.729C5499.2 861.803 5504.72 864.091 5510.49 864.091H5532.21V820.649H5510.49Z" fill="white"/>
<path d="M5532.21 820.649H5575.65V864.091H5532.21V820.649Z" fill="white"/>
<path d="M5575.65 820.649C5587.17 820.649 5598.22 825.226 5606.37 833.373C5614.51 841.52 5619.09 852.57 5619.09 864.091H5575.65V820.649Z" fill="white"/>
<path d="M5814.58 820.649C5820.34 820.649 5825.87 822.937 5829.94 827.011C5834.02 831.084 5836.3 836.609 5836.3 842.37C5836.3 848.131 5834.02 853.656 5829.94 857.729C5825.87 861.803 5820.34 864.091 5814.58 864.091C5808.82 864.091 5803.3 861.803 5799.22 857.729C5795.15 853.656 5792.86 848.131 5792.86 842.37C5792.86 836.609 5795.15 831.084 5799.22 827.011C5803.3 822.937 5808.82 820.649 5814.58 820.649Z" fill="white"/>
<path d="M5879.75 820.649H5923.19V864.091H5879.75V820.649Z" fill="white"/>
<path d="M6031.79 820.649C6037.56 820.649 6043.08 822.937 6047.15 827.011C6051.23 831.084 6053.52 836.609 6053.52 842.37C6053.52 848.131 6051.23 853.656 6047.15 857.729C6043.08 861.803 6037.56 864.091 6031.79 864.091C6026.03 864.091 6020.51 861.803 6016.44 857.729C6012.36 853.656 6010.07 848.131 6010.07 842.37C6010.07 836.609 6012.36 831.084 6016.44 827.011C6020.51 822.937 6026.03 820.649 6031.79 820.649Z" fill="white"/>
<path d="M4793.69 907.534C4793.69 896.012 4798.26 884.962 4806.41 876.815C4814.56 868.668 4825.61 864.091 4837.13 864.091V907.534H4793.69Z" fill="white"/>
<path d="M4837.13 864.091H4880.57V907.534H4837.13V864.091Z" fill="white"/>
<path d="M5010.9 864.091H5054.34V907.534H5010.9V864.091Z" fill="white"/>
<path d="M5141.23 885.812C5141.23 880.052 5143.51 874.527 5147.59 870.453C5151.66 866.38 5157.19 864.091 5162.95 864.091C5168.71 864.091 5174.23 866.38 5178.31 870.453C5182.38 874.527 5184.67 880.052 5184.67 885.812V907.534H5141.23V885.812Z" fill="white"/>
<path d="M5467.04 864.091C5472.8 864.091 5478.33 866.38 5482.4 870.453C5486.48 874.527 5488.76 880.052 5488.76 885.812C5488.76 891.573 5486.48 897.098 5482.4 901.172C5478.33 905.245 5472.8 907.534 5467.04 907.534C5461.28 907.534 5455.76 905.245 5451.68 901.172C5447.61 897.098 5445.32 891.573 5445.32 885.812C5445.32 880.052 5447.61 874.527 5451.68 870.453C5455.76 866.38 5461.28 864.091 5467.04 864.091Z" fill="white"/>
<path d="M5575.65 864.091C5575.65 875.613 5580.23 886.663 5588.37 894.81C5596.52 902.957 5607.57 907.534 5619.09 907.534V864.091H5575.65Z" fill="white"/>
<path d="M5619.09 864.091H5662.53V907.534H5619.09V864.091Z" fill="white"/>
<path d="M5684.26 864.091C5690.02 864.091 5695.54 866.38 5699.61 870.453C5703.69 874.527 5705.98 880.052 5705.98 885.812C5705.98 891.573 5703.69 897.098 5699.61 901.172C5695.54 905.245 5690.02 907.534 5684.26 907.534H5662.53V864.091H5684.26Z" fill="white"/>
<path d="M5771.14 864.091C5776.9 864.091 5782.43 866.38 5786.5 870.453C5790.57 874.527 5792.86 880.052 5792.86 885.812C5792.86 891.573 5790.57 897.098 5786.5 901.172C5782.43 905.245 5776.9 907.534 5771.14 907.534C5765.38 907.534 5759.85 905.245 5755.78 901.172C5751.71 897.098 5749.42 891.573 5749.42 885.812C5749.42 880.052 5751.71 874.527 5755.78 870.453C5759.85 866.38 5765.38 864.091 5771.14 864.091Z" fill="white"/>
<path d="M5858.02 864.091C5852.26 864.091 5846.74 866.38 5842.67 870.453C5838.59 874.527 5836.3 880.052 5836.3 885.812C5836.3 891.573 5838.59 897.098 5842.67 901.172C5846.74 905.245 5852.26 907.534 5858.02 907.534H5879.75V864.091H5858.02Z" fill="white"/>
<path d="M5879.75 864.091H5923.19V907.534H5879.75V864.091Z" fill="white"/>
<path d="M4793.69 907.534H4837.13V950.976H4793.69V907.534Z" fill="white"/>
<path d="M4837.13 907.534H4880.57V950.976H4837.13V907.534Z" fill="white"/>
<path d="M4880.57 907.534H4924.01V950.976H4880.57V907.534Z" fill="white"/>
<path d="M4924.01 907.534H4967.46V950.976H4924.01V907.534Z" fill="white"/>
<path d="M4967.46 907.534H5010.9V950.976H4967.46V907.534Z" fill="white"/>
<path d="M5010.9 907.534H5054.34V950.976H5010.9V907.534Z" fill="white"/>
<path d="M5054.34 907.534H5097.78V950.976H5054.34V907.534Z" fill="white"/>
<path d="M5097.78 907.534H5141.23V950.976H5097.78V907.534Z" fill="white"/>
<path d="M5141.23 950.976C5152.75 950.976 5163.8 946.399 5171.94 938.252C5180.09 930.105 5184.67 919.055 5184.67 907.534H5141.23V950.976Z" fill="white"/>
<path d="M5249.83 907.534C5255.59 907.534 5261.12 909.822 5265.19 913.896C5269.26 917.969 5271.55 923.494 5271.55 929.255C5271.55 935.016 5269.26 940.541 5265.19 944.614C5261.12 948.688 5255.59 950.976 5249.83 950.976C5244.07 950.976 5238.55 948.688 5234.47 944.614C5230.4 940.541 5228.11 935.016 5228.11 929.255C5228.11 923.494 5230.4 917.969 5234.47 913.896C5238.55 909.822 5244.07 907.534 5249.83 907.534Z" fill="white"/>
<path d="M5380.16 907.534C5385.92 907.534 5391.44 909.822 5395.52 913.896C5399.59 917.969 5401.88 923.494 5401.88 929.255C5401.88 935.016 5399.59 940.541 5395.52 944.614C5391.44 948.688 5385.92 950.976 5380.16 950.976C5374.4 950.976 5368.87 948.688 5364.8 944.614C5360.73 940.541 5358.44 935.016 5358.44 929.255C5358.44 923.494 5360.73 917.969 5364.8 913.896C5368.87 909.822 5374.4 907.534 5380.16 907.534Z" fill="white"/>
<path d="M5619.09 929.255C5619.09 935.016 5621.38 940.541 5625.45 944.614C5629.53 948.688 5635.05 950.976 5640.81 950.976C5646.57 950.976 5652.1 948.688 5656.17 944.614C5660.25 940.541 5662.53 935.016 5662.53 929.255V907.534H5619.09V929.255Z" fill="white"/>
<path d="M5879.75 907.534C5879.75 919.055 5884.32 930.105 5892.47 938.252C5900.62 946.399 5911.67 950.976 5923.19 950.976V907.534H5879.75Z" fill="white"/>
<path d="M5923.19 907.534C5934.71 907.534 5945.76 912.111 5953.91 920.258C5962.05 928.405 5966.63 939.454 5966.63 950.976H5923.19V907.534Z" fill="white"/>
<path d="M6010.07 929.255C6010.07 923.494 6012.36 917.969 6016.44 913.896C6020.51 909.822 6026.03 907.534 6031.79 907.534C6037.56 907.534 6043.08 909.822 6047.15 913.896C6051.23 917.969 6053.52 923.494 6053.52 929.255V950.976H6010.07V929.255Z" fill="white"/>
<path d="M4793.69 950.976H4837.13V994.418H4793.69V950.976Z" fill="white"/>
<path d="M4837.13 950.976H4880.57V994.418H4837.13V950.976Z" fill="white"/>
<path d="M4967.46 950.976C4967.46 962.498 4972.03 973.547 4980.18 981.695C4988.33 989.842 4999.38 994.418 5010.9 994.418V950.976H4967.46Z" fill="white"/>
<path d="M5010.9 950.976H5054.34V994.418H5010.9V950.976Z" fill="white"/>
<path d="M5271.55 972.697C5271.55 966.936 5273.84 961.412 5277.91 957.338C5281.99 953.265 5287.51 950.976 5293.27 950.976C5299.03 950.976 5304.56 953.265 5308.63 957.338C5312.71 961.412 5314.99 966.936 5314.99 972.697V994.418H5271.55V972.697Z" fill="white"/>
<path d="M5467.04 950.976C5461.28 950.976 5455.76 953.265 5451.68 957.338C5447.61 961.412 5445.32 966.936 5445.32 972.697C5445.32 978.458 5447.61 983.983 5451.68 988.057C5455.76 992.13 5461.28 994.418 5467.04 994.418H5488.76V950.976H5467.04Z" fill="white"/>
<path d="M5488.76 950.976H5532.21V994.418H5488.76V950.976Z" fill="white"/>
<path d="M5532.21 950.976H5575.65V994.418H5532.21V950.976Z" fill="white"/>
<path d="M5575.65 950.976C5587.17 950.976 5598.22 955.553 5606.37 963.7C5614.51 971.847 5619.09 982.897 5619.09 994.418H5575.65V950.976Z" fill="white"/>
<path d="M5705.98 994.418C5705.98 982.897 5710.55 971.847 5718.7 963.7C5726.85 955.553 5737.9 950.976 5749.42 950.976V994.418H5705.98Z" fill="white"/>
<path d="M5749.42 950.976C5760.94 950.976 5771.99 955.553 5780.14 963.7C5788.28 971.847 5792.86 982.897 5792.86 994.418H5749.42V950.976Z" fill="white"/>
<path d="M5836.3 972.697C5836.3 966.936 5838.59 961.412 5842.67 957.338C5846.74 953.265 5852.26 950.976 5858.02 950.976C5863.79 950.976 5869.31 953.265 5873.38 957.338C5877.46 961.412 5879.75 966.936 5879.75 972.697V994.418H5836.3V972.697Z" fill="white"/>
<path d="M5923.19 950.976H5966.63V994.418H5923.19V950.976Z" fill="white"/>
<path d="M6010.07 950.976H6053.52V994.418H6010.07V950.976Z" fill="white"/>
<path d="M4793.69 994.418C4793.69 1005.94 4798.26 1016.99 4806.41 1025.14C4814.56 1033.28 4825.61 1037.86 4837.13 1037.86V994.418H4793.69Z" fill="white"/>
<path d="M4837.13 1037.86C4848.65 1037.86 4859.7 1033.28 4867.85 1025.14C4875.99 1016.99 4880.57 1005.94 4880.57 994.418H4837.13V1037.86Z" fill="white"/>
<path d="M5010.9 994.418C5010.9 1005.94 5015.47 1016.99 5023.62 1025.14C5031.77 1033.28 5042.82 1037.86 5054.34 1037.86V994.418H5010.9Z" fill="white"/>
<path d="M5076.06 994.418C5081.82 994.418 5087.35 996.707 5091.42 1000.78C5095.49 1004.85 5097.78 1010.38 5097.78 1016.14C5097.78 1021.9 5095.49 1027.43 5091.42 1031.5C5087.35 1035.57 5081.82 1037.86 5076.06 1037.86H5054.34V994.418H5076.06Z" fill="white"/>
<path d="M5141.23 1037.86C5141.23 1026.34 5145.8 1015.29 5153.95 1007.14C5162.1 998.996 5173.15 994.418 5184.67 994.418V1037.86H5141.23Z" fill="white"/>
<path d="M5206.39 994.418C5212.15 994.418 5217.67 996.707 5221.75 1000.78C5225.82 1004.85 5228.11 1010.38 5228.11 1016.14C5228.11 1021.9 5225.82 1027.43 5221.75 1031.5C5217.67 1035.57 5212.15 1037.86 5206.39 1037.86H5184.67V994.418H5206.39Z" fill="white"/>
<path d="M5271.55 994.418H5314.99V1037.86H5271.55V994.418Z" fill="white"/>
<path d="M5358.44 1016.14C5358.44 1010.38 5360.73 1004.85 5364.8 1000.78C5368.87 996.707 5374.4 994.418 5380.16 994.418C5385.92 994.418 5391.44 996.707 5395.52 1000.78C5399.59 1004.85 5401.88 1010.38 5401.88 1016.14V1037.86H5358.44V1016.14Z" fill="white"/>
<path d="M5488.76 1016.14C5488.76 1021.9 5491.05 1027.43 5495.13 1031.5C5499.2 1035.57 5504.72 1037.86 5510.49 1037.86C5516.25 1037.86 5521.77 1035.57 5525.84 1031.5C5529.92 1027.43 5532.21 1021.9 5532.21 1016.14V994.418H5488.76V1016.14Z" fill="white"/>
<path d="M5575.65 994.418H5619.09V1037.86H5575.65V994.418Z" fill="white"/>
<path d="M5662.53 1037.86C5662.53 1026.34 5667.11 1015.29 5675.26 1007.14C5683.41 998.996 5694.45 994.418 5705.98 994.418V1037.86H5662.53Z" fill="white"/>
<path d="M5705.98 994.418H5749.42V1037.86H5705.98V994.418Z" fill="white"/>
<path d="M5749.42 994.418H5792.86V1037.86H5749.42V994.418Z" fill="white"/>
<path d="M5792.86 994.418H5836.3V1037.86H5792.86V994.418Z" fill="white"/>
<path d="M5836.3 994.418H5879.75V1037.86H5836.3V994.418Z" fill="white"/>
<path d="M5879.75 994.418H5923.19V1037.86H5879.75V994.418Z" fill="white"/>
<path d="M5923.19 994.418H5966.63V1037.86H5923.19V994.418Z" fill="white"/>
<path d="M6010.07 1016.14C6010.07 1021.9 6012.36 1027.43 6016.44 1031.5C6020.51 1035.57 6026.03 1037.86 6031.79 1037.86C6037.56 1037.86 6043.08 1035.57 6047.15 1031.5C6051.23 1027.43 6053.52 1021.9 6053.52 1016.14V994.418H6010.07V1016.14Z" fill="white"/>
<path d="M5141.23 1037.86H5184.67V1081.3H5141.23V1037.86Z" fill="white"/>
<path d="M5271.55 1037.86C5271.55 1049.38 5276.13 1060.43 5284.28 1068.58C5292.42 1076.73 5303.47 1081.3 5314.99 1081.3V1037.86H5271.55Z" fill="white"/>
<path d="M5314.99 1037.86H5358.44V1081.3H5314.99V1037.86Z" fill="white"/>
<path d="M5358.44 1081.3C5369.96 1081.3 5381.01 1076.73 5389.16 1068.58C5397.3 1060.43 5401.88 1049.38 5401.88 1037.86H5358.44V1081.3Z" fill="white"/>
<path d="M5553.93 1037.86C5548.17 1037.86 5542.64 1040.15 5538.57 1044.22C5534.5 1048.3 5532.21 1053.82 5532.21 1059.58C5532.21 1065.34 5534.5 1070.87 5538.57 1074.94C5542.64 1079.01 5548.17 1081.3 5553.93 1081.3H5575.65V1037.86H5553.93Z" fill="white"/>
<path d="M5575.65 1037.86H5619.09V1081.3H5575.65V1037.86Z" fill="white"/>
<path d="M5619.09 1037.86H5662.53V1081.3H5619.09V1037.86Z" fill="white"/>
<path d="M5662.53 1037.86H5705.98V1081.3H5662.53V1037.86Z" fill="white"/>
<path d="M5836.3 1037.86H5879.75V1081.3H5836.3V1037.86Z" fill="white"/>
<path d="M5879.75 1037.86H5923.19V1081.3H5879.75V1037.86Z" fill="white"/>
<path d="M5923.19 1037.86H5966.63V1081.3H5923.19V1037.86Z" fill="white"/>
<path d="M5141.23 1081.3C5141.23 1092.82 5145.8 1103.87 5153.95 1112.02C5162.1 1120.17 5173.15 1124.75 5184.67 1124.75V1081.3H5141.23Z" fill="white"/>
<path d="M5184.67 1081.3H5228.11V1124.75H5184.67V1081.3Z" fill="white"/>
<path d="M5249.83 1081.3C5255.59 1081.3 5261.12 1083.59 5265.19 1087.67C5269.26 1091.74 5271.55 1097.26 5271.55 1103.02C5271.55 1108.79 5269.26 1114.31 5265.19 1118.38C5261.12 1122.46 5255.59 1124.75 5249.83 1124.75H5228.11V1081.3H5249.83Z" fill="white"/>
<path d="M5314.99 1081.3H5358.44V1124.75H5314.99V1081.3Z" fill="white"/>
<path d="M5445.32 1124.75C5445.32 1113.22 5449.9 1102.17 5458.05 1094.03C5466.19 1085.88 5477.24 1081.3 5488.76 1081.3V1124.75H5445.32Z" fill="white"/>
<path d="M5488.76 1081.3C5500.29 1081.3 5511.34 1085.88 5519.48 1094.03C5527.63 1102.17 5532.21 1113.22 5532.21 1124.75H5488.76V1081.3Z" fill="white"/>
<path d="M5619.09 1081.3H5662.53V1124.75H5619.09V1081.3Z" fill="white"/>
<path d="M5662.53 1081.3H5705.98V1124.75H5662.53V1081.3Z" fill="white"/>
<path d="M5771.14 1081.3C5776.9 1081.3 5782.43 1083.59 5786.5 1087.67C5790.57 1091.74 5792.86 1097.26 5792.86 1103.02C5792.86 1108.79 5790.57 1114.31 5786.5 1118.38C5782.43 1122.46 5776.9 1124.75 5771.14 1124.75C5765.38 1124.75 5759.85 1122.46 5755.78 1118.38C5751.71 1114.31 5749.42 1108.79 5749.42 1103.02C5749.42 1097.26 5751.71 1091.74 5755.78 1087.67C5759.85 1083.59 5765.38 1081.3 5771.14 1081.3Z" fill="white"/>
<path d="M5836.3 1081.3H5879.75V1124.75H5836.3V1081.3Z" fill="white"/>
<path d="M5923.19 1081.3C5923.19 1092.82 5927.77 1103.87 5935.91 1112.02C5944.06 1120.17 5955.11 1124.75 5966.63 1124.75V1081.3H5923.19Z" fill="white"/>
<path d="M5966.63 1081.3C5978.15 1081.3 5989.2 1085.88 5997.35 1094.03C6005.5 1102.17 6010.07 1113.22 6010.07 1124.75H5966.63V1081.3Z" fill="white"/>
<path d="M5184.67 1124.75H5228.11V1168.19H5184.67V1124.75Z" fill="white"/>
<path d="M5314.99 1146.47C5314.99 1152.23 5317.28 1157.75 5321.36 1161.83C5325.43 1165.9 5330.96 1168.19 5336.72 1168.19C5342.48 1168.19 5348 1165.9 5352.08 1161.83C5356.15 1157.75 5358.44 1152.23 5358.44 1146.47V1124.75H5314.99V1146.47Z" fill="white"/>
<path d="M5423.6 1124.75C5417.84 1124.75 5412.32 1127.03 5408.24 1131.11C5404.17 1135.18 5401.88 1140.71 5401.88 1146.47C5401.88 1152.23 5404.17 1157.75 5408.24 1161.83C5412.32 1165.9 5417.84 1168.19 5423.6 1168.19H5445.32V1124.75H5423.6Z" fill="white"/>
<path d="M5445.32 1124.75H5488.76V1168.19H5445.32V1124.75Z" fill="white"/>
<path d="M5488.76 1124.75H5532.21V1168.19H5488.76V1124.75Z" fill="white"/>
<path d="M5619.09 1124.75H5662.53V1168.19H5619.09V1124.75Z" fill="white"/>
<path d="M5662.53 1124.75H5705.98V1168.19H5662.53V1124.75Z" fill="white"/>
<path d="M5836.3 1124.75H5879.75V1168.19H5836.3V1124.75Z" fill="white"/>
<path d="M5901.47 1124.75C5907.23 1124.75 5912.75 1127.03 5916.83 1131.11C5920.9 1135.18 5923.19 1140.71 5923.19 1146.47C5923.19 1152.23 5920.9 1157.75 5916.83 1161.83C5912.75 1165.9 5907.23 1168.19 5901.47 1168.19H5879.75V1124.75H5901.47Z" fill="white"/>
<path d="M5966.63 1124.75C5966.63 1136.27 5971.21 1147.32 5979.35 1155.46C5987.5 1163.61 5998.55 1168.19 6010.07 1168.19V1124.75H5966.63Z" fill="white"/>
<path d="M6010.07 1124.75C6021.59 1124.75 6032.64 1129.32 6040.79 1137.47C6048.94 1145.62 6053.52 1156.67 6053.52 1168.19H6010.07V1124.75Z" fill="white"/>
<path d="M5141.23 1211.63C5141.23 1200.11 5145.8 1189.06 5153.95 1180.91C5162.1 1172.77 5173.15 1168.19 5184.67 1168.19V1211.63H5141.23Z" fill="white"/>
<path d="M5184.67 1168.19H5228.11V1211.63H5184.67V1168.19Z" fill="white"/>
<path d="M5380.16 1168.19C5385.92 1168.19 5391.44 1170.48 5395.52 1174.55C5399.59 1178.62 5401.88 1184.15 5401.88 1189.91C5401.88 1195.67 5399.59 1201.2 5395.52 1205.27C5391.44 1209.34 5385.92 1211.63 5380.16 1211.63C5374.4 1211.63 5368.87 1209.34 5364.8 1205.27C5360.73 1201.2 5358.44 1195.67 5358.44 1189.91C5358.44 1184.15 5360.73 1178.62 5364.8 1174.55C5368.87 1170.48 5374.4 1168.19 5380.16 1168.19Z" fill="white"/>
<path d="M5445.32 1168.19C5445.32 1179.71 5449.9 1190.76 5458.05 1198.91C5466.19 1207.05 5477.24 1211.63 5488.76 1211.63V1168.19H5445.32Z" fill="white"/>
<path d="M5488.76 1211.63C5500.29 1211.63 5511.34 1207.05 5519.48 1198.91C5527.63 1190.76 5532.21 1179.71 5532.21 1168.19H5488.76V1211.63Z" fill="white"/>
<path d="M5597.37 1168.19C5591.61 1168.19 5586.08 1170.48 5582.01 1174.55C5577.94 1178.62 5575.65 1184.15 5575.65 1189.91C5575.65 1195.67 5577.94 1201.2 5582.01 1205.27C5586.08 1209.34 5591.61 1211.63 5597.37 1211.63H5619.09V1168.19H5597.37Z" fill="white"/>
<path d="M5619.09 1168.19H5662.53V1211.63H5619.09V1168.19Z" fill="white"/>
<path d="M5662.53 1168.19H5705.98V1211.63H5662.53V1168.19Z" fill="white"/>
<path d="M5705.98 1168.19H5749.42V1211.63H5705.98V1168.19Z" fill="white"/>
<path d="M5749.42 1168.19H5792.86V1211.63H5749.42V1168.19Z" fill="white"/>
<path d="M5792.86 1168.19H5836.3V1211.63H5792.86V1168.19Z" fill="white"/>
<path d="M5836.3 1211.63C5847.83 1211.63 5858.87 1207.05 5867.02 1198.91C5875.17 1190.76 5879.75 1179.71 5879.75 1168.19H5836.3V1211.63Z" fill="white"/>
<path d="M6010.07 1189.91C6010.07 1195.67 6012.36 1201.2 6016.44 1205.27C6020.51 1209.34 6026.03 1211.63 6031.79 1211.63C6037.56 1211.63 6043.08 1209.34 6047.15 1205.27C6051.23 1201.2 6053.52 1195.67 6053.52 1189.91V1168.19H6010.07V1189.91Z" fill="white"/>
<path d="M5141.23 1211.63C5141.23 1223.15 5145.8 1234.2 5153.95 1242.35C5162.1 1250.5 5173.15 1255.07 5184.67 1255.07V1211.63H5141.23Z" fill="white"/>
<path d="M5184.67 1211.63H5228.11V1255.07H5184.67V1211.63Z" fill="white"/>
<path d="M5228.11 1211.63H5271.55V1255.07H5228.11V1211.63Z" fill="white"/>
<path d="M5271.55 1211.63H5314.99V1255.07H5271.55V1211.63Z" fill="white"/>
<path d="M5314.99 1211.63C5326.52 1211.63 5337.57 1216.21 5345.71 1224.35C5353.86 1232.5 5358.44 1243.55 5358.44 1255.07H5314.99V1211.63Z" fill="white"/>
<path d="M5553.93 1211.63C5559.69 1211.63 5565.21 1213.92 5569.29 1217.99C5573.36 1222.07 5575.65 1227.59 5575.65 1233.35C5575.65 1239.11 5573.36 1244.64 5569.29 1248.71C5565.21 1252.78 5559.69 1255.07 5553.93 1255.07C5548.17 1255.07 5542.64 1252.78 5538.57 1248.71C5534.5 1244.64 5532.21 1239.11 5532.21 1233.35C5532.21 1227.59 5534.5 1222.07 5538.57 1217.99C5542.64 1213.92 5548.17 1211.63 5553.93 1211.63Z" fill="white"/>
<path d="M5792.86 1211.63H5836.3V1255.07H5792.86V1211.63Z" fill="white"/>
<path d="M5901.47 1211.63C5895.71 1211.63 5890.18 1213.92 5886.11 1217.99C5882.03 1222.07 5879.75 1227.59 5879.75 1233.35C5879.75 1239.11 5882.03 1244.64 5886.11 1248.71C5890.18 1252.78 5895.71 1255.07 5901.47 1255.07H5923.19V1211.63H5901.47Z" fill="white"/>
<path d="M5923.19 1211.63H5966.63V1255.07H5923.19V1211.63Z" fill="white"/>
<path d="M5966.63 1211.63C5978.15 1211.63 5989.2 1216.21 5997.35 1224.35C6005.5 1232.5 6010.07 1243.55 6010.07 1255.07H5966.63V1211.63Z" fill="white"/>
<path d="M5184.67 1276.79C5184.67 1282.56 5186.96 1288.08 5191.03 1292.15C5195.1 1296.23 5200.63 1298.52 5206.39 1298.52C5212.15 1298.52 5217.67 1296.23 5221.75 1292.15C5225.82 1288.08 5228.11 1282.56 5228.11 1276.79V1255.07H5184.67V1276.79Z" fill="white"/>
<path d="M5271.55 1255.07H5314.99V1298.52H5271.55V1255.07Z" fill="white"/>
<path d="M5314.99 1255.07H5358.44V1298.52H5314.99V1255.07Z" fill="white"/>
<path d="M5358.44 1255.07H5401.88V1298.52H5358.44V1255.07Z" fill="white"/>
<path d="M5423.6 1255.07C5429.36 1255.07 5434.89 1257.36 5438.96 1261.44C5443.03 1265.51 5445.32 1271.03 5445.32 1276.79C5445.32 1282.56 5443.03 1288.08 5438.96 1292.15C5434.89 1296.23 5429.36 1298.52 5423.6 1298.52H5401.88V1255.07H5423.6Z" fill="white"/>
<path d="M5510.49 1255.07C5516.25 1255.07 5521.77 1257.36 5525.84 1261.44C5529.92 1265.51 5532.21 1271.03 5532.21 1276.79C5532.21 1282.56 5529.92 1288.08 5525.84 1292.15C5521.77 1296.23 5516.25 1298.52 5510.49 1298.52C5504.72 1298.52 5499.2 1296.23 5495.13 1292.15C5491.05 1288.08 5488.76 1282.56 5488.76 1276.79C5488.76 1271.03 5491.05 1265.51 5495.13 1261.44C5499.2 1257.36 5504.72 1255.07 5510.49 1255.07Z" fill="white"/>
<path d="M5684.26 1255.07C5678.49 1255.07 5672.97 1257.36 5668.9 1261.44C5664.82 1265.51 5662.53 1271.03 5662.53 1276.79C5662.53 1282.56 5664.82 1288.08 5668.9 1292.15C5672.97 1296.23 5678.49 1298.52 5684.26 1298.52H5705.98V1255.07H5684.26Z" fill="white"/>
<path d="M5727.7 1255.07C5733.46 1255.07 5738.98 1257.36 5743.06 1261.44C5747.13 1265.51 5749.42 1271.03 5749.42 1276.79C5749.42 1282.56 5747.13 1288.08 5743.06 1292.15C5738.98 1296.23 5733.46 1298.52 5727.7 1298.52H5705.98V1255.07H5727.7Z" fill="white"/>
<path d="M5792.86 1255.07C5792.86 1266.59 5797.44 1277.64 5805.59 1285.79C5813.73 1293.94 5824.78 1298.52 5836.3 1298.52V1255.07H5792.86Z" fill="white"/>
<path d="M5836.3 1255.07C5847.83 1255.07 5858.87 1259.65 5867.02 1267.8C5875.17 1275.94 5879.75 1286.99 5879.75 1298.52H5836.3V1255.07Z" fill="white"/>
<path d="M5966.63 1255.07C5966.63 1266.59 5971.21 1277.64 5979.35 1285.79C5987.5 1293.94 5998.55 1298.52 6010.07 1298.52V1255.07H5966.63Z" fill="white"/>
<path d="M6010.07 1255.07C6021.59 1255.07 6032.64 1259.65 6040.79 1267.8C6048.94 1275.94 6053.52 1286.99 6053.52 1298.52H6010.07V1255.07Z" fill="white"/>
<path d="M5228.11 1341.96C5228.11 1330.44 5232.69 1319.39 5240.83 1311.24C5248.98 1303.09 5260.03 1298.52 5271.55 1298.52V1341.96H5228.11Z" fill="white"/>
<path d="M5271.55 1298.52H5314.99V1341.96H5271.55V1298.52Z" fill="white"/>
<path d="M5314.99 1341.96C5326.52 1341.96 5337.57 1337.38 5345.71 1329.23C5353.86 1321.09 5358.44 1310.04 5358.44 1298.52H5314.99V1341.96Z" fill="white"/>
<path d="M5575.65 1320.24C5575.65 1314.48 5577.94 1308.95 5582.01 1304.88C5586.08 1300.8 5591.61 1298.52 5597.37 1298.52C5603.13 1298.52 5608.66 1300.8 5612.73 1304.88C5616.8 1308.95 5619.09 1314.48 5619.09 1320.24V1341.96H5575.65V1320.24Z" fill="white"/>
<path d="M5749.42 1320.24C5749.42 1314.48 5751.71 1308.95 5755.78 1304.88C5759.85 1300.8 5765.38 1298.52 5771.14 1298.52C5776.9 1298.52 5782.43 1300.8 5786.5 1304.88C5790.57 1308.95 5792.86 1314.48 5792.86 1320.24V1341.96H5749.42V1320.24Z" fill="white"/>
<path d="M5836.3 1298.52H5879.75V1341.96H5836.3V1298.52Z" fill="white"/>
<path d="M5879.75 1298.52H5923.19V1341.96H5879.75V1298.52Z" fill="white"/>
<path d="M5944.91 1298.52C5950.67 1298.52 5956.2 1300.8 5960.27 1304.88C5964.34 1308.95 5966.63 1314.48 5966.63 1320.24C5966.63 1326 5964.34 1331.52 5960.27 1335.6C5956.2 1339.67 5950.67 1341.96 5944.91 1341.96H5923.19V1298.52H5944.91Z" fill="white"/>
<path d="M6010.07 1320.24C6010.07 1326 6012.36 1331.52 6016.44 1335.6C6020.51 1339.67 6026.03 1341.96 6031.79 1341.96C6037.56 1341.96 6043.08 1339.67 6047.15 1335.6C6051.23 1331.52 6053.52 1326 6053.52 1320.24V1298.52H6010.07V1320.24Z" fill="white"/>
<path d="M5228.11 1363.68C5228.11 1369.44 5230.4 1374.96 5234.47 1379.04C5238.55 1383.11 5244.07 1385.4 5249.83 1385.4C5255.59 1385.4 5261.12 1383.11 5265.19 1379.04C5269.26 1374.96 5271.55 1369.44 5271.55 1363.68V1341.96H5228.11V1363.68Z" fill="white"/>
<path d="M5467.04 1341.96C5472.8 1341.96 5478.33 1344.25 5482.4 1348.32C5486.48 1352.39 5488.76 1357.92 5488.76 1363.68C5488.76 1369.44 5486.48 1374.96 5482.4 1379.04C5478.33 1383.11 5472.8 1385.4 5467.04 1385.4C5461.28 1385.4 5455.76 1383.11 5451.68 1379.04C5447.61 1374.96 5445.32 1369.44 5445.32 1363.68C5445.32 1357.92 5447.61 1352.39 5451.68 1348.32C5455.76 1344.25 5461.28 1341.96 5467.04 1341.96Z" fill="white"/>
<path d="M5553.93 1341.96C5548.17 1341.96 5542.64 1344.25 5538.57 1348.32C5534.5 1352.39 5532.21 1357.92 5532.21 1363.68C5532.21 1369.44 5534.5 1374.96 5538.57 1379.04C5542.64 1383.11 5548.17 1385.4 5553.93 1385.4H5575.65V1341.96H5553.93Z" fill="white"/>
<path d="M5575.65 1341.96H5619.09V1385.4H5575.65V1341.96Z" fill="white"/>
<path d="M5619.09 1341.96H5662.53V1385.4H5619.09V1341.96Z" fill="white"/>
<path d="M5662.53 1341.96H5705.98V1385.4H5662.53V1341.96Z" fill="white"/>
<path d="M5705.98 1341.96H5749.42V1385.4H5705.98V1341.96Z" fill="white"/>
<path d="M5749.42 1341.96H5792.86V1385.4H5749.42V1341.96Z" fill="white"/>
<path d="M5792.86 1341.96H5836.3V1385.4H5792.86V1341.96Z" fill="white"/>
<path d="M5836.3 1341.96H5879.75V1385.4H5836.3V1341.96Z" fill="white"/>
<path d="M5879.75 1385.4C5891.27 1385.4 5902.32 1380.82 5910.46 1372.68C5918.61 1364.53 5923.19 1353.48 5923.19 1341.96H5879.75V1385.4Z" fill="white"/>
<path fill-rule="evenodd" clip-rule="evenodd" d="M4894.99 170.716H4994.59C5025.62 170.716 5050.77 195.87 5050.77 226.9V326.5C5050.77 357.53 5025.62 382.684 4994.59 382.684H4894.99C4863.96 382.684 4838.8 357.53 4838.8 326.5V226.9C4838.8 195.87 4863.96 170.716 4894.99 170.716ZM4994.59 117.085C5055.24 117.085 5104.4 166.251 5104.4 226.9V326.5C5104.4 387.149 5055.24 436.315 4994.59 436.315H4894.99C4834.34 436.315 4785.17 387.149 4785.17 326.5V226.9C4785.17 166.251 4834.34 117.085 4894.99 117.085H4994.59Z" fill="white"/>
<path d="M5011.11 238.976C5011.11 223.179 4998.31 210.373 4982.51 210.373H4906.92C4891.12 210.373 4878.31 223.179 4878.31 238.976V314.569C4878.31 330.366 4891.12 343.172 4906.92 343.172H4982.51C4998.31 343.172 5011.11 330.366 5011.11 314.569V238.976Z" fill="white"/>
<path fill-rule="evenodd" clip-rule="evenodd" d="M4894.99 1128.32H4994.59C5025.62 1128.32 5050.77 1153.47 5050.77 1184.5V1284.1C5050.77 1315.13 5025.62 1340.28 4994.59 1340.28H4894.99C4863.96 1340.28 4838.8 1315.13 4838.8 1284.1V1184.5C4838.8 1153.47 4863.96 1128.32 4894.99 1128.32ZM4994.59 1074.69C5055.24 1074.69 5104.4 1123.85 5104.4 1184.5V1284.1C5104.4 1344.75 5055.24 1393.91 4994.59 1393.91H4894.99C4834.34 1393.91 4785.17 1344.75 4785.17 1284.1V1184.5C4785.17 1123.85 4834.34 1074.69 4894.99 1074.69H4994.59Z" fill="white"/>
<path d="M5011.11 1196.58C5011.11 1180.78 4998.31 1167.97 4982.51 1167.97H4906.92C4891.12 1167.97 4878.31 1180.78 4878.31 1196.58V1272.17C4878.31 1287.97 4891.12 1300.77 4906.92 1300.77H4982.51C4998.31 1300.77 5011.11 1287.97 5011.11 1272.17V1196.58Z" fill="white"/>
<path fill-rule="evenodd" clip-rule="evenodd" d="M5852.59 170.716H5952.19C5983.22 170.716 6008.37 195.87 6008.37 226.9V326.5C6008.37 357.53 5983.22 382.684 5952.19 382.684H5852.59C5821.56 382.684 5796.4 357.53 5796.4 326.5V226.9C5796.4 195.87 5821.56 170.716 5852.59 170.716ZM5952.19 117.085C6012.83 117.085 6062 166.251 6062 226.9V326.5C6062 387.149 6012.83 436.315 5952.19 436.315H5852.59C5791.94 436.315 5742.77 387.149 5742.77 326.5V226.9C5742.77 166.251 5791.94 117.085 5852.59 117.085H5952.19Z" fill="white"/>
<path d="M5968.71 238.976C5968.71 223.179 5955.91 210.373 5940.11 210.373H5864.52C5848.72 210.373 5835.91 223.179 5835.91 238.976V314.569C5835.91 330.366 5848.72 343.172 5864.52 343.172H5940.11C5955.91 343.172 5968.71 330.366 5968.71 314.569V238.976Z" fill="white"/>
<defs>
<linearGradient id="paint0_linear_68_7073" x1="6.44161e-05" y1="1511" x2="701.697" y2="-1347.33" gradientUnits="userSpaceOnUse">
<stop stop-color="#40A3E7"/>
<stop offset="1" stop-color="#BC56D7"/>
</linearGradient>
</defs>
</svg>
