<svg width="20" height="20" viewBox="0 0 20 20" fill="none" xmlns="http://www.w3.org/2000/svg">
<path d="M13.795 9.19497C14.0684 8.9216 14.0684 8.47838 13.795 8.20502C13.5216 7.93165 13.0784 7.93165 12.805 8.20501L9.50002 11.51L7.695 9.70501C7.42163 9.43165 6.97842 9.43165 6.70505 9.70502C6.43169 9.97839 6.43169 10.4216 6.70506 10.695L9.00505 12.9949C9.27842 13.2683 9.72163 13.2683 9.995 12.9949L13.795 9.19497Z" />
<path d="M11.2161 2.0811C10.5695 1.35158 9.4306 1.35158 8.78399 2.0811L7.30033 3.75501H5.375C4.47754 3.75501 3.75 4.48255 3.75 5.38001V7.30049L2.0777 8.7846C1.34919 9.43111 1.34919 10.5689 2.0777 11.2154L3.75 12.6995V14.62C3.75 15.5175 4.47754 16.245 5.375 16.245H7.30033L8.784 17.9189C9.4306 18.6484 10.5695 18.6484 11.2161 17.9189L12.6998 16.245H14.62C15.5175 16.245 16.245 15.5175 16.245 14.62V12.6997L17.9189 11.2161C18.6485 10.5695 18.6485 9.43052 17.9189 8.78391L16.245 7.30025V5.38001C16.245 4.48255 15.5175 3.75501 14.62 3.75501H12.6998L11.2161 2.0811ZM9.71943 2.91022C9.86865 2.74187 10.1315 2.74187 10.2807 2.91022L11.9509 4.79457C12.0695 4.9284 12.2398 5.00501 12.4186 5.00501H14.62C14.8271 5.00501 14.995 5.1729 14.995 5.38001V7.58146C14.995 7.76029 15.0716 7.93056 15.2054 8.04918L17.0898 9.71936C17.2582 9.86858 17.2582 10.1314 17.0898 10.2806L15.2054 11.9508C15.0716 12.0694 14.995 12.2397 14.995 12.4185V14.62C14.995 14.8271 14.8271 14.995 14.62 14.995H12.4186C12.2398 14.995 12.0695 15.0716 11.9509 15.2054L10.2807 17.0898C10.1315 17.2581 9.86865 17.2581 9.71943 17.0898L8.04924 15.2054C7.93062 15.0716 7.76036 14.995 7.58153 14.995H5.375C5.16789 14.995 5 14.8271 5 14.62V12.4185C5 12.2398 4.92351 12.0697 4.78986 11.9511L2.90741 10.2805C2.73929 10.1313 2.73929 9.86872 2.90741 9.71952L4.78986 8.04892C4.92351 7.93031 5 7.76015 5 7.58146V5.38001C5 5.1729 5.16789 5.00501 5.375 5.00501H7.58153C7.76036 5.00501 7.93063 4.9284 8.04925 4.79457L9.71943 2.91022Z" />
</svg>
