<svg width="20" height="20" viewBox="0 0 20 20" fill="none" xmlns="http://www.w3.org/2000/svg">
<path fill-rule="evenodd" clip-rule="evenodd" d="M5.24501 5.99905C5.24501 5.03256 6.02851 4.24905 6.99501 4.24905C7.96151 4.24905 8.74501 5.03256 8.74501 5.99905C8.74501 6.96555 7.96151 7.74905 6.99501 7.74905C6.02851 7.74905 5.24501 6.96555 5.24501 5.99905ZM6.99501 2.99905C5.33816 2.99905 3.99501 4.3422 3.99501 5.99905C3.99501 7.65591 5.33816 8.99905 6.99501 8.99905C8.65187 8.99905 9.99501 7.65591 9.99501 5.99905C9.99501 4.3422 8.65187 2.99905 6.99501 2.99905ZM13.2518 6.49957C13.2518 5.81023 13.8107 5.2514 14.5 5.2514C15.1894 5.2514 15.7482 5.81023 15.7482 6.49957C15.7482 7.18892 15.1894 7.74774 14.5 7.74774C13.8107 7.74774 13.2518 7.18892 13.2518 6.49957ZM14.5 4.0014C13.1203 4.0014 12.0018 5.11987 12.0018 6.49957C12.0018 7.87927 13.1203 8.99774 14.5 8.99774C15.8797 8.99774 16.9982 7.87927 16.9982 6.49957C16.9982 5.11987 15.8797 4.0014 14.5 4.0014ZM2.00687 12.3804C2.0066 10.9305 3.18193 9.75491 4.63187 9.75491H9.37881C10.8286 9.75491 12.0038 10.9302 12.0038 12.3799V12.4779C12.0038 13.8078 11.2218 14.7701 10.2489 15.3702C9.28535 15.9645 8.07471 16.25 7.00581 16.25C5.93692 16.25 4.72608 15.9645 3.76236 15.3702C2.78923 14.7702 2.00693 13.808 2.00688 12.4781V12.4779L2.00687 12.3804ZM4.63187 11.0049C3.87238 11.0049 3.25673 11.6207 3.25687 12.3802L3.25688 12.4778V12.4779C3.25688 13.246 3.69024 13.8573 4.41841 14.3062C5.15601 14.761 6.13213 15 7.00581 15C7.87948 15 8.85534 14.761 9.59268 14.3063C10.3206 13.8573 10.7538 13.2461 10.7538 12.4779V12.3799C10.7538 11.6205 10.1382 11.0049 9.37881 11.0049H4.63187ZM14.5035 15.245C13.7124 15.245 12.9066 15.1019 12.1985 14.8184C12.4517 14.4934 12.6614 14.1247 12.8028 13.7109C13.3114 13.8933 13.9015 13.995 14.5035 13.995C15.3812 13.995 16.2332 13.779 16.8443 13.4115C17.4514 13.0464 17.752 12.5837 17.752 12.07C17.752 11.4763 17.2707 10.995 16.677 10.995H12.6608C12.4437 10.5397 12.131 10.1388 11.7488 9.81796C11.9343 9.77033 12.1286 9.745 12.3289 9.745H16.677C17.9611 9.745 19.002 10.7859 19.002 12.07C19.002 13.1619 18.3341 13.9742 17.4885 14.4827C16.647 14.9888 15.5622 15.245 14.5035 15.245Z" />
</svg>
