<svg width="20" height="20" viewBox="0 0 20 20" fill="none" xmlns="http://www.w3.org/2000/svg">
<path d="M4.99674 7.62891C4.99674 7.28373 5.27657 7.00391 5.62174 7.00391H14.3828C14.728 7.00391 15.0078 7.28373 15.0078 7.62891C15.0078 7.97409 14.728 8.25391 14.3828 8.25391H5.62174C5.27657 8.25391 4.99674 7.97409 4.99674 7.62891Z" />
<path d="M13.2509 14.5018C13.9417 14.5018 14.5018 13.9417 14.5018 13.2509C14.5018 12.56 13.9417 12 13.2509 12C12.56 12 12 12.56 12 13.2509C12 13.9417 12.56 14.5018 13.2509 14.5018Z" />
<path d="M6.62474 1.25479C6.96991 1.25479 7.24973 1.53461 7.24973 1.87979V3.00195H12.7521V1.87979C12.7521 1.53461 13.0319 1.25479 13.3771 1.25479C13.7222 1.25479 14.0021 1.53461 14.0021 1.87979V3.00195L14.7559 3.00337C15.0541 3.00585 15.3153 3.01264 15.5434 3.03128C15.9155 3.06168 16.2539 3.12669 16.5706 3.28806C17.0645 3.53973 17.4661 3.9413 17.7178 4.43523C17.8791 4.75193 17.9441 5.09031 17.9746 5.46246C18.0039 5.82152 18.0039 6.26293 18.0039 6.8008V13.4482C18.0039 13.9861 18.0039 14.4276 17.9746 14.7867C17.9441 15.1588 17.8791 15.4972 17.7178 15.8139C17.4661 16.3078 17.0645 16.7094 16.5706 16.9611C16.2539 17.1224 15.9155 17.1874 15.5434 17.2178C15.1843 17.2472 13.989 17.2472 13.4511 17.2472H6.54892C6.01104 17.2472 4.82311 17.2472 4.46405 17.2178C4.09189 17.1874 3.75352 17.1224 3.43682 16.9611C2.94289 16.7094 2.54132 16.3078 2.28965 15.8139C2.12828 15.4972 2.06327 15.1588 2.03286 14.7867C2.00353 14.4276 2.00353 13.9861 2.00354 13.4482L2.00354 6.80091C2.00353 6.26299 2.00353 5.82154 2.03286 5.46246C2.06327 5.09031 2.12828 4.75193 2.28965 4.43523C2.54132 3.9413 2.94289 3.53973 3.43682 3.28806C3.75352 3.12669 4.09189 3.06168 4.46405 3.03128C4.69256 3.01261 4.95444 3.00582 5.2533 3.00335L5.99974 3.00195V1.87979C5.99974 1.53461 6.27956 1.25479 6.62474 1.25479ZM4.56584 4.27712C4.27099 4.30122 4.11542 4.3452 4.0043 4.40182C3.74558 4.53364 3.53523 4.74399 3.40341 5.00272C3.34679 5.11383 3.3028 5.2694 3.27871 5.56425C3.25403 5.8664 3.25354 6.25659 3.25354 6.82695V13.4222C3.25354 13.9925 3.25403 14.3827 3.27871 14.6849C3.3028 14.9797 3.34679 15.1353 3.40341 15.2464C3.53523 15.5051 3.74558 15.7155 4.0043 15.8473C4.11542 15.9039 4.27099 15.9479 4.56584 15.972C4.86799 15.9967 6.00461 15.9972 6.57498 15.9972H13.425C13.9953 15.9972 15.1394 15.9967 15.4416 15.972C15.7364 15.9479 15.892 15.9039 16.0031 15.8473C16.2618 15.7155 16.4722 15.5051 16.604 15.2464C16.6606 15.1353 16.7046 14.9797 16.7287 14.6849C16.7534 14.3827 16.7539 13.9925 16.7539 13.4222V6.82695C16.7539 6.25659 16.7534 5.8664 16.7287 5.56425C16.7046 5.2694 16.6606 5.11383 16.604 5.00272C16.4722 4.74399 16.2618 4.53364 16.0031 4.40182C15.892 4.3452 15.7364 4.30122 15.4416 4.27712C15.1394 4.25244 14.7492 4.25195 14.1789 4.25195H5.82854C5.25818 4.25195 4.86799 4.25244 4.56584 4.27712Z" />
</svg>
