<svg width="20" height="20" viewBox="0 0 20 20" fill="none" xmlns="http://www.w3.org/2000/svg">
<path d="M18.25 10C18.25 14.5563 14.5563 18.25 10 18.25C5.44365 18.25 1.75 14.5563 1.75 10C1.75 5.44365 5.44365 1.75 10 1.75C14.5563 1.75 18.25 5.44365 18.25 10ZM13.8019 8.188C14.0753 7.91463 14.0753 7.47142 13.8019 7.19805C13.5285 6.92468 13.0853 6.92468 12.8119 7.19805L8.5 11.51L6.69368 9.70367C6.42031 9.4303 5.97709 9.4303 5.70373 9.70367C5.43036 9.97703 5.43036 10.4202 5.70373 10.6936L8.00503 12.9949C8.1363 13.1262 8.31435 13.1999 8.5 13.1999C8.68565 13.1999 8.8637 13.1262 8.99498 12.9949L13.8019 8.188Z" />
</svg>
