<svg width="20" height="20" viewBox="0 0 20 20" fill="none" xmlns="http://www.w3.org/2000/svg">
<path d="M2.16866 5.14524C1.75 6.15598 1.75 7.43732 1.75 10C1.75 12.5627 1.75 13.844 2.16866 14.8548C2.72688 16.2024 3.79759 17.2731 5.14524 17.8313C6.15598 18.25 7.43732 18.25 10 18.25C12.5627 18.25 13.844 18.25 14.8548 17.8313C16.2024 17.2731 17.2731 16.2024 17.8313 14.8548C18.25 13.844 18.25 12.5627 18.25 10C18.25 7.43732 18.25 6.15598 17.8313 5.14524C17.2731 3.79759 16.2024 2.72688 14.8548 2.16866C13.844 1.75 12.5627 1.75 10 1.75C7.43732 1.75 6.15598 1.75 5.14524 2.16866C3.79759 2.72688 2.72688 3.79759 2.16866 5.14524ZM7.07573 16.9506C6.37236 16.9026 5.95127 16.8122 5.6236 16.6765C4.58223 16.2451 3.75486 15.4178 3.32351 14.3764C3.18779 14.0487 3.09742 13.6276 3.04943 12.9243C3.00068 12.2097 3 11.2984 3 10C3 8.70156 3.00068 7.79033 3.04943 7.07573C3.09742 6.37236 3.18779 5.95127 3.32351 5.6236C3.75486 4.58223 4.58223 3.75486 5.6236 3.32351C5.95127 3.18779 6.37236 3.09742 7.07573 3.04943C7.79033 3.00068 8.70156 3 10 3C11.2984 3 12.2097 3.00068 12.9243 3.04943C13.6276 3.09742 14.0487 3.18779 14.3764 3.32351C15.4178 3.75486 16.2451 4.58223 16.6765 5.6236C16.8122 5.95127 16.9026 6.37236 16.9506 7.07573C16.9993 7.79033 17 8.70156 17 10C17 11.2984 16.9993 12.2097 16.9506 12.9243C16.9026 13.6276 16.8122 14.0487 16.6765 14.3764C16.2451 15.4178 15.4178 16.2451 14.3764 16.6765C14.0487 16.8122 13.6276 16.9026 12.9243 16.9506C12.2097 16.9993 11.2984 17 10 17C8.70156 17 7.79033 16.9993 7.07573 16.9506Z" />
</svg>
