<svg width="20" height="20" viewBox="0 0 20 20" fill="none" xmlns="http://www.w3.org/2000/svg">
<path fill-rule="evenodd" clip-rule="evenodd" d="M18.25 10C18.25 14.5563 14.5563 18.25 10 18.25C5.44365 18.25 1.75 14.5563 1.75 10C1.75 5.44365 5.44365 1.75 10 1.75C14.5563 1.75 18.25 5.44365 18.25 10ZM10 17C13.866 17 17 13.866 17 10C17 6.13401 13.866 3 10 3C6.13401 3 3 6.13401 3 10C3 13.866 6.13401 17 10 17ZM7.01555 8.38371C6.77147 8.13963 6.37574 8.13963 6.13167 8.38371C5.88759 8.62779 5.88759 9.02352 6.13167 9.2676L9.55806 12.694C9.80214 12.9381 10.1979 12.9381 10.4419 12.694L13.8683 9.26759C14.1124 9.02352 14.1124 8.62779 13.8683 8.38371C13.6243 8.13963 13.2285 8.13963 12.9845 8.38371L10 11.3682L7.01555 8.38371Z" />
</svg>
