<svg width="20" height="20" viewBox="0 0 20 20" fill="none" xmlns="http://www.w3.org/2000/svg">
<path fill-rule="evenodd" clip-rule="evenodd" d="M10 18.25C14.5563 18.25 18.25 14.5563 18.25 10C18.25 5.44365 14.5563 1.75 10 1.75C5.44365 1.75 1.75 5.44365 1.75 10C1.75 14.5563 5.44365 18.25 10 18.25ZM17 10C17 13.866 13.866 17 10 17C6.13401 17 3 13.866 3 10C3 6.13401 6.13401 3 10 3C13.866 3 17 6.13401 17 10ZM10.245 6.62C10.245 6.27482 9.96517 5.995 9.62 5.995C9.27482 5.995 8.995 6.27482 8.995 6.62V10.3834C8.995 10.7286 9.27482 11.0084 9.62 11.0084H12.3813C12.7265 11.0084 13.0063 10.7286 13.0063 10.3834C13.0063 10.0382 12.7265 9.75839 12.3813 9.75839H10.245V6.62Z" />
</svg>
