<svg width="20" height="20" viewBox="0 0 20 20" fill="none" xmlns="http://www.w3.org/2000/svg">
<path fill-rule="evenodd" clip-rule="evenodd" d="M12.62 2.75104C12.2748 2.75104 11.995 3.03086 11.995 3.37604C11.995 3.72122 12.2748 4.00104 12.62 4.00104H15.1162L11.5625 7.55472C11.3184 7.7988 11.3184 8.19453 11.5625 8.43861C11.8066 8.68268 12.2023 8.68268 12.4464 8.43861L15.995 4.88997V7.37891C15.995 7.72408 16.2748 8.00391 16.62 8.00391C16.9652 8.00391 17.245 7.72408 17.245 7.37891V3.37604C17.245 3.03086 16.9652 2.75104 16.62 2.75104H12.62ZM7.38232 17.2447C7.7275 17.2447 8.00732 16.9648 8.00732 16.6197C8.00732 16.2745 7.7275 15.9947 7.38232 15.9947H4.88923L8.43782 12.4461C8.6819 12.202 8.6819 11.8063 8.43782 11.5622C8.19374 11.3181 7.79801 11.3181 7.55394 11.5622L4.00732 15.1088L4.00732 12.6168C4.00732 12.2716 3.7275 11.9918 3.38232 11.9918C3.03715 11.9918 2.75732 12.2716 2.75732 12.6168V16.6197C2.75732 16.9648 3.03715 17.2447 3.38232 17.2447H7.38232Z" />
</svg>
