<svg width="20" height="20" viewBox="0 0 20 20" fill="none" xmlns="http://www.w3.org/2000/svg">
<path d="M4.14854 2.58339C4.78562 2.26275 5.69698 2 6.99999 2C8.588 2 9.54635 2.73731 10.3558 3.36003C11.1565 3.97601 11.9513 4.5 13 4.5C14.1548 4.5 14.8901 4.26192 15.333 4.03271C15.5267 3.93248 15.7586 3.94046 15.945 4.05378C16.1313 4.16709 16.2451 4.36935 16.2453 4.58744L16.2499 12.5815C16.2501 12.8145 16.1205 13.0283 15.9138 13.136C15.2739 13.4696 14.3396 13.7472 13 13.7472C11.6787 13.7472 10.6339 13.1483 9.61911 12.3676C8.8088 11.7443 8.14532 11.2472 6.99999 11.2472C6.09698 11.2472 5.45626 11.3918 5.0079 11.5646V17.3797C5.0079 17.7249 4.72808 18.0047 4.3829 18.0047C4.03773 18.0047 3.7579 17.7249 3.7579 17.3797L3.7579 3.16296C3.7579 2.90067 3.91948 2.67611 4.14854 2.58339ZM5.0079 3.5684V10.2486C5.54185 10.0969 6.19717 9.99719 6.99999 9.99719C8.588 9.99719 9.54635 10.7345 10.3558 11.3572C11.1565 11.9732 11.9513 12.4972 13 12.4972C13.9055 12.4972 14.5501 12.3519 14.9997 12.1787L14.9958 5.49833C14.4594 5.65004 13.8014 5.75 13 5.75C11.6787 5.75 10.6339 5.1511 9.61911 4.3704C8.8088 3.74714 8.14532 3.25 6.99999 3.25C6.09535 3.25 5.45572 3.39514 5.0079 3.5684Z" />
</svg>
