<svg width="20" height="20" viewBox="0 0 20 20" fill="none" xmlns="http://www.w3.org/2000/svg">
<path fill-rule="evenodd" clip-rule="evenodd" d="M4.14854 2.58339C4.78562 2.26275 5.69698 2 6.99999 2C8.588 2 9.54635 2.73731 10.3558 3.36003C11.1565 3.97601 11.9513 4.5 13 4.5C14.1548 4.5 14.8901 4.26192 15.333 4.03271C15.5267 3.93248 15.7586 3.94046 15.945 4.05378C16.1313 4.16709 16.2451 4.36935 16.2453 4.58744L16.2499 12.0208C16.2501 12.2539 16.1205 12.4677 15.9138 12.5754C15.2739 12.909 14.3396 13.1865 13 13.1865C11.6787 13.1865 10.6339 12.5876 9.61911 11.807C8.8088 11.1837 8.14532 10.6865 6.99999 10.6865C6.09698 10.6865 5.45626 10.8312 5.0079 11.0039V17.3797C5.0079 17.7249 4.72808 18.0047 4.3829 18.0047C4.03773 18.0047 3.7579 17.7249 3.7579 17.3797L3.7579 3.16296C3.7579 2.90067 3.91948 2.67611 4.14854 2.58339Z" />
</svg>
