<svg width="20" height="20" viewBox="0 0 20 20" fill="none" xmlns="http://www.w3.org/2000/svg">
<path fill-rule="evenodd" clip-rule="evenodd" d="M8.31507 4.18389L8.68993 2.95886H11.3101L11.6849 4.18389C12.0114 5.25073 13.1073 5.88345 14.1944 5.63275L15.4467 5.34396L16.7569 7.60969L15.8794 8.55115C15.1187 9.36729 15.1187 10.6327 15.8794 11.4489L16.7552 12.3885L15.4454 14.6558L14.1944 14.3673C13.1073 14.1166 12.0114 14.7493 11.6849 15.8161L11.3114 17.0368H8.68859L8.31507 15.8161C7.98861 14.7493 6.89271 14.1166 5.80557 14.3673L4.55394 14.6559L3.24575 12.3875L4.12063 11.4489C4.88131 10.6327 4.88131 9.36729 4.12063 8.55115L3.24712 7.61395L4.56693 5.34711L5.80557 5.63275C6.89271 5.88345 7.98861 5.25073 8.31507 4.18389ZM8.59746 1.70886C8.10293 1.70886 7.6664 2.0318 7.5217 2.50468L7.11978 3.81812C6.98535 4.25741 6.5341 4.51794 6.08645 4.41471L4.75806 4.10838C4.27766 3.99759 3.7811 4.2125 3.53304 4.63855L2.12017 7.06523C1.87058 7.4939 1.93122 8.03546 2.26942 8.39832L3.20622 9.40342C3.51945 9.73948 3.51945 10.2605 3.20622 10.5966L2.26833 11.6029C1.9313 11.9645 1.86979 12.5037 2.11675 12.9319L3.51733 15.3605C3.76448 15.7891 4.2626 16.0059 4.74467 15.8947L6.08645 15.5853C6.5341 15.4821 6.98535 15.7426 7.11978 16.1819L7.52036 17.491C7.66506 17.9638 8.1016 18.2868 8.59612 18.2868H11.4039C11.8984 18.2868 12.335 17.9638 12.4797 17.491L12.8802 16.1819C13.0147 15.7426 13.4659 15.4821 13.9136 15.5853L15.2546 15.8946C15.7364 16.0057 16.2342 15.7892 16.4815 15.3611L17.8838 12.9337C18.1313 12.5054 18.0699 11.9657 17.7327 11.6039L16.7938 10.5966C16.4806 10.2605 16.4806 9.73948 16.7938 9.40342L17.7344 8.39427C18.0717 8.03231 18.133 7.49242 17.8853 7.06407L16.4826 4.63824C16.2352 4.21038 15.7375 3.9941 15.2559 4.10516L13.9136 4.41471C13.4659 4.51794 13.0147 4.25741 12.8802 3.81812L12.4783 2.50468C12.3336 2.0318 11.8971 1.70886 11.4026 1.70886H8.59746ZM8.25 10C8.25 9.0335 9.03351 8.25 10 8.25C10.9665 8.25 11.75 9.0335 11.75 10C11.75 10.9665 10.9665 11.75 10 11.75C9.03351 11.75 8.25 10.9665 8.25 10ZM10 7C8.34315 7 7 8.34315 7 10C7 11.6569 8.34315 13 10 13C11.6569 13 13 11.6569 13 10C13 8.34315 11.6569 7 10 7Z" />
</svg>
