<svg width="20" height="20" viewBox="0 0 20 20" fill="none" xmlns="http://www.w3.org/2000/svg">
<path fill-rule="evenodd" clip-rule="evenodd" d="M9.47051 3.29423C9.56122 2.96118 9.36477 2.61766 9.03172 2.52695C8.69868 2.43623 8.35516 2.63269 8.26445 2.96573L7.30045 6.50501H5.16797C4.82279 6.50501 4.54297 6.78483 4.54297 7.13001C4.54297 7.47519 4.82279 7.75501 5.16797 7.75501H6.95999L5.73433 12.255H3.625C3.27982 12.255 3 12.5348 3 12.88C3 13.2252 3.27982 13.505 3.625 13.505H5.39386L4.51936 16.7157C4.42865 17.0488 4.6251 17.3923 4.95814 17.483C5.29119 17.5737 5.63471 17.3773 5.72542 17.0442L6.6894 13.505H11.4022L10.5277 16.7158C10.437 17.0488 10.6334 17.3923 10.9664 17.483C11.2995 17.5738 11.643 17.3773 11.7337 17.0443L12.6977 13.505H14.8311C15.1763 13.505 15.4561 13.2252 15.4561 12.88C15.4561 12.5348 15.1763 12.255 14.8311 12.255H13.0382L14.2638 7.75501H16.3741C16.7193 7.75501 16.9991 7.47519 16.9991 7.13001C16.9991 6.78483 16.7193 6.50501 16.3741 6.50501H14.6043L15.4788 3.29426C15.5695 2.96121 15.3731 2.61769 15.04 2.52698C14.707 2.43627 14.3635 2.63272 14.2727 2.96576L13.3088 6.50501H8.59599L9.47051 3.29423ZM11.7426 12.255L12.9683 7.75501H8.25553L7.02986 12.255H11.7426Z" />
</svg>
