<svg width="20" height="20" viewBox="0 0 20 20" fill="none" xmlns="http://www.w3.org/2000/svg">
<path fill-rule="evenodd" clip-rule="evenodd" d="M2.995 4.37543C2.995 4.03025 3.27482 3.75043 3.62 3.75043H16.3798C16.725 3.75043 17.0048 4.03025 17.0048 4.37543C17.0048 4.72061 16.725 5.00043 16.3798 5.00043H3.62C3.27482 5.00043 2.995 4.72061 2.995 4.37543ZM2.995 9.38327C2.995 9.03809 3.27482 8.75827 3.62 8.75827H16.3798C16.725 8.75827 17.0048 9.03809 17.0048 9.38327C17.0048 9.72845 16.725 10.0083 16.3798 10.0083H3.62C3.27482 10.0083 2.995 9.72845 2.995 9.38327ZM3.62 13.7549C3.27482 13.7549 2.995 14.0348 2.995 14.3799C2.995 14.7251 3.27482 15.0049 3.62 15.0049H16.3798C16.725 15.0049 17.0048 14.7251 17.0048 14.3799C17.0048 14.0348 16.725 13.7549 16.3798 13.7549H3.62Z" />
</svg>
