<svg width="20" height="20" viewBox="0 0 20 20" fill="none" xmlns="http://www.w3.org/2000/svg">
<path d="M2 4.62402C2 3.17481 3.17525 2 4.625 2L7.5781 2C8.01343 2 8.43056 2.17461 8.736 2.48469L11.0052 4.78843H15.3739C16.8237 4.78843 17.9989 5.96324 17.9989 7.41245L17.9989 14.376C17.9989 15.8252 16.8237 17 15.3739 17H4.625C3.17525 17 2 15.8252 2 14.376V4.62402ZM4.625 3.24953C3.86561 3.24953 3.25 3.86491 3.25 4.62402V14.376C3.25 15.1351 3.86561 15.7505 4.625 15.7505H15.3739C16.1333 15.7505 16.7489 15.1351 16.7489 14.376L16.7489 7.41245C16.7489 6.65334 16.1333 6.03796 15.3739 6.03796H10.7435C10.5761 6.03796 10.4156 5.97081 10.2982 5.85154L7.84531 3.36138C7.77482 3.28983 7.67856 3.24953 7.5781 3.24953H4.625Z" />
</svg>
