<svg width="20" height="20" viewBox="0 0 20 20" fill="none" xmlns="http://www.w3.org/2000/svg">
<path d="M16.442 1.55806C16.1979 1.31398 15.8021 1.31398 15.5581 1.55806C15.314 1.80214 15.314 2.19786 15.5581 2.44194L17.5581 4.44194C17.8021 4.68602 18.1979 4.68602 18.442 4.44194C18.686 4.19786 18.686 3.80214 18.442 3.55806L16.442 1.55806Z" />
<path d="M4.44586 1.55889C4.20224 1.31436 3.80652 1.31362 3.56198 1.55724L1.5541 3.55762C1.30956 3.80124 1.30882 4.19696 1.55244 4.4415C1.79606 4.68603 2.19179 4.68677 2.43632 4.44315L4.44421 2.44278C4.68874 2.19916 4.68948 1.80343 4.44586 1.55889Z" />
<path d="M10.245 6.62C10.245 6.27482 9.96517 5.995 9.62 5.995C9.27482 5.995 8.995 6.27482 8.995 6.62V9.99609C8.995 10.1616 9.06068 10.3204 9.17762 10.4376L11.1776 12.4415C11.4215 12.6858 11.8172 12.6862 12.0615 12.4424C12.3058 12.1985 12.3062 11.8028 12.0624 11.5585L10.245 9.73757V6.62Z" />
<path d="M15.8326 15.8347C17.3262 14.3417 18.25 12.2787 18.25 10C18.25 5.44367 14.5563 1.75002 10 1.75002C5.44365 1.75002 1.75 5.44367 1.75 10C1.75 12.2792 2.67425 14.3426 4.1684 15.8357L2.826 17.1781C2.58192 17.4222 2.58192 17.8179 2.826 18.062C3.07008 18.306 3.4658 18.306 3.70988 18.062L5.11955 16.6523C6.48628 17.6567 8.17385 18.25 10 18.25C11.8267 18.25 13.5146 17.6564 14.8816 16.6515L16.2921 18.062C16.5362 18.306 16.9319 18.306 17.176 18.062C17.42 17.8179 17.42 17.4222 17.176 17.1781L15.8326 15.8347ZM17 10C17 13.866 13.866 17 10 17C6.13401 17 3 13.866 3 10C3 6.13403 6.13401 3.00002 10 3.00002C13.866 3.00002 17 6.13403 17 10Z" />
</svg>
