<svg width="20" height="20" viewBox="0 0 20 20" fill="none" xmlns="http://www.w3.org/2000/svg">
<path d="M10.1775 2.4332C10.4215 2.18905 10.8172 2.18891 11.0614 2.43291L13.8151 5.1848C14.059 5.42855 14.0594 5.82379 13.816 6.06805L11.0623 8.83149C10.8187 9.076 10.4229 9.0767 10.1784 8.83305C9.93393 8.58941 9.93323 8.19368 10.1769 7.94917L11.8682 6.25188H7.00626C4.93253 6.25188 3.25 7.93546 3.25 10.014C3.25 11.2959 3.88953 12.4281 4.86887 13.1082C5.15238 13.3051 5.2226 13.6946 5.02571 13.9781C4.82881 14.2616 4.43936 14.3318 4.15585 14.1349C2.85418 13.2309 2 11.7223 2 10.014C2 7.24669 4.24059 5.00188 7.00626 5.00188H11.8637L10.1778 3.31709C9.93364 3.07309 9.93351 2.67736 10.1775 2.4332Z" />
<path d="M9.82576 17.5668C9.58176 17.811 9.18603 17.8111 8.94187 17.5671L6.18816 14.8152C5.94425 14.5715 5.94383 14.1762 6.18724 13.932L8.94095 11.1685C9.18459 10.924 9.58032 10.9233 9.82483 11.1669C10.0693 11.4106 10.07 11.8063 9.82639 12.0508L8.13508 13.7481L12.997 13.7481C15.0707 13.7481 16.7533 12.0645 16.7533 9.98596C16.7533 8.70405 16.1137 7.5719 15.1344 6.89178C14.8509 6.69488 14.7807 6.30544 14.9776 6.02192C15.1745 5.73841 15.5639 5.66819 15.8474 5.86508C17.1491 6.76906 18.0033 8.27772 18.0033 9.98596C18.0033 12.7533 15.7627 14.9981 12.997 14.9981H8.13955L9.82546 16.6829C10.0696 16.9269 10.0698 17.3226 9.82576 17.5668Z" />
</svg>
