<svg width="20" height="20" viewBox="0 0 20 20" fill="none" xmlns="http://www.w3.org/2000/svg">
<path fill-rule="evenodd" clip-rule="evenodd" d="M3.62728 2.00381C2.72982 2.00381 2.00229 2.73135 2.00228 3.62881L2.00226 9.08917C2.00226 9.51582 2.17005 9.92535 2.46941 10.2294L9.6471 17.5183C10.2801 18.1612 11.3156 18.1653 11.9537 17.5275L17.5277 11.956C18.166 11.318 18.1622 10.2821 17.5191 9.64888L10.2299 2.47096C9.92591 2.17161 9.51638 2.00381 9.08973 2.00381H3.62728ZM3.25228 3.62881C3.25228 3.42171 3.42018 3.25381 3.62728 3.25381H9.08973C9.18819 3.25381 9.2827 3.29254 9.35285 3.36162L16.642 10.5395C16.7904 10.6857 16.7913 10.9247 16.644 11.072L11.0701 16.6434C10.9228 16.7906 10.6838 16.7896 10.5378 16.6413L3.36006 9.35229C3.29098 9.28214 3.25226 9.18763 3.25226 9.08917L3.25228 3.62881ZM6.25 7.49837C6.94036 7.49837 7.5 6.93895 7.5 6.24886C7.5 5.55878 6.94036 4.99935 6.25 4.99935C5.55964 4.99935 5 5.55878 5 6.24886C5 6.93895 5.55964 7.49837 6.25 7.49837Z" />
</svg>
