<svg width="20" height="20" viewBox="0 0 20 20" fill="none" xmlns="http://www.w3.org/2000/svg">
<path fill-rule="evenodd" clip-rule="evenodd" d="M4.01663 9.49866C4.01663 5.91651 6.92053 3.0126 10.5027 3.0126C14.0848 3.0126 16.9887 5.91651 16.9887 9.49866C16.9887 13.0808 14.0848 15.9847 10.5027 15.9847C9.38564 15.9847 8.33375 15.7017 7.41718 15.2055L7.16784 15.0705L6.90204 15.1692L3.61879 16.3884L4.83514 13.0989L4.9334 12.8332L4.79832 12.5842C4.30036 11.6662 4.01663 10.6171 4.01663 9.49866ZM10.5027 1.7626C6.23018 1.7626 2.76663 5.22615 2.76663 9.49866C2.76663 10.729 3.05526 11.8914 3.56693 12.9245L2.05168 17.0222C1.83064 17.6057 2.4028 18.178 2.9865 17.9566L7.0781 16.4372C8.11062 16.9473 9.27491 17.2347 10.5027 17.2347C14.7752 17.2347 18.2387 13.7712 18.2387 9.49866C18.2387 5.22615 14.7752 1.7626 10.5027 1.7626ZM6.7534 11.1335C7.44397 11.1335 8.00378 10.5737 8.00378 9.88316C8.00378 9.1926 7.44397 8.63278 6.7534 8.63278C6.06284 8.63278 5.50302 9.1926 5.50302 9.88316C5.50302 10.5737 6.06284 11.1335 6.7534 11.1335ZM10.5004 11.1335C11.191 11.1335 11.7508 10.5737 11.7508 9.88316C11.7508 9.1926 11.191 8.63278 10.5004 8.63278C9.80984 8.63278 9.25003 9.1926 9.25003 9.88316C9.25003 10.5737 9.80984 11.1335 10.5004 11.1335ZM15.4961 9.88316C15.4961 10.5737 14.9363 11.1335 14.2457 11.1335C13.5552 11.1335 12.9953 10.5737 12.9953 9.88316C12.9953 9.1926 13.5552 8.63278 14.2457 8.63278C14.9363 8.63278 15.4961 9.1926 15.4961 9.88316Z" />
</svg>
