<svg width="20" height="20" viewBox="0 0 20 20" fill="none" xmlns="http://www.w3.org/2000/svg">
<path d="M10 18.25C14.5563 18.25 18.25 14.5563 18.25 10C18.25 5.44365 14.5563 1.75 10 1.75C5.44365 1.75 1.75 5.44365 1.75 10C1.75 14.5563 5.44365 18.25 10 18.25ZM13.2801 7.78054L11.0606 10L13.2801 12.2195C13.573 12.5124 13.573 12.9873 13.2801 13.2802C12.9872 13.573 12.5124 13.573 12.2195 13.2802L9.99999 11.0607L7.78053 13.2801C7.48764 13.573 7.01276 13.573 6.71987 13.2801C6.42698 12.9872 6.42698 12.5123 6.71987 12.2195L8.93933 10L6.71987 7.78055C6.42698 7.48766 6.42698 7.01279 6.71987 6.71989C7.01276 6.427 7.48764 6.427 7.78053 6.71989L9.99999 8.93935L12.2195 6.71988C12.5124 6.42699 12.9872 6.42699 13.2801 6.71988C13.573 7.01278 13.573 7.48765 13.2801 7.78054Z" />
</svg>
