<svg width="24" height="24" viewBox="0 0 24 24" fill="none" xmlns="http://www.w3.org/2000/svg">
<path fill-rule="evenodd" clip-rule="evenodd" d="M3 9C3.55228 9 4 9.44772 4 10V16C4 16.5523 3.55228 17 3 17C2.44772 17 2 16.5523 2 16V10C2 9.44772 2.44772 9 3 9Z" />
<path fill-rule="evenodd" clip-rule="evenodd" d="M21 9C21.5523 9 22 9.44772 22 10V16C22 16.5523 21.5523 17 21 17C20.4477 17 20 16.5523 20 16V10C20 9.44772 20.4477 9 21 9Z" />
<path fill-rule="evenodd" clip-rule="evenodd" d="M12 5C10.9391 5 9.92172 5.42143 9.17157 6.17157C8.66203 6.68111 8.30416 7.31397 8.12701 8H15.873C15.6958 7.31397 15.338 6.68111 14.8284 6.17157C14.0783 5.42143 13.0609 5 12 5ZM18 9C18 7.4087 17.3679 5.88258 16.2426 4.75736C15.1174 3.63214 13.5913 3 12 3C10.4087 3 8.88258 3.63214 7.75736 4.75736C6.63214 5.88258 6 7.4087 6 9V17C6 17.5304 6.21071 18.0391 6.58579 18.4142C6.96086 18.7893 7.46957 19 8 19H16C16.5304 19 17.0391 18.7893 17.4142 18.4142C17.7893 18.0391 18 17.5304 18 17V9ZM16 10H8V17H16V10Z" />
<path fill-rule="evenodd" clip-rule="evenodd" d="M7.55301 2.10579C8.04698 1.8588 8.64766 2.05903 8.89465 2.55301L9.89465 4.55301C10.1416 5.04698 9.94141 5.64766 9.44743 5.89465C8.95345 6.14164 8.35278 5.94141 8.10579 5.44743L7.10579 3.44743C6.8588 2.95345 7.05903 2.35278 7.55301 2.10579Z" />
<path fill-rule="evenodd" clip-rule="evenodd" d="M16.4474 2.10579C16.9414 2.35278 17.1416 2.95345 16.8946 3.44743L15.8946 5.44743C15.6477 5.94141 15.047 6.14164 14.553 5.89465C14.059 5.64766 13.8588 5.04698 14.1058 4.55301L15.1058 2.55301C15.3528 2.05903 15.9535 1.8588 16.4474 2.10579Z" />
<path fill-rule="evenodd" clip-rule="evenodd" d="M9 17C9.55228 17 10 17.4477 10 18V21C10 21.5523 9.55228 22 9 22C8.44772 22 8 21.5523 8 21V18C8 17.4477 8.44772 17 9 17Z" />
<path fill-rule="evenodd" clip-rule="evenodd" d="M15 17C15.5523 17 16 17.4477 16 18V21C16 21.5523 15.5523 22 15 22C14.4477 22 14 21.5523 14 21V18C14 17.4477 14.4477 17 15 17Z" />
</svg>
