<svg width="24" height="24" viewBox="0 0 24 24" fill="none" xmlns="http://www.w3.org/2000/svg">
<path fill-rule="evenodd" clip-rule="evenodd" d="M15.5725 6.00254C15.9839 6.03123 16.7173 6.19395 17.4866 6.54415C18.2678 6.89981 19.1773 7.4901 19.8248 8.43441C19.9846 8.66748 20.0383 8.95728 19.9727 9.23214C19.907 9.50701 19.7282 9.74127 19.4803 9.87701C19.3889 9.92705 19.2957 9.96454 19.1937 10.0056C18.97 10.0956 18.7036 10.2028 18.3199 10.497C17.8434 10.8623 17.4945 11.3356 17.5 11.9903C17.5175 13.5632 18.7354 13.8928 19.2036 14.0196C19.2598 14.0347 19.3051 14.047 19.3363 14.0582C19.7343 14.2003 20 14.5773 20 14.9999C20 16.3391 19.2071 17.8116 18.3386 18.8805C17.8874 19.4359 17.3686 19.9421 16.8322 20.3185C16.3207 20.6774 15.6774 20.9999 15 20.9999C14.1077 20.9999 13.5769 20.8442 13.1302 20.7041C13.1184 20.7004 13.1068 20.6967 13.0953 20.6931C12.7329 20.5793 12.4802 20.4999 12 20.4999C11.4682 20.4999 11.0882 20.5879 10.6694 20.6991C10.6294 20.7098 10.5883 20.7208 10.5462 20.7322C10.1466 20.84 9.65263 20.9732 9.04224 20.999C9.02817 20.9996 9.01409 20.9999 9 20.9999C8.11938 20.9999 7.37897 20.5118 6.82414 19.957C6.25494 19.3878 5.76025 18.6315 5.35557 17.8221C4.55015 16.2113 4 14.1837 4 12.4999C4 11.1425 4.26748 9.57289 5.01307 8.30539C5.78855 6.98707 7.09161 5.99991 9 5.99991C9.80582 5.99991 10.5789 6.35605 11.0858 6.59626C11.1616 6.6322 11.2317 6.66583 11.2975 6.69733C11.4845 6.78702 11.6357 6.85952 11.7805 6.91927C11.8987 6.96804 11.9658 6.98744 11.9948 6.99509C12.0243 6.98655 12.1013 6.96377 12.2457 6.904C12.3834 6.84707 12.4971 6.79533 12.6288 6.73543C12.7494 6.68055 12.8851 6.61883 13.068 6.53998C13.6978 6.26848 14.5974 5.92831 15.5725 6.00254ZM13.0103 8.7521C12.7679 8.85236 12.3881 8.99991 12 8.99991C11.6211 8.99991 11.2628 8.86923 11.0176 8.76805C10.8162 8.68493 10.5934 8.57803 10.3934 8.48203C10.3365 8.45473 10.2814 8.42831 10.2292 8.40356C9.68106 8.14377 9.29418 7.99991 9 7.99991C7.90839 7.99991 7.21145 8.51275 6.73693 9.31943C6.23252 10.1769 6 11.3574 6 12.4999C6 13.8161 6.44985 15.5385 7.14443 16.9277C7.48975 17.6183 7.87006 18.1745 8.23836 18.5428C8.60573 18.9102 8.85966 18.9935 8.98501 18.9995C9.35163 18.981 9.63772 18.9046 10.043 18.7963C10.0796 18.7865 10.1172 18.7765 10.1559 18.7662C10.6348 18.6389 11.2108 18.4999 12 18.4999C12.788 18.4999 13.2782 18.6541 13.685 18.782C13.6997 18.7866 13.7143 18.7912 13.7288 18.7958C14.0791 18.9056 14.3923 18.9999 15 18.9999C15.0726 18.9999 15.3043 18.9474 15.6834 18.6814C16.0377 18.4327 16.4251 18.0639 16.7864 17.6193C17.3139 16.9701 17.6958 16.2739 17.8787 15.6879C16.946 15.2632 15.524 14.2355 15.5001 12.0107L15.5 12.0087C15.4868 10.4937 16.3459 9.49031 17.1029 8.90984C17.1774 8.85274 17.2552 8.79727 17.3344 8.74392C17.1183 8.59546 16.8889 8.46955 16.6579 8.36442C16.0735 8.09838 15.5715 8.00699 15.4328 7.99765L15.4228 7.99697L15.4228 7.99692C14.9668 7.9616 14.4532 8.12077 13.8597 8.37659C13.7638 8.41795 13.6401 8.47361 13.5117 8.53139C13.3329 8.61182 13.145 8.69636 13.0103 8.7521Z" />
<path fill-rule="evenodd" clip-rule="evenodd" d="M11.8787 1.87868C12.4413 1.31607 13.2044 1 14 1C14.2652 1 14.5196 1.10536 14.7071 1.29289C14.8946 1.48043 15 1.73478 15 2C15 2.79565 14.6839 3.55871 14.1213 4.12132C13.5587 4.68393 12.7956 5 12 5C11.4477 5 11 4.55228 11 4C11 3.20435 11.3161 2.44129 11.8787 1.87868Z" />
</svg>
