<svg width="24" height="24" viewBox="0 0 24 24" fill="none" xmlns="http://www.w3.org/2000/svg">
<path fill-rule="evenodd" clip-rule="evenodd" d="M12 4C7.58172 4 4 7.58172 4 12C4 16.4183 7.58172 20 12 20C16.4183 20 20 16.4183 20 12C20 7.58172 16.4183 4 12 4ZM2 12C2 6.47715 6.47715 2 12 2C17.5228 2 22 6.47715 22 12C22 17.5228 17.5228 22 12 22C6.47715 22 2 17.5228 2 12Z" />
<path fill-rule="evenodd" clip-rule="evenodd" d="M2.59961 9C2.59961 8.44772 3.04732 8 3.59961 8H20.3996C20.9519 8 21.3996 8.44772 21.3996 9C21.3996 9.55228 20.9519 10 20.3996 10H3.59961C3.04732 10 2.59961 9.55228 2.59961 9Z" />
<path fill-rule="evenodd" clip-rule="evenodd" d="M2.59961 15C2.59961 14.4477 3.04732 14 3.59961 14H20.3996C20.9519 14 21.3996 14.4477 21.3996 15C21.3996 15.5523 20.9519 16 20.3996 16H3.59961C3.04732 16 2.59961 15.5523 2.59961 15Z" />
<path fill-rule="evenodd" clip-rule="evenodd" d="M12.0291 2.15177C12.4976 2.44416 12.6404 3.06101 12.348 3.52955C10.7625 6.07036 9.92188 9.00518 9.92188 12.0001C9.92188 14.9951 10.7625 17.9299 12.348 20.4707C12.6404 20.9393 12.4976 21.5561 12.0291 21.8485C11.5605 22.1409 10.9437 21.9981 10.6513 21.5295C8.86755 18.6711 7.92188 15.3695 7.92188 12.0001C7.92188 8.63082 8.86755 5.32914 10.6513 2.47072C10.9437 2.00218 11.5605 1.85938 12.0291 2.15177Z" />
<path fill-rule="evenodd" clip-rule="evenodd" d="M11.9707 2.15177C12.4393 1.85938 13.0561 2.00218 13.3485 2.47072C15.1323 5.32914 16.0779 8.63082 16.0779 12.0001C16.0779 15.3695 15.1323 18.6711 13.3485 21.5295C13.0561 21.9981 12.4393 22.1409 11.9707 21.8485C11.5022 21.5561 11.3594 20.9393 11.6518 20.4707C13.2373 17.9299 14.0779 14.9951 14.0779 12.0001C14.0779 9.00518 13.2373 6.07036 11.6518 3.52955C11.3594 3.06101 11.5022 2.44416 11.9707 2.15177Z" />
</svg>
