<svg viewBox="0 0 28 28" fill="none" xmlns="http://www.w3.org/2000/svg">
<g>
<rect width="28" height="28" rx="6" fill="#0078FF"/>
<path fill-rule="evenodd" clip-rule="evenodd" d="M22.0894 5.91061C22.3179 6.13907 22.3937 6.47901 22.2839 6.7829L16.8673 21.7829C16.8594 21.8046 16.8507 21.826 16.841 21.847C16.738 22.0719 16.5726 22.2624 16.3644 22.396C16.1563 22.5296 15.9141 22.6006 15.6668 22.6006C15.4195 22.6006 15.1773 22.5296 14.9692 22.396C14.766 22.2656 14.6035 22.081 14.5001 21.8631L11.7123 16.2877L6.13691 13.4999C5.91905 13.3965 5.7344 13.234 5.60401 13.0308C5.47042 12.8227 5.39941 12.5805 5.39941 12.3332C5.39941 12.0859 5.47042 11.8437 5.60401 11.6356C5.73759 11.4274 5.92813 11.262 6.15298 11.159C6.17398 11.1493 6.19537 11.1406 6.2171 11.1327L21.2171 5.71607C21.521 5.60633 21.8609 5.68214 22.0894 5.91061Z" fill="white"/>
</g>
</svg>
