<svg width="28" height="28" viewBox="0 0 28 28" fill="none" xmlns="http://www.w3.org/2000/svg">
<g clip-path="url(#clip0_1920_2509)">
<rect width="28" height="28" rx="6" fill="#E35F5F"/>
<path fill-rule="evenodd" clip-rule="evenodd" d="M21.3333 10.3333H6.66667V21.3333C6.66667 22.3458 7.48748 23.1666 8.50001 23.1666H19.5C20.5125 23.1666 21.3333 22.3458 21.3333 21.3333V10.3333ZM12.1667 13.0833C11.6604 13.0833 11.25 13.4937 11.25 13.9999C11.25 14.5062 11.6604 14.9166 12.1667 14.9166H15.8333C16.3396 14.9166 16.75 14.5062 16.75 13.9999C16.75 13.4937 16.3396 13.0833 15.8333 13.0833H12.1667Z" fill="white"/>
<path fill-rule="evenodd" clip-rule="evenodd" d="M7.58333 5.75C6.06455 5.75 4.83333 6.98122 4.83333 8.5C4.83333 10.0188 6.06455 11.25 7.58333 11.25H20.4167C21.9354 11.25 23.1667 10.0188 23.1667 8.5C23.1667 6.98122 21.9354 5.75 20.4167 5.75H7.58333ZM6.66666 8.5C6.66666 7.99374 7.07707 7.58333 7.58333 7.58333H20.4167C20.9229 7.58333 21.3333 7.99374 21.3333 8.5C21.3333 9.00626 20.9229 9.41667 20.4167 9.41667H7.58333C7.07707 9.41667 6.66666 9.00626 6.66666 8.5Z" fill="white"/>
</g>
<defs>
<clipPath id="clip0_1920_2509">
<rect width="28" height="28" fill="white"/>
</clipPath>
</defs>
</svg>
