<svg viewBox="0 0 28 28" fill="none" xmlns="http://www.w3.org/2000/svg">
<g>
<rect width="28" height="28" rx="6" fill="#FF9200"/>
<path fill-rule="evenodd" clip-rule="evenodd" d="M5.84698 14.9654C6.07338 14.5126 6.624 14.3291 7.07681 14.5555L14.0002 18.0172L20.9236 14.5555C21.3764 14.3291 21.927 14.5126 22.1534 14.9654C22.3798 15.4182 22.1963 15.9688 21.7435 16.1953L14.4101 19.8619C14.1521 19.991 13.8483 19.991 13.5903 19.8619L6.25692 16.1953C5.80411 15.9688 5.62057 15.4182 5.84698 14.9654Z" fill="white"/>
<path fill-rule="evenodd" clip-rule="evenodd" d="M5.84698 18.6324C6.07338 18.1796 6.624 17.9961 7.07681 18.2225L14.0002 21.6842L20.9236 18.2225C21.3764 17.9961 21.927 18.1796 22.1534 18.6324C22.3798 19.0852 22.1963 19.6358 21.7435 19.8622L14.4101 23.5289C14.1521 23.6579 13.8483 23.6579 13.5903 23.5289L6.25692 19.8622C5.80411 19.6358 5.62057 19.0852 5.84698 18.6324Z" fill="white"/>
<path fill-rule="evenodd" clip-rule="evenodd" d="M11.25 8.72949L6.25672 10.889C5.94617 11.0443 5.75 11.3617 5.75 11.7089C5.75 12.0561 5.94617 12.3736 6.25672 12.5288L13.5901 16.1955C13.8481 16.3245 14.1519 16.3245 14.4099 16.1955L21.7433 12.5288C22.0538 12.3736 22.25 12.0561 22.25 11.7089C22.25 11.3617 22.0538 11.0443 21.7433 10.889L16.75 8.72949L15.2964 10.1045C14.5804 10.8205 13.4196 10.8205 12.7036 10.1045L11.25 8.72949Z" fill="white"/>
<path fill-rule="evenodd" clip-rule="evenodd" d="M14.6485 8.69001C14.2905 9.04799 13.7101 9.04799 13.3521 8.69001L10.6021 5.94001C10.2442 5.58203 10.2442 5.00163 10.6021 4.64365C10.9601 4.28567 11.5405 4.28567 11.8985 4.64365L14.0003 6.74547L16.1021 4.64365C16.4601 4.28567 17.0405 4.28567 17.3985 4.64365C17.7565 5.00163 17.7565 5.58203 17.3985 5.94001L14.6485 8.69001Z" fill="white"/>
</g>
</svg>
