<svg viewBox="0 0 28 28" fill="none" xmlns="http://www.w3.org/2000/svg">
<g>
<rect width="28" height="28" rx="6" fill="#8D8C93"/>
<g>
<path fill-rule="evenodd" clip-rule="evenodd" d="M17.6667 4.8335C18.1729 4.8335 18.5833 5.2439 18.5833 5.75016V9.41683C18.5833 9.92309 18.1729 10.3335 17.6667 10.3335C17.1604 10.3335 16.75 9.92309 16.75 9.41683V5.75016C16.75 5.2439 17.1604 4.8335 17.6667 4.8335Z" fill="white"/>
<path fill-rule="evenodd" clip-rule="evenodd" d="M10.3332 4.8335C10.8394 4.8335 11.2498 5.2439 11.2498 5.75016V9.41683C11.2498 9.92309 10.8394 10.3335 10.3332 10.3335C9.82691 10.3335 9.4165 9.92309 9.4165 9.41683V5.75016C9.4165 5.2439 9.82691 4.8335 10.3332 4.8335Z" fill="white"/>
<path fill-rule="evenodd" clip-rule="evenodd" d="M5.75 9.4165C5.75 7.89772 6.98122 6.6665 8.5 6.6665H19.5C21.0188 6.6665 22.25 7.89772 22.25 9.4165V20.4165C22.25 21.9353 21.0188 23.1665 19.5 23.1665H8.5C6.98122 23.1665 5.75 21.9353 5.75 20.4165V9.4165ZM7.125 13.0832C7.125 12.5769 7.53541 12.1665 8.04167 12.1665H19.9583C20.4646 12.1665 20.875 12.5769 20.875 13.0832C20.875 13.5894 20.4646 13.9998 19.9583 13.9998H8.04167C7.53541 13.9998 7.125 13.5894 7.125 13.0832ZM12.1667 16.7498C11.6604 16.7498 11.25 17.1602 11.25 17.6665C11.25 18.1728 11.6604 18.5832 12.1667 18.5832H15.8333C16.3396 18.5832 16.75 18.1728 16.75 17.6665C16.75 17.1602 16.3396 16.7498 15.8333 16.7498H12.1667Z" fill="white"/>
</g>
</g>
</svg>
