<svg viewBox="0 0 28 28" fill="none" xmlns="http://www.w3.org/2000/svg">
<g>
<rect width="28" height="28" rx="6" fill="#2EC851"/>
<path fill-rule="evenodd" clip-rule="evenodd" d="M17.6667 4.8335C18.1729 4.8335 18.5833 5.2439 18.5833 5.75016V9.41683C18.5833 9.92309 18.1729 10.3335 17.6667 10.3335C17.1604 10.3335 16.75 9.92309 16.75 9.41683V5.75016C16.75 5.2439 17.1604 4.8335 17.6667 4.8335Z" fill="white"/>
<path fill-rule="evenodd" clip-rule="evenodd" d="M10.3332 4.8335C10.8394 4.8335 11.2498 5.2439 11.2498 5.75016V9.41683C11.2498 9.92309 10.8394 10.3335 10.3332 10.3335C9.82691 10.3335 9.4165 9.92309 9.4165 9.41683V5.75016C9.4165 5.2439 9.82691 4.8335 10.3332 4.8335Z" fill="white"/>
<path fill-rule="evenodd" clip-rule="evenodd" d="M8.5 6.6665C6.98122 6.6665 5.75 7.89772 5.75 9.4165V20.4165C5.75 21.9353 6.98122 23.1665 8.5 23.1665H19.5C21.0188 23.1665 22.25 21.9353 22.25 20.4165V9.4165C22.25 7.89772 21.0188 6.6665 19.5 6.6665H8.5ZM8.04167 12.1665C7.53541 12.1665 7.125 12.5769 7.125 13.0832C7.125 13.5894 7.53541 13.9998 8.04167 13.9998H19.9583C20.4646 13.9998 20.875 13.5894 20.875 13.0832C20.875 12.5769 20.4646 12.1665 19.9583 12.1665H8.04167ZM12.1667 16.7498C12.1667 16.2436 12.5771 15.8332 13.0833 15.8332H14C14.5063 15.8332 14.9167 16.2436 14.9167 16.7498V19.4998C14.9167 20.0061 14.5063 20.4165 14 20.4165C13.4937 20.4165 13.0833 20.0061 13.0833 19.4998L13.0833 17.6665C12.5771 17.6665 12.1667 17.2561 12.1667 16.7498Z" fill="white"/>
</g>

</svg>
