<svg viewBox="0 0 28 28" fill="none" xmlns="http://www.w3.org/2000/svg">
<g>
<rect width="28" height="28" rx="6" fill="#24A7D9"/>
<path fill-rule="evenodd" clip-rule="evenodd" d="M9.4165 9.41683C9.4165 6.88552 11.4685 4.8335 13.9998 4.8335C16.5311 4.8335 18.5832 6.88552 18.5832 9.41683C18.5832 11.9481 16.5311 14.0002 13.9998 14.0002C11.4685 14.0002 9.4165 11.9481 9.4165 9.41683Z" fill="white"/>
<path fill-rule="evenodd" clip-rule="evenodd" d="M8.50016 23.1668C7.9939 23.1668 7.5835 22.7564 7.5835 22.2502V20.4168C7.5835 19.2013 8.06638 18.0355 8.92592 17.1759C9.78546 16.3164 10.9513 15.8335 12.1668 15.8335H15.8335C17.0491 15.8335 18.2149 16.3164 19.0744 17.1759C19.9339 18.0355 20.4168 19.2013 20.4168 20.4168V22.2502C20.4168 22.7564 20.0064 23.1668 19.5002 23.1668C15.2232 23.1668 9.88291 23.1668 8.50016 23.1668Z" fill="white"/>
</g>

</svg>
