<svg viewBox="0 0 28 28" fill="none" xmlns="http://www.w3.org/2000/svg">
<g>
<rect width="28" height="28" rx="6" fill="#24A7D9"/>
<path fill-rule="evenodd" clip-rule="evenodd" d="M6.6665 9.41683C6.6665 6.88552 8.71853 4.8335 11.2498 4.8335C13.7811 4.8335 15.8332 6.88552 15.8332 9.41683C15.8332 11.9481 13.7811 14.0002 11.2498 14.0002C8.71853 14.0002 6.6665 11.9481 6.6665 9.41683Z" fill="white"/>
<path fill-rule="evenodd" clip-rule="evenodd" d="M5.75016 23.1668C5.2439 23.1668 4.8335 22.7564 4.8335 22.2502V20.4168C4.8335 19.2013 5.31638 18.0355 6.17592 17.1759C7.03546 16.3164 8.20125 15.8335 9.41683 15.8335H13.0835C14.2991 15.8335 15.4649 16.3164 16.3244 17.1759C17.1839 18.0355 17.6668 19.2013 17.6668 20.4168V22.2502C17.6668 22.7564 17.2564 23.1668 16.7502 23.1668C12.4743 23.1668 7.1325 23.1668 5.75016 23.1668Z" fill="white"/>
<path fill-rule="evenodd" clip-rule="evenodd" d="M16.7789 5.64167C16.9044 5.15123 17.4038 4.85544 17.8943 4.98101C18.8801 5.23344 19.754 5.80682 20.378 6.61075C21.002 7.41467 21.3407 8.40342 21.3407 9.42112C21.3407 10.4388 21.002 11.4276 20.378 12.2315C19.754 13.0354 18.8801 13.6088 17.8943 13.8612C17.4038 13.9868 16.9044 13.691 16.7789 13.2006C16.6533 12.7101 16.9491 12.2108 17.4395 12.0852C18.0311 11.9337 18.5554 11.5897 18.9298 11.1073C19.3042 10.625 19.5074 10.0317 19.5074 9.42112C19.5074 8.8105 19.3042 8.21725 18.9298 7.7349C18.5554 7.25254 18.0311 6.90851 17.4395 6.75706C16.9491 6.63148 16.6533 6.13211 16.7789 5.64167Z" fill="white"/>
<path fill-rule="evenodd" clip-rule="evenodd" d="M18.6123 16.6584C18.7389 16.1683 19.2389 15.8735 19.729 16C20.7085 16.2529 21.5768 16.8227 22.1986 17.6207C22.8204 18.4187 23.1607 19.3999 23.1665 20.4115L23.1666 20.4168H23.1666V22.2501C23.1666 22.7564 22.7562 23.1668 22.2499 23.1668C21.7436 23.1668 21.3332 22.7564 21.3332 22.2501V20.4196C21.3292 19.8135 21.1251 19.2257 20.7525 18.7476C20.3794 18.2688 19.8584 17.9269 19.2707 17.7752C18.7806 17.6486 18.4858 17.1486 18.6123 16.6584Z" fill="white"/>
</g>

</svg>
