<svg width="30" height="30" viewBox="0 0 30 30" fill="none" xmlns="http://www.w3.org/2000/svg">
<g id="List/All" clip-path="url(#clip0_2544_24133)">
<path id="Background" d="M0 12.8C0 8.31958 0 6.07937 0.871948 4.36808C1.63893 2.86278 2.86278 1.63893 4.36808 0.871948C6.07937 0 8.31958 0 12.8 0H17.2C21.6804 0 23.9206 0 25.6319 0.871948C27.1372 1.63893 28.3611 2.86278 29.1281 4.36808C30 6.07937 30 8.31958 30 12.8V17.2C30 21.6804 30 23.9206 29.1281 25.6319C28.3611 27.1372 27.1372 28.3611 25.6319 29.1281C23.9206 30 21.6804 30 17.2 30H12.8C8.31958 30 6.07937 30 4.36808 29.1281C2.86278 28.3611 1.63893 27.1372 0.871948 25.6319C0 23.9206 0 21.6804 0 17.2V12.8Z" fill="#0078FF"/>
<g id="Icon">
<path d="M15.9981 15C15.9981 15.5512 15.5512 15.9981 15 15.9981C14.4488 15.9981 14.0019 15.5512 14.0019 15C14.0019 14.4488 14.4488 14.0019 15 14.0019C15.5512 14.0019 15.9981 14.4488 15.9981 15Z" fill="white"/>
<path d="M15 24C19.9706 24 24 19.9706 24 15C24 10.0294 19.9706 6 15 6C10.0294 6 6 10.0294 6 15C6 19.9706 10.0294 24 15 24ZM18.3775 11.0152C18.7446 10.9225 19.0775 11.2554 18.9848 11.6224L17.6462 16.9215C17.5561 17.2779 17.2779 17.5561 16.9215 17.6461L11.6225 18.9848C11.2555 19.0775 10.9226 18.7446 11.0153 18.3775L12.3539 13.0785C12.4439 12.7221 12.7222 12.4439 13.0785 12.3539L18.3775 11.0152Z" fill="white"/>
</g>
</g>
<defs>
<clipPath id="clip0_2544_24133">
<rect width="30" height="30" fill="white"/>
</clipPath>
</defs>
</svg>
