<svg width="30" height="30" viewBox="0 0 30 30" fill="none" xmlns="http://www.w3.org/2000/svg">
<g clip-path="url(#clip0_2456_23222)">
<rect width="30" height="30" rx="7" fill="#BC56D7"/>
<path d="M14.5097 5.62842C14.8141 5.45719 15.1858 5.45719 15.4903 5.62842L23.4903 10.1284C23.8051 10.3055 24 10.6387 24 11C24 11.3613 23.8051 11.6945 23.4903 11.8716L15.4903 16.3716C15.1858 16.5428 14.8141 16.5428 14.5097 16.3716L6.50973 11.8716C6.19486 11.6945 5.99999 11.3613 5.99999 11C5.99999 10.6387 6.19486 10.3055 6.50973 10.1284L14.5097 5.62842Z" fill="white"/>
<path d="M6.12842 14.5097C6.39918 14.0284 7.0089 13.8577 7.49026 14.1284L15 18.3527L22.5097 14.1284C22.9911 13.8577 23.6008 14.0284 23.8716 14.5097C24.1423 14.9911 23.9716 15.6008 23.4903 15.8716L15.4903 20.3716C15.1858 20.5428 14.8141 20.5428 14.5097 20.3716L6.50973 15.8716C6.02838 15.6008 5.85765 14.9911 6.12842 14.5097Z" fill="white"/>
<path d="M7.49026 18.1284C7.0089 17.8577 6.39918 18.0284 6.12842 18.5097C5.85765 18.9911 6.02838 19.6008 6.50973 19.8716L14.5097 24.3716C14.8141 24.5428 15.1858 24.5428 15.4903 24.3716L23.4903 19.8716C23.9716 19.6008 24.1423 18.9911 23.8716 18.5097C23.6008 18.0284 22.9911 17.8577 22.5097 18.1284L15 22.3527L7.49026 18.1284Z" fill="white"/>
</g>
<defs>
<clipPath id="clip0_2456_23222">
<rect width="30" height="30" fill="white"/>
</clipPath>
</defs>
</svg>
