<svg width="30" height="30" viewBox="0 0 30 30" fill="none" xmlns="http://www.w3.org/2000/svg">
<g clip-path="url(#clip0_5011_9967)">
<rect width="30" height="30" rx="7" fill="#A59AEE"/>
<path d="M5.5875 23.4125C5.97917 23.8042 6.45 24 7 24H23C23.55 24 24.0208 23.8042 24.4125 23.4125C24.8042 23.0208 25 22.55 25 22V11C25 10.45 24.8042 9.97917 24.4125 9.5875C24.0208 9.19583 23.55 9 23 9H19V7C19 6.45 18.8042 5.97917 18.4125 5.5875C18.0208 5.19583 17.55 5 17 5H13C12.45 5 11.9792 5.19583 11.5875 5.5875C11.1958 5.97917 11 6.45 11 7V9H7C6.45 9 5.97917 9.19583 5.5875 9.5875C5.19583 9.97917 5 10.45 5 11V22C5 22.55 5.19583 23.0208 5.5875 23.4125ZM17 9H13V7H17V9ZM10 15.5C10 15.2239 10.2239 15 10.5 15H11.5C11.7761 15 12 15.2239 12 15.5V18.5C12 18.7761 11.7761 19 11.5 19H10.5C10.2239 19 10 18.7761 10 18.5V15.5ZM18 15.5C18 15.2239 18.2239 15 18.5 15H19.5C19.7761 15 20 15.2239 20 15.5V18.5C20 18.7761 19.7761 19 19.5 19H18.5C18.2239 19 18 18.7761 18 18.5V15.5Z" fill="white"/>
</g>
<defs>
<clipPath id="clip0_5011_9967">
<rect width="30" height="30" fill="white"/>
</clipPath>
</defs>
</svg>
