<svg width="30" height="30" viewBox="0 0 30 30" fill="none" xmlns="http://www.w3.org/2000/svg">
<g clip-path="url(#clip0_2544_24134)">
<path d="M0 12.8C0 8.31958 0 6.07937 0.871948 4.36808C1.63893 2.86278 2.86278 1.63893 4.36808 0.871948C6.07937 0 8.31958 0 12.8 0H17.2C21.6804 0 23.9206 0 25.6319 0.871948C27.1372 1.63893 28.3611 2.86278 29.1281 4.36808C30 6.07937 30 8.31958 30 12.8V17.2C30 21.6804 30 23.9206 29.1281 25.6319C28.3611 27.1372 27.1372 28.3611 25.6319 29.1281C23.9206 30 21.6804 30 17.2 30H12.8C8.31958 30 6.07937 30 4.36808 29.1281C2.86278 28.3611 1.63893 27.1372 0.871948 25.6319C0 23.9206 0 21.6804 0 17.2V12.8Z" fill="#FF9200"/>
<path d="M6 9C6 7.34315 7.34315 6 9 6H21C22.6569 6 24 7.34315 24 9V21C24 22.6569 22.6569 24 21 24H9C7.34315 24 6 22.6569 6 21V9ZM9 8C8.44772 8 8 8.44772 8 9V16H11.5L12.1625 17.0595C12.528 17.6442 13.1688 17.9993 13.8583 17.9993H16.1417C16.8312 17.9993 17.472 17.6442 17.8375 17.0595L18.5 16H22V9C22 8.44772 21.5523 8 21 8H9Z" fill="white"/>
</g>
<defs>
<clipPath id="clip0_2544_24134">
<rect width="30" height="30" fill="white"/>
</clipPath>
</defs>
</svg>
