<svg width="30" height="30" viewBox="0 0 30 30" fill="none" xmlns="http://www.w3.org/2000/svg">
<g clip-path="url(#clip0_2544_24245)">
<path d="M0 12.8C0 8.31958 0 6.07937 0.871948 4.36808C1.63893 2.86278 2.86278 1.63893 4.36808 0.871948C6.07937 0 8.31958 0 12.8 0H17.2C21.6804 0 23.9206 0 25.6319 0.871948C27.1372 1.63893 28.3611 2.86278 29.1281 4.36808C30 6.07937 30 8.31958 30 12.8V17.2C30 21.6804 30 23.9206 29.1281 25.6319C28.3611 27.1372 27.1372 28.3611 25.6319 29.1281C23.9206 30 21.6804 30 17.2 30H12.8C8.31958 30 6.07937 30 4.36808 29.1281C2.86278 28.3611 1.63893 27.1372 0.871948 25.6319C0 23.9206 0 21.6804 0 17.2V12.8Z" fill="#A59AEE"/>
<path d="M10 5.49841C10 4.94613 10.4477 4.49841 11 4.49841C11.5523 4.49841 12 4.94613 12 5.49841V6.49841H18V5.49841C18 4.94613 18.4477 4.49841 19 4.49841C19.5523 4.49841 20 4.94613 20 5.49841V6.49841H21C22.6569 6.49841 24 7.84156 24 9.49841V21C24 22.6568 22.6569 24 21 24H9C7.34315 24 6 22.6568 6 21V9.49841C6 7.84156 7.34315 6.49841 9 6.49841H10V5.49841ZM21.2492 9.49841H8.75078C8.33613 9.49841 8 9.83455 8 10.2492C8 10.6638 8.33613 11 8.75078 11H21.2492C21.6639 11 22 10.6638 22 10.2492C22 9.83455 21.6639 9.49841 21.2492 9.49841ZM12 15C12 14.1716 11.3284 13.5 10.5 13.5C9.67157 13.5 9 14.1716 9 15C9 15.8284 9.67157 16.5 10.5 16.5C11.3284 16.5 12 15.8284 12 15ZM12 19.5014C12 18.6729 11.3284 18.0014 10.5 18.0014C9.67157 18.0014 9 18.6729 9 19.5014C9 20.3298 9.67157 21.0014 10.5 21.0014C11.3284 21.0014 12 20.3298 12 19.5014ZM15 16.5C15.8284 16.5 16.5 15.8284 16.5 15C16.5 14.1716 15.8284 13.5 15 13.5C14.1716 13.5 13.5 14.1716 13.5 15C13.5 15.8284 14.1716 16.5 15 16.5ZM16.5 19.5014C16.5 18.6729 15.8284 18.0014 15 18.0014C14.1716 18.0014 13.5 18.6729 13.5 19.5014C13.5 20.3298 14.1716 21.0014 15 21.0014C15.8284 21.0014 16.5 20.3298 16.5 19.5014ZM19.5 16.5C20.3284 16.5 21 15.8284 21 15C21 14.1716 20.3284 13.5 19.5 13.5C18.6716 13.5 18 14.1716 18 15C18 15.8284 18.6716 16.5 19.5 16.5ZM21 19.5014C21 18.6729 20.3284 18.0014 19.5 18.0014C18.6716 18.0014 18 18.6729 18 19.5014C18 20.3298 18.6716 21.0014 19.5 21.0014C20.3284 21.0014 21 20.3298 21 19.5014Z" fill="white"/>
</g>
<defs>
<clipPath id="clip0_2544_24245">
<rect width="30" height="30" fill="white"/>
</clipPath>
</defs>
</svg>
