<svg viewBox="0 0 30 30" fill="none" xmlns="http://www.w3.org/2000/svg">
<g clip-path="url(#clip0_2544_24798)">
<path d="M0 12.8C0 8.31958 0 6.07937 0.871948 4.36808C1.63893 2.86278 2.86278 1.63893 4.36808 0.871948C6.07937 0 8.31958 0 12.8 0H17.2C21.6804 0 23.9206 0 25.6319 0.871948C27.1372 1.63893 28.3611 2.86278 29.1281 4.36808C30 6.07937 30 8.31958 30 12.8V17.2C30 21.6804 30 23.9206 29.1281 25.6319C28.3611 27.1372 27.1372 28.3611 25.6319 29.1281C23.9206 30 21.6804 30 17.2 30H12.8C8.31958 30 6.07937 30 4.36808 29.1281C2.86278 28.3611 1.63893 27.1372 0.871948 25.6319C0 23.9206 0 21.6804 0 17.2V12.8Z" fill="url(#paint0_radial_2544_24798)"/>
<path d="M14.2893 4.50417C14.5236 3.83194 15.4764 3.83194 15.7107 4.50417L17.9482 10.9263L24.7616 11.0649C25.4748 11.0794 25.7693 11.9835 25.2008 12.4135L19.7703 16.5211L21.7437 23.0289C21.9502 23.7101 21.1793 24.2689 20.5938 23.8624L15 19.9789L9.40619 23.8624C8.82067 24.2689 8.04976 23.7101 8.25633 23.0289L10.2297 16.5211L4.79916 12.4135C4.23073 11.9835 4.52519 11.0794 5.23837 11.0649L12.0518 10.9263L14.2893 4.50417Z" fill="white"/>
</g>
<defs>
<radialGradient id="paint0_radial_2544_24798" cx="0" cy="0" r="1" gradientUnits="userSpaceOnUse" gradientTransform="translate(-1.86265e-06 30) rotate(-42.7094) scale(44.2295)">
<stop stop-color="#40A3E7"/>
<stop offset="1" stop-color="#BC56D7"/>
</radialGradient>
<clipPath id="clip0_2544_24798">
<rect width="30" height="30" fill="white"/>
</clipPath>
</defs>
</svg>
