<svg width="30" height="30" viewBox="0 0 30 30" fill="none" xmlns="http://www.w3.org/2000/svg">
<g clip-path="url(#clip0_2557_25229)">
<path d="M0 12.8C0 8.31958 0 6.07937 0.871948 4.36808C1.63893 2.86278 2.86278 1.63893 4.36808 0.871948C6.07937 0 8.31958 0 12.8 0H17.2C21.6804 0 23.9206 0 25.6319 0.871948C27.1372 1.63893 28.3611 2.86278 29.1281 4.36808C30 6.07937 30 8.31958 30 12.8V17.2C30 21.6804 30 23.9206 29.1281 25.6319C28.3611 27.1372 27.1372 28.3611 25.6319 29.1281C23.9206 30 21.6804 30 17.2 30H12.8C8.31958 30 6.07937 30 4.36808 29.1281C2.86278 28.3611 1.63893 27.1372 0.871948 25.6319C0 23.9206 0 21.6804 0 17.2V12.8Z" fill="#8D8C93"/>
<path fill-rule="evenodd" clip-rule="evenodd" d="M16.675 7.317C16.249 5.561 13.751 5.561 13.325 7.317C13.049 8.452 11.749 8.99 10.753 8.382C9.209 7.442 7.443 9.209 8.383 10.752C8.5243 10.9838 8.60889 11.2456 8.62987 11.5162C8.65085 11.7868 8.60764 12.0586 8.50375 12.3093C8.39985 12.5601 8.23822 12.7828 8.032 12.9593C7.82578 13.1358 7.5808 13.2611 7.317 13.325C5.561 13.751 5.561 16.249 7.317 16.675C7.58056 16.7391 7.82529 16.8645 8.03127 17.0409C8.23726 17.2174 8.3987 17.44 8.50247 17.6906C8.60624 17.9412 8.64942 18.2128 8.62848 18.4832C8.60755 18.7537 8.5231 19.0153 8.382 19.247C7.442 20.791 9.209 22.557 10.752 21.617C10.9838 21.4757 11.2456 21.3911 11.5162 21.3701C11.7868 21.3491 12.0586 21.3924 12.3093 21.4963C12.5601 21.6001 12.7828 21.7618 12.9593 21.968C13.1358 22.1742 13.2611 22.4192 13.325 22.683C13.751 24.439 16.249 24.439 16.675 22.683C16.7391 22.4194 16.8645 22.1747 17.0409 21.9687C17.2174 21.7627 17.44 21.6013 17.6906 21.4975C17.9412 21.3938 18.2128 21.3506 18.4832 21.3715C18.7537 21.3924 19.0153 21.4769 19.247 21.618C20.791 22.558 22.557 20.791 21.617 19.248C21.4757 19.0162 21.3911 18.7544 21.3701 18.4838C21.3491 18.2132 21.3924 17.9414 21.4963 17.6907C21.6001 17.4399 21.7618 17.2172 21.968 17.0407C22.1742 16.8642 22.4192 16.7389 22.683 16.675C24.439 16.249 24.439 13.751 22.683 13.325C22.4194 13.2609 22.1747 13.1355 21.9687 12.9591C21.7627 12.7826 21.6013 12.56 21.4975 12.3094C21.3938 12.0588 21.3506 11.7872 21.3715 11.5168C21.3924 11.2463 21.4769 10.9847 21.618 10.753C22.558 9.209 20.791 7.443 19.248 8.383C19.0162 8.5243 18.7544 8.60889 18.4838 8.62987C18.2132 8.65085 17.9414 8.60764 17.6907 8.50375C17.4399 8.39985 17.2172 8.23822 17.0407 8.032C16.8642 7.82578 16.7389 7.5808 16.675 7.317ZM18 15C18 16.6569 16.6569 18 15 18C13.3431 18 12 16.6569 12 15C12 13.3431 13.3431 12 15 12C16.6569 12 18 13.3431 18 15Z" fill="white"/>
</g>
<defs>
<clipPath id="clip0_2557_25229">
<rect width="30" height="30" fill="white"/>
</clipPath>
</defs>
</svg>
