<svg width="30" height="30" viewBox="0 0 30 30" fill="none" xmlns="http://www.w3.org/2000/svg">
<g clip-path="url(#clip0_791_96791)">
<path d="M0 12.8C0 8.31958 0 6.07937 0.871948 4.36808C1.63893 2.86278 2.86278 1.63893 4.36808 0.871948C6.07937 0 8.31958 0 12.8 0H17.2C21.6804 0 23.9206 0 25.6319 0.871948C27.1372 1.63893 28.3611 2.86278 29.1281 4.36808C30 6.07937 30 8.31958 30 12.8V17.2C30 21.6804 30 23.9206 29.1281 25.6319C28.3611 27.1372 27.1372 28.3611 25.6319 29.1281C23.9206 30 21.6804 30 17.2 30H12.8C8.31958 30 6.07937 30 4.36808 29.1281C2.86278 28.3611 1.63893 27.1372 0.871948 25.6319C0 23.9206 0 21.6804 0 17.2V12.8Z" fill="#FF9200"/>
<path d="M17.2648 24.4L24.4242 17.25C24.8248 16.85 25 16.35 25 15.85C25 15.35 24.8248 14.825 24.4242 14.425L16.614 6.6C16.2468 6.23333 15.7211 6 15.1871 6H8.00264C6.90963 6 6 6.90844 6 8V15.175C6 15.7083 6.20861 16.2083 6.57576 16.575L14.4111 24.4C14.8116 24.8 15.3373 25 15.8379 25C16.3386 25 16.8643 24.8 17.2648 24.4ZM13.0092 11.5C13.0092 12.3245 12.3328 13 11.5072 13C10.6816 13 10.0053 12.3245 10.0053 11.5C10.0053 10.6755 10.6816 10 11.5072 10C12.3328 10 13.0092 10.6755 13.0092 11.5Z" fill="white"/>
</g>
<defs>
<clipPath id="clip0_791_96791">
<rect width="30" height="30" fill="white"/>
</clipPath>
</defs>
</svg>
