<svg width="30" height="30" viewBox="0 0 30 30" fill="none" xmlns="http://www.w3.org/2000/svg">
<g clip-path="url(#clip0_911_2474)">
<path d="M0 12.8C0 8.31958 0 6.07937 0.871948 4.36808C1.63893 2.86278 2.86278 1.63893 4.36808 0.871948C6.07937 0 8.31958 0 12.8 0H17.2C21.6804 0 23.9206 0 25.6319 0.871948C27.1372 1.63893 28.3611 2.86278 29.1281 4.36808C30 6.07937 30 8.31958 30 12.8V17.2C30 21.6804 30 23.9206 29.1281 25.6319C28.3611 27.1372 27.1372 28.3611 25.6319 29.1281C23.9206 30 21.6804 30 17.2 30H12.8C8.31958 30 6.07937 30 4.36808 29.1281C2.86278 28.3611 1.63893 27.1372 0.871948 25.6319C0 23.9206 0 21.6804 0 17.2V12.8Z" fill="#2EC851"/>
<path d="M11 4.49854C10.4477 4.49854 10 4.94625 10 5.49854V6.49854H9C7.34315 6.49854 6 7.84168 6 9.49854V21.0001C6 22.657 7.34315 24.0001 9 24.0001H21C22.6569 24.0001 24 22.657 24 21.0001V9.49854C24 7.84168 22.6569 6.49854 21 6.49854H20V5.49854C20 4.94625 19.5523 4.49854 19 4.49854C18.4477 4.49854 18 4.94625 18 5.49854V6.49854H12V5.49854C12 4.94625 11.5523 4.49854 11 4.49854ZM8.75078 9.49854H21.2492C21.6639 9.49854 22 9.83467 22 10.2493C22 10.664 21.6639 11.0001 21.2492 11.0001H8.75078C8.33613 11.0001 8 10.664 8 10.2493C8 9.83467 8.33613 9.49854 8.75078 9.49854Z" fill="white"/>
</g>
<defs>
<clipPath id="clip0_911_2474">
<rect width="30" height="30" fill="white"/>
</clipPath>
</defs>
</svg>
