<svg width="30" height="30" viewBox="0 0 30 30" fill="none" xmlns="http://www.w3.org/2000/svg">
<g clip-path="url(#clip0_2544_24135)">
<path d="M0 12.8C0 8.31958 0 6.07937 0.871948 4.36808C1.63893 2.86278 2.86278 1.63893 4.36808 0.871948C6.07937 0 8.31958 0 12.8 0H17.2C21.6804 0 23.9206 0 25.6319 0.871948C27.1372 1.63893 28.3611 2.86278 29.1281 4.36808C30 6.07937 30 8.31958 30 12.8V17.2C30 21.6804 30 23.9206 29.1281 25.6319C28.3611 27.1372 27.1372 28.3611 25.6319 29.1281C23.9206 30 21.6804 30 17.2 30H12.8C8.31958 30 6.07937 30 4.36808 29.1281C2.86278 28.3611 1.63893 27.1372 0.871948 25.6319C0 23.9206 0 21.6804 0 17.2V12.8Z" fill="#2EC851"/>
<path d="M11 4.49841C10.4477 4.49841 10 4.94613 10 5.49841V6.49841H9C7.34315 6.49841 6 7.84156 6 9.49841V21C6 22.6568 7.34315 24 9 24H21C22.6569 24 24 22.6568 24 21V9.49841C24 7.84156 22.6569 6.49841 21 6.49841H20V5.49841C20 4.94613 19.5523 4.49841 19 4.49841C18.4477 4.49841 18 4.94613 18 5.49841V6.49841H12V5.49841C12 4.94613 11.5523 4.49841 11 4.49841ZM8.75078 9.49841H21.2492C21.6639 9.49841 22 9.83455 22 10.2492C22 10.6638 21.6639 11 21.2492 11H8.75078C8.33613 11 8 10.6638 8 10.2492C8 9.83455 8.33613 9.49841 8.75078 9.49841Z" fill="white"/>
<path d="M11.6992 20.1562C10.3564 20.1562 9.53125 19.5752 9.19922 18.8818C9.12109 18.7207 9.08691 18.5645 9.08691 18.418C9.08691 18.0371 9.33105 17.7979 9.73633 17.7979C10.0293 17.7979 10.2148 17.915 10.3613 18.1836C10.6104 18.6768 10.9912 18.9697 11.7236 18.9697C12.4463 18.9697 12.9443 18.5498 12.9443 17.9639C12.9492 17.2803 12.4463 16.8994 11.5918 16.8994H11.2842C10.9277 16.8994 10.7227 16.6895 10.7227 16.3721C10.7227 16.0645 10.9277 15.8496 11.2842 15.8496H11.5723C12.3096 15.8496 12.7881 15.4492 12.7881 14.873C12.7881 14.3066 12.4072 13.9307 11.6943 13.9307C11.0986 13.9307 10.7373 14.1797 10.5078 14.6777C10.3467 15.0098 10.1758 15.1318 9.84375 15.1318C9.43359 15.1318 9.22363 14.8926 9.22363 14.5361C9.22363 14.3701 9.25781 14.2285 9.33105 14.0625C9.64355 13.374 10.4443 12.7979 11.6895 12.7979C13.1787 12.7979 14.1846 13.5352 14.1846 14.6631C14.1846 15.5566 13.5449 16.1426 12.7148 16.3135V16.3428C13.7646 16.4404 14.4434 17.0557 14.4434 18.0273C14.4434 19.3066 13.335 20.1562 11.6992 20.1562ZM18.1348 20.1562C16.3477 20.1562 15.2588 18.7451 15.2588 16.4648C15.2588 14.1895 16.3574 12.793 18.1348 12.793C19.9121 12.793 21.0059 14.1846 21.0059 16.46C21.0059 18.7354 19.9219 20.1562 18.1348 20.1562ZM18.1348 18.9746C19.0039 18.9746 19.5068 18.0811 19.5068 16.4648C19.5068 14.8584 18.999 13.9746 18.1348 13.9746C17.2754 13.9746 16.7578 14.8633 16.7578 16.4648C16.7578 18.0811 17.2656 18.9746 18.1348 18.9746Z" fill="#2EC851"/>
</g>
<defs>
<clipPath id="clip0_2544_24135">
<rect width="30" height="30" fill="white"/>
</clipPath>
</defs>
</svg>
