<svg width="30" height="30" viewBox="0 0 30 30" fill="none" xmlns="http://www.w3.org/2000/svg">
<g clip-path="url(#clip0_2544_24136)">
<path d="M0 12.8C0 8.31958 0 6.07937 0.871948 4.36808C1.63893 2.86278 2.86278 1.63893 4.36808 0.871948C6.07937 0 8.31958 0 12.8 0H17.2C21.6804 0 23.9206 0 25.6319 0.871948C27.1372 1.63893 28.3611 2.86278 29.1281 4.36808C30 6.07937 30 8.31958 30 12.8V17.2C30 21.6804 30 23.9206 29.1281 25.6319C28.3611 27.1372 27.1372 28.3611 25.6319 29.1281C23.9206 30 21.6804 30 17.2 30H12.8C8.31958 30 6.07937 30 4.36808 29.1281C2.86278 28.3611 1.63893 27.1372 0.871948 25.6319C0 23.9206 0 21.6804 0 17.2V12.8Z" fill="#FF375F"/>
<path d="M11 4.49841C10.4477 4.49841 10 4.94613 10 5.49841V6.49841H9C7.34315 6.49841 6 7.84156 6 9.49841V21C6 22.6568 7.34315 24 9 24H21C22.6569 24 24 22.6568 24 21V9.49841C24 7.84156 22.6569 6.49841 21 6.49841H20V5.49841C20 4.94613 19.5523 4.49841 19 4.49841C18.4477 4.49841 18 4.94613 18 5.49841V6.49841H12V5.49841C12 4.94613 11.5523 4.49841 11 4.49841ZM8.75078 9.49841H21.2492C21.6639 9.49841 22 9.83455 22 10.2492C22 10.6638 21.6639 11 21.2492 11H8.75078C8.33613 11 8 10.6638 8 10.2492C8 9.83455 8.33613 9.49841 8.75078 9.49841ZM20 21C18.8954 21 18 20.1046 18 19C18 17.8954 18.8954 17 20 17C21.1046 17 22 17.8954 22 19C22 20.1046 21.1046 21 20 21Z" fill="white"/>
</g>
<defs>
<clipPath id="clip0_2544_24136">
<rect width="30" height="30" fill="white"/>
</clipPath>
</defs>
</svg>
