<svg width="16" height="16" viewBox="0 0 16 16" fill="none" xmlns="http://www.w3.org/2000/svg">
<path fill-rule="evenodd" clip-rule="evenodd" d="M5.5 1.49683C5.77614 1.49683 6 1.72068 6 1.99683V3H10V1.99683C10 1.72068 10.2239 1.49683 10.5 1.49683C10.7761 1.49683 11 1.72068 11 1.99683V3.00552C11.7696 3.02026 12.246 3.0743 12.635 3.27248C13.1054 3.51217 13.4878 3.89462 13.7275 4.36502C14 4.8998 14 5.59987 14 7V10C14 11.4001 14 12.1002 13.7275 12.635C13.4878 13.1054 13.1054 13.4878 12.635 13.7275C12.1002 14 11.4001 14 10 14H6C4.59987 14 3.8998 14 3.36502 13.7275C2.89462 13.4878 2.51217 13.1054 2.27248 12.635C2 12.1002 2 11.4001 2 10V7C2 5.59987 2 4.8998 2.27248 4.36502C2.51217 3.89462 2.89462 3.51217 3.36502 3.27248C3.75399 3.0743 4.23039 3.02026 5 3.00552V1.99683C5 1.72068 5.22386 1.49683 5.5 1.49683ZM6 4H10C10.7166 4 11.1938 4.00078 11.5606 4.03074C11.9156 4.05975 12.0781 4.11105 12.181 4.16349C12.4632 4.3073 12.6927 4.53677 12.8365 4.81901C12.889 4.92194 12.9403 5.0844 12.9693 5.43944C12.9992 5.80615 13 6.28343 13 7V10C13 10.7166 12.9992 11.1938 12.9693 11.5606C12.9403 11.9156 12.889 12.0781 12.8365 12.181C12.6927 12.4632 12.4632 12.6927 12.181 12.8365C12.0781 12.889 11.9156 12.9403 11.5606 12.9693C11.1938 12.9992 10.7166 13 10 13H6C5.28343 13 4.80615 12.9992 4.43944 12.9693C4.0844 12.9403 3.92194 12.889 3.81901 12.8365C3.53677 12.6927 3.3073 12.4632 3.16349 12.181C3.11105 12.0781 3.05975 11.9156 3.03074 11.5606C3.00078 11.1938 3 10.7166 3 10V7C3 6.28343 3.00078 5.80615 3.03074 5.43944C3.05975 5.0844 3.11105 4.92194 3.16349 4.81901C3.3073 4.53677 3.53677 4.3073 3.81901 4.16349C3.92194 4.11105 4.0844 4.05975 4.43944 4.03074C4.80615 4.00078 5.28343 4 6 4ZM5 6C4.72386 6 4.5 6.22386 4.5 6.5C4.5 6.77614 4.72386 7 5 7H11C11.2761 7 11.5 6.77614 11.5 6.5C11.5 6.22386 11.2761 6 11 6H5ZM10.5 11.5C11.0523 11.5 11.5 11.0523 11.5 10.5C11.5 9.94771 11.0523 9.5 10.5 9.5C9.94772 9.5 9.5 9.94771 9.5 10.5C9.5 11.0523 9.94772 11.5 10.5 11.5Z" />
</svg>
