<svg width="16" height="16" viewBox="0 0 16 16" fill="none" xmlns="http://www.w3.org/2000/svg">
<g clip-path="url(#clip0_2552_24001)">
<circle cx="8" cy="8" r="8" fill="#8D8C93"/>
<path d="M5.38815 5.04526L4.1202 4.8458C3.78741 5.25465 3.51795 5.7171 3.32678 6.21821L4.13411 7.21732C4.50443 7.67561 4.50443 8.33029 4.13411 8.78858L3.32832 9.78579C3.52022 10.2875 3.79061 10.7504 4.12448 11.1594L5.38815 10.9606C5.9702 10.8691 6.53717 11.1964 6.7489 11.7463L7.20763 12.9376C7.46569 12.9786 7.73034 13 7.99998 13C8.27181 13 8.53858 12.9783 8.79864 12.9366L9.25698 11.7463C9.46871 11.1964 10.0357 10.8691 10.6177 10.9606L11.8762 11.1586C12.2108 10.7484 12.4817 10.2841 12.6735 9.78081L11.8718 8.78858C11.5014 8.33029 11.5014 7.67561 11.8718 7.21732L12.6751 6.2232C12.4839 5.7205 12.214 5.25663 11.8804 4.84663L10.6177 5.04526C10.0357 5.13683 9.46871 4.80949 9.25698 4.25963L8.79621 3.06304C8.53692 3.02155 8.27097 2.99999 7.99998 2.99999C7.73119 2.99999 7.46735 3.0212 7.21005 3.06204L6.7489 4.25963C6.53717 4.80949 5.9702 5.13683 5.38815 5.04526ZM7.99998 9.49999C7.17156 9.49999 6.49998 8.82842 6.49998 7.99999C6.49998 7.17156 7.17156 6.49999 7.99998 6.49999C8.82841 6.49999 9.49998 7.17156 9.49998 7.99999C9.49998 8.82842 8.82841 9.49999 7.99998 9.49999Z" fill="white"/>
</g>
<defs>
<clipPath id="clip0_2552_24001">
<rect width="16" height="16" fill="white"/>
</clipPath>
</defs>
</svg>
