<svg width="16" height="16" viewBox="0 0 16 16" fill="none" xmlns="http://www.w3.org/2000/svg">
<path fill-rule="evenodd" clip-rule="evenodd" d="M6 8C7.38071 8 8.5 6.88071 8.5 5.5C8.5 4.11929 7.38071 3 6 3C4.61929 3 3.5 4.11929 3.5 5.5C3.5 6.88071 4.61929 8 6 8ZM6 13.0007C7.933 13.0007 9.5 11.9383 9.5 10.6278C9.5 9.99769 9.10107 9.00077 7.75 9.00077L4.25 9.00073C2.89844 9.00073 2.5 9.99769 2.5 10.6278C2.5 11.9383 4.067 13.0007 6 13.0007ZM10.1434 11.9633C10.366 11.5692 10.5 11.121 10.5 10.6278C10.5 10.1481 10.3591 9.53303 9.95402 9.00579C10.001 9.00246 10.0496 9.00073 10.0999 9.00073L12.8997 9.00076C13.9805 9.00076 14.2996 9.79824 14.2996 10.3023C14.2996 11.3506 13.0461 12.2005 11.4998 12.2005C11.0077 12.2005 10.5452 12.1144 10.1434 11.9633ZM11.5 8C12.6046 8 13.5 7.10457 13.5 6C13.5 4.89543 12.6046 4 11.5 4C10.3954 4 9.5 4.89543 9.5 6C9.5 7.10457 10.3954 8 11.5 8Z" />
</svg>
