<svg width="16" height="16" viewBox="0 0 16 16" fill="none" xmlns="http://www.w3.org/2000/svg">
<path d="M9 4.75C9 5.16421 8.66421 5.5 8.25 5.5C7.83579 5.5 7.5 5.16421 7.5 4.75C7.5 4.33579 7.83579 4 8.25 4C8.66421 4 9 4.33579 9 4.75Z" />
<path d="M8.93008 7.55924C9.28038 6.69568 8.48901 5.80506 7.59024 6.05137L6.08481 6.46393L6.41519 7.66948L7.67667 7.32377L6.40776 10.4519C6.06047 11.3081 6.83614 12.1947 7.73087 11.9642L9.4098 11.5318L9.09801 10.3213L7.65936 10.6918L8.93008 7.55924Z" />
<path d="M8 15C11.866 15 15 11.866 15 8C15 4.13401 11.866 1 8 1C4.13401 1 1 4.13401 1 8C1 11.866 4.13401 15 8 15ZM8 14C4.68629 14 2 11.3137 2 8C2 4.68629 4.68629 2 8 2C11.3137 2 14 4.68629 14 8C14 11.3137 11.3137 14 8 14Z" />
</svg>
