<svg width="16" height="16" viewBox="0 0 16 16" fill="none" xmlns="http://www.w3.org/2000/svg">
<path d="M7.79968 3.06251C9.21729 1.64424 11.5166 1.64331 12.9354 3.06043C14.3541 4.47754 14.3551 6.77607 12.9375 8.19434L11.8491 9.28318C11.874 8.73758 11.8085 8.18863 11.6526 7.6607L12.0276 7.28551C12.9431 6.36959 12.9425 4.88517 12.0262 3.96999C11.11 3.0548 9.62506 3.0554 8.70956 3.97133L7.40039 5.2811C6.48489 6.19703 6.48549 7.68144 7.40173 8.59662C7.58093 8.77561 7.78187 8.91956 7.99605 9.0285C8.00379 9.30906 7.90068 9.59212 7.68667 9.80633L7.35075 10.1426C7.04234 9.97809 6.75267 9.76596 6.49259 9.50619C5.07383 8.08907 5.0729 5.79054 6.49051 4.37228L7.79968 3.06251Z" />
<path d="M8.31007 6.19L8.64651 5.8534C8.95458 6.01787 9.24394 6.22992 9.50376 6.48956C10.9222 7.90701 10.9231 10.2061 9.50584 11.6247L8.19722 12.9345C6.77997 14.3531 4.48122 14.354 3.06282 12.9366C1.64442 11.5192 1.64349 9.22009 3.06074 7.8015L4.14652 6.71469C4.12183 7.26022 4.18757 7.80908 4.34371 8.33688L3.9704 8.71055C3.05513 9.62668 3.05573 11.1114 3.97174 12.0268C4.88775 12.9422 6.3723 12.9416 7.28756 12.0255L8.59618 10.7156C9.51145 9.79948 9.51085 8.31474 8.59484 7.39935C8.41567 7.2203 8.21475 7.07629 8.00059 6.96733C7.99293 6.68694 8.09608 6.40408 8.31007 6.19Z" />
</svg>
