<svg width="16" height="16" viewBox="0 0 16 16" fill="none" xmlns="http://www.w3.org/2000/svg">
<path d="M5.6786 1.9999C5.13671 1.9999 4.69963 1.9999 4.34569 2.02881C3.98126 2.05859 3.66117 2.1215 3.36502 2.27239C2.89462 2.51207 2.51217 2.89452 2.27248 3.36493C2.12159 3.66107 2.05868 3.98117 2.02891 4.34559C1.99999 4.69953 2 5.13661 2 5.6785V10.3213C2 10.8632 1.99999 11.3003 2.02891 11.6542C2.05868 12.0186 2.12159 12.3387 2.27248 12.6349C2.51217 13.1053 2.89462 13.4877 3.36502 13.7274C3.66117 13.8783 3.98126 13.9412 4.34569 13.971C4.69961 13.9999 5.13667 13.9999 5.67853 13.9999H8.16863L8.19415 14C8.25784 14.0001 8.33261 14.0003 8.41045 13.9919C8.4395 13.9972 8.46943 13.9999 8.5 13.9999C8.67037 13.9999 8.82083 13.9147 8.91111 13.7846C8.97214 13.7355 9.02491 13.6824 9.06986 13.6372L9.08787 13.6191L13.6192 9.08777L13.6373 9.06976C13.6825 9.02482 13.7356 8.97205 13.7847 8.91101C13.9148 8.82074 14 8.67027 14 8.49991C14 8.46934 13.9973 8.43941 13.992 8.41035C14.0004 8.33251 14.0002 8.25774 14 8.19405L14 8.16853V5.67849C14 5.13663 14 4.69952 13.9711 4.34559C13.9413 3.98117 13.8784 3.66107 13.7275 3.36493C13.4878 2.89452 13.1054 2.51207 12.635 2.27239C12.3388 2.1215 12.0187 2.05859 11.6543 2.02881C11.3004 1.9999 10.8633 1.9999 10.3214 1.9999H5.6786ZM13 7.99991H10C8.89543 7.99991 8 8.89534 8 9.9999V12.9999H5.7C5.1317 12.9999 4.73554 12.9995 4.42712 12.9743C4.12454 12.9496 3.95069 12.9035 3.81901 12.8364C3.53677 12.6926 3.3073 12.4631 3.16349 12.1809C3.0964 12.0492 3.05031 11.8754 3.02559 11.5728C3.00039 11.2644 3 10.8682 3 10.2999V5.6999C3 5.1316 3.00039 4.73545 3.02559 4.42702C3.05031 4.12444 3.0964 3.9506 3.16349 3.81892C3.3073 3.53668 3.53677 3.30721 3.81901 3.1634C3.95069 3.0963 4.12454 3.05021 4.42712 3.02549C4.73554 3.00029 5.1317 2.99991 5.7 2.99991H10.3C10.8683 2.99991 11.2645 3.00029 11.5729 3.02549C11.8755 3.05021 12.0493 3.0963 12.181 3.1634C12.4632 3.30721 12.6927 3.53668 12.8365 3.81892C12.9036 3.9506 12.9497 4.12444 12.9744 4.42702C12.9996 4.73545 13 5.1316 13 5.69991V7.99991ZM9 12.2928V9.9999C9 9.44762 9.44772 8.99991 10 8.99991H12.2929L9 12.2928Z" />
</svg>
