<svg width="16" height="16" viewBox="0 0 16 16" fill="none" xmlns="http://www.w3.org/2000/svg">
<path d="M3.15021 1.64267C3.34547 1.4474 3.66205 1.4474 3.85732 1.64266C4.05258 1.83792 4.05258 2.1545 3.85732 2.34977L2.35356 3.85356C2.15829 4.04882 1.84171 4.04883 1.64645 3.85356C1.45118 3.6583 1.45118 3.34172 1.64644 3.14646L3.15021 1.64267Z" />
<path d="M12.1486 1.64858C12.3438 1.45331 12.6604 1.45331 12.8557 1.64857L14.3536 3.14645C14.5488 3.34171 14.5488 3.65829 14.3536 3.85355C14.1583 4.04882 13.8417 4.04882 13.6464 3.85356L12.1486 2.35568C11.9533 2.16042 11.9533 1.84384 12.1486 1.64858Z" />
<path d="M7.5 8.21673L9.295 10.0117L10 9.30674L8.5 7.80173V5.01173H7.5V8.21673Z" />
<path fill-rule="evenodd" clip-rule="evenodd" d="M8 14C9.2203 14 10.3555 13.6357 11.3028 13.0099L12.1465 13.8535C12.3417 14.0488 12.6583 14.0488 12.8536 13.8535C13.0488 13.6583 13.0488 13.3417 12.8536 13.1464L12.0937 12.3866C13.2667 11.2914 14 9.73137 14 8.00002C14 4.68631 11.3137 2.00002 8 2.00002C4.68629 2.00002 2 4.68631 2 8.00002C2 9.73157 2.73349 11.2918 3.90672 12.387L3.14724 13.1464C2.95198 13.3417 2.95197 13.6583 3.14724 13.8535C3.3425 14.0488 3.65908 14.0488 3.85434 13.8535L4.69765 13.0103C5.64486 13.6358 6.7799 14 8 14ZM13 8.00002C13 10.7614 10.7614 13 8 13C5.23858 13 3 10.7614 3 8.00002C3 5.23859 5.23858 3.00002 8 3.00002C10.7614 3.00002 13 5.23859 13 8.00002Z" />
</svg>
