<svg width="16" height="16" viewBox="0 0 16 16" fill="none" xmlns="http://www.w3.org/2000/svg">
<path d="M14 7.99999C14 10.2203 12.1765 11.9466 10 12L6.707 11.9993L7.85525 13.1481C8.03728 13.3302 8.04763 13.625 7.88418 13.8206C7.69253 14.05 7.36928 14.04 7.14815 13.8552L5.14645 11.8535C4.94066 11.6478 4.97296 11.3541 5.14645 11.1464L7.14815 9.14474C7.34341 8.94948 7.65999 8.94948 7.85525 9.14474C8.02882 9.3183 8.0481 9.58773 7.91311 9.7826L6.707 10.9993L10 11C11.5977 11 12.9037 9.75107 12.9949 8.17626C13.0195 7.32398 12.7406 6.50524 12.134 5.89142C11.9422 5.68486 11.962 5.34853 12.1779 5.16648C12.3519 5.01973 12.6481 5.01973 12.8221 5.16648C13.5698 5.91745 14 6.93806 14 7.99999ZM8.78431 2.08688L10.9131 4.21569C11.0312 4.3862 11.0312 4.61379 10.9131 4.7843L8.78431 6.9131C8.57501 7.05809 8.32966 7.00832 8.14645 6.85525C7.99338 6.67203 7.9436 6.42668 8.08859 6.21739L9.294 4.99929L6 4.99999C4.32935 4.99999 3.04714 6.36848 3 7.99999C3 8.81954 3.32863 9.56234 3.8613 10.1038C4.04865 10.296 4.0419 10.6138 3.85255 10.802C3.66015 10.9934 3.33985 10.9934 3.14745 10.802C2.4379 10.0825 2 9.09239 2 7.99999C2 5.77964 3.82355 4.05336 6 3.99999L9.294 3.99929L8.08859 2.7826C7.9536 2.58773 7.97288 2.3183 8.14645 2.14474C8.32001 1.97117 8.58944 1.95189 8.78431 2.08688Z" />
</svg>
