<svg width="16" height="16" viewBox="0 0 16 16" fill="none" xmlns="http://www.w3.org/2000/svg">
<path fill-rule="evenodd" clip-rule="evenodd" d="M8.45362 3.15018C8.18704 2.95007 7.82037 2.94993 7.55362 3.14982L3.55023 6.14982C3.21876 6.39821 3.15141 6.86828 3.3998 7.19976C3.64819 7.53123 4.11827 7.59858 4.44974 7.35018L8.003 4.6875L11.5497 7.34982C11.881 7.59848 12.3511 7.53151 12.5998 7.20024C12.8485 6.86897 12.7815 6.39885 12.4502 6.15018L8.45362 3.15018ZM8.45345 13.8482C8.18694 14.0481 7.82047 14.0483 7.55379 13.8485L3.5504 10.8503C3.21886 10.602 3.15137 10.132 3.39967 9.80041C3.64797 9.46887 4.11803 9.40139 4.44957 9.64969L8.003 12.3109L11.5499 9.65006C11.8812 9.40149 12.3514 9.46859 12.5999 9.79993C12.8485 10.1313 12.7814 10.6014 12.4501 10.8499L8.45345 13.8482Z" />
</svg>
