<svg width="16" height="24" viewBox="0 0 16 24" fill="none" xmlns="http://www.w3.org/2000/svg">
<path d="M1.4375 11.5967C1.4375 11.4189 1.46826 11.2549 1.52979 11.1045C1.59814 10.9541 1.70068 10.8105 1.8374 10.6738L9.8252 2.86035C10.0576 2.63477 10.3379 2.52197 10.666 2.52197C10.8916 2.52197 11.0933 2.57666 11.271 2.68604C11.4556 2.78857 11.6025 2.92871 11.7119 3.10645C11.8213 3.28418 11.876 3.48584 11.876 3.71143C11.876 4.03271 11.7495 4.31982 11.4966 4.57275L4.29834 11.5967L11.4966 18.6206C11.7495 18.8735 11.876 19.1641 11.876 19.4922C11.876 19.7109 11.8213 19.9092 11.7119 20.0869C11.6025 20.2715 11.4556 20.415 11.271 20.5176C11.0933 20.627 10.8916 20.6816 10.666 20.6816C10.3379 20.6816 10.0576 20.5654 9.8252 20.333L1.8374 12.5195C1.70068 12.3828 1.59814 12.2393 1.52979 12.0889C1.46826 11.9385 1.4375 11.7744 1.4375 11.5967Z" />
</svg>
