<svg width="30" height="30" viewBox="0 0 30 30" fill="none" xmlns="http://www.w3.org/2000/svg">
<g clip-path="url(#clip0_214_3233)">
<rect width="30" height="30" rx="7" fill="#8E8E93"/>
<path fill-rule="evenodd" clip-rule="evenodd" d="M6.43597 8.18404C6 9.03969 6 10.1598 6 12.4V17.6C6 19.8402 6 20.9603 6.43597 21.816C6.81947 22.5686 7.43139 23.1805 8.18404 23.564C9.03969 24 10.1598 24 12.4 24H17.6C19.8402 24 20.9603 24 21.816 23.564C22.5686 23.1805 23.1805 22.5686 23.564 21.816C24 20.9603 24 19.8402 24 17.6V12.4C24 10.1598 24 9.03969 23.564 8.18404C23.1805 7.43139 22.5686 6.81947 21.816 6.43597C20.9603 6 19.8402 6 17.6 6H12.4C10.1598 6 9.03969 6 8.18404 6.43597C7.43139 6.81947 6.81947 7.43139 6.43597 8.18404ZM18.8575 10.5145C19.1416 10.0409 18.9881 9.42666 18.5145 9.14251C18.0409 8.85836 17.4267 9.01192 17.1425 9.4855L11.1425 19.4855C10.8584 19.9591 11.0119 20.5733 11.4855 20.8575C11.9591 21.1416 12.5733 20.9881 12.8575 20.5145L18.8575 10.5145Z" fill="white"/>
</g>
<defs>
<clipPath id="clip0_214_3233">
<rect width="30" height="30" fill="white"/>
</clipPath>
</defs>
</svg>
