<svg width="30" height="30" viewBox="0 0 30 30" fill="none" xmlns="http://www.w3.org/2000/svg">
<g clip-path="url(#clip0_4752_23021)">
<rect width="30" height="30" rx="7" fill="#34C759"/>
<path d="M7 10C7 7.23858 9.23858 5 12 5C14.7614 5 17 7.23858 17 10C17 12.7614 14.7614 15 12 15C9.23858 15 7 12.7614 7 10Z" fill="white"/>
<path d="M15 21.5C15 19.9995 15.5085 18.6177 16.3625 17.5176C15.6292 17.1813 14.7941 17 13.9358 17H10.0068C8.70424 17 7.45504 17.4175 6.53399 18.1608C5.24095 19.2042 4.7233 21.1735 5.14259 22.7916C5.33732 23.543 5.7744 23.8177 6.53399 24.2008C7.41673 24.646 8.5325 24.7667 9.83604 24.9078L10.0068 24.9263C11.5323 25.0921 13.9358 24.9263 13.9358 24.9263C13.9358 24.9263 14.8714 24.8306 15.814 24.652C15.2954 23.7184 15 22.6437 15 21.5Z" fill="white"/>
<path d="M18.0631 15.032C17.6305 15.032 17.4589 14.5175 17.7128 14.1673C18.5561 13.0044 19.0542 11.5691 19.0542 10.016C19.0542 8.4629 18.5561 7.02757 17.7128 5.86474C17.4589 5.5145 17.6305 5 18.0631 5C20.7998 5 23.0183 7.24574 23.0183 10.016C23.0183 12.7863 20.7998 15.032 18.0631 15.032Z" fill="white"/>
<path d="M26.5 21.5C26.5 24.2614 24.2614 26.5 21.5 26.5C18.7386 26.5 16.5 24.2614 16.5 21.5C16.5 18.7386 18.7386 16.5 21.5 16.5C24.2614 16.5 26.5 18.7386 26.5 21.5ZM21.4947 17.9966C21.1495 17.9966 20.8697 18.2764 20.8697 18.6216V20.8697H18.6231C18.2779 20.8697 17.9981 21.1495 17.9981 21.4947C17.9981 21.8399 18.2779 22.1197 18.6231 22.1197H20.8697V24.3716C20.8697 24.7168 21.1495 24.9966 21.4947 24.9966C21.8399 24.9966 22.1197 24.7168 22.1197 24.3716V22.1197H24.3731C24.7183 22.1197 24.9981 21.8399 24.9981 21.4947C24.9981 21.1495 24.7183 20.8697 24.3731 20.8697H22.1197V18.6216C22.1197 18.2764 21.8399 17.9966 21.4947 17.9966Z" fill="white"/>
</g>
<defs>
<clipPath id="clip0_4752_23021">
<rect width="30" height="30" fill="white"/>
</clipPath>
</defs>
</svg>
