<svg width="30" height="30" viewBox="0 0 30 30" fill="none" xmlns="http://www.w3.org/2000/svg">
<g clip-path="url(#clip0_2544_24133)">
<path d="M0 12.8C0 8.31958 0 6.07937 0.871948 4.36808C1.63893 2.86278 2.86278 1.63893 4.36808 0.871948C6.07937 0 8.31958 0 12.8 0H17.2C21.6804 0 23.9206 0 25.6319 0.871948C27.1372 1.63893 28.3611 2.86278 29.1281 4.36808C30 6.07937 30 8.31958 30 12.8V17.2C30 21.6804 30 23.9206 29.1281 25.6319C28.3611 27.1372 27.1372 28.3611 25.6319 29.1281C23.9206 30 21.6804 30 17.2 30H12.8C8.31958 30 6.07937 30 4.36808 29.1281C2.86278 28.3611 1.63893 27.1372 0.871948 25.6319C0 23.9206 0 21.6804 0 17.2V12.8Z" fill="#007AFF"/>
<path fill-rule="evenodd" clip-rule="evenodd" d="M15 25C20.5228 25 25 20.5228 25 15C25 9.47715 20.5228 5 15 5C9.47715 5 5 9.47715 5 15C5 20.5228 9.47715 25 15 25ZM18.9847 11.6224C19.0774 11.2554 18.7445 10.9225 18.3775 11.0152L13.0784 12.3539C12.7221 12.4439 12.4438 12.7221 12.3538 13.0785L11.0152 18.3775C10.9225 18.7446 11.2554 19.0775 11.6224 18.9848L16.9215 17.6461C17.2778 17.5561 17.5561 17.2779 17.6461 16.9215L18.9847 11.6224Z" fill="white"/>
</g>
<defs>
<clipPath id="clip0_2544_24133">
<rect width="30" height="30" fill="white"/>
</clipPath>
</defs>
</svg>
