<svg width="30" height="30" viewBox="0 0 30 30" fill="none" xmlns="http://www.w3.org/2000/svg">
<g clip-path="url(#clip0_2456_23222)">
<rect width="30" height="30" rx="7" fill="#AF52DE"/>
<path d="M14.5097 5.62842C14.8141 5.45719 15.1858 5.45719 15.4902 5.62842L23.4902 10.1284C23.8051 10.3055 23.9999 10.6387 23.9999 11C23.9999 11.3613 23.8051 11.6945 23.4902 11.8716L15.4902 16.3716C15.1858 16.5428 14.8141 16.5428 14.5097 16.3716L6.50967 11.8716C6.1948 11.6945 5.99993 11.3613 5.99993 11C5.99993 10.6387 6.1948 10.3055 6.50967 10.1284L14.5097 5.62842Z" fill="white"/>
<path d="M6.12836 14.5097C6.39912 14.0284 7.00884 13.8577 7.49019 14.1284L14.9999 18.3527L22.5097 14.1284C22.991 13.8577 23.6007 14.0284 23.8715 14.5097C24.1423 14.9911 23.9716 15.6008 23.4902 15.8716L15.4902 20.3716C15.1858 20.5428 14.8141 20.5428 14.5097 20.3716L6.50967 15.8716C6.02831 15.6008 5.85759 14.9911 6.12836 14.5097Z" fill="white"/>
<path d="M7.49019 18.1284C7.00884 17.8577 6.39912 18.0284 6.12836 18.5097C5.85759 18.9911 6.02831 19.6008 6.50967 19.8716L14.5097 24.3716C14.8141 24.5428 15.1858 24.5428 15.4902 24.3716L23.4902 19.8716C23.9716 19.6008 24.1423 18.9911 23.8715 18.5097C23.6007 18.0284 22.991 17.8577 22.5097 18.1284L14.9999 22.3527L7.49019 18.1284Z" fill="white"/>
</g>
<defs>
<clipPath id="clip0_2456_23222">
<rect width="30" height="30" fill="white"/>
</clipPath>
</defs>
</svg>
