<svg width="30" height="30" viewBox="0 0 30 30" fill="none" xmlns="http://www.w3.org/2000/svg">
<g clip-path="url(#clip0_5011_9967)">
<rect width="30" height="30" rx="7" fill="#30B0C7"/>
<path d="M10 9V7.5C10 6.11929 11.1193 5 12.5 5H17.5C18.8807 5 20 6.11929 20 7.5V9H20.2C21.8802 9 22.7202 9 23.362 9.32698C23.9265 9.6146 24.3854 10.0735 24.673 10.638C24.9396 11.1612 24.9888 11.8653 24.9979 13C24.9979 13 20 14 15.0039 14C10.0078 14 5.00206 13 5.00206 13C5.01116 11.8653 5.06039 11.1612 5.32698 10.638C5.6146 10.0735 6.07354 9.6146 6.63803 9.32698C7.27976 9 8.11984 9 9.8 9H10ZM12 7.5V9H18V7.5C18 7.22386 17.7761 7 17.5 7H12.5C12.2239 7 12 7.22386 12 7.5Z" fill="white"/>
<path d="M17.5 15.4222C20.0142 15.2973 22.5213 15.002 25 14.5V19.2C25 20.8802 25 21.7202 24.673 22.362C24.3854 22.9265 23.9265 23.3854 23.362 23.673C22.7202 24 21.8802 24 20.2 24H9.8C8.11984 24 7.27976 24 6.63803 23.673C6.07354 23.3854 5.6146 22.9265 5.32698 22.362C5 21.7202 5 20.8802 5 19.2V14.5C7.47873 15.002 9.98583 15.2973 12.5 15.4222V16C12.5 16.5523 12.9477 17 13.5 17H16.5C17.0523 17 17.5 16.5523 17.5 16V15.4222Z" fill="white"/>
</g>
<defs>
<clipPath id="clip0_5011_9967">
<rect width="30" height="30" fill="white"/>
</clipPath>
</defs>
</svg>
