<svg width="30" height="30" viewBox="0 0 30 30" fill="none" xmlns="http://www.w3.org/2000/svg">
<g clip-path="url(#clip0_2456_23224)">
<rect width="30" height="30" rx="7" fill="#34C759"/>
<path d="M7 10C7 7.23858 9.23858 5 12 5C14.7614 5 17 7.23858 17 10C17 12.7614 14.7614 15 12 15C9.23858 15 7 12.7614 7 10Z" fill="white"/>
<path d="M18.8 22.7916C18.6533 23.3221 18.1682 23.8177 17.4086 24.2008C16.4876 24.6653 13.9358 24.9263 13.9358 24.9263C13.9358 24.9263 11.5323 25.0921 10.0068 24.9263L9.83604 24.9078C8.5325 24.7667 7.41673 24.646 6.53399 24.2008C5.7744 23.8177 5.33732 23.543 5.14259 22.7916C4.7233 21.1735 5.24095 19.2042 6.53399 18.1608C7.45504 17.4175 8.70424 17 10.0068 17H13.9358C15.2384 17 16.4876 17.4175 17.4086 18.1608C18.572 19.0995 19.3983 21.2921 18.8 22.7916Z" fill="white"/>
<path d="M17.7128 14.1673C17.4589 14.5175 17.6305 15.032 18.0631 15.032C20.7998 15.032 23.0183 12.7863 23.0183 10.016C23.0183 7.24574 20.7998 5 18.0631 5C17.6305 5 17.4589 5.5145 17.7128 5.86474C18.5561 7.02757 19.0542 8.46291 19.0542 10.016C19.0542 11.5691 18.5561 13.0044 17.7128 14.1673Z" fill="white"/>
<path d="M20.6331 23.5486C20.4146 23.9278 20.6943 24.43 21.1278 24.3692C21.9448 24.2547 22.9978 24.0595 23.58 23.7622C24.3327 23.3779 24.4328 23.3162 24.8022 22.8485C25.9751 21.3633 24.5762 19.1446 23.4233 18.2029C22.5105 17.4573 21.2725 17.0384 19.9816 17.0384C19.6723 17.0384 19.5037 17.4217 19.6861 17.6715C20.1377 18.2896 20.4818 18.9948 20.7065 19.6946C20.7153 19.7219 20.7241 19.7492 20.7328 19.7763C21.0749 20.8402 21.3593 21.7244 20.8904 22.9964C20.8383 23.1645 20.743 23.3578 20.6331 23.5486Z" fill="white"/>
</g>
<defs>
<clipPath id="clip0_2456_23224">
<rect width="30" height="30" fill="white"/>
</clipPath>
</defs>
</svg>
