<svg width="30" height="30" viewBox="0 0 30 30" fill="none" xmlns="http://www.w3.org/2000/svg">
<g clip-path="url(#clip0_2544_24246)">
<path d="M0 12.8C0 8.31958 0 6.07937 0.871948 4.36808C1.63893 2.86278 2.86278 1.63893 4.36808 0.871948C6.07937 0 8.31958 0 12.8 0H17.2C21.6804 0 23.9206 0 25.6319 0.871948C27.1372 1.63893 28.3611 2.86278 29.1281 4.36808C30 6.07937 30 8.31958 30 12.8V17.2C30 21.6804 30 23.9206 29.1281 25.6319C28.3611 27.1372 27.1372 28.3611 25.6319 29.1281C23.9206 30 21.6804 30 17.2 30H12.8C8.31958 30 6.07937 30 4.36808 29.1281C2.86278 28.3611 1.63893 27.1372 0.871948 25.6319C0 23.9206 0 21.6804 0 17.2V12.8Z" fill="#8E8E93"/>
<path fill-rule="evenodd" clip-rule="evenodd" d="M15 25C20.5228 25 25 20.5228 25 15C25 9.47715 20.5228 5 15 5C9.47715 5 5 9.47715 5 15C5 20.5228 9.47715 25 15 25ZM20.2071 13.2041C20.5976 12.8136 20.5976 12.1804 20.2071 11.7899C19.8166 11.3994 19.1834 11.3994 18.7929 11.7899L13.9973 16.5854L11.7075 14.2932C11.3171 13.9025 10.684 13.9022 10.2933 14.2925C9.90253 14.6829 9.90221 15.316 10.2925 15.7067L13.2895 18.7068C13.477 18.8944 13.7314 18.9999 13.9967 19C14.262 19.0001 14.5165 18.8947 14.7041 18.7071L20.2071 13.2041Z" fill="white"/>
</g>
<defs>
<clipPath id="clip0_2544_24246">
<rect width="30" height="30" fill="white"/>
</clipPath>
</defs>
</svg>
