<svg width="30" height="30" viewBox="0 0 30 30" fill="none" xmlns="http://www.w3.org/2000/svg">
<g clip-path="url(#clip0_1303_12499)">
<path d="M0 12.8C0 8.31958 0 6.07937 0.871948 4.36808C1.63893 2.86278 2.86278 1.63893 4.36808 0.871948C6.07937 0 8.31958 0 12.8 0H17.2C21.6804 0 23.9206 0 25.6319 0.871948C27.1372 1.63893 28.3611 2.86278 29.1281 4.36808C30 6.07937 30 8.31958 30 12.8V17.2C30 21.6804 30 23.9206 29.1281 25.6319C28.3611 27.1372 27.1372 28.3611 25.6319 29.1281C23.9206 30 21.6804 30 17.2 30H12.8C8.31958 30 6.07937 30 4.36808 29.1281C2.86278 28.3611 1.63893 27.1372 0.871948 25.6319C0 23.9206 0 21.6804 0 17.2V12.8Z" fill="#007AFF"/>
<path d="M25 15C25 20.5228 20.5228 25 15 25C9.47715 25 5 20.5228 5 15C5 9.47715 9.47715 5 15 5C20.5228 5 25 9.47715 25 15ZM17.5535 10.2406C16.8364 9.61951 15.9046 9.32672 15 9.32672C14.0954 9.32672 13.1636 9.61951 12.4465 10.2406C11.7141 10.875 11.25 11.8152 11.25 13C11.25 13.4142 11.5858 13.75 12 13.75C12.4142 13.75 12.75 13.4142 12.75 13C12.75 12.236 13.0359 11.7146 13.4285 11.3745C13.8364 11.0212 14.4046 10.8267 15 10.8267C15.5954 10.8267 16.1636 11.0212 16.5715 11.3745C16.9641 11.7146 17.25 12.236 17.25 13C17.25 13.6154 17.1006 13.8969 16.9618 14.0588C16.7949 14.2535 16.5616 14.3807 16.1646 14.5792L16.1254 14.5988C15.7742 14.774 15.2805 15.0203 14.8993 15.4651C14.4756 15.9594 14.25 16.6154 14.25 17.5C14.25 17.9142 14.5858 18.25 15 18.25C15.4142 18.25 15.75 17.9142 15.75 17.5C15.75 16.8846 15.8994 16.6031 16.0382 16.4412C16.2051 16.2465 16.4384 16.1193 16.8354 15.9208L16.8746 15.9013C17.2258 15.726 17.7195 15.4797 18.1007 15.035C18.5244 14.5406 18.75 13.8846 18.75 13C18.75 11.8152 18.2859 10.875 17.5535 10.2406ZM15 21C15.4612 21 15.835 20.6262 15.835 20.165C15.835 19.7039 15.4612 19.33 15 19.33C14.5388 19.33 14.165 19.7039 14.165 20.165C14.165 20.6262 14.5388 21 15 21Z" fill="white"/>
</g>
<defs>
<clipPath id="clip0_1303_12499">
<rect width="30" height="30" fill="white"/>
</clipPath>
</defs>
</svg>
