<svg width="30" height="30" viewBox="0 0 30 30" fill="none" xmlns="http://www.w3.org/2000/svg">
<g clip-path="url(#clip0_2487_560)">
<rect width="30" height="30" rx="7" fill="#007AFF"/>
<path d="M6.43597 8.18404C6 9.03969 6 10.1598 6 12.4V17.6C6 19.8402 6 20.9603 6.43597 21.816C6.81947 22.5686 7.43139 23.1805 8.18404 23.564C9.03969 24 10.1598 24 12.4 24H17.6C19.8402 24 20.9603 24 21.816 23.564C22.5686 23.1805 23.1805 22.5686 23.564 21.816C24 20.9603 24 19.8402 24 17.6V12.4C24 10.1598 24 9.03969 23.564 8.18404C23.1805 7.43139 22.5686 6.81947 21.816 6.43597C20.9603 6 19.8402 6 17.6 6H12.4C10.1598 6 9.03969 6 8.18404 6.43597C7.43139 6.81947 6.81947 7.43139 6.43597 8.18404ZM14 11.5C14 11.2239 13.7761 11 13.5 11C13.2239 11 13 11.2239 13 11.5V17C13 18.1046 13.8954 19 15 19C16.1046 19 17 18.1046 17 17V13H19V17C19 19.2091 17.2091 21 15 21C12.7909 21 11 19.2091 11 17V11.5C11 10.1193 12.1193 9 13.5 9C14.8807 9 16 10.1193 16 11.5V17H14V11.5Z" fill="white"/>
</g>
<defs>
<clipPath id="clip0_2487_560">
<rect width="30" height="30" fill="white"/>
</clipPath>
</defs>
</svg>
