<svg width="30" height="30" viewBox="0 0 30 30" fill="none" xmlns="http://www.w3.org/2000/svg">
<g clip-path="url(#clip0_214_11487)">
<rect width="30" height="30" rx="7" fill="#AF52DE"/>
<path d="M6.43597 8.18404C6 9.03969 6 10.1598 6 12.4V17.6C6 19.8402 6 20.9603 6.43597 21.816C6.81947 22.5686 7.43139 23.1805 8.18404 23.564C9.03969 24 10.1598 24 12.4 24H17.6C19.8402 24 20.9603 24 21.816 23.564C22.5686 23.1805 23.1805 22.5686 23.564 21.816C24 20.9603 24 19.8402 24 17.6V12.4C24 10.1598 24 9.03969 23.564 8.18404C23.1805 7.43139 22.5686 6.81947 21.816 6.43597C20.9603 6 19.8402 6 17.6 6H12.4C10.1598 6 9.03969 6 8.18404 6.43597C7.43139 6.81947 6.81947 7.43139 6.43597 8.18404ZM8 19L12 13L14 15L17 11L22 19H8Z" fill="white"/>
</g>
<defs>
<clipPath id="clip0_214_11487">
<rect width="30" height="30" fill="white"/>
</clipPath>
</defs>
</svg>
