<svg width="30" height="30" viewBox="0 0 30 30" fill="none" xmlns="http://www.w3.org/2000/svg">
<g clip-path="url(#clip0_2544_24134)">
<path d="M0 12.8C0 8.31958 0 6.07937 0.871948 4.36808C1.63893 2.86278 2.86278 1.63893 4.36808 0.871948C6.07937 0 8.31958 0 12.8 0H17.2C21.6804 0 23.9206 0 25.6319 0.871948C27.1372 1.63893 28.3611 2.86278 29.1281 4.36808C30 6.07937 30 8.31958 30 12.8V17.2C30 21.6804 30 23.9206 29.1281 25.6319C28.3611 27.1372 27.1372 28.3611 25.6319 29.1281C23.9206 30 21.6804 30 17.2 30H12.8C8.31958 30 6.07937 30 4.36808 29.1281C2.86278 28.3611 1.63893 27.1372 0.871948 25.6319C0 23.9206 0 21.6804 0 17.2V12.8Z" fill="#FF9500"/>
<path d="M6.43597 8.18404C6 9.03969 6 10.1598 6 12.4V17.6C6 19.8402 6 20.9603 6.43597 21.816C6.81947 22.5686 7.43139 23.1805 8.18404 23.564C9.03969 24 10.1598 24 12.4 24H17.6C19.8402 24 20.9603 24 21.816 23.564C22.5686 23.1805 23.1805 22.5686 23.564 21.816C24 20.9603 24 19.8402 24 17.6V12.4C24 10.1598 24 9.03969 23.564 8.18404C23.1805 7.43139 22.5686 6.81947 21.816 6.43597C20.9603 6 19.8402 6 17.6 6H12.4C10.1598 6 9.03969 6 8.18404 6.43597C7.43139 6.81947 6.81947 7.43139 6.43597 8.18404ZM8 9.9984C8 8.89383 8.89543 8 10 8H20C21.1046 8 22 8.89383 22 9.9984V16H18.5L17.8375 17.0595C17.472 17.6442 16.8312 17.9993 16.1417 17.9993H13.8583C13.1688 17.9993 12.528 17.6442 12.1625 17.0595L11.5 16H8V9.9984Z" fill="white"/>
</g>
<defs>
<clipPath id="clip0_2544_24134">
<rect width="30" height="30" fill="white"/>
</clipPath>
</defs>
</svg>
