<svg width="30" height="30" viewBox="0 0 30 30" fill="none" xmlns="http://www.w3.org/2000/svg">
<g clip-path="url(#clip0_5302_27800)">
<rect width="30" height="30" rx="7" fill="#AF52DE"/>
<path d="M15 5C9.47716 5 5 9.47715 5 15C5 20.5228 9.47715 25 15 25C20.5228 25 25 20.5229 25 15C25 9.47714 20.5228 5 15 5ZM15 23C13.85 23 13.144 21.063 12.8119 20.1328C14.2608 19.9522 15.7392 19.9522 17.1881 20.1328C16.856 21.063 16.15 23 15 23ZM12.0274 16H17.9726C17.93 16.7714 17.8392 17.5035 17.7095 18.1844C15.9186 17.9335 14.0814 17.9335 12.2905 18.1844C12.1608 17.5035 12.07 16.7714 12.0274 16ZM12.0274 14C12.07 13.2286 12.1608 12.4965 12.2905 11.8156C14.0814 12.0665 15.9186 12.0665 17.7095 11.8156C17.8392 12.4965 17.93 13.2286 17.9726 14H12.0274ZM19.9753 16H22.9381C22.786 17.2199 22.3592 18.3545 21.7216 19.34C21.1279 19.0438 20.4365 18.7872 19.6701 18.58C19.8262 17.7658 19.9306 16.9005 19.9753 16ZM22.9381 14H19.9753C19.9306 13.0995 19.8262 12.2342 19.6701 11.42C20.4365 11.2128 21.1279 10.9562 21.7216 10.66C22.3592 11.6455 22.786 12.7801 22.9381 14ZM10.0247 14H7.06189C7.21401 12.7801 7.64079 11.6455 8.27838 10.6601C8.87212 10.9562 9.56345 11.2128 10.3299 11.42C10.1738 12.2342 10.0694 13.0995 10.0247 14ZM7.06189 16H10.0247C10.0694 16.9005 10.1738 17.7658 10.3299 18.58C9.56346 18.7872 8.87212 19.0438 8.27838 19.34C7.64079 18.3545 7.21401 17.2199 7.06189 16ZM18.4627 22.2138C18.7287 21.703 18.9664 21.1339 19.1709 20.5169C19.6121 20.637 20.016 20.7742 20.3766 20.924C19.8074 21.4409 19.1634 21.8769 18.4627 22.2138ZM11.5373 22.2138C10.8366 21.8769 10.1926 21.4409 9.62342 20.924C9.98398 20.7742 10.3879 20.637 10.8291 20.5169C11.0336 21.1339 11.2713 21.703 11.5373 22.2138ZM17.1881 9.86721C15.7392 10.0478 14.2608 10.0478 12.8119 9.86721C13.144 8.93703 13.85 7 15 7C16.15 7 16.856 8.93703 17.1881 9.86721ZM20.3766 9.07603C20.016 9.2258 19.6121 9.36295 19.1709 9.48314C18.9664 8.86605 18.7287 8.29698 18.4627 7.78617C19.1634 8.12311 19.8074 8.55912 20.3766 9.07603ZM10.8291 9.48314C10.3879 9.36296 9.98398 9.2258 9.62342 9.07604C10.1926 8.55912 10.8366 8.12311 11.5373 7.78617C11.2713 8.29698 11.0335 8.86606 10.8291 9.48314Z" fill="white"/>
</g>
<defs>
<clipPath id="clip0_5302_27800">
<rect width="30" height="30" fill="white"/>
</clipPath>
</defs>
</svg>
