<svg width="30" height="30" viewBox="0 0 30 30" fill="none" xmlns="http://www.w3.org/2000/svg">
<g clip-path="url(#clip0_5604_56482)">
<rect width="30" height="30" rx="7" fill="#30B0C7"/>
<path d="M6.43597 8.18404C6 9.03969 6 10.1598 6 12.4V17.6C6 19.8402 6 20.9603 6.43597 21.816C6.81947 22.5686 7.43139 23.1805 8.18404 23.564C9.03969 24 10.1598 24 12.4 24H17.6C19.8402 24 20.9603 24 21.816 23.564C22.5686 23.1805 23.1805 22.5686 23.564 21.816C24 20.9603 24 19.8402 24 17.6V12.4C24 10.1598 24 9.03969 23.564 8.18404C23.1805 7.43139 22.5686 6.81947 21.816 6.43597C20.9603 6 19.8402 6 17.6 6H12.4C10.1598 6 9.03969 6 8.18404 6.43597C7.43139 6.81947 6.81947 7.43139 6.43597 8.18404ZM18 10C18.5523 10 19 10.4477 19 11C19 11.5523 18.5523 12 18 12H10C9.44772 12 9 11.5523 9 11C9 10.4477 9.44772 10 10 10H18ZM20 14C20.5523 14 21 14.4477 21 15C21 15.5523 20.5523 16 20 16H10C9.44772 16 9 15.5523 9 15C9 14.4477 9.44771 14 10 14H20ZM19 19C19 19.5523 18.5523 20 18 20H10C9.44772 20 9 19.5523 9 19C9 18.4477 9.44772 18 10 18H18C18.5523 18 19 18.4477 19 19Z" fill="white"/>
</g>
<defs>
<clipPath id="clip0_5604_56482">
<rect width="30" height="30" fill="white"/>
</clipPath>
</defs>
</svg>
