<svg width="30" height="30" viewBox="0 0 30 30" fill="none" xmlns="http://www.w3.org/2000/svg">
<g clip-path="url(#clip0_1304_12684)">
<path d="M0 12.8C0 8.31958 0 6.07937 0.871948 4.36808C1.63893 2.86278 2.86278 1.63893 4.36808 0.871948C6.07937 0 8.31958 0 12.8 0H17.2C21.6804 0 23.9206 0 25.6319 0.871948C27.1372 1.63893 28.3611 2.86278 29.1281 4.36808C30 6.07937 30 8.31958 30 12.8V17.2C30 21.6804 30 23.9206 29.1281 25.6319C28.3611 27.1372 27.1372 28.3611 25.6319 29.1281C23.9206 30 21.6804 30 17.2 30H12.8C8.31958 30 6.07937 30 4.36808 29.1281C2.86278 28.3611 1.63893 27.1372 0.871948 25.6319C0 23.9206 0 21.6804 0 17.2V12.8Z" fill="#32ADE6"/>
<path d="M6.16866 15.0269C10.7321 13.0512 13.775 11.7487 15.2976 11.1194C19.6448 9.32254 20.5481 9.01042 21.1369 9.00011C21.2664 8.99784 21.5559 9.02973 21.7435 9.18096C21.9018 9.30866 21.9454 9.48116 21.9663 9.60223C21.9871 9.7233 22.0131 9.9991 21.9924 10.2146C21.7569 12.6743 20.7375 18.6433 20.2189 21.3983C19.9995 22.564 19.5674 22.9548 19.1492 22.9931C18.2401 23.0762 17.5498 22.3961 16.6694 21.8225C15.2916 20.9251 14.5133 20.3664 13.176 19.4907C11.6305 18.4786 12.6323 17.9223 13.5131 17.0132C13.7436 16.7753 17.7489 13.1551 17.8264 12.8267C17.8361 12.7856 17.8451 12.6325 17.7536 12.5517C17.6621 12.4708 17.527 12.4985 17.4295 12.5204C17.2913 12.5516 15.0904 13.9972 10.8266 16.8573C10.2019 17.2836 9.63604 17.4913 9.12904 17.4804C8.57012 17.4684 7.49498 17.1664 6.69573 16.9082C5.71541 16.5915 4.93627 16.4241 5.00412 15.8863C5.03946 15.6062 5.42764 15.3197 6.16866 15.0269Z" fill="white"/>
</g>
<defs>
<clipPath id="clip0_1304_12684">
<rect width="30" height="30" fill="white"/>
</clipPath>
</defs>
</svg>
