<svg width="30" height="30" viewBox="0 0 30 30" fill="none" xmlns="http://www.w3.org/2000/svg">
<g clip-path="url(#clip0_2544_24245)">
<path d="M0 12.8C0 8.31958 0 6.07937 0.871948 4.36808C1.63893 2.86278 2.86278 1.63893 4.36808 0.871948C6.07937 0 8.31958 0 12.8 0H17.2C21.6804 0 23.9206 0 25.6319 0.871948C27.1372 1.63893 28.3611 2.86278 29.1281 4.36808C30 6.07937 30 8.31958 30 12.8V17.2C30 21.6804 30 23.9206 29.1281 25.6319C28.3611 27.1372 27.1372 28.3611 25.6319 29.1281C23.9206 30 21.6804 30 17.2 30H12.8C8.31958 30 6.07937 30 4.36808 29.1281C2.86278 28.3611 1.63893 27.1372 0.871948 25.6319C0 23.9206 0 21.6804 0 17.2V12.8Z" fill="#30B0C7"/>
<path d="M12 6C12 5.44772 11.5523 5 11 5C10.4477 5 10 5.44772 10 6V7.02714C9.91325 7.03193 9.82933 7.03756 9.74818 7.04419C9.18608 7.09012 8.66938 7.18868 8.18404 7.43597C7.43139 7.81947 6.81947 8.43139 6.43598 9.18404C6.18869 9.66937 6.09012 10.1861 6.0442 10.7482C5.99998 11.2894 5.99999 11.9537 6 12.7587V18.2413C5.99999 19.0463 5.99998 19.7106 6.0442 20.2518C6.09012 20.8139 6.18868 21.3306 6.43598 21.816C6.81947 22.5686 7.43139 23.1805 8.18404 23.564C8.66938 23.8113 9.18608 23.9099 9.74818 23.9558C10.2894 24 10.9537 24 11.7587 24H18.2413C19.0463 24 19.7106 24 20.2518 23.9558C20.8139 23.9099 21.3306 23.8113 21.816 23.564C22.5686 23.1805 23.1805 22.5686 23.564 21.816C23.8113 21.3306 23.9099 20.8139 23.9558 20.2518C24 19.7106 24 19.0463 24 18.2413V12.7587C24 11.9537 24 11.2894 23.9558 10.7482C23.9099 10.1861 23.8113 9.66937 23.564 9.18404C23.1805 8.43139 22.5686 7.81947 21.816 7.43597C21.3306 7.18868 20.8139 7.09012 20.2518 7.04419C20.1707 7.03756 20.0868 7.03193 20 7.02714V6C20 5.44772 19.5523 5 19 5C18.4477 5 18 5.44772 18 6V7H12V6ZM10.5 13.5C11.3284 13.5 12 14.1716 12 15C12 15.8284 11.3284 16.5 10.5 16.5C9.67157 16.5 9 15.8284 9 15C9 14.1716 9.67157 13.5 10.5 13.5ZM12 19.5C12 20.3284 11.3284 21 10.5 21C9.67157 21 9 20.3284 9 19.5C9 18.6716 9.67157 18 10.5 18C11.3284 18 12 18.6716 12 19.5ZM16.5 19.5C16.5 20.3284 15.8284 21 15 21C14.1716 21 13.5 20.3284 13.5 19.5C13.5 18.6716 14.1716 18 15 18C15.8284 18 16.5 18.6716 16.5 19.5ZM16.5 15C16.5 15.8284 15.8284 16.5 15 16.5C14.1716 16.5 13.5 15.8284 13.5 15C13.5 14.1716 14.1716 13.5 15 13.5C15.8284 13.5 16.5 14.1716 16.5 15ZM19.5 13.5C20.3284 13.5 21 14.1716 21 15C21 15.8284 20.3284 16.5 19.5 16.5C18.6716 16.5 18 15.8284 18 15C18 14.1716 18.6716 13.5 19.5 13.5ZM9.75 10H20.25C20.6642 10 21 10.3358 21 10.75C21 11.1642 20.6642 11.5 20.25 11.5H9.75C9.33579 11.5 9 11.1642 9 10.75C9 10.3358 9.33579 10 9.75 10Z" fill="white"/>
</g>
<defs>
<clipPath id="clip0_2544_24245">
<rect width="30" height="30" fill="white"/>
</clipPath>
</defs>
</svg>
