<svg width="30" height="30" viewBox="0 0 30 30" fill="none" xmlns="http://www.w3.org/2000/svg">
<g clip-path="url(#clip0_791_14316)">
<path d="M0 12.8C0 8.31958 0 6.07937 0.871948 4.36808C1.63893 2.86278 2.86278 1.63893 4.36808 0.871948C6.07937 0 8.31958 0 12.8 0H17.2C21.6804 0 23.9206 0 25.6319 0.871948C27.1372 1.63893 28.3611 2.86278 29.1281 4.36808C30 6.07937 30 8.31958 30 12.8V17.2C30 21.6804 30 23.9206 29.1281 25.6319C28.3611 27.1372 27.1372 28.3611 25.6319 29.1281C23.9206 30 21.6804 30 17.2 30H12.8C8.31958 30 6.07937 30 4.36808 29.1281C2.86278 28.3611 1.63893 27.1372 0.871948 25.6319C0 23.9206 0 21.6804 0 17.2V12.8Z" fill="#FF2D55"/>
<path d="M6.12836 13.9901C6.39912 14.4714 7.00884 14.6422 7.49019 14.3714L14.9999 10.1472L22.5097 14.3714C22.991 14.6422 23.6007 14.4714 23.8715 13.9901C24.1423 13.5087 23.9716 12.899 23.4902 12.6282L15.4902 8.12825C15.1858 7.95702 14.8141 7.95702 14.5097 8.12825L6.50967 12.6282C6.02831 12.899 5.85759 13.5087 6.12836 13.9901Z" fill="white"/>
<path d="M7.49019 20.3714C7.00884 20.6422 6.39912 20.4714 6.12836 19.9901C5.85759 19.5087 6.02831 18.899 6.50967 18.6282L14.5097 14.1283C14.8141 13.957 15.1858 13.957 15.4902 14.1283L23.4902 18.6282C23.9716 18.899 24.1423 19.5087 23.8715 19.9901C23.6007 20.4714 22.991 20.6422 22.5097 20.3714L14.9999 16.1472L7.49019 20.3714Z" fill="white"/>
</g>
<defs>
<clipPath id="clip0_791_14316">
<rect width="30" height="30" fill="white"/>
</clipPath>
</defs>
</svg>
