<svg width="30" height="30" viewBox="0 0 30 30" fill="none" xmlns="http://www.w3.org/2000/svg">
<g clip-path="url(#clip0_5902_98191)">
<path d="M0 15C0 6.71573 6.71573 0 15 0C23.2843 0 30 6.71573 30 15C30 23.2843 23.2843 30 15 30C6.71573 30 0 23.2843 0 15Z" fill="url(#paint0_linear_5902_98191)"/>
<path d="M14.3909 6.42854C14.5916 5.85715 15.4084 5.85715 15.6091 6.42854L17.527 11.8874L23.3671 12.0051C23.9784 12.0175 24.2308 12.786 23.7436 13.1515L19.0888 16.643L20.7803 22.1746C20.9573 22.7536 20.2966 23.2286 19.7947 22.883L15 19.5821L10.2053 22.883C9.70343 23.2286 9.04266 22.7536 9.21971 22.1746L10.9112 16.643L6.25642 13.1515C5.7692 12.786 6.02159 12.0175 6.63289 12.0051L12.473 11.8874L14.3909 6.42854Z" fill="white"/>
</g>
<defs>
<linearGradient id="paint0_linear_5902_98191" x1="4.47035e-07" y1="30" x2="30" y2="-1.3411e-06" gradientUnits="userSpaceOnUse">
<stop stop-color="#32ADE6"/>
<stop offset="1" stop-color="#AF52DE"/>
</linearGradient>
<clipPath id="clip0_5902_98191">
<path d="M0 15C0 6.71573 6.71573 0 15 0C23.2843 0 30 6.71573 30 15C30 23.2843 23.2843 30 15 30C6.71573 30 0 23.2843 0 15Z" fill="white"/>
</clipPath>
</defs>
</svg>
