<svg width="30" height="30" viewBox="0 0 30 30" fill="none" xmlns="http://www.w3.org/2000/svg">
<g clip-path="url(#clip0_2544_24798)">
<path d="M0 12.8C0 8.31958 0 6.07937 0.871948 4.36808C1.63893 2.86278 2.86278 1.63893 4.36808 0.871948C6.07937 0 8.31958 0 12.8 0H17.2C21.6804 0 23.9206 0 25.6319 0.871948C27.1372 1.63893 28.3611 2.86278 29.1281 4.36808C30 6.07937 30 8.31958 30 12.8V17.2C30 21.6804 30 23.9206 29.1281 25.6319C28.3611 27.1372 27.1372 28.3611 25.6319 29.1281C23.9206 30 21.6804 30 17.2 30H12.8C8.31958 30 6.07937 30 4.36808 29.1281C2.86278 28.3611 1.63893 27.1372 0.871948 25.6319C0 23.9206 0 21.6804 0 17.2V12.8Z" fill="url(#paint0_linear_2544_24798)"/>
<path d="M14.3909 6.42854C14.5916 5.85715 15.4084 5.85715 15.6091 6.42854L17.527 11.8874L23.3671 12.0051C23.9784 12.0175 24.2308 12.786 23.7436 13.1515L19.0888 16.643L20.7803 22.1746C20.9573 22.7536 20.2966 23.2286 19.7947 22.883L15 19.5821L10.2053 22.883C9.70343 23.2286 9.04266 22.7536 9.21971 22.1746L10.9112 16.643L6.25642 13.1515C5.7692 12.786 6.02159 12.0175 6.63289 12.0051L12.473 11.8874L14.3909 6.42854Z" fill="white"/>
</g>
<defs>
<linearGradient id="paint0_linear_2544_24798" x1="4.47035e-07" y1="30" x2="30" y2="-1.3411e-06" gradientUnits="userSpaceOnUse">
<stop stop-color="#32ADE6"/>
<stop offset="1" stop-color="#AF52DE"/>
</linearGradient>
<clipPath id="clip0_2544_24798">
<rect width="30" height="30" fill="white"/>
</clipPath>
</defs>
</svg>
