<svg width="30" height="30" viewBox="0 0 30 30" fill="none" xmlns="http://www.w3.org/2000/svg">
<g clip-path="url(#clip0_2557_25229)">
<path d="M0 12.8C0 8.31958 0 6.07937 0.871948 4.36808C1.63893 2.86278 2.86278 1.63893 4.36808 0.871948C6.07937 0 8.31958 0 12.8 0H17.2C21.6804 0 23.9206 0 25.6319 0.871948C27.1372 1.63893 28.3611 2.86278 29.1281 4.36808C30 6.07937 30 8.31958 30 12.8V17.2C30 21.6804 30 23.9206 29.1281 25.6319C28.3611 27.1372 27.1372 28.3611 25.6319 29.1281C23.9206 30 21.6804 30 17.2 30H12.8C8.31958 30 6.07937 30 4.36808 29.1281C2.86278 28.3611 1.63893 27.1372 0.871948 25.6319C0 23.9206 0 21.6804 0 17.2V12.8Z" fill="#8E8E93"/>
<path d="M15.0107 5.25003C15.7447 5.25849 16.4758 5.34329 17.1922 5.50307C17.505 5.57282 17.7389 5.83354 17.7744 6.15199L17.9446 7.67884C18.0216 8.37989 18.6135 8.91087 19.3192 8.91161C19.5088 8.91191 19.6965 8.87241 19.8717 8.79486L21.2723 8.17959C21.5637 8.05162 21.904 8.12139 22.1215 8.35365C23.1336 9.43467 23.8875 10.7312 24.3262 12.1456C24.4208 12.4506 24.3119 12.7821 24.0549 12.9715L22.8134 13.8866C22.4593 14.1468 22.2501 14.56 22.2501 14.9995C22.2501 15.4389 22.4593 15.8522 22.8142 16.1129L24.0567 17.0283C24.3139 17.2178 24.4228 17.5493 24.3282 17.8543C23.8896 19.2685 23.1363 20.5649 22.1247 21.6461C21.9074 21.8783 21.5673 21.9483 21.276 21.8207L19.8697 21.2045C19.4674 21.0285 19.0053 21.0543 18.6251 21.274C18.2448 21.4937 17.9918 21.8812 17.9435 22.3178L17.7744 23.8444C17.7395 24.1592 17.5107 24.4182 17.2026 24.4915C15.7541 24.8361 14.245 24.8361 12.7966 24.4915C12.4884 24.4182 12.2596 24.1592 12.2247 23.8444L12.0559 22.32C12.0063 21.8843 11.7529 21.498 11.373 21.279C10.993 21.06 10.5317 21.0343 10.1307 21.2094L8.72411 21.8257C8.43276 21.9533 8.09257 21.8833 7.87532 21.651C6.86316 20.5685 6.10973 19.2706 5.67174 17.8548C5.5774 17.5499 5.6864 17.2187 5.94338 17.0293L7.18671 16.1133C7.54085 15.8532 7.75001 15.4399 7.75001 15.0005C7.75001 14.561 7.54085 14.1478 7.18625 13.8873L5.9437 12.9729C5.68633 12.7835 5.57723 12.4518 5.6719 12.1466C6.11065 10.7322 6.86448 9.43567 7.87666 8.35465C8.09413 8.12239 8.43447 8.05262 8.72578 8.18059L10.1262 8.79575C10.5291 8.97259 10.9923 8.94588 11.3743 8.72272C11.7546 8.50212 12.0078 8.11425 12.0567 7.67767L12.2268 6.15199C12.2623 5.83338 12.4964 5.57257 12.8093 5.50297C13.5266 5.34345 14.2585 5.25868 15.0107 5.25003ZM14.9982 12C13.3414 12 11.9982 13.3431 11.9982 15C11.9982 16.6568 13.3414 18 14.9982 18C16.6551 18 17.9982 16.6568 17.9982 15C17.9982 13.3431 16.6551 12 14.9982 12Z" fill="white"/>
</g>
<defs>
<clipPath id="clip0_2557_25229">
<rect width="30" height="30" fill="white"/>
</clipPath>
</defs>
</svg>
