<svg width="30" height="30" viewBox="0 0 30 30" fill="none" xmlns="http://www.w3.org/2000/svg">
<g clip-path="url(#clip0_791_96791)">
<path d="M0 12.8C0 8.31958 0 6.07937 0.871948 4.36808C1.63893 2.86278 2.86278 1.63893 4.36808 0.871948C6.07937 0 8.31958 0 12.8 0H17.2C21.6804 0 23.9206 0 25.6319 0.871948C27.1372 1.63893 28.3611 2.86278 29.1281 4.36808C30 6.07937 30 8.31958 30 12.8V17.2C30 21.6804 30 23.9206 29.1281 25.6319C28.3611 27.1372 27.1372 28.3611 25.6319 29.1281C23.9206 30 21.6804 30 17.2 30H12.8C8.31958 30 6.07937 30 4.36808 29.1281C2.86278 28.3611 1.63893 27.1372 0.871948 25.6319C0 23.9206 0 21.6804 0 17.2V12.8Z" fill="#FF9500"/>
<path d="M12.7352 24.4L5.57576 17.25C5.17523 16.85 5 16.35 5 15.85C5 15.35 5.17523 14.825 5.57576 14.425L13.386 6.6C13.7532 6.23333 14.2789 6 14.8129 6H21.9974C23.0904 6 24 6.90844 24 8V15.175C24 15.7083 23.7914 16.2083 23.4242 16.575L15.5889 24.4C15.1884 24.8 14.6627 25 14.1621 25C13.6614 25 13.1357 24.8 12.7352 24.4ZM16.9908 11.5C16.9908 12.3245 17.6672 13 18.4928 13C19.3184 13 19.9947 12.3245 19.9947 11.5C19.9947 10.6755 19.3184 10 18.4928 10C17.6672 10 16.9908 10.6755 16.9908 11.5Z" fill="white"/>
</g>
<defs>
<clipPath id="clip0_791_96791">
<rect width="30" height="30" fill="white"/>
</clipPath>
</defs>
</svg>
