<svg width="30" height="30" viewBox="0 0 30 30" fill="none" xmlns="http://www.w3.org/2000/svg">
<g clip-path="url(#clip0_5905_107566)">
<path d="M0 15C0 6.71573 6.71573 0 15 0C23.2843 0 30 6.71573 30 15C30 23.2843 23.2843 30 15 30C6.71573 30 0 23.2843 0 15Z" fill="#32ADE6"/>
<path d="M6.63429 14.8548C11.0635 12.9355 14.0169 11.6702 15.4947 11.0589C19.7141 9.31342 20.5908 9.01022 21.1623 9.0001C21.288 8.998 21.569 9.02898 21.751 9.17589C21.9047 9.29994 21.947 9.4675 21.9673 9.58511C21.9875 9.70272 22.0127 9.97064 21.9927 10.18C21.764 12.5694 20.7747 18.3679 20.2713 21.044C20.0583 22.1764 19.639 22.5561 19.233 22.5933C18.3507 22.674 17.6807 22.0133 16.8262 21.4562C15.4889 20.5844 14.7335 20.0417 13.4355 19.191C11.9354 18.2078 12.9079 17.6674 13.7627 16.7843C13.9865 16.5532 17.8739 13.0364 17.9492 12.7174C17.9586 12.6775 17.9673 12.5288 17.8785 12.4503C17.7896 12.3717 17.6585 12.3986 17.5639 12.4199C17.4298 12.4502 15.2936 13.8545 11.1553 16.6329C10.5489 17.047 9.99968 17.2487 9.5076 17.2382C8.96512 17.2265 7.9216 16.9331 7.14586 16.6823C6.19437 16.3747 5.43815 16.2121 5.504 15.6896C5.5383 15.4175 5.91506 15.1392 6.63429 14.8548Z" fill="white"/>
</g>
<defs>
<clipPath id="clip0_5905_107566">
<path d="M0 15C0 6.71573 6.71573 0 15 0C23.2843 0 30 6.71573 30 15C30 23.2843 23.2843 30 15 30C6.71573 30 0 23.2843 0 15Z" fill="white"/>
</clipPath>
</defs>
</svg>
