<svg width="30" height="30" viewBox="0 0 30 30" fill="none" xmlns="http://www.w3.org/2000/svg">
<g clip-path="url(#clip0_5302_27833)">
<rect width="30" height="30" rx="7" fill="#007AFF"/>
<path d="M15 25C20.5228 25 25 20.5228 25 15C25 9.47715 20.5228 5 15 5C9.47715 5 5 9.47715 5 15C5 20.5228 9.47715 25 15 25ZM19.533 11.1209L15.6688 20.3948C15.4758 20.8582 14.7966 20.7798 14.7141 20.2847L14 16L9.71534 15.2859C9.22017 15.2034 9.14185 14.5242 9.60523 14.3312L18.8791 10.467C19.2912 10.2953 19.7047 10.7088 19.533 11.1209Z" fill="white"/>
</g>
<defs>
<clipPath id="clip0_5302_27833">
<rect width="30" height="30" fill="white"/>
</clipPath>
</defs>
</svg>
