<svg width="30" height="30" viewBox="0 0 30 30" fill="none" xmlns="http://www.w3.org/2000/svg">
<g clip-path="url(#clip0_2544_24135)">
<path d="M0 12.8C0 8.31958 0 6.07937 0.871948 4.36808C1.63893 2.86278 2.86278 1.63893 4.36808 0.871948C6.07937 0 8.31958 0 12.8 0H17.2C21.6804 0 23.9206 0 25.6319 0.871948C27.1372 1.63893 28.3611 2.86278 29.1281 4.36808C30 6.07937 30 8.31958 30 12.8V17.2C30 21.6804 30 23.9206 29.1281 25.6319C28.3611 27.1372 27.1372 28.3611 25.6319 29.1281C23.9206 30 21.6804 30 17.2 30H12.8C8.31958 30 6.07937 30 4.36808 29.1281C2.86278 28.3611 1.63893 27.1372 0.871948 25.6319C0 23.9206 0 21.6804 0 17.2V12.8Z" fill="#34C759"/>
<path d="M11 5C11.5523 5 12 5.44772 12 6V7H18V6C18 5.44772 18.4477 5 19 5C19.5523 5 20 5.44772 20 6V7.02714C20.0868 7.03193 20.1707 7.03756 20.2518 7.04419C20.8139 7.09012 21.3306 7.18868 21.816 7.43597C22.5686 7.81947 23.1805 8.43139 23.564 9.18404C23.8113 9.66937 23.9099 10.1861 23.9558 10.7482C24 11.2894 24 11.9537 24 12.7587V18.2413C24 19.0463 24 19.7106 23.9558 20.2518C23.9099 20.8139 23.8113 21.3306 23.564 21.816C23.1805 22.5686 22.5686 23.1805 21.816 23.564C21.3306 23.8113 20.8139 23.9099 20.2518 23.9558C19.7106 24 19.0463 24 18.2413 24H11.7587C10.9537 24 10.2894 24 9.74818 23.9558C9.18608 23.9099 8.66938 23.8113 8.18404 23.564C7.43139 23.1805 6.81947 22.5686 6.43598 21.816C6.18869 21.3306 6.09012 20.8139 6.0442 20.2518C5.99998 19.7106 5.99999 19.0463 6 18.2413V12.7587C5.99999 11.9537 5.99998 11.2894 6.0442 10.7482C6.09012 10.1861 6.18869 9.66937 6.43598 9.18404C6.81947 8.43139 7.43139 7.81947 8.18404 7.43597C8.66938 7.18868 9.18608 7.09012 9.74818 7.04419C9.82933 7.03756 9.91325 7.03193 10 7.02714V6C10 5.44772 10.4477 5 11 5ZM9.75 10C9.33579 10 9 10.3358 9 10.75C9 11.1642 9.33579 11.5 9.75 11.5H20.25C20.6642 11.5 21 11.1642 21 10.75C21 10.3358 20.6642 10 20.25 10H9.75Z" fill="white"/>
<path d="M12.0293 21.1406C10.8208 21.1406 10.0781 20.6177 9.7793 19.9937C9.70898 19.8486 9.67822 19.708 9.67822 19.5762C9.67822 19.2334 9.89795 19.0181 10.2627 19.0181C10.5264 19.0181 10.6934 19.1235 10.8252 19.3652C11.0493 19.8091 11.3921 20.0728 12.0513 20.0728C12.7017 20.0728 13.1499 19.6948 13.1499 19.1675C13.1543 18.5522 12.7017 18.2095 11.9326 18.2095H11.6558C11.335 18.2095 11.1504 18.0205 11.1504 17.7349C11.1504 17.458 11.335 17.2646 11.6558 17.2646H11.915C12.5786 17.2646 13.0093 16.9043 13.0093 16.3857C13.0093 15.876 12.6665 15.5376 12.0249 15.5376C11.4888 15.5376 11.1636 15.7617 10.957 16.21C10.812 16.5088 10.6582 16.6187 10.3594 16.6187C9.99023 16.6187 9.80127 16.4033 9.80127 16.0825C9.80127 15.9331 9.83203 15.8057 9.89795 15.6562C10.1792 15.0366 10.8999 14.5181 12.0205 14.5181C13.3608 14.5181 14.2661 15.1816 14.2661 16.1968C14.2661 17.001 13.6904 17.5283 12.9434 17.6821V17.7085C13.8882 17.7964 14.499 18.3501 14.499 19.2246C14.499 20.376 13.5015 21.1406 12.0293 21.1406ZM17.8213 21.1406C16.2129 21.1406 15.2329 19.8706 15.2329 17.8184C15.2329 15.7705 16.2217 14.5137 17.8213 14.5137C19.4209 14.5137 20.4053 15.7661 20.4053 17.814C20.4053 19.8618 19.4297 21.1406 17.8213 21.1406ZM17.8213 20.0771C18.6035 20.0771 19.0562 19.2729 19.0562 17.8184C19.0562 16.3726 18.5991 15.5771 17.8213 15.5771C17.0479 15.5771 16.582 16.377 16.582 17.8184C16.582 19.2729 17.0391 20.0771 17.8213 20.0771Z" fill="#34C759"/>
</g>
<defs>
<clipPath id="clip0_2544_24135">
<rect width="30" height="30" fill="white"/>
</clipPath>
</defs>
</svg>
