<svg width="28" height="28" viewBox="0 0 28 28" fill="none" xmlns="http://www.w3.org/2000/svg">
<g clip-path="url(#clip0_3002_21444)">
<path d="M14 8.5C14.3452 8.5 14.625 8.78482 14.625 9.13V13.375H18.88C19.2252 13.375 19.5 13.6548 19.5 14C19.5 14.3452 19.2252 14.625 18.88 14.625H14.625V18.875C14.625 19.2202 14.3452 19.5 14 19.5C13.6548 19.5 13.375 19.2202 13.375 18.875V14.625L9.12 14.625C8.77482 14.625 8.5 14.3452 8.5 14C8.5 13.6548 8.77482 13.375 9.12 13.375L13.375 13.375V9.13C13.375 8.78482 13.6548 8.5 14 8.5Z" />
<circle cx="14" cy="14" r="13" stroke="#3C3C43" stroke-opacity="0.3" stroke-width="2" stroke-linecap="round" stroke-dasharray="0.01 4"/>
</g>
<defs>
<clipPath id="clip0_3002_21444">
<path d="M0 14C0 6.26801 6.26801 0 14 0C21.732 0 28 6.26801 28 14C28 21.732 21.732 28 14 28C6.26801 28 0 21.732 0 14Z" fill="white"/>
</clipPath>
</defs>
</svg>
