<svg width="16" height="16" viewBox="0 0 16 16" fill="none" xmlns="http://www.w3.org/2000/svg">
<path d="M3.15021 1.64254C3.34547 1.44728 3.66206 1.44728 3.85732 1.64254C4.05258 1.8378 4.05259 2.15438 3.85733 2.34964L2.35356 3.85344C2.1583 4.0487 1.84171 4.0487 1.64645 3.85344C1.45119 3.65818 1.45118 3.3416 1.64644 3.14634L3.15021 1.64254Z" />
<path d="M12.1486 1.64846C12.3438 1.45319 12.6604 1.45319 12.8557 1.64845L14.3536 3.14632C14.5488 3.34158 14.5488 3.65817 14.3536 3.85343C14.1583 4.04869 13.8417 4.0487 13.6464 3.85344L12.1486 2.35556C11.9533 2.1603 11.9533 1.84372 12.1486 1.64846Z" />
<path d="M7.5 8.21661L9.295 10.0116L10 9.30661L8.5 7.80161V5.01161H7.5V8.21661Z" />
<path fill-rule="evenodd" clip-rule="evenodd" d="M8 13.9999C9.22031 13.9999 10.3555 13.6356 11.3028 13.0098L12.1465 13.8534C12.3417 14.0487 12.6583 14.0487 12.8536 13.8534C13.0488 13.6582 13.0488 13.3416 12.8536 13.1463L12.0937 12.3865C13.2667 11.2913 14 9.73125 14 7.99989C14 4.68619 11.3137 1.99989 8 1.99989C4.68629 1.99989 2 4.68619 2 7.99989C2 9.73145 2.73349 11.2917 3.90672 12.3868L3.14724 13.1463C2.95198 13.3416 2.95197 13.6582 3.14724 13.8534C3.3425 14.0487 3.65908 14.0487 3.85434 13.8534L4.69765 13.0101C5.64486 13.6357 6.7799 13.9999 8 13.9999ZM13 7.99989C13 10.7613 10.7614 12.9999 8 12.9999C5.23858 12.9999 3 10.7613 3 7.99989C3 5.23847 5.23858 2.99989 8 2.99989C10.7614 2.99989 13 5.23847 13 7.99989Z" />
</svg>
