<svg width="20" height="20" viewBox="0 0 20 20" fill="none" xmlns="http://www.w3.org/2000/svg">
<g id="20 / Attach">
<path id="Icon" d="M9.37439 3.24609C8.20112 3.24609 7.25 4.19722 7.25 5.37049V13.2533C7.25 15.1866 8.81726 16.7539 10.7506 16.7539C12.6839 16.7539 14.2512 15.1866 14.2512 13.2533V6.62109C14.2512 6.27592 14.531 5.99609 14.8762 5.99609C15.2213 5.99609 15.5012 6.27592 15.5012 6.62109V13.2533C15.5012 15.877 13.3743 18.0039 10.7506 18.0039C8.12691 18.0039 6 15.877 6 13.2533V5.37049C6 3.50686 7.51077 1.99609 9.37439 1.99609C11.238 1.99609 12.7488 3.50686 12.7488 5.37049V13.0029C12.7488 14.1065 11.8542 15.0011 10.7506 15.0011C9.64704 15.0011 8.75242 14.1065 8.75242 13.0029V5.375C8.75242 5.02982 9.03224 4.75 9.37742 4.75C9.7226 4.75 10.0024 5.02982 10.0024 5.375V13.0029C10.0024 13.4161 10.3374 13.7511 10.7506 13.7511C11.1638 13.7511 11.4988 13.4161 11.4988 13.0029V5.37049C11.4988 4.19722 10.5477 3.24609 9.37439 3.24609Z" />
</g>
</svg>
