<svg width="24" height="24" viewBox="0 0 24 24" fill="none" xmlns="http://www.w3.org/2000/svg">
<path d="M8 2C8.55229 2 9 2.44772 9 3V4H15V3C15 2.44772 15.4477 2 16 2C16.5523 2 17 2.44772 17 3V4.02714C17.0868 4.03193 17.1707 4.03756 17.2518 4.04419C17.8139 4.09012 18.3306 4.18868 18.816 4.43597C19.5686 4.81947 20.1805 5.43139 20.564 6.18404C20.8113 6.66937 20.9099 7.18608 20.9558 7.74817C21 8.28936 21 8.95372 21 9.75868V12.0218C20.3945 11.6341 19.7204 11.3441 19 11.1739V9.8C19 8.94342 18.9992 8.36113 18.9625 7.91104C18.9266 7.47262 18.8617 7.24842 18.782 7.09202C18.5903 6.71569 18.2843 6.40973 17.908 6.21799C17.7516 6.1383 17.5274 6.07337 17.089 6.03755C16.6389 6.00078 16.0566 6 15.2 6H8.8C7.94342 6 7.36113 6.00078 6.91104 6.03755C6.47262 6.07337 6.24842 6.1383 6.09202 6.21799C5.7157 6.40973 5.40974 6.71569 5.21799 7.09202C5.1383 7.24842 5.07337 7.47262 5.03755 7.91104C5.00078 8.36113 5 8.94342 5 9.8V15.2C5 16.0566 5.00078 16.6389 5.03755 17.089C5.07337 17.5274 5.1383 17.7516 5.21799 17.908C5.40974 18.2843 5.7157 18.5903 6.09202 18.782C6.24842 18.8617 6.47262 18.9266 6.91104 18.9624C7.36113 18.9992 7.94342 19 8.8 19H11.1739C11.3441 19.7204 11.6341 20.3945 12.0218 21H8.75868C7.95372 21 7.28937 21 6.74818 20.9558C6.18608 20.9099 5.66938 20.8113 5.18404 20.564C4.43139 20.1805 3.81947 19.5686 3.43598 18.816C3.18868 18.3306 3.09012 17.8139 3.0442 17.2518C2.99998 16.7106 2.99999 16.0463 3 15.2413V9.7587C2.99999 8.95375 2.99998 8.28936 3.0442 7.74817C3.09012 7.18608 3.18868 6.66937 3.43598 6.18404C3.81947 5.43139 4.43139 4.81947 5.18404 4.43597C5.66938 4.18868 6.18608 4.09012 6.74818 4.04419C6.82933 4.03756 6.91325 4.03193 7 4.02714V3C7 2.44772 7.44772 2 8 2Z" fill="#8E8E92" fill-opacity="0.5"/>
<path d="M8 8C7.44772 8 7 8.44772 7 9C7 9.55228 7.44772 10 8 10H16C16.5523 10 17 9.55228 17 9C17 8.44772 16.5523 8 16 8H8Z" fill="#8E8E92" fill-opacity="0.5"/>
<path fill-rule="evenodd" clip-rule="evenodd" d="M23 17.5C23 14.4624 20.5376 12 17.5 12C14.4624 12 12 14.4624 12 17.5C12 20.5376 14.4624 23 17.5 23C20.5376 23 23 20.5376 23 17.5ZM17.4101 14.0081L17.5 14L17.5899 14.0081C17.794 14.0451 17.9549 14.206 17.9919 14.4101L18 14.5V17H20.5L20.5899 17.0081C20.794 17.0451 20.9549 17.206 20.9919 17.4101L21 17.5L20.9919 17.5899C20.9549 17.794 20.794 17.9549 20.5899 17.9919L20.5 18H18V20.5L17.9919 20.5899C17.9549 20.794 17.794 20.9549 17.5899 20.9919L17.5 21L17.4101 20.9919C17.206 20.9549 17.0451 20.794 17.0081 20.5899L17 20.5V18H14.5L14.4101 17.9919C14.206 17.9549 14.0451 17.794 14.0081 17.5899L14 17.5L14.0081 17.4101C14.0451 17.206 14.206 17.0451 14.4101 17.0081L14.5 17H17V14.5L17.0081 14.4101C17.0451 14.206 17.206 14.0451 17.4101 14.0081Z" fill="#8E8E92" fill-opacity="0.5"/>
</svg>
