<svg width="20" height="20" viewBox="0 0 20 20" fill="none" xmlns="http://www.w3.org/2000/svg">
<g id="20 / Calendar">
<g id="Icon">
<path d="M4.99678 7.62891C4.99678 7.28373 5.2766 7.00391 5.62178 7.00391H14.3828C14.728 7.00391 15.0078 7.28373 15.0078 7.62891C15.0078 7.97409 14.728 8.25391 14.3828 8.25391H5.62178C5.2766 8.25391 4.99678 7.97409 4.99678 7.62891Z" />
<path d="M13.2509 14.5018C13.9418 14.5018 14.5018 13.9417 14.5018 13.2509C14.5018 12.56 13.9418 12 13.2509 12C12.5601 12 12 12.56 12 13.2509C12 13.9417 12.5601 14.5018 13.2509 14.5018Z" />
<path d="M6.62477 1.25479C6.96994 1.25479 7.24977 1.53461 7.24977 1.87979V3.00195H12.7521V1.87979C12.7521 1.53461 13.0319 1.25479 13.3771 1.25479C13.7223 1.25479 14.0021 1.53461 14.0021 1.87979V3.00195L14.756 3.00337C15.0541 3.00585 15.3154 3.01264 15.5434 3.03128C15.9156 3.06168 16.2539 3.12669 16.5706 3.28806C17.0646 3.53973 17.4661 3.9413 17.7178 4.43523C17.8792 4.75193 17.9442 5.09031 17.9746 5.46246C18.0039 5.82152 18.0039 6.26293 18.0039 6.8008V13.4482C18.0039 13.9861 18.0039 14.4276 17.9746 14.7867C17.9442 15.1588 17.8792 15.4972 17.7178 15.8139C17.4661 16.3078 17.0646 16.7094 16.5706 16.9611C16.2539 17.1224 15.9156 17.1874 15.5434 17.2178C15.1843 17.2472 13.989 17.2472 13.4512 17.2472H6.54895C6.01107 17.2472 4.82314 17.2472 4.46408 17.2178C4.09193 17.1874 3.75355 17.1224 3.43685 16.9611C2.94292 16.7094 2.54135 16.3078 2.28968 15.8139C2.12831 15.4972 2.0633 15.1588 2.0329 14.7867C2.00356 14.4276 2.00356 13.9861 2.00357 13.4482L2.00357 6.80091C2.00356 6.26299 2.00356 5.82154 2.0329 5.46246C2.0633 5.09031 2.12831 4.75193 2.28968 4.43523C2.54135 3.9413 2.94292 3.53973 3.43685 3.28806C3.75355 3.12669 4.09193 3.06168 4.46408 3.03128C4.6926 3.01261 4.95447 3.00582 5.25333 3.00335L5.99977 3.00195V1.87979C5.99977 1.53461 6.27959 1.25479 6.62477 1.25479ZM4.56587 4.27712C4.27102 4.30122 4.11545 4.3452 4.00433 4.40182C3.74561 4.53364 3.53526 4.74399 3.40344 5.00272C3.34682 5.11383 3.30283 5.2694 3.27874 5.56425C3.25406 5.8664 3.25357 6.25659 3.25357 6.82695V13.4222C3.25357 13.9925 3.25406 14.3827 3.27874 14.6849C3.30283 14.9797 3.34682 15.1353 3.40344 15.2464C3.53526 15.5051 3.74561 15.7155 4.00433 15.8473C4.11545 15.9039 4.27102 15.9479 4.56587 15.972C4.86802 15.9967 6.00464 15.9972 6.57501 15.9972H13.425C13.9954 15.9972 15.1395 15.9967 15.4416 15.972C15.7365 15.9479 15.892 15.9039 16.0031 15.8473C16.2619 15.7155 16.4722 15.5051 16.604 15.2464C16.6607 15.1353 16.7046 14.9797 16.7287 14.6849C16.7534 14.3827 16.7539 13.9925 16.7539 13.4222V6.82695C16.7539 6.25659 16.7534 5.8664 16.7287 5.56425C16.7046 5.2694 16.6607 5.11383 16.604 5.00272C16.4722 4.74399 16.2619 4.53364 16.0031 4.40182C15.892 4.3452 15.7365 4.30122 15.4416 4.27712C15.1395 4.25244 14.7493 4.25195 14.1789 4.25195H5.82857C5.25821 4.25195 4.86802 4.25244 4.56587 4.27712Z" />
</g>
</g>
</svg>
