<svg width="24" height="24" viewBox="0 0 24 24" fill="none" xmlns="http://www.w3.org/2000/svg">
<g id="Icon">
<g id="Icon_2">
<path d="M8.25285 12.75C8.94321 12.75 9.50285 12.1904 9.50285 11.5C9.50285 10.8096 8.94321 10.25 8.25285 10.25C7.5625 10.25 7.00285 10.8096 7.00285 11.5C7.00285 12.1904 7.5625 12.75 8.25285 12.75Z" />
<path d="M12.4961 12.75C13.1864 12.75 13.7461 12.1904 13.7461 11.5C13.7461 10.8096 13.1864 10.25 12.4961 10.25C11.8057 10.25 11.2461 10.8096 11.2461 11.5C11.2461 12.1904 11.8057 12.75 12.4961 12.75Z" />
<path d="M18.0023 11.5C18.0023 12.1904 17.4426 12.75 16.7523 12.75C16.0619 12.75 15.5023 12.1904 15.5023 11.5C15.5023 10.8096 16.0619 10.25 16.7523 10.25C17.4426 10.25 18.0023 10.8096 18.0023 11.5Z" />
<path d="M12.4404 3.0152C7.32719 3.0152 3.03613 6.74151 3.03613 11.5085C3.03613 14.2855 4.50676 16.7244 6.7356 18.2622C6.72488 18.2835 6.71322 18.3058 6.70054 18.3291C6.59471 18.5232 6.44423 18.7377 6.26699 18.9575C5.91262 19.3971 5.49945 19.7988 5.26069 20.0196C4.69413 20.5435 5.0624 21.5141 5.85684 21.4969C8.79428 21.4332 10.555 20.4045 11.2138 19.9302C11.6156 19.9775 12.025 20.0018 12.4404 20.0018C17.5536 20.0018 21.8447 16.2755 21.8447 11.5085C21.8447 6.74151 17.5536 3.0152 12.4404 3.0152ZM4.53613 11.5085C4.53613 7.72247 7.99437 4.5152 12.4404 4.5152C16.8864 4.5152 20.3447 7.72247 20.3447 11.5085C20.3447 15.2945 16.8864 18.5018 12.4404 18.5018C12.0023 18.5018 11.573 18.4703 11.1551 18.4098C10.9159 18.3752 10.6719 18.4427 10.4835 18.6006C10.3578 18.7061 9.38248 19.4831 7.48848 19.8316C7.68026 19.5886 7.8679 19.3215 8.01749 19.0472C8.17589 18.7567 8.32214 18.4033 8.34533 18.0297C8.36671 17.6851 8.17941 17.4042 7.94268 17.2589C5.85991 15.9803 4.53613 13.8653 4.53613 11.5085Z" />
</g>
</g>
</svg>
