<svg viewBox="0 0 22 22" fill="none" xmlns="http://www.w3.org/2000/svg">
<path d="M11 22C17.0751 22 22 17.0751 22 11C22 4.92487 17.0751 0 11 0C4.92487 0 0 4.92487 0 11C0 17.0751 4.92487 22 11 22ZM15.8295 8.47605L10.0795 15.4761C9.93883 15.6474 9.72954 15.7476 9.50786 15.75C9.28618 15.7523 9.07483 15.6564 8.93056 15.4881L5.93056 11.9881C5.66099 11.6736 5.69741 11.2001 6.01191 10.9306C6.3264 10.661 6.79988 10.6974 7.06944 11.0119L9.48778 13.8333L14.6705 7.52395C14.9334 7.20387 15.406 7.15754 15.7261 7.42046C16.0461 7.68337 16.0925 8.15598 15.8295 8.47605Z" />
</svg>
