<svg width="20" height="20" viewBox="0 0 20 20" fill="none" xmlns="http://www.w3.org/2000/svg">
<g id="20 / Detach">
<g id="Icon">
<path d="M9.37401 3.24609C8.20074 3.24609 7.24962 4.19722 7.24962 5.37049V5.3722L6.17408 4.29666C6.62261 2.9595 7.88581 1.99609 9.37401 1.99609C11.2376 1.99609 12.7484 3.50686 12.7484 5.37049V10.871L11.4984 9.62099V5.37049C11.4984 4.19722 10.5473 3.24609 9.37401 3.24609Z" />
<path d="M5.99962 7.65658L3.68306 5.34001C3.43898 5.09594 3.43898 4.70021 3.68306 4.45613C3.92714 4.21205 4.32286 4.21205 4.56694 4.45613L17.0477 16.9369C17.2918 17.181 17.2918 17.5767 17.0477 17.8208C16.8036 18.0648 16.4079 18.0648 16.1638 17.8208L14.5059 16.1628C13.6368 17.283 12.2777 18.0039 10.7502 18.0039C8.12653 18.0039 5.99962 15.877 5.99962 13.2533V7.65658ZM13.6124 15.2693L12.4294 14.0864C12.0736 14.6368 11.4544 15.0011 10.7502 15.0011C9.64666 15.0011 8.75204 14.1065 8.75204 13.0029V10.409L7.24962 8.90658V13.2533C7.24962 15.1866 8.81689 16.7539 10.7502 16.7539C11.9329 16.7539 12.9786 16.1674 13.6124 15.2693ZM11.4854 13.1424L10.002 11.659V13.0029C10.002 13.4161 10.337 13.7511 10.7502 13.7511C11.1158 13.7511 11.4201 13.4889 11.4854 13.1424Z" />
<path d="M8.75204 5.375V6.87462L10.002 8.12462V5.375C10.002 5.02982 9.72222 4.75 9.37704 4.75C9.03186 4.75 8.75204 5.02982 8.75204 5.375Z" />
<path d="M15.4876 13.6102L14.2508 12.3734V6.62109C14.2508 6.27592 14.5306 5.99609 14.8758 5.99609C15.221 5.99609 15.5008 6.27592 15.5008 6.62109V13.2533C15.5008 13.3734 15.4963 13.4924 15.4876 13.6102Z" />
</g>
</g>
</svg>
