<svg width="16" height="16" viewBox="0 0 16 16" fill="none" xmlns="http://www.w3.org/2000/svg">
<path d="M3.38128 3.38128C3.72299 3.03957 4.27701 3.03957 4.61872 3.38128L8 6.76257L11.3813 3.38128C11.723 3.03957 12.277 3.03957 12.6187 3.38128C12.9604 3.72299 12.9604 4.27701 12.6187 4.61872L9.23744 8L12.6187 11.3813C12.9604 11.723 12.9604 12.277 12.6187 12.6187C12.277 12.9604 11.723 12.9604 11.3813 12.6187L8 9.23744L4.61872 12.6187C4.27701 12.9604 3.72299 12.9604 3.38128 12.6187C3.03957 12.277 3.03957 11.723 3.38128 11.3813L6.76257 8L3.38128 4.61872C3.03957 4.27701 3.03957 3.72299 3.38128 3.38128Z" />
</svg>
