<svg width="20" height="20" viewBox="0 0 20 20" fill="none" xmlns="http://www.w3.org/2000/svg">
<g id="Icon">
<path id="Icon_2" d="M4.14844 2.58339C4.78553 2.26275 5.69689 2 6.9999 2C8.58791 2 9.54626 2.73731 10.3557 3.36003C11.1564 3.97601 11.9512 4.5 12.9999 4.5C14.1547 4.5 14.89 4.26192 15.3329 4.03271C15.5266 3.93248 15.7585 3.94046 15.9449 4.05378C16.1312 4.16709 16.245 4.36935 16.2452 4.58744L16.2498 12.5815C16.25 12.8145 16.1204 13.0283 15.9137 13.136C15.2738 13.4696 14.3395 13.7472 12.9999 13.7472C11.6786 13.7472 10.6338 13.1483 9.61901 12.3676C8.80871 11.7443 8.14523 11.2472 6.9999 11.2472C6.09689 11.2472 5.45617 11.3918 5.00781 11.5646V17.3797C5.00781 17.7249 4.72799 18.0047 4.38281 18.0047C4.03763 18.0047 3.75781 17.7249 3.75781 17.3797V3.16296C3.75781 2.90067 3.91939 2.67611 4.14844 2.58339ZM5.00781 3.5684V10.2486C5.54176 10.0969 6.19708 9.99719 6.9999 9.99719C8.58791 9.99719 9.54626 10.7345 10.3557 11.3572C11.1564 11.9732 11.9512 12.4972 12.9999 12.4972C13.9054 12.4972 14.55 12.3519 14.9996 12.1787L14.9957 5.49833C14.4593 5.65004 13.8013 5.75 12.9999 5.75C11.6786 5.75 10.6339 5.1511 9.61901 4.3704C8.80871 3.74714 8.14523 3.25 6.9999 3.25C6.09526 3.25 5.45563 3.39514 5.00781 3.5684Z" />
</g>
</svg>
