<svg width="16" height="16" viewBox="0 0 16 16" fill="none" xmlns="http://www.w3.org/2000/svg">
<g id="Flag">
<path id="Icon" d="M12.9996 9.85452C12.9999 9.8475 13 9.84044 13 9.83334V4.1614C13 4.15526 12.9999 4.14914 12.9997 4.14305C13.0033 4.05431 12.9834 3.96348 12.9371 3.88016C12.803 3.63877 12.4986 3.5518 12.2572 3.6859C11.2114 4.26689 10.4972 4.31868 9.94685 4.18415C9.36463 4.04183 8.88431 3.67734 8.30697 3.2283L8.27433 3.20291C7.73372 2.78225 7.09831 2.28784 6.2906 2.0904C5.43468 1.88118 4.4614 2.01689 3.25718 2.6859C3.08661 2.78066 2.99314 2.96045 3.00029 3.14296L3 3.16018V8.8689C2.99988 8.87525 2.99988 8.88161 3 8.88797V13.5C3 13.7762 3.22386 14 3.5 14C3.77614 14 4 13.7762 4 13.5V9.17938C4.90769 8.72668 5.54915 8.69361 6.05315 8.81681C6.63537 8.95913 7.11569 9.32362 7.69303 9.77266L7.72567 9.79805C8.26628 10.2187 8.90168 10.7131 9.7094 10.9106C10.5653 11.1198 11.5386 10.9841 12.7428 10.3151C12.9145 10.2197 13.008 10.0382 12.9996 9.85452ZM6.05315 3.0618C6.63537 3.20412 7.11569 3.56861 7.69303 4.01765L7.72567 4.04305C8.26628 4.4637 8.90168 4.95811 9.7094 5.15555C10.3821 5.31998 11.1272 5.27137 12 4.91827V9.5766C11.0923 10.0293 10.4509 10.0624 9.94685 9.93916C9.36463 9.79684 8.88431 9.43235 8.30697 8.98331L8.27433 8.95792C7.73372 8.53726 7.09831 8.04285 6.2906 7.84541C5.61793 7.68098 4.87278 7.7296 4 8.08269V3.42437C4.90769 2.97167 5.54915 2.9386 6.05315 3.0618Z" />
</g>
</svg>
