<svg width="20" height="20" viewBox="0 0 20 20" fill="none" xmlns="http://www.w3.org/2000/svg">
<path d="M10 3C7.48247 3 5.27472 4.32859 4.04051 6.32586C4.0054 6.38267 3.97108 6.44002 3.93757 6.49789H5.38C5.72518 6.49789 6.005 6.77772 6.005 7.12289C6.005 7.46807 5.72518 7.74789 5.38 7.74789H2.38C2.03482 7.74789 1.755 7.46807 1.755 7.12289V4.1214C1.755 3.77622 2.03482 3.4964 2.38 3.4964C2.72518 3.4964 3.005 3.77622 3.005 4.1214V5.62402C4.46267 3.2985 7.05024 1.75 10 1.75C14.5563 1.75 18.25 5.44365 18.25 10C18.25 14.5563 14.5563 18.25 10 18.25C5.44365 18.25 1.75 14.5563 1.75 10C1.75 9.65482 2.02982 9.375 2.375 9.375C2.72018 9.375 3 9.65482 3 10C3 13.866 6.13401 17 10 17C13.866 17 17 13.866 17 10C17 6.13401 13.866 3 10 3Z" />
<path d="M9.62 5.99499C9.96518 5.99499 10.245 6.27482 10.245 6.61999V9.75839H12.3813C12.7265 9.75839 13.0063 10.0382 13.0063 10.3834C13.0063 10.7286 12.7265 11.0084 12.3813 11.0084H9.62C9.27482 11.0084 8.995 10.7286 8.995 10.3834V6.61999C8.995 6.27482 9.27482 5.99499 9.62 5.99499Z" />
</svg>
