<svg width="24" height="24" viewBox="0 0 24 24" fill="none" xmlns="http://www.w3.org/2000/svg">
<g id="Plus Circle Filled">
<path id="Icon" d="M23 12C23 18.0751 18.0751 23 12 23C5.92487 23 1 18.0751 1 12C1 5.92487 5.92487 1 12 1C18.0751 1 23 5.92487 23 12ZM10.75 7.25V10.75H7.25C6.55964 10.75 6 11.3096 6 12C6 12.6904 6.55964 13.25 7.25 13.25H10.75V16.75C10.75 17.4404 11.3096 18 12 18C12.6904 18 13.25 17.4404 13.25 16.75V13.25H16.75C17.4404 13.25 18 12.6904 18 12C18 11.3096 17.4404 10.75 16.75 10.75H13.25V7.25C13.25 6.55964 12.6904 6 12 6C11.3096 6 10.75 6.55964 10.75 7.25Z" fill="black"/>
</g>
</svg>
