<svg width="16" height="16" viewBox="0 0 16 16" fill="none" xmlns="http://www.w3.org/2000/svg">
<g id="Pro">
<path id="Icon BG" d="M0 8C0 5.19974 0 3.79961 0.544967 2.73005C1.02433 1.78924 1.78924 1.02433 2.73005 0.544967C3.79961 0 5.19974 0 8 0C10.8003 0 12.2004 0 13.27 0.544967C14.2108 1.02433 14.9757 1.78924 15.455 2.73005C16 3.79961 16 5.19974 16 8C16 10.8003 16 12.2004 15.455 13.27C14.9757 14.2108 14.2108 14.9757 13.27 15.455C12.2004 16 10.8003 16 8 16C5.19974 16 3.79961 16 2.73005 15.455C1.78924 14.9757 1.02433 14.2108 0.544967 13.27C0 12.2004 0 10.8003 0 8Z" fill="url(#paint0_radial_2621_12924)"/>
<path id="Icon FG" d="M7.66159 2.992C7.77312 2.66933 8.22688 2.66933 8.33841 2.992L9.40389 6.07464L12.6484 6.14114C12.988 6.1481 13.1282 6.58209 12.8575 6.78847L10.2715 8.76014L11.2113 11.8839C11.3096 12.2108 10.9425 12.4791 10.6637 12.284L8 10.4199L5.33628 12.284C5.05746 12.4791 4.69036 12.2108 4.78873 11.8839L5.72845 8.76014L3.14246 6.78847C2.87178 6.58209 3.01199 6.1481 3.3516 6.14114L6.59611 6.07464L7.66159 2.992Z" fill="white"/>
</g>
<defs>
<radialGradient id="paint0_radial_2621_12924" cx="0" cy="0" r="1" gradientUnits="userSpaceOnUse" gradientTransform="translate(-9.93411e-07 16) rotate(-42.7094) scale(23.5891)">
<stop stop-color="#40A3E7"/>
<stop offset="1" stop-color="#BC56D7"/>
</radialGradient>
</defs>
</svg>
