<svg width="24" height="24" viewBox="0 0 24 24" fill="none" xmlns="http://www.w3.org/2000/svg">
<path d="M12.1775 4.4332C12.4215 4.18905 12.8172 4.18891 13.0614 4.43291L15.8151 7.1848C16.059 7.42855 16.0594 7.82379 15.816 8.06805L13.0623 10.8315C12.8187 11.076 12.4229 11.0767 12.1784 10.8331C11.9339 10.5894 11.9332 10.1937 12.1769 9.94917L13.8682 8.25188H9.00626C6.93253 8.25188 5.25 9.93546 5.25 12.014C5.25 13.2959 5.88953 14.4281 6.86887 15.1082C7.15238 15.3051 7.2226 15.6946 7.02571 15.9781C6.82881 16.2616 6.43936 16.3318 6.15585 16.1349C4.85418 15.2309 4 13.7223 4 12.014C4 9.24669 6.24059 7.00188 9.00626 7.00188H13.8637L12.1778 5.31709C11.9336 5.07309 11.9335 4.67736 12.1775 4.4332Z" />
<path d="M11.8258 19.5668C11.5818 19.811 11.186 19.8111 10.9419 19.5671L8.18816 16.8152C7.94425 16.5715 7.94383 16.1762 8.18724 15.932L10.9409 13.1685C11.1846 12.924 11.5803 12.9233 11.8248 13.1669C12.0693 13.4106 12.07 13.8063 11.8264 14.0508L10.1351 15.7481L14.997 15.7481C17.0707 15.7481 18.7533 14.0645 18.7533 11.986C18.7533 10.7041 18.1137 9.5719 17.1344 8.89178C16.8509 8.69488 16.7807 8.30544 16.9776 8.02192C17.1745 7.73841 17.5639 7.66819 17.8474 7.86508C19.1491 8.76906 20.0033 10.2777 20.0033 11.986C20.0033 14.7533 17.7627 16.9981 14.997 16.9981H10.1396L11.8255 18.6829C12.0696 18.9269 12.0698 19.3226 11.8258 19.5668Z" />
</svg>
