<svg width="16" height="16" viewBox="0 0 16 16" fill="none" xmlns="http://www.w3.org/2000/svg">
<path fill-rule="evenodd" clip-rule="evenodd" d="M8.45368 3.15018C8.1871 2.95007 7.82043 2.94993 7.55368 3.14982L3.55029 6.14982C3.21882 6.39821 3.15147 6.86828 3.39986 7.19976C3.64825 7.53123 4.11833 7.59858 4.4498 7.35018L8.00306 4.6875L11.5498 7.34982C11.8811 7.59848 12.3512 7.53151 12.5999 7.20024C12.8485 6.86897 12.7816 6.39885 12.4503 6.15018L8.45368 3.15018ZM8.45351 13.8482C8.187 14.0481 7.82053 14.0483 7.55385 13.8485L3.55046 10.8503C3.21892 10.602 3.15143 10.132 3.39973 9.80041C3.64803 9.46887 4.11809 9.40139 4.44963 9.64969L8.00306 12.3109L11.55 9.65006C11.8813 9.40149 12.3514 9.46859 12.6 9.79993C12.8486 10.1313 12.7815 10.6014 12.4501 10.8499L8.45351 13.8482Z" />
</svg>
