<svg width="20" height="20" viewBox="0 0 20 20" fill="none" xmlns="http://www.w3.org/2000/svg">
<g id="20 / Reporter">
<g id="Icon">
<path d="M10 2.01752C8.07 2.01752 6.50543 3.58209 6.50543 5.51208C6.50543 7.44208 8.07 9.00665 10 9.00665C11.93 9.00665 13.4946 7.44208 13.4946 5.51208C13.4946 3.58209 11.93 2.01752 10 2.01752ZM7.75543 5.51208C7.75543 4.27244 8.76036 3.26752 10 3.26752C11.2396 3.26752 12.2446 4.27244 12.2446 5.51208C12.2446 6.75172 11.2396 7.75665 10 7.75665C8.76036 7.75665 7.75543 6.75172 7.75543 5.51208Z" />
<path d="M7.18797 10.5C5.93623 10.5 5.0513 10.9569 4.48963 11.6233C3.9462 12.2682 3.75095 13.0543 3.75095 13.665C3.75095 14.9654 4.55097 16.063 5.67941 16.8063C6.81293 17.5529 8.34227 17.9943 9.99998 17.9943C11.6577 17.9943 13.187 17.5529 14.3206 16.8063C15.449 16.063 16.249 14.9654 16.249 13.665C16.249 13.0541 16.0535 12.268 15.51 11.6233C14.9483 10.957 14.0634 10.5001 12.812 10.5001M5.00095 13.665C5.00095 13.292 5.12582 12.8082 5.44546 12.4289C5.74685 12.0713 6.26793 11.75 7.18797 11.75L12.812 11.7501C13.7316 11.7501 14.2527 12.0713 14.5543 12.429C14.874 12.8083 14.999 13.2922 14.999 13.665C14.999 14.4103 14.54 15.1649 13.633 15.7623C12.731 16.3564 11.4483 16.7443 9.99998 16.7443C8.55162 16.7443 7.26895 16.3564 6.36698 15.7623C5.45992 15.1649 5.00095 14.4103 5.00095 13.665Z" />
</g>
</g>
</svg>
